<svg width="14" height="14" viewBox="0 0 14 14" fill="none" xmlns="http://www.w3.org/2000/svg">
<path d="M13.7266 6.73376C13.7064 6.68947 13.2273 5.62579 12.1691 4.56759C10.7532 3.15392 8.96878 2.40634 7.00003 2.40634C5.03128 2.40634 3.24683 3.15392 1.83261 4.56759C0.774406 5.62579 0.295344 6.68947 0.273469 6.73376C0.23642 6.81776 0.217285 6.90856 0.217285 7.00037C0.217285 7.09217 0.23642 7.18297 0.273469 7.26697C0.293703 7.31181 0.772766 8.37494 1.83152 9.43314C3.24683 10.8468 5.03128 11.5938 7.00003 11.5938C8.96878 11.5938 10.7532 10.8468 12.1669 9.43314C13.2257 8.37494 13.7047 7.31181 13.725 7.26697C13.7623 7.18308 13.7817 7.09234 13.782 7.00054C13.7822 6.90873 13.7634 6.81788 13.7266 6.73376ZM11.2077 8.53845C10.0335 9.69454 8.61823 10.2813 7.00003 10.2813C5.38183 10.2813 3.96652 9.69454 2.79402 8.5379C2.33264 8.08139 1.93577 7.564 1.61441 7.00009C1.93587 6.43641 2.33273 5.91921 2.79402 5.46283C3.96706 4.30564 5.38183 3.71884 7.00003 3.71884C8.61823 3.71884 10.033 4.30564 11.206 5.46283C11.6674 5.91917 12.0642 6.43637 12.3857 7.00009C12.0642 7.56397 11.6674 8.08135 11.206 8.5379L11.2077 8.53845ZM7.00003 4.59384C6.52412 4.59384 6.0589 4.73497 5.66319 4.99937C5.26749 5.26377 4.95907 5.63957 4.77695 6.07926C4.59482 6.51894 4.54717 7.00276 4.64002 7.46953C4.73286 7.93629 4.96204 8.36505 5.29856 8.70157C5.63508 9.03809 6.06383 9.26726 6.5306 9.36011C6.99736 9.45295 7.48118 9.4053 7.92086 9.22318C8.36055 9.04105 8.73635 8.73264 9.00075 8.33693C9.26516 7.94123 9.40628 7.476 9.40628 7.00009C9.40556 6.36214 9.15181 5.75052 8.70071 5.29942C8.24961 4.84831 7.63799 4.59457 7.00003 4.59384ZM7.00003 8.09384C6.78371 8.09384 6.57224 8.02969 6.39238 7.90951C6.21251 7.78933 6.07232 7.61851 5.98954 7.41865C5.90676 7.2188 5.8851 6.99888 5.9273 6.78671C5.9695 6.57454 6.07367 6.37966 6.22663 6.22669C6.3796 6.07373 6.57448 5.96956 6.78665 5.92736C6.99882 5.88515 7.21873 5.90681 7.41859 5.9896C7.61845 6.07238 7.78927 6.21257 7.90945 6.39244C8.02963 6.5723 8.09378 6.78377 8.09378 7.00009C8.09378 7.29017 7.97855 7.56837 7.77343 7.77349C7.56831 7.97861 7.29011 8.09384 7.00003 8.09384Z" fill="#488253"/>
</svg>
