<svg width="24" height="24" viewBox="0 0 24 24" fill="none" xmlns="http://www.w3.org/2000/svg">
<path d="M20.0306 7.71947L14.7806 2.46947C14.7109 2.39984 14.6282 2.34463 14.5371 2.30699C14.4461 2.26935 14.3485 2.25001 14.25 2.25009H5.25C4.85218 2.25009 4.47064 2.40813 4.18934 2.68943C3.90804 2.97074 3.75 3.35227 3.75 3.75009V20.2501C3.75 20.6479 3.90804 21.0294 4.18934 21.3108C4.47064 21.5921 4.85218 21.7501 5.25 21.7501H18.75C19.1478 21.7501 19.5294 21.5921 19.8107 21.3108C20.092 21.0294 20.25 20.6479 20.25 20.2501V8.25009C20.2501 8.15157 20.2307 8.054 20.1931 7.96295C20.1555 7.87191 20.1003 7.78917 20.0306 7.71947ZM15 16.5001H9C8.80109 16.5001 8.61032 16.4211 8.46967 16.2804C8.32902 16.1398 8.25 15.949 8.25 15.7501C8.25 15.5512 8.32902 15.3604 8.46967 15.2198C8.61032 15.0791 8.80109 15.0001 9 15.0001H15C15.1989 15.0001 15.3897 15.0791 15.5303 15.2198C15.671 15.3604 15.75 15.5512 15.75 15.7501C15.75 15.949 15.671 16.1398 15.5303 16.2804C15.3897 16.4211 15.1989 16.5001 15 16.5001ZM15 13.5001H9C8.80109 13.5001 8.61032 13.4211 8.46967 13.2804C8.32902 13.1398 8.25 12.949 8.25 12.7501C8.25 12.5512 8.32902 12.3604 8.46967 12.2198C8.61032 12.0791 8.80109 12.0001 9 12.0001H15C15.1989 12.0001 15.3897 12.0791 15.5303 12.2198C15.671 12.3604 15.75 12.5512 15.75 12.7501C15.75 12.949 15.671 13.1398 15.5303 13.2804C15.3897 13.4211 15.1989 13.5001 15 13.5001ZM14.25 8.25009V4.12509L18.375 8.25009H14.25Z" fill="#488253"/>
</svg>
