<svg width="35" height="35" viewBox="0 0 35 35" fill="none" xmlns="http://www.w3.org/2000/svg">
<path d="M30.7845 25.6313C32.2859 23.1852 33.0788 20.3703 33.0748 17.5003V17.4997C33.0788 14.6296 32.2859 11.8147 30.7845 9.36862L30.7759 9.35527C29.383 7.08495 27.4311 5.20978 25.1068 3.90892C22.7825 2.60807 20.1634 1.925 17.4999 1.92499C14.8363 1.92498 12.2172 2.60802 9.8929 3.90886C7.56858 5.20969 5.61669 7.08485 4.22373 9.35516L4.21508 9.36868C2.71738 11.8165 1.92482 14.6303 1.9248 17.4999C1.92479 20.3696 2.71733 23.1834 4.21502 25.6312L4.22381 25.6449C5.61678 27.9152 7.56866 29.7903 9.89296 31.0911C12.2173 32.3919 14.8363 33.075 17.4999 33.075C20.1634 33.075 22.7825 32.3919 25.1067 31.0911C27.431 29.7902 29.3829 27.9151 30.7758 25.6448L30.7845 25.6313ZM19.4906 30.4056C19.1939 30.692 18.8523 30.9279 18.4794 31.1041C18.1733 31.2495 17.8387 31.325 17.4998 31.325C17.1609 31.325 16.8263 31.2495 16.5202 31.1041C15.8106 30.7416 15.2032 30.2071 14.7534 29.5493C13.8349 28.222 13.1542 26.7451 12.7417 25.1845C14.3262 25.087 15.9122 25.0374 17.4998 25.0356C19.0868 25.0356 20.6729 25.0852 22.2581 25.1846C22.0298 25.9869 21.7447 26.772 21.4048 27.5338C20.9573 28.6053 20.3074 29.5803 19.4906 30.4056ZM3.70525 18.375H9.9874C10.0283 20.1279 10.2183 21.8742 10.5554 23.5949C8.83807 23.7461 7.12516 23.9536 5.41664 24.2176C4.41616 22.4227 3.83133 20.4261 3.70525 18.375ZM5.41663 10.7824C7.12448 11.047 8.83799 11.2546 10.5572 11.4052C10.2194 13.1258 10.029 14.872 9.98796 16.625H3.70525C3.83132 14.5739 4.41616 12.5773 5.41663 10.7824ZM15.5089 4.59431C15.8057 4.30794 16.1473 4.07201 16.5202 3.89585C16.8263 3.75042 17.1609 3.67497 17.4998 3.67497C17.8387 3.67497 18.1733 3.75042 18.4794 3.89585C19.189 4.25832 19.7964 4.79288 20.2462 5.45066C21.1647 6.77795 21.8454 8.25486 22.2578 9.81539C20.6734 9.91289 19.0874 9.96255 17.4998 9.96439C15.9128 9.96437 14.3267 9.9147 12.7415 9.81537C12.9698 9.01302 13.2549 8.22794 13.5948 7.46611C14.0423 6.39469 14.6922 5.41962 15.5089 4.59431ZM31.2944 16.625H25.0122C24.9713 14.872 24.7813 13.1257 24.4442 11.405C26.1616 11.2539 27.8745 11.0463 29.583 10.7823C30.5835 12.5773 31.1683 14.5739 31.2944 16.625ZM12.3155 23.4589C11.9732 21.7846 11.7799 20.0834 11.7379 18.375H23.2619C23.2202 20.0833 23.0273 21.7846 22.6854 23.459C20.9587 23.3456 19.2302 23.2879 17.4998 23.2856C15.7706 23.2856 14.0425 23.3433 12.3155 23.4589ZM22.6841 11.541C23.0264 13.2153 23.2196 14.9166 23.2617 16.625H11.7377C11.7794 14.9166 11.9723 13.2153 12.3142 11.541C14.0408 11.6543 15.7694 11.7121 17.4998 11.7144C19.229 11.7144 20.9571 11.6566 22.6841 11.541ZM25.0116 18.375H31.2944C31.1683 20.4261 30.5834 22.4227 29.583 24.2176C27.8751 23.9529 26.1616 23.7453 24.4424 23.5948C24.7802 21.8742 24.9706 20.1279 25.0116 18.375ZM28.5337 9.17166C27.0405 9.38709 25.5428 9.55766 24.0406 9.68336C23.7707 8.67819 23.4225 7.69568 22.9992 6.74482C22.6128 5.86981 22.1266 5.04237 21.5503 4.27897C24.3355 5.13316 26.7797 6.84556 28.5337 9.17166ZM7.72401 7.72419C9.32173 6.12495 11.2874 4.94205 13.4486 4.27918C13.4158 4.32165 13.3821 4.36223 13.3497 4.40558C12.2389 6.00472 11.4297 7.79347 10.9622 9.68363C9.45992 9.55639 7.96117 9.38574 6.4659 9.17166C6.85154 8.66086 7.27191 8.17722 7.72401 7.72419ZM6.4659 25.8283C7.9591 25.6128 9.45678 25.4423 10.9589 25.3166C11.2289 26.3218 11.5771 27.3043 12.0004 28.2551C12.3868 29.1301 12.873 29.9576 13.4493 30.721C10.664 29.8668 8.21991 28.1544 6.4659 25.8283ZM27.2756 27.2758C25.6779 28.875 23.7122 30.0579 21.551 30.7208C21.5838 30.6783 21.6175 30.6377 21.6499 30.5944C22.7607 28.9952 23.5699 27.2065 24.0375 25.3163C25.5397 25.4436 27.0384 25.6142 28.5337 25.8283C28.1481 26.3391 27.7277 26.8227 27.2756 27.2758Z" fill="#488253"/>
</svg>
