<svg width="60" height="60" viewBox="0 0 60 60" fill="none" xmlns="http://www.w3.org/2000/svg">
<path d="M15 0C12.9375 0 11.25 1.6875 11.25 3.75V56.25C11.25 58.3125 12.9375 60 15 60H52.5C54.5625 60 56.25 58.3125 56.25 56.25V15L41.25 0H15Z" fill="#E2E5E7"/>
<path d="M45 15H56.25L41.25 0V11.25C41.25 13.3125 42.9375 15 45 15Z" fill="#B0B7BD"/>
<path d="M56.25 26.25L45 15H56.25V26.25Z" fill="#CAD1D8"/>
<path d="M48.75 48.75C48.75 49.7812 47.9062 50.625 46.875 50.625H5.625C4.59375 50.625 3.75 49.7812 3.75 48.75V30C3.75 28.9688 4.59375 28.125 5.625 28.125H46.875C47.9062 28.125 48.75 28.9688 48.75 30V48.75Z" fill="#F15642"/>
<path d="M11.9231 35.5256C11.9231 35.0306 12.3131 34.4906 12.9412 34.4906H16.4043C18.3543 34.4906 20.1093 35.7956 20.1093 38.2969C20.1093 40.6669 18.3543 41.9869 16.4043 41.9869H13.9012V43.9669C13.9012 44.6269 13.4812 45 12.9412 45C12.4462 45 11.9231 44.6269 11.9231 43.9669V35.5256ZM13.9012 36.3788V40.1137H16.4043C17.4093 40.1137 18.2043 39.2269 18.2043 38.2969C18.2043 37.2488 17.4093 36.3788 16.4043 36.3788H13.9012Z" fill="white"/>
<path d="M23.0456 45C22.5506 45 22.0106 44.73 22.0106 44.0719V35.5556C22.0106 35.0175 22.5506 34.6256 23.0456 34.6256H26.4787C33.33 34.6256 33.18 45 26.6137 45H23.0456ZM23.9906 36.4556V43.1719H26.4787C30.5269 43.1719 30.7069 36.4556 26.4787 36.4556H23.9906Z" fill="white"/>
<path d="M35.6099 36.5756V38.9587H39.4331C39.9731 38.9587 40.5131 39.4987 40.5131 40.0219C40.5131 40.5169 39.9731 40.9219 39.4331 40.9219H35.6099V44.07C35.6099 44.595 35.2368 44.9981 34.7118 44.9981C34.0518 44.9981 33.6487 44.595 33.6487 44.07V35.5537C33.6487 35.0156 34.0537 34.6237 34.7118 34.6237H39.9749C40.6349 34.6237 41.0249 35.0156 41.0249 35.5537C41.0249 36.0337 40.6349 36.5738 39.9749 36.5738H35.6099V36.5756Z" fill="white"/>
<path d="M46.875 50.625H11.25V52.5H46.875C47.9062 52.5 48.75 51.6562 48.75 50.625V48.75C48.75 49.7812 47.9062 50.625 46.875 50.625Z" fill="#CAD1D8"/>
</svg>
