<svg width="22" height="22" viewBox="0 0 22 22" fill="none" xmlns="http://www.w3.org/2000/svg">
<g clip-path="url(#clip0_1177_11924)">
<path d="M15.5549 1.31884V0.644747C15.5549 0.288793 15.2663 0.000213623 14.9104 0.000213623C14.5544 0.000213623 14.2658 0.288793 14.2658 0.644747V1.31889C10.6575 1.64562 7.82066 4.68696 7.82066 8.37898C7.82066 8.61668 7.9515 8.8351 8.16106 8.94724C8.37062 9.05939 8.62491 9.0471 8.82269 8.91528C9.78009 8.27702 11.0174 8.27702 11.9748 8.91528C12.1672 9.04354 12.4137 9.05892 12.6205 8.95549C13.7112 8.41009 13.8545 8.31607 14.2658 8.22103V15.5116H12.9768V14.8671C12.9768 13.801 12.1094 12.9336 11.0432 12.9336H4.83428L3.4808 11.1289C2.84177 10.2763 1.62755 10.1029 0.774101 10.7422C-0.0812379 11.3831 -0.253973 12.5943 0.387467 13.4493L4.25411 18.6048C4.42272 18.8301 4.63834 19.0126 4.88141 19.144L3.93378 21.0708C3.77668 21.3902 3.9083 21.7765 4.22773 21.9336C4.5475 22.0908 4.93358 21.9587 5.0905 21.6396L6.20241 19.3786H18.3762L19.4881 21.6396C19.6451 21.959 20.0314 22.0907 20.3509 21.9336C20.6703 21.7765 20.8019 21.3902 20.6448 21.0708L19.6978 19.1453C20.3008 18.8175 20.711 18.1783 20.711 17.4452C20.711 16.379 19.8436 15.5116 18.7774 15.5116H15.5549V8.22094C16.3435 8.40313 17.098 9.02343 17.4884 9.02343C17.6135 9.02343 17.7382 8.98699 17.8459 8.91519C18.8033 8.27693 20.0406 8.27693 20.998 8.91519C21.1958 9.04702 21.4501 9.05927 21.6596 8.94716C21.8692 8.83501 22 8.6166 22 8.37889C22.0001 4.68692 19.1632 1.64558 15.5549 1.31884ZM11.6935 7.35593C10.8865 7.08837 10.0179 7.07754 9.20593 7.32353C9.56387 5.38448 10.8895 3.78023 12.6614 3.0321C12.0045 4.29814 11.7324 5.93186 11.6935 7.35593ZM11.0433 14.2226C11.3987 14.2226 11.6878 14.5117 11.6878 14.8671V15.5116H6.76796L5.80116 14.2226H11.0433V14.2226ZM18.7774 16.8006C19.1328 16.8006 19.422 17.0898 19.422 17.4452C19.422 17.8006 19.1329 18.0897 18.7775 18.0897H5.80121C5.59921 18.0897 5.40671 17.9936 5.28584 17.832L1.41864 12.6758C1.20607 12.3925 1.26042 11.9885 1.54694 11.7739C1.83178 11.5605 2.23651 11.6181 2.44942 11.9023L6.12339 16.8007H18.7774V16.8006ZM12.9838 7.33256C13.0768 4.38927 14.1485 2.57831 14.9104 2.57831C15.6723 2.57831 16.7439 4.3891 16.8369 7.33256C15.5306 6.67952 14.1989 6.72511 12.9838 7.33256ZM18.1272 7.35593C18.0883 5.93263 17.816 4.29784 17.1594 3.0321C18.9313 3.78028 20.2569 5.38452 20.6148 7.32353C19.8028 7.07754 18.9341 7.08837 18.1272 7.35593Z" fill="#488253"/>
</g>
<defs>
<clipPath id="clip0_1177_11924">
<rect width="22" height="22" fill="white"/>
</clipPath>
</defs>
</svg>
