<svg width="20" height="17" viewBox="0 0 20 17" fill="none" xmlns="http://www.w3.org/2000/svg">
<path d="M19.7143 8.14189C19.7143 8.45033 19.5897 8.74614 19.3678 8.96424C19.146 9.18234 18.8452 9.30487 18.5315 9.30487L4.04217 9.30487L9.12033 14.2969C9.34253 14.5154 9.46736 14.8117 9.46736 15.1207C9.46736 15.4297 9.34253 15.726 9.12033 15.9445C8.89812 16.163 8.59675 16.2857 8.28251 16.2857C7.96827 16.2857 7.66689 16.163 7.44469 15.9445L0.347888 8.96663C0.237619 8.85859 0.150127 8.73021 0.0904285 8.58884C0.0307302 8.44748 0 8.29592 0 8.14286C0 7.9898 0.0307302 7.83824 0.0904285 7.69688C0.150127 7.55551 0.237619 7.42713 0.347888 7.31908L7.44469 0.341219C7.55472 0.233039 7.68533 0.147226 7.82909 0.0886797C7.97284 0.0301332 8.12691 0 8.28251 0C8.43811 0 8.59218 0.0301332 8.73593 0.0886797C8.87969 0.147226 9.0103 0.233039 9.12033 0.341219C9.23035 0.449399 9.31763 0.577827 9.37717 0.71917C9.43672 0.860514 9.46736 1.01201 9.46736 1.16499C9.46736 1.31798 9.43672 1.46948 9.37717 1.61082C9.31763 1.75216 9.23035 1.88059 9.12033 1.98877L4.04217 6.97891L18.5315 6.97891C18.8452 6.97891 19.146 7.10144 19.3678 7.31954C19.5897 7.53764 19.7143 7.83345 19.7143 8.14189Z" fill="white"/>
</svg>
