<svg width="24" height="24" viewBox="0 0 24 24" fill="none" xmlns="http://www.w3.org/2000/svg">
<path fill-rule="evenodd" clip-rule="evenodd" d="M21.5842 12.4126C19.6476 15.8904 15.9748 18.0509 12.0012 18.0509C8.02497 18.0509 4.35227 15.8904 2.41558 12.4126C2.26643 12.1426 2.26643 11.8571 2.41558 11.5873C4.35227 8.10956 8.02497 5.94937 12.0012 5.94937C15.9748 5.94937 19.6475 8.10956 21.5842 11.5873C21.736 11.8571 21.736 12.1426 21.5842 12.4126ZM22.8213 10.8978C20.6352 6.9712 16.4892 4.53225 12.0012 4.53225C7.51057 4.53225 3.36461 6.9712 1.17846 10.8978C0.78752 11.5984 0.78752 12.4016 1.17846 13.1017C3.36461 17.0282 7.51057 19.4677 12.0012 19.4677C16.4892 19.4677 20.6352 17.0282 22.8213 13.1017C23.2123 12.4016 23.2123 11.5984 22.8213 10.8978ZM12.0012 14.9069C13.6035 14.9069 14.9075 13.6029 14.9075 11.9999C14.9075 10.3968 13.6035 9.09281 12.0012 9.09281C10.3963 9.09281 9.09232 10.3968 9.09232 11.9999C9.09232 13.6029 10.3963 14.9069 12.0012 14.9069ZM12.0012 7.67569C9.61441 7.67569 7.67519 9.6157 7.67519 11.9999C7.67519 14.3846 9.61446 16.3238 12.0012 16.3238C14.3854 16.3238 16.3246 14.3846 16.3246 11.9999C16.3246 9.6157 14.3854 7.67569 12.0012 7.67569Z" fill="#488253" stroke="#488253" stroke-width="0.5"/>
</svg>
