<svg width="36" height="36" viewBox="0 0 36 36" fill="none" xmlns="http://www.w3.org/2000/svg">
<g clip-path="url(#clip0_489_7212)">
<path d="M9.31153 2.19375C9.37794 2.22714 9.45031 2.24704 9.52446 2.25229C9.59861 2.25754 9.67306 2.24805 9.74352 2.22436C9.81397 2.20066 9.87903 2.16324 9.93494 2.11425C9.99084 2.06526 10.0365 2.00567 10.0692 1.93894L10.4731 1.125H25.5278L25.9345 1.93894C26.0012 2.07246 26.1182 2.17402 26.2598 2.22128C26.3299 2.24468 26.4039 2.25404 26.4776 2.24884C26.5513 2.24363 26.6233 2.22396 26.6894 2.19094C26.7555 2.15792 26.8145 2.1122 26.8629 2.05639C26.9114 2.00059 26.9483 1.93579 26.9717 1.86569C26.9951 1.79559 27.0045 1.72158 26.9993 1.64786C26.9941 1.57414 26.9744 1.50217 26.9414 1.43606L26.3789 0.311063C26.3322 0.217557 26.2603 0.13892 26.1714 0.0839753C26.0825 0.0290306 25.98 -4.86489e-05 25.8755 6.10943e-08H10.1255C10.0209 -4.86489e-05 9.91846 0.0290306 9.82954 0.0839753C9.74061 0.13892 9.66876 0.217557 9.62203 0.311063L9.05953 1.43606C9.02604 1.5023 9.00599 1.57452 9.00054 1.64854C8.99509 1.72257 9.00435 1.79694 9.02777 1.86738C9.0512 1.93781 9.08833 2.00291 9.13703 2.05892C9.18573 2.11494 9.24504 2.16076 9.31153 2.19375Z" fill="#488253"/>
<path d="M34.3125 32.625H1.6875C1.23995 32.625 0.810725 32.8028 0.494257 33.1193C0.17779 33.4357 0 33.8649 0 34.3125L0 35.4375C0 35.5867 0.0592632 35.7298 0.164752 35.8352C0.270242 35.9407 0.413316 36 0.5625 36H35.4375C35.5867 36 35.7298 35.9407 35.8352 35.8352C35.9407 35.7298 36 35.5867 36 35.4375V34.3125C36 33.8649 35.8222 33.4357 35.5057 33.1193C35.1893 32.8028 34.7601 32.625 34.3125 32.625ZM34.875 34.875H1.125V34.3125C1.125 34.1633 1.18426 34.0202 1.28975 33.9148C1.39524 33.8093 1.53832 33.75 1.6875 33.75H34.3125C34.4617 33.75 34.6048 33.8093 34.7102 33.9148C34.8157 34.0202 34.875 34.1633 34.875 34.3125V34.875Z" fill="#488253"/>
<path d="M21.9375 31.5C22.0867 31.5 22.2298 31.4407 22.3352 31.3352C22.4407 31.2298 22.5 31.0867 22.5 30.9375V23.0625C22.5 22.9133 22.4407 22.7702 22.3352 22.6648C22.2298 22.5593 22.0867 22.5 21.9375 22.5H14.0625C13.9133 22.5 13.7702 22.5593 13.6648 22.6648C13.5593 22.7702 13.5 22.9133 13.5 23.0625V30.9375C13.5 31.0867 13.5593 31.2298 13.6648 31.3352C13.7702 31.4407 13.9133 31.5 14.0625 31.5C14.2117 31.5 14.3548 31.4407 14.4602 31.3352C14.5657 31.2298 14.625 31.0867 14.625 30.9375V23.625H17.4375V30.9375C17.4375 31.0867 17.4968 31.2298 17.6023 31.3352C17.7077 31.4407 17.8508 31.5 18 31.5C18.1492 31.5 18.2923 31.4407 18.3977 31.3352C18.5032 31.2298 18.5625 31.0867 18.5625 30.9375V23.625H21.375V30.9375C21.375 31.0867 21.4343 31.2298 21.5398 31.3352C21.6452 31.4407 21.7883 31.5 21.9375 31.5Z" fill="#488253"/>
<path d="M6.75 6.75H7.875V30.9375C7.875 31.0867 7.93426 31.2298 8.03975 31.3352C8.14524 31.4407 8.28832 31.5 8.4375 31.5C8.58668 31.5 8.72976 31.4407 8.83525 31.3352C8.94074 31.2298 9 31.0867 9 30.9375V6.75H27V30.9375C27 31.0867 27.0593 31.2298 27.1648 31.3352C27.2702 31.4407 27.4133 31.5 27.5625 31.5C27.7117 31.5 27.8548 31.4407 27.9602 31.3352C28.0657 31.2298 28.125 31.0867 28.125 30.9375V6.75H29.25C29.3992 6.75 29.5423 6.69074 29.6477 6.58525C29.7532 6.47976 29.8125 6.33668 29.8125 6.1875V3.9375C29.8125 3.78832 29.7532 3.64524 29.6477 3.53975C29.5423 3.43426 29.3992 3.375 29.25 3.375H6.75C6.60082 3.375 6.45774 3.43426 6.35225 3.53975C6.24676 3.64524 6.1875 3.78832 6.1875 3.9375V6.1875C6.1875 6.33668 6.24676 6.47976 6.35225 6.58525C6.45774 6.69074 6.60082 6.75 6.75 6.75ZM7.3125 4.5H28.6875V5.625H7.3125V4.5Z" fill="#488253"/>
<path d="M0.5625 14.0625H1.125V30.9375C1.125 31.0867 1.18426 31.2298 1.28975 31.3352C1.39524 31.4407 1.53832 31.5 1.6875 31.5C1.83668 31.5 1.97976 31.4407 2.08525 31.3352C2.19074 31.2298 2.25 31.0867 2.25 30.9375V14.0625H6.1875C6.33668 14.0625 6.47976 14.0032 6.58525 13.8977C6.69074 13.7923 6.75 13.6492 6.75 13.5C6.75 13.3508 6.69074 13.2077 6.58525 13.1023C6.47976 12.9968 6.33668 12.9375 6.1875 12.9375H1.125V11.8125H6.1875C6.33668 11.8125 6.47976 11.7532 6.58525 11.6477C6.69074 11.5423 6.75 11.3992 6.75 11.25C6.75 11.1008 6.69074 10.9577 6.58525 10.8523C6.47976 10.7468 6.33668 10.6875 6.1875 10.6875H0.5625C0.413316 10.6875 0.270242 10.7468 0.164752 10.8523C0.0592632 10.9577 0 11.1008 0 11.25L0 13.5C0 13.6492 0.0592632 13.7923 0.164752 13.8977C0.270242 14.0032 0.413316 14.0625 0.5625 14.0625Z" fill="#488253"/>
<path d="M35.4375 10.6875H29.8125C29.6633 10.6875 29.5202 10.7468 29.4148 10.8523C29.3093 10.9577 29.25 11.1008 29.25 11.25C29.25 11.3992 29.3093 11.5423 29.4148 11.6477C29.5202 11.7532 29.6633 11.8125 29.8125 11.8125H34.875V12.9375H29.8125C29.6633 12.9375 29.5202 12.9968 29.4148 13.1023C29.3093 13.2077 29.25 13.3508 29.25 13.5C29.25 13.6492 29.3093 13.7923 29.4148 13.8977C29.5202 14.0032 29.6633 14.0625 29.8125 14.0625H33.75V30.9375C33.75 31.0867 33.8093 31.2298 33.9148 31.3352C34.0202 31.4407 34.1633 31.5 34.3125 31.5C34.4617 31.5 34.6048 31.4407 34.7102 31.3352C34.8157 31.2298 34.875 31.0867 34.875 30.9375V14.0625H35.4375C35.5867 14.0625 35.7298 14.0032 35.8352 13.8977C35.9407 13.7923 36 13.6492 36 13.5V11.25C36 11.1008 35.9407 10.9577 35.8352 10.8523C35.7298 10.7468 35.5867 10.6875 35.4375 10.6875Z" fill="#488253"/>
<path d="M10.6875 13.5H14.0625C14.2117 13.5 14.3548 13.4407 14.4602 13.3352C14.5657 13.2298 14.625 13.0867 14.625 12.9375V8.4375C14.625 8.28832 14.5657 8.14524 14.4602 8.03975C14.3548 7.93426 14.2117 7.875 14.0625 7.875H10.6875C10.5383 7.875 10.3952 7.93426 10.2898 8.03975C10.1843 8.14524 10.125 8.28832 10.125 8.4375V12.9375C10.125 13.0867 10.1843 13.2298 10.2898 13.3352C10.3952 13.4407 10.5383 13.5 10.6875 13.5ZM11.25 9H13.5V12.375H11.25V9Z" fill="#488253"/>
<path d="M16.3125 13.5H19.6875C19.8367 13.5 19.9798 13.4407 20.0852 13.3352C20.1907 13.2298 20.25 13.0867 20.25 12.9375V8.4375C20.25 8.28832 20.1907 8.14524 20.0852 8.03975C19.9798 7.93426 19.8367 7.875 19.6875 7.875H16.3125C16.1633 7.875 16.0202 7.93426 15.9148 8.03975C15.8093 8.14524 15.75 8.28832 15.75 8.4375V12.9375C15.75 13.0867 15.8093 13.2298 15.9148 13.3352C16.0202 13.4407 16.1633 13.5 16.3125 13.5ZM16.875 9H19.125V12.375H16.875V9Z" fill="#488253"/>
<path d="M25.875 8.4375C25.875 8.28832 25.8157 8.14524 25.7102 8.03975C25.6048 7.93426 25.4617 7.875 25.3125 7.875H21.9375C21.7883 7.875 21.6452 7.93426 21.5398 8.03975C21.4343 8.14524 21.375 8.28832 21.375 8.4375V12.9375C21.375 13.0867 21.4343 13.2298 21.5398 13.3352C21.6452 13.4407 21.7883 13.5 21.9375 13.5H25.3125C25.4617 13.5 25.6048 13.4407 25.7102 13.3352C25.8157 13.2298 25.875 13.0867 25.875 12.9375V8.4375ZM24.75 12.375H22.5V9H24.75V12.375Z" fill="#488253"/>
<path d="M10.125 19.6875C10.125 19.8367 10.1843 19.9798 10.2898 20.0852C10.3952 20.1907 10.5383 20.25 10.6875 20.25H14.0625C14.2117 20.25 14.3548 20.1907 14.4602 20.0852C14.5657 19.9798 14.625 19.8367 14.625 19.6875V15.1875C14.625 15.0383 14.5657 14.8952 14.4602 14.7898C14.3548 14.6843 14.2117 14.625 14.0625 14.625H10.6875C10.5383 14.625 10.3952 14.6843 10.2898 14.7898C10.1843 14.8952 10.125 15.0383 10.125 15.1875V19.6875ZM11.25 15.75H13.5V19.125H11.25V15.75Z" fill="#488253"/>
<path d="M15.75 19.6875C15.75 19.8367 15.8093 19.9798 15.9148 20.0852C16.0202 20.1907 16.1633 20.25 16.3125 20.25H19.6875C19.8367 20.25 19.9798 20.1907 20.0852 20.0852C20.1907 19.9798 20.25 19.8367 20.25 19.6875V15.1875C20.25 15.0383 20.1907 14.8952 20.0852 14.7898C19.9798 14.6843 19.8367 14.625 19.6875 14.625H16.3125C16.1633 14.625 16.0202 14.6843 15.9148 14.7898C15.8093 14.8952 15.75 15.0383 15.75 15.1875V19.6875ZM16.875 15.75H19.125V19.125H16.875V15.75Z" fill="#488253"/>
<path d="M25.875 19.6875V15.1875C25.875 15.0383 25.8157 14.8952 25.7102 14.7898C25.6048 14.6843 25.4617 14.625 25.3125 14.625H21.9375C21.7883 14.625 21.6452 14.6843 21.5398 14.7898C21.4343 14.8952 21.375 15.0383 21.375 15.1875V19.6875C21.375 19.8367 21.4343 19.9798 21.5398 20.0852C21.6452 20.1907 21.7883 20.25 21.9375 20.25H25.3125C25.4617 20.25 25.6048 20.1907 25.7102 20.0852C25.8157 19.9798 25.875 19.8367 25.875 19.6875ZM24.75 19.125H22.5V15.75H24.75V19.125Z" fill="#488253"/>
<path d="M6.1875 17.4375C6.33668 17.4375 6.47976 17.3782 6.58525 17.2727C6.69074 17.1673 6.75 17.0242 6.75 16.875C6.75 16.7258 6.69074 16.5827 6.58525 16.4773C6.47976 16.3718 6.33668 16.3125 6.1875 16.3125H3.9375C3.78832 16.3125 3.64524 16.3718 3.53975 16.4773C3.43426 16.5827 3.375 16.7258 3.375 16.875V19.125C3.375 19.2742 3.43426 19.4173 3.53975 19.5227C3.64524 19.6282 3.78832 19.6875 3.9375 19.6875H6.1875C6.33668 19.6875 6.47976 19.6282 6.58525 19.5227C6.69074 19.4173 6.75 19.2742 6.75 19.125C6.75 18.9758 6.69074 18.8327 6.58525 18.7273C6.47976 18.6218 6.33668 18.5625 6.1875 18.5625H4.5V17.4375H6.1875Z" fill="#488253"/>
<path d="M6.1875 23.0625C6.33668 23.0625 6.47976 23.0032 6.58525 22.8977C6.69074 22.7923 6.75 22.6492 6.75 22.5C6.75 22.3508 6.69074 22.2077 6.58525 22.1023C6.47976 21.9968 6.33668 21.9375 6.1875 21.9375H3.9375C3.78832 21.9375 3.64524 21.9968 3.53975 22.1023C3.43426 22.2077 3.375 22.3508 3.375 22.5V24.75C3.375 24.8992 3.43426 25.0423 3.53975 25.1477C3.64524 25.2532 3.78832 25.3125 3.9375 25.3125H6.1875C6.33668 25.3125 6.47976 25.2532 6.58525 25.1477C6.69074 25.0423 6.75 24.8992 6.75 24.75C6.75 24.6008 6.69074 24.4577 6.58525 24.3523C6.47976 24.2468 6.33668 24.1875 6.1875 24.1875H4.5V23.0625H6.1875Z" fill="#488253"/>
<path d="M32.625 16.875C32.625 16.7258 32.5657 16.5827 32.4602 16.4773C32.3548 16.3718 32.2117 16.3125 32.0625 16.3125H29.8125C29.6633 16.3125 29.5202 16.3718 29.4148 16.4773C29.3093 16.5827 29.25 16.7258 29.25 16.875C29.25 17.0242 29.3093 17.1673 29.4148 17.2727C29.5202 17.3782 29.6633 17.4375 29.8125 17.4375H31.5V18.5625H29.8125C29.6633 18.5625 29.5202 18.6218 29.4148 18.7273C29.3093 18.8327 29.25 18.9758 29.25 19.125C29.25 19.2742 29.3093 19.4173 29.4148 19.5227C29.5202 19.6282 29.6633 19.6875 29.8125 19.6875H32.0625C32.2117 19.6875 32.3548 19.6282 32.4602 19.5227C32.5657 19.4173 32.625 19.2742 32.625 19.125V16.875Z" fill="#488253"/>
<path d="M29.8125 24.1875C29.6633 24.1875 29.5202 24.2468 29.4148 24.3523C29.3093 24.4577 29.25 24.6008 29.25 24.75C29.25 24.8992 29.3093 25.0423 29.4148 25.1477C29.5202 25.2532 29.6633 25.3125 29.8125 25.3125H32.0625C32.2117 25.3125 32.3548 25.2532 32.4602 25.1477C32.5657 25.0423 32.625 24.8992 32.625 24.75V22.5C32.625 22.3508 32.5657 22.2077 32.4602 22.1023C32.3548 21.9968 32.2117 21.9375 32.0625 21.9375H29.8125C29.6633 21.9375 29.5202 21.9968 29.4148 22.1023C29.3093 22.2077 29.25 22.3508 29.25 22.5C29.25 22.6492 29.3093 22.7923 29.4148 22.8977C29.5202 23.0032 29.6633 23.0625 29.8125 23.0625H31.5V24.1875H29.8125Z" fill="#488253"/>
</g>
<defs>
<clipPath id="clip0_489_7212">
<rect width="36" height="36" fill="white"/>
</clipPath>
</defs>
</svg>
