<svg width="50" height="50" viewBox="0 0 50 50" fill="none" xmlns="http://www.w3.org/2000/svg">
<path d="M30.342 25.4079L26.6113 23.9689L24.47 21.8277C24.3307 21.6885 24.1485 21.617 23.9648 21.6138V19.864C24.9782 18.7873 25.6982 17.4205 25.9832 15.8795C25.9838 15.8788 25.9844 15.878 25.9851 15.8774C26.1717 15.8885 26.3599 15.8748 26.5461 15.8367C27.5525 15.6307 28.2831 14.6963 28.2831 13.6149V13.0541C28.2831 12.4202 28.0225 11.8393 27.5999 11.4278C28.2867 7.72949 27.7322 4.71719 25.9893 2.70459C24.3091 0.764257 21.6001 -0.162501 18.155 0.023339C14.9464 0.196776 12.8856 1.68281 12.2533 2.20674C11.3635 2.32236 8.82566 2.96367 8.82566 6.5123C8.82566 8.47725 9.1449 10.1114 9.36912 11.0173C8.61394 11.3703 8.10603 12.1585 8.10603 13.0624V13.6148C8.10603 14.6962 8.8365 15.6306 9.84314 15.8366C10.0291 15.8747 10.2177 15.8884 10.404 15.8773C10.4047 15.878 10.4053 15.8788 10.4059 15.8795C10.6909 17.4204 11.4109 18.7872 12.4243 19.8639V21.6137C12.2406 21.6169 12.0584 21.6884 11.9191 21.8276L9.77791 23.9688L5.58171 25.5874C3.56374 26.3657 2.26619 28.3406 2.35271 30.5018L2.94871 45.3825C2.96453 45.7768 3.28904 46.0856 3.68005 46.0856C3.69001 46.0856 3.69998 46.0854 3.70994 46.0851C4.11414 46.0688 4.42859 45.7281 4.41248 45.3239L3.81648 30.4434C3.80066 30.0478 3.85056 29.6612 3.9573 29.2955L6.3364 31.6746C7.01365 32.3519 7.3866 33.2523 7.3866 34.2101V45.3534C7.3866 45.7579 7.71453 46.0858 8.11902 46.0858C8.52351 46.0858 8.85144 45.7579 8.85144 45.3534V34.2101C8.85144 32.861 8.32615 31.5927 7.37214 30.6388L4.68767 27.9543C5.06384 27.5192 5.54675 27.1712 6.10896 26.9543L10.0241 25.4441L13.013 29.9273C13.3753 30.4709 13.9559 30.8195 14.606 30.8839C14.6784 30.891 14.7506 30.8945 14.8224 30.8945C15.2219 30.8945 15.6087 30.7827 15.946 30.5774L15.3041 45.3215C15.2865 45.7256 15.5998 46.0675 16.004 46.0851C16.0148 46.0855 16.0257 46.0857 16.0364 46.0857C16.4262 46.0857 16.7505 45.7785 16.7676 45.3852L17.3628 31.7144H19.0271L19.6223 45.3852C19.6394 45.7784 19.9636 46.0857 20.3535 46.0857C20.3642 46.0857 20.3751 46.0855 20.3859 46.0851C20.79 46.0675 21.1034 45.7256 21.0858 45.3215L20.4439 30.5774C20.7812 30.7827 21.1678 30.8945 21.5674 30.8945C21.6391 30.8945 21.7114 30.891 21.7837 30.8839C22.4332 30.8197 23.0138 30.471 23.3762 29.9274L26.3651 25.4442L29.8146 26.7748C29.9013 26.8082 29.9904 26.824 30.0781 26.824C30.372 26.824 30.6495 26.6457 30.7616 26.355C30.9073 25.9775 30.7193 25.5536 30.342 25.4079ZM11.8448 15.6052C11.7124 14.8848 11.0448 14.3622 10.326 14.4145C10.2642 14.4189 10.2006 14.4146 10.1368 14.4017C9.81414 14.3356 9.57087 13.9974 9.57087 13.6149V13.0625C9.57087 12.6883 9.82273 12.351 10.1442 12.2945C10.4148 12.2471 10.6739 12.3465 10.8382 12.5606C10.9746 12.7385 11.1564 12.8656 11.3645 12.9285C11.6685 13.0202 12.0041 12.9664 12.262 12.7843C12.8573 12.3641 13.3619 11.8311 13.7616 11.2002C13.9781 10.8585 13.8766 10.406 13.535 10.1895C13.1931 9.97275 12.7408 10.0744 12.5243 10.416C12.2964 10.7757 12.0237 11.0917 11.7109 11.359C11.4617 11.1395 11.1672 10.9823 10.8508 10.8957C10.6546 10.1569 10.2905 8.51621 10.2905 6.51221C10.2905 5.31933 10.6602 4.48047 11.3895 4.01924C11.9572 3.66006 12.5566 3.64629 12.5568 3.64619C12.7441 3.64619 12.9263 3.57246 13.0624 3.44375C13.0811 3.42588 14.9805 1.66182 18.234 1.48603C21.2103 1.3248 23.5091 2.07812 24.8818 3.66338C26.2724 5.26934 26.7307 7.73682 26.2189 10.8238C25.9988 10.8136 25.7548 10.8296 25.5121 10.8722L24.7781 9.10937C24.6376 8.77187 24.2695 8.58974 23.916 8.68252C23.8445 8.70127 16.7259 10.5176 13.7243 6.78096C13.4711 6.46562 13.01 6.41523 12.6946 6.66865C12.3793 6.92197 12.3289 7.38291 12.5823 7.69834C15.6269 11.4889 21.69 10.6391 23.6624 10.2408L24.2329 11.6109C24.4662 12.1711 25.0629 12.477 25.6514 12.3384C25.8822 12.284 26.1333 12.2741 26.2428 12.2959C26.5708 12.3611 26.818 12.687 26.818 13.054V13.6148C26.818 13.9974 26.5747 14.3355 26.2522 14.4016C26.1883 14.4146 26.1248 14.4189 26.063 14.4145C25.3444 14.3619 24.6764 14.8847 24.5442 15.6052C23.9813 18.6694 21.3109 20.8935 18.1945 20.8935C15.078 20.8935 12.4076 18.6694 11.8448 15.6052ZM15.3197 29.2227C15.1692 29.373 14.9615 29.4474 14.75 29.4263C14.5384 29.4054 14.3494 29.2919 14.2314 29.1149L11.2203 24.5981L12.4703 23.3481L17.123 27.4192L15.3197 29.2227ZM17.426 30.2496L17.4744 29.1395L18.1944 28.4193L18.9145 29.1395L18.9629 30.2496H17.426ZM18.1944 26.4104L13.8889 22.6431V21.0857C15.1362 21.8939 16.6185 22.3584 18.1944 22.3584C19.7703 22.3584 21.2526 21.8939 22.4998 21.0857V22.6431L18.1944 26.4104ZM22.1576 29.1148C22.0395 29.2919 21.8506 29.4054 21.6389 29.4263C21.5145 29.4389 21.2753 29.4284 21.0694 29.2227L19.2661 27.4192L23.9187 23.3481L25.1687 24.5981L22.1576 29.1148Z" fill="white"/>
<path d="M47.6518 34.3938C47.6518 32.695 46.2697 31.313 44.5709 31.313H39.8235V29.697C39.8235 28.4298 38.7926 27.3989 37.5255 27.3989H32.8284C31.5612 27.3989 30.5304 28.4299 30.5304 29.697V31.313H25.783C24.0842 31.313 22.7021 32.695 22.7021 34.3938V36.5684C22.7021 37.37 22.9721 38.1398 23.485 38.8518V46.9986C23.485 48.6535 24.8313 49.9999 26.4862 49.9999H43.8678C45.5227 49.9999 46.869 48.6535 46.869 46.9986V38.8518C47.3819 38.1397 47.6519 37.3699 47.6519 36.5683L47.6518 34.3938ZM31.9951 29.6969C31.9952 29.2374 32.369 28.8637 32.8284 28.8637H37.5254C37.9849 28.8637 38.3586 29.2375 38.3586 29.6969V31.3129H31.9951V29.6969ZM46.1868 36.5685C46.1868 37.8257 44.9972 39.0725 42.9547 40.0038V39.8737C42.9547 39.4692 42.6268 39.1413 42.2223 39.1413H39.091C38.6865 39.1413 38.3586 39.4692 38.3586 39.8737V42.2222C38.3586 43.4894 39.3896 44.5202 40.6566 44.5202C41.9237 44.5202 42.9547 43.4893 42.9547 42.2222V41.5958C43.9057 41.2153 44.7267 40.7726 45.404 40.2807V46.9987C45.4041 47.8459 44.7149 48.5351 43.8677 48.5351H26.4862C25.6391 48.5351 24.9498 47.8458 24.9498 46.9986V40.2806C25.6271 40.7725 26.448 41.2152 27.3991 41.5958V42.2222C27.3991 43.4894 28.4301 44.5202 29.6972 44.5202C30.7855 44.5202 31.699 43.7594 31.9353 42.7418C32.9869 42.8823 34.0734 42.9546 35.177 42.9546C35.4445 42.9546 35.7157 42.9503 35.9829 42.9418C36.3872 42.929 36.7046 42.5908 36.6917 42.1865C36.6789 41.7822 36.3437 41.4638 35.9364 41.4777C35.6846 41.4857 35.4291 41.4897 35.1769 41.4897C34.091 41.4897 33.0239 41.4158 31.9951 41.2718V39.8737C31.9951 39.4692 31.6672 39.1413 31.2627 39.1413H28.1314C27.727 39.1413 27.399 39.4692 27.399 39.8737V40.0038C25.3565 39.0725 24.1669 37.8256 24.1669 36.5685V34.3939C24.1669 33.5028 24.8918 32.7779 25.7829 32.7779H44.5708C45.4619 32.7779 46.1868 33.5028 46.1868 34.3939V36.5685ZM41.49 40.6061V42.2221C41.49 42.6815 41.1162 43.0553 40.6568 43.0553C40.1975 43.0553 39.8236 42.6814 39.8236 42.2221V40.6061H41.49ZM28.8639 42.2221V40.6061H30.5303V42.2221C30.5303 42.6815 30.1564 43.0553 29.6971 43.0553C29.2377 43.0553 28.8639 42.6815 28.8639 42.2221Z" fill="white"/>
</svg>
