<svg width="42" height="42" viewBox="0 0 42 42" fill="none" xmlns="http://www.w3.org/2000/svg">
<g clip-path="url(#clip0_369_6214)">
<path fill-rule="evenodd" clip-rule="evenodd" d="M32.4505 2.29688H9.59068C6.06079 2.29688 3.19922 5.15845 3.19922 8.68834V38.899L6.59511 35.4682C8.69408 33.3477 11.5654 32.1721 14.5489 32.2119L21.0358 32.2984H32.4505C35.9804 32.2984 38.842 29.4368 38.842 25.9069V8.68834C38.842 5.15845 35.9804 2.29688 32.4505 2.29688ZM9.59068 0C4.79226 0 0.902344 3.88992 0.902344 8.68834V40.2588C0.902344 41.8112 2.78293 42.5846 3.875 41.4812L8.22749 37.084C9.88764 35.4068 12.1586 34.4771 14.5183 34.5086L21.0206 34.5953H32.4505C37.2489 34.5953 41.1388 30.7054 41.1388 25.9069V8.68834C41.1388 3.88991 37.2489 0 32.4505 0L9.59068 0Z" fill="white"/>
<path fill-rule="evenodd" clip-rule="evenodd" d="M9.40625 14.4961C9.40625 13.8618 9.92042 13.3477 10.5547 13.3477H31.4546C32.0889 13.3477 32.603 13.8618 32.603 14.4961C32.603 15.1304 32.0889 15.6445 31.4546 15.6445H10.5547C9.92042 15.6445 9.40625 15.1304 9.40625 14.4961Z" fill="white"/>
<path fill-rule="evenodd" clip-rule="evenodd" d="M9.40625 21.2734C9.40625 20.6392 9.92042 20.125 10.5547 20.125H21.0216C21.6559 20.125 22.1701 20.6392 22.1701 21.2734C22.1701 21.9077 21.6559 22.4219 21.0216 22.4219H10.5547C9.92042 22.4219 9.40625 21.9077 9.40625 21.2734Z" fill="white"/>
</g>
<defs>
<clipPath id="clip0_369_6214">
<rect width="42" height="42" fill="white"/>
</clipPath>
</defs>
</svg>
