<svg width="29" height="29" viewBox="0 0 29 29" fill="none" xmlns="http://www.w3.org/2000/svg">
<g clip-path="url(#clip0_15_20005)">
<path d="M16.156 5.7991C17.0708 5.7991 17.8124 5.05748 17.8124 4.14265C17.8124 3.22782 17.0708 2.48621 16.156 2.48621C15.2411 2.48621 14.4995 3.22782 14.4995 4.14265C14.4995 5.05748 15.2411 5.7991 16.156 5.7991Z" fill="#488253"/>
<path d="M19.4694 3.4841C20.2014 3.4841 20.7948 2.89071 20.7948 2.15874C20.7948 1.42676 20.2014 0.833374 19.4694 0.833374C18.7374 0.833374 18.144 1.42676 18.144 2.15874C18.144 2.89071 18.7374 3.4841 19.4694 3.4841Z" fill="#488253"/>
<path d="M25.0362 23.4455L18.1444 12.4259V9.11661H20.1324V6.79749H8.86735V9.11661H10.8554V12.4259L3.96361 23.4455C3.71094 23.9139 3.56641 24.4495 3.56641 25.0199C3.56641 26.8496 5.04962 28.3334 6.87981 28.3334H22.1205C23.9501 28.3334 25.4339 26.8501 25.4339 25.0199C25.4339 24.4495 25.2893 23.9139 25.0362 23.4455ZM9.23943 19.3833L13.1745 13.0912V9.1161H15.8252V13.0912L19.7603 19.3833H9.23943Z" fill="#488253"/>
</g>
<defs>
<clipPath id="clip0_15_20005">
<rect width="27.5" height="27.5" fill="white" transform="translate(0.75 0.833374)"/>
</clipPath>
</defs>
</svg>
