<svg width="30" height="30" viewBox="0 0 30 30" fill="none" xmlns="http://www.w3.org/2000/svg">
<g clip-path="url(#clip0_15_19972)">
<path d="M17.5309 27.2866C17.3889 27.4043 17.2467 27.5121 17.1047 27.6198C16.502 28.0706 16.022 28.4283 16.022 29.3053H18.4716C18.4098 28.9647 18.2709 28.6429 18.0649 28.3646C17.8472 28.0263 17.6681 27.6647 17.5309 27.2866Z" fill="#488253"/>
<path d="M16.5165 26.8359C16.9586 26.5775 17.3081 26.1868 17.516 25.7189L17.5455 25.6454C17.7738 25.0718 18.1427 24.5647 18.6184 24.1708C19.3287 23.5873 19.8024 22.7652 19.9511 21.8581C19.9567 21.8358 19.96 21.8128 19.9608 21.7896C20.164 20.5183 19.6703 19.2357 18.6674 18.4285C18.6206 18.3919 18.5807 18.347 18.5499 18.2963L17.2857 18.0856C17.1101 18.0567 16.9326 18.1239 16.8203 18.262L11.3378 25.1212C11.2073 25.2786 10.9937 25.3408 10.799 25.278L6.9872 24.009C6.81896 23.9494 6.63165 23.9891 6.50222 24.112L0.833496 29.3053H15.0418C15.0418 27.9383 15.86 27.3259 16.5165 26.8359Z" fill="#488253"/>
<path d="M19.4514 29.3052H28.7554C28.677 28.835 28.0695 25.9639 24.8994 26.3606C24.8801 26.3648 24.8604 26.3665 24.8406 26.3656C23.6727 26.5774 22.4697 26.2856 21.5288 25.5622C20.9566 25.0652 20.5313 24.4216 20.2989 23.7003C20.0227 24.1371 19.6862 24.533 19.2994 24.8762C18.9174 25.1788 18.623 25.578 18.4469 26.0324C18.2217 26.7086 18.5547 27.2671 18.9074 27.8648C19.2127 28.2887 19.4004 28.7856 19.4514 29.3052Z" fill="#488253"/>
<path d="M21.2933 17.1743L20.1174 18.3503C20.0873 18.3802 20.0526 18.4049 20.0146 18.4238C20.8123 19.4002 21.1481 20.6742 20.9356 21.9169C20.9896 22.6911 21.2246 24.0385 22.1508 24.8077C22.8931 25.356 23.831 25.5693 24.7377 25.3955H24.7424C25.4432 25.2142 25.8399 24.7195 26.2956 24.1413C26.9326 23.3476 27.6528 22.4461 29.25 22.4461V9.21771L27.9075 12.3483C27.8308 12.5294 27.6534 12.6471 27.4568 12.6473H25.7616C25.5143 12.648 25.3061 12.8329 25.2766 13.0783L24.8847 16.1944C24.858 16.4142 24.6874 16.589 24.4682 16.6206L21.5726 17.0323C21.4666 17.0482 21.3686 17.098 21.2933 17.1743Z" fill="#488253"/>
<path d="M29.2502 27.7081V23.426C28.1232 23.426 27.6577 24.014 27.06 24.7537C26.8764 24.9955 26.6785 25.2261 26.4673 25.4445C27.4793 25.6554 28.3639 26.2646 28.9219 27.1349C29.0448 27.3178 29.1545 27.5095 29.2502 27.7081Z" fill="#488253"/>
<path d="M12.9257 8.48274C12.9257 8.48274 18.3484 13.6992 19.8922 17.5897C19.8922 17.5897 20.7163 13.7781 15.5067 7.67472L15.8814 7.33478C16.2454 6.96426 16.2571 6.37413 15.908 5.98952C15.559 5.60491 14.9704 5.5596 14.5665 5.88611L14.1916 6.22605C8.6235 0.44763 4.75293 0.89706 4.75293 0.89706C8.47303 2.81272 12.9257 8.48274 12.9257 8.48274Z" fill="#488253"/>
<path d="M13.5721 17.5466C13.5721 17.5466 15.532 16.0769 16.512 16.0769C16.512 16.0769 15.042 15.0969 14.0621 15.0969C13.0824 15.0969 13.5721 17.5466 13.5721 17.5466Z" fill="#488253"/>
<path d="M21.4111 14.6069C21.4111 14.6069 23.371 15.0969 23.371 14.117C23.371 13.1372 21.9011 12.1573 21.9011 12.1573C22.3911 13.1372 21.4111 14.6069 21.4111 14.6069Z" fill="#488253"/>
<path d="M19.9411 9.70769C20.2117 9.70769 20.4309 9.48829 20.4309 9.21772V8.23778C20.4309 7.96721 20.2117 7.7478 19.9411 7.7478C19.6706 7.7478 19.4512 7.96721 19.4512 8.23778V9.21772C19.4512 9.48829 19.6706 9.70769 19.9411 9.70769Z" fill="#488253"/>
<path d="M21.1922 10.6384C21.3084 10.6967 21.443 10.7063 21.5664 10.6651C21.6897 10.6239 21.7916 10.5354 21.8497 10.419L22.3397 9.43906C22.4607 9.19689 22.3623 8.90248 22.1201 8.7815C21.8779 8.66074 21.5835 8.75895 21.4625 9.00112L20.9728 9.98107C20.9145 10.0973 20.9049 10.2319 20.9461 10.3553C20.9873 10.4786 21.0758 10.5805 21.1922 10.6384Z" fill="#488253"/>
<path d="M3.91025 18.1983L12.8761 9.82019C12.4941 9.42843 12.2539 9.19797 12.2441 9.18821L12.1951 9.13922L12.1559 9.08545C12.1461 9.07548 11.9306 8.80122 11.5631 8.36523L2.59231 16.7481C2.32824 16.9822 2.21074 17.3402 2.28423 17.6853C2.35773 18.0305 2.61117 18.3095 2.94786 18.4155C3.28434 18.5218 3.65204 18.4387 3.91025 18.1983Z" fill="#488253"/>
</g>
<defs>
<clipPath id="clip0_15_19972">
<rect width="28.4167" height="28.4167" fill="white" transform="translate(0.833496 0.833313)"/>
</clipPath>
</defs>
</svg>
