<svg width="89" height="89" viewBox="0 0 89 89" fill="none" xmlns="http://www.w3.org/2000/svg">
<path d="M88.8751 49.5382C88.8749 49.5378 88.8749 49.5376 88.8746 49.5372L72.0711 7.34485C71.7145 6.44837 70.6983 6.01073 69.8018 6.36735C69.8012 6.36757 69.8005 6.36779 69.7999 6.36822L1.63004 33.5128C1.35203 33.6329 1.11093 33.8247 0.931201 34.0684C0.364269 34.363 0.00611483 34.9461 0 35.5849V81.0093C0 81.9741 0.782261 82.7564 1.74709 82.7564H75.125C76.0899 82.7564 76.8721 81.9741 76.8721 81.0093V56.2006L87.8998 51.8084C88.796 51.4509 89.2326 50.4345 88.8751 49.5382ZM73.3779 79.2622H3.49419V37.332H73.3779V79.2622ZM29.1503 33.8465L58.4036 22.1899C61.0144 24.9342 64.632 26.4939 68.4197 26.5087L71.3373 33.8465H29.1503ZM76.8721 52.4478V35.5849C76.8721 34.62 76.0899 33.8378 75.125 33.8378H75.0971L71.395 24.5397C71.3539 24.4622 71.3061 24.3884 71.2517 24.3196C71.0643 23.4782 70.2851 22.904 69.426 22.9743C65.9017 23.2956 62.454 21.811 60.266 19.0294C59.7216 18.3574 58.7646 18.1904 58.0245 18.6381C57.9415 18.6479 57.8591 18.6632 57.7781 18.6835L22.064 32.9048C21.6319 33.0743 21.2862 33.4104 21.1049 33.8378H10.2589L69.4714 10.2607L84.9839 49.2122L76.8721 52.4478Z" fill="white"/>
<path d="M8.23571 67.4676C11.6277 68.4702 14.282 71.1212 15.2887 74.5119C15.5095 75.252 16.1902 75.7591 16.9624 75.7593C17.0531 75.7536 17.143 75.7401 17.2315 75.7191C17.3099 75.7414 17.39 75.7578 17.4708 75.768H59.4011C59.4732 75.7587 59.5443 75.744 59.6142 75.7244C60.4871 75.9366 61.3668 75.4014 61.5793 74.5285C61.5799 74.5252 61.5808 74.5221 61.5815 74.5189C62.5856 71.1247 65.2403 68.47 68.6345 67.4658C69.4576 67.2143 69.969 66.394 69.833 65.544C69.8563 65.4593 69.8732 65.3728 69.8836 65.2855V51.3087C69.8734 51.2212 69.8559 51.1347 69.8312 51.0502C69.9682 50.2 69.4565 49.3793 68.6327 49.1284C65.2386 48.1244 62.5845 45.4686 61.5832 42.0736C61.3303 41.2448 60.502 40.732 59.6474 40.8751C59.5666 40.8526 59.4843 40.8362 59.4011 40.8262H17.4708C17.3828 40.8367 17.2957 40.8541 17.2105 40.8786C16.3608 40.7432 15.541 41.2544 15.2887 42.0771C14.2839 45.4706 11.6294 48.1244 8.23571 49.1284C7.41261 49.3799 6.90114 50.2002 7.0372 51.0502C7.01449 51.1351 6.99811 51.2214 6.98828 51.3087V65.2855C6.99833 65.3676 7.01471 65.4488 7.0372 65.5283C6.89394 66.3837 7.40649 67.2132 8.23571 67.4676ZM10.4825 52.018C13.9906 50.609 16.7711 47.8285 18.1802 44.3204H58.69C60.0997 47.8285 62.8809 50.609 66.3895 52.018V64.5762C62.8824 65.9867 60.1023 68.7668 58.6918 72.2739H18.1802C16.7696 68.7668 13.9895 65.9867 10.4825 64.5762V52.018Z" fill="white"/>
<path d="M38.4357 68.7796C44.2251 68.7796 48.9182 64.0864 48.9182 58.297C48.9182 52.5076 44.2251 47.8145 38.4357 47.8145C32.6463 47.8145 27.9531 52.5076 27.9531 58.297C27.9588 64.084 32.6487 68.7739 38.4357 68.7796ZM38.4357 51.3086C42.2952 51.3086 45.4241 54.4375 45.4241 58.297C45.4241 62.1566 42.2952 65.2854 38.4357 65.2854C34.5761 65.2854 31.4473 62.1566 31.4473 58.297C31.4473 54.4375 34.5761 51.3086 38.4357 51.3086Z" fill="white"/>
<path d="M19.2183 60.9175C20.6655 60.9175 21.8389 59.7442 21.8389 58.2969C21.8389 56.8497 20.6655 55.6763 19.2183 55.6763C17.771 55.6763 16.5977 56.8497 16.5977 58.2969C16.5977 59.7444 17.771 60.9175 19.2183 60.9175ZM19.2183 57.4234C19.7007 57.4234 20.0918 57.8145 20.0918 58.2969C20.0918 58.7793 19.7007 59.1705 19.2183 59.1705C18.7359 59.1705 18.3447 58.7793 18.3447 58.2969C18.3447 57.8145 18.7359 57.4234 19.2183 57.4234Z" fill="white"/>
<path d="M57.6538 60.9175C59.1011 60.9175 60.2745 59.7442 60.2745 58.2969C60.2745 56.8497 59.1011 55.6763 57.6538 55.6763C56.2066 55.6763 55.0332 56.8497 55.0332 58.2969C55.0332 59.7444 56.2066 60.9175 57.6538 60.9175ZM57.6538 57.4234C58.1363 57.4234 58.5274 57.8145 58.5274 58.2969C58.5274 58.7793 58.1363 59.1705 57.6538 59.1705C57.1714 59.1705 56.7803 58.7793 56.7803 58.2969C56.7803 57.8145 57.1714 57.4234 57.6538 57.4234Z" fill="white"/>
</svg>
