<svg width="42" height="42" viewBox="0 0 42 42" fill="none" xmlns="http://www.w3.org/2000/svg">
<g clip-path="url(#clip0_431_1600)">
<path d="M41.3847 40.7695H38.6998C39.1985 39.6633 39.5584 38.5467 39.7715 37.4385C39.8357 37.1049 39.6172 36.7823 39.2835 36.7182C38.9498 36.6544 38.6274 36.8725 38.5632 37.2062C38.3359 38.3881 37.9249 39.5851 37.34 40.7695H34.7188V39.8222C34.7188 39.4823 34.4435 39.2069 34.1036 39.2069C33.7637 39.2069 33.4884 39.4823 33.4884 39.8222V40.7695H30.8672C29.9503 38.9132 29.4665 37.0402 29.4282 35.1964C29.4075 34.1969 29.5184 33.1889 29.7573 32.1798H38.4497C38.6625 33.0785 38.7739 33.9762 38.7805 34.867C38.7831 35.2052 39.058 35.4776 39.3957 35.4776H39.4004C39.7402 35.4751 40.0135 35.1976 40.011 34.8578C40.0042 33.9424 39.8975 33.0224 39.6944 32.1028C39.8837 31.9979 40.0119 31.7962 40.0119 31.5645C40.0119 31.2246 39.7365 30.9493 39.3967 30.9493H39.3884C39.1622 30.2192 38.8758 29.4908 38.5276 28.7669C38.2971 28.2877 37.8235 27.9651 37.296 27.9158V26.9555C37.296 26.2111 36.6966 25.6051 35.9552 25.5925V3.113C35.9552 1.3965 34.5588 8.20311e-05 32.8423 8.20311e-05L9.77638 0C8.05988 0 6.66339 1.39642 6.66339 3.11292V4.39916H4.72885C3.9589 4.39916 3.33259 5.02555 3.33259 5.79541V7.62446C3.14679 7.73036 3.0212 7.92986 3.0212 8.15906C3.0212 8.38825 3.14671 8.58775 3.33259 8.69366V23.9854C2.26759 25.5323 1.64308 27.4049 1.64308 29.4209V31.1164H1.24072C0.900865 31.1164 0.625487 31.3917 0.625487 31.7316C0.625487 32.0714 0.900865 32.3468 1.24072 32.3468H1.64308V35.6642C1.64308 36.0041 1.91846 36.2795 2.25832 36.2795C2.59817 36.2795 2.87355 36.0041 2.87355 35.6642V32.3468H19.6314V40.7696H14.2969V37.3791C14.2969 36.7725 13.8033 36.279 13.1968 36.279H9.30823C8.70161 36.279 8.20811 36.7726 8.20811 37.3791V40.7696H2.87355V38.1242C2.87355 37.7843 2.59817 37.509 2.25832 37.509C1.91846 37.509 1.64308 37.7843 1.64308 38.1242V40.7696H0.615233C0.275378 40.7696 0 41.045 0 41.3848C0 41.7247 0.275378 42.0001 0.615233 42.0001H41.3847C41.7245 42.0001 41.9999 41.7247 41.9999 41.3848C41.9999 41.045 41.7245 40.7695 41.3847 40.7695ZM9.4385 37.5094H13.0664V40.7695H9.4385V37.5094ZM32.4023 25.5913H32.2753C31.5231 25.5913 30.911 26.2034 30.911 26.9556V27.9158C30.3836 27.9652 29.9099 28.2878 29.6794 28.7671C29.3304 29.493 29.0446 30.2207 28.819 30.9494H28.8105C28.4706 30.9494 28.1952 31.2248 28.1952 31.5647C28.1952 31.7966 28.3237 31.9985 28.5133 32.1033C28.4213 32.5219 28.3497 32.9407 28.2983 33.3597H25.9341C25.9335 31.1818 25.934 16.5507 25.9341 11.9748C26.1199 11.8689 26.2454 11.6694 26.2454 11.4403C26.2454 11.2112 26.1199 11.0116 25.9341 10.9058V9.07674C25.9341 8.3068 25.3077 7.68049 24.5378 7.68049H22.7033V6.05709C22.7033 5.44539 23.2009 4.9477 23.8126 4.9477H31.2929C31.9046 4.9477 32.4023 5.44539 32.4023 6.05709V25.5913ZM19.4723 12.0555H24.7035V16.4371H19.4723V12.0555ZM19.4723 17.6675H24.7035V22.0744H19.4723V17.6675ZM24.5376 8.91087C24.6291 8.91087 24.7035 8.98528 24.7035 9.07666V10.825H19.4723V9.07666C19.4723 8.98528 19.5467 8.91087 19.6381 8.91087H24.5376ZM18.2418 16.3223H11.046V15.4784H18.2418V16.3223ZM9.79418 10.801H8.40851C8.06866 10.801 7.79328 11.0763 7.79328 11.4162C7.79328 11.756 8.06866 12.0314 8.40851 12.0314H9.79418V16.4383H4.56298V12.0314H5.94865C6.2885 12.0314 6.56388 11.756 6.56388 11.4162C6.56388 11.0763 6.2885 10.801 5.94865 10.801H4.56298V8.77429H9.79418V10.801ZM9.79418 17.6688V19.922C7.77663 20.2304 5.96407 21.169 4.56298 22.5293V17.6688H9.79418ZM11.0246 17.5528H18.2312C18.2312 17.6775 18.2285 23.1856 18.2419 22.8335C16.4885 20.9741 14.0039 19.8115 11.2525 19.8115C11.1763 19.8115 11.1004 19.8126 11.0247 19.8144V17.5528H11.0246ZM19.4723 23.3049H24.7035V28.9932H20.8517C20.7787 27.3354 20.2842 25.7852 19.4723 24.4481V23.3049ZM21.2641 32.3467C21.604 32.3467 21.8793 32.0714 21.8793 31.7315C21.8793 31.3917 21.604 31.1163 21.2641 31.1163H20.8618V30.2235H24.7036V33.3597H20.8618V32.3467H21.2641V32.3467ZM20.8618 34.5902H28.2056C28.1975 34.8771 28.199 35.1639 28.2101 35.4507H20.8619V34.5902H20.8618ZM28.3155 36.6812C28.4974 38.0468 28.8945 39.4108 29.5076 40.7695H25.934V36.6812H28.3155ZM37.4188 29.3003C37.6824 29.8485 37.9071 30.3987 38.0947 30.9494H30.113C30.3005 30.3988 30.5247 29.8487 30.7883 29.3004C30.8355 29.2023 30.9389 29.1389 31.0518 29.1389H37.1554C37.2683 29.1389 37.3716 29.2022 37.4188 29.3003ZM36.0656 26.9556V27.9085H32.1415V26.9556C32.1415 26.8818 32.2015 26.8218 32.2753 26.8218H35.9319C36.0056 26.8218 36.0656 26.8818 36.0656 26.9556ZM7.89385 3.11292C7.89385 2.07498 8.73836 1.23047 9.77638 1.23047L32.8424 1.23055C33.8803 1.23055 34.7248 2.07506 34.7248 3.113V25.5912H33.6327V6.05709C33.6327 4.76683 32.5831 3.71724 31.2929 3.71724H23.8126C22.5225 3.71724 21.4729 4.76691 21.4729 6.05709V7.68041H19.6383C18.8684 7.68041 18.2421 8.3068 18.2421 9.07666V10.9057C18.0563 11.0116 17.9307 11.2111 17.9307 11.4403C17.9307 11.6695 18.0562 11.869 18.2421 11.9749V14.2481H11.0462C11.0346 9.90583 11.0639 16.2705 11.0248 8.69366C11.2106 8.58775 11.3362 8.38825 11.3362 8.15906C11.3362 7.92986 11.2107 7.73036 11.0248 7.62446V5.79541C11.0248 5.02547 10.3984 4.39916 9.62856 4.39916H7.89385V3.11292ZM4.72885 5.62963H9.6284C9.71978 5.62963 9.79418 5.70403 9.79418 5.79541V7.54374H4.56298V5.79541C4.56298 5.70403 4.63746 5.62963 4.72885 5.62963ZM2.87355 31.1163V29.4208C2.87355 24.8007 6.63229 21.0419 11.2525 21.0419C15.8726 21.0419 19.6314 24.8006 19.6314 29.4208V31.1163H2.87355ZM20.8618 36.6812H24.7036V40.7695H20.8618V36.6812Z" fill="white"/>
<path d="M11.2525 24.0759C10.6699 24.0759 10.126 24.4964 9.7211 25.2601C9.42891 25.811 9.24023 26.4876 9.24023 26.9841C9.24023 28.0937 10.143 28.9965 11.2525 28.9965C12.3622 28.9965 13.2649 28.0937 13.2649 26.9841C13.2649 26.4876 13.0762 25.811 12.7841 25.2601C12.3792 24.4964 11.8353 24.0759 11.2525 24.0759ZM11.2525 27.7659C10.8214 27.7659 10.4707 27.4152 10.4707 26.984C10.4707 26.3159 11.009 25.3445 11.2499 25.3062C11.4962 25.3444 12.0345 26.3158 12.0345 26.984C12.0345 27.4152 11.6837 27.7659 11.2525 27.7659Z" fill="white"/>
</g>
<defs>
<clipPath id="clip0_431_1600">
<rect width="42" height="42" fill="white"/>
</clipPath>
</defs>
</svg>
