<svg width="47" height="47" viewBox="0 0 47 47" fill="none" xmlns="http://www.w3.org/2000/svg">
<path d="M43.3281 35.25C42.8163 35.2483 42.3053 35.29 41.8006 35.3748L44.0037 28.1192C44.0565 27.9465 44.0437 27.7603 43.9678 27.5964C43.892 27.4325 43.7583 27.3022 43.5925 27.2306L41.0442 26.1144L38.9219 16.7217C38.8831 16.5574 38.7889 16.4115 38.6552 16.3085C38.5214 16.2055 38.3563 16.1517 38.1875 16.1563H35.9844V13.9531C35.9844 13.7584 35.907 13.5716 35.7693 13.4338C35.6316 13.2961 35.4448 13.2188 35.25 13.2188H33.7812V9.54688C33.7812 9.35211 33.7039 9.16532 33.5662 9.02759C33.4284 8.88987 33.2416 8.8125 33.0469 8.8125H30.1094C29.9146 8.8125 29.7278 8.88987 29.5901 9.02759C29.4524 9.16532 29.375 9.35211 29.375 9.54688V13.2188H27.9062C27.7115 13.2188 27.5247 13.2961 27.387 13.4338C27.2492 13.5716 27.1719 13.7584 27.1719 13.9531V16.1563H24.9688C24.8 16.1517 24.6348 16.2055 24.5011 16.3085C24.3673 16.4115 24.2731 16.5574 24.2344 16.7217L22.0312 26.1144L19.5344 27.2306C19.3632 27.2969 19.2229 27.4248 19.1414 27.5893C19.0598 27.7538 19.0428 27.9428 19.0938 28.1192L21.6788 36.5131C21.2612 36.3901 20.8537 36.2355 20.4597 36.0505C19.3507 35.5034 18.1271 35.229 16.8906 35.25C16.6336 35.25 16.3912 35.25 16.1562 35.25V30.8438H16.8906C17.0854 30.8438 17.2722 30.7664 17.4099 30.6287C17.5476 30.4909 17.625 30.3041 17.625 30.1094V27.1719C17.625 26.9771 17.5476 26.7903 17.4099 26.6526C17.2722 26.5149 17.0854 26.4375 16.8906 26.4375H3.67188C3.47711 26.4375 3.29032 26.5149 3.15259 26.6526C3.01487 26.7903 2.9375 26.9771 2.9375 27.1719C2.9375 27.3666 3.01487 27.5534 3.15259 27.6912C3.29032 27.8289 3.47711 27.9063 3.67188 27.9063H16.1562V29.375H3.67188C3.47711 29.375 3.29032 29.4524 3.15259 29.5901C3.01487 29.7278 2.9375 29.9146 2.9375 30.1094C2.9375 30.3041 3.01487 30.4909 3.15259 30.6287C3.29032 30.7664 3.47711 30.8438 3.67188 30.8438H14.6875V35.5217C14.206 35.6584 13.7368 35.8353 13.2848 36.0505C12.3542 36.5177 11.3223 36.7473 10.2812 36.7188C9.2378 36.7482 8.20331 36.5186 7.27031 36.0505C6.1529 35.4975 4.91834 35.2228 3.67188 35.25C3.47711 35.25 3.29032 35.3274 3.15259 35.4651C3.01487 35.6028 2.9375 35.7896 2.9375 35.9844C2.9375 36.1791 3.01487 36.3659 3.15259 36.5037C3.29032 36.6414 3.47711 36.7188 3.67188 36.7188C4.71306 36.6883 5.7454 36.918 6.67547 37.387C7.79558 37.9398 9.03245 38.2144 10.2812 38.1875C11.5276 38.2135 12.7619 37.9389 13.8797 37.387C14.8123 36.9177 15.8471 36.688 16.8906 36.7188C17.9341 36.6893 18.9686 36.9189 19.9016 37.387C21.019 37.94 22.2535 38.2147 23.5 38.1875C24.7488 38.2144 25.9857 37.9398 27.1058 37.387C28.0358 36.918 29.0682 36.6883 30.1094 36.7188C31.1528 36.6893 32.1873 36.9189 33.1203 37.387C34.2479 37.9143 35.4776 38.1876 36.7224 38.1876C37.9672 38.1876 39.1969 37.9143 40.3245 37.387C41.2553 36.9201 42.2871 36.6905 43.3281 36.7188C43.5229 36.7188 43.7097 36.6414 43.8474 36.5037C43.9851 36.3659 44.0625 36.1791 44.0625 35.9844C44.0625 35.7896 43.9851 35.6028 43.8474 35.4651C43.7097 35.3274 43.5229 35.25 43.3281 35.25ZM30.8438 10.2813H32.3125V13.2188H30.8438V10.2813ZM28.6406 14.6875H34.5156V16.1563H28.6406V14.6875ZM25.5562 17.625H37.6L39.3919 25.38L37.9745 24.7631L36.6967 19.6225C36.6519 19.4687 36.558 19.3339 36.4294 19.2384C36.3008 19.143 36.1445 19.0922 35.9844 19.0938H27.1719C27.0041 19.0889 26.8397 19.1416 26.7061 19.2431C26.5725 19.3447 26.4777 19.4889 26.4375 19.6519L25.1597 24.7925L23.7423 25.4094L25.5562 17.625ZM26.8781 24.0214L27.7447 20.5625H28.6406V23.2503L26.8781 24.0214ZM30.1094 20.5625H33.0469V22.6041L31.8719 22.09C31.7792 22.0496 31.6792 22.0287 31.5781 22.0287C31.477 22.0287 31.377 22.0496 31.2844 22.09L30.1094 22.6041V20.5625ZM34.5156 20.5625H35.4116L36.2781 24.0214L34.5156 23.2503V20.5625ZM31.5781 23.5661L42.4322 28.3175L41.9769 29.7863L31.8498 25.7545C31.6754 25.685 31.4809 25.685 31.3064 25.7545L21.1794 29.8083L20.7241 28.3395L31.5781 23.5661ZM26.5036 36.0505C25.5728 36.5175 24.541 36.747 23.5 36.7188H23.3164L21.62 31.2256L30.8511 27.5538V35.25C30.6161 35.25 30.3737 35.25 30.1167 35.25C28.8653 35.2205 27.6254 35.4951 26.5036 36.0505ZM36.7188 36.7188C35.6752 36.7492 34.6405 36.5195 33.7078 36.0505C33.2571 35.8384 32.7906 35.6616 32.3125 35.5217V27.5244L41.5436 31.1963L40.0748 35.8595L39.693 36.0284C38.7737 36.5003 37.7519 36.7375 36.7188 36.7188Z" fill="white"/>
</svg>
