<svg width="28" height="28" viewBox="0 0 28 28" fill="none" xmlns="http://www.w3.org/2000/svg">
<g clip-path="url(#clip0_15_20025)">
<g clip-path="url(#clip1_15_20025)">
<path d="M9.05859 15.9398C9.05859 18.6644 11.2752 20.881 13.9998 20.881C16.7244 20.881 18.941 18.6644 18.941 15.9398C18.941 15.7007 18.9229 15.4652 18.8897 15.2339H9.10989C9.07671 15.4652 9.05859 15.7007 9.05859 15.9398ZM15.4116 16.6457H16.8234V18.0574H15.4116V16.6457ZM11.8821 17.5294H13.2939V18.9412H11.8821V17.5294Z" fill="#488253"/>
<path d="M24.7022 11.1322L24.394 7.99845L21.8329 6.16719L20.0016 3.60608L16.8678 3.29775L14 2L11.1322 3.29775L7.99845 3.60608L6.16719 6.16719L3.60608 7.99845L3.29775 11.1322L2 14L3.29775 16.8678L3.60608 20.0015L6.16719 21.8328L7.99845 24.3939L11.1322 24.7023L14 26L16.8678 24.7022L20.0015 24.394L21.8328 21.8329L24.3939 20.0016L24.7023 16.8678L26 14L24.7022 11.1322ZM14 22.2928C10.497 22.2928 7.64701 19.4428 7.64701 15.9398C7.64701 13.2255 9.36279 10.8356 11.8823 9.94816V7.64706H10.4706V6.23528H17.5294V7.64706H16.1177V9.94816C18.6373 10.8356 20.353 13.2255 20.353 15.9398C20.353 19.4428 17.5031 22.2928 14 22.2928Z" fill="#488253"/>
<path d="M15.2358 11.1541L14.7059 11.0177V7.64697H13.2941V11.0177L12.7642 11.1541C11.3095 11.5285 10.1481 12.5286 9.53516 13.822H18.4648C17.8519 12.5286 16.6905 11.5285 15.2358 11.1541Z" fill="#488253"/>
</g>
</g>
<defs>
<clipPath id="clip0_15_20025">
<rect width="28" height="28" fill="white"/>
</clipPath>
<clipPath id="clip1_15_20025">
<rect width="24" height="24" fill="white" transform="translate(2 2)"/>
</clipPath>
</defs>
</svg>
