<svg width="47" height="47" viewBox="0 0 47 47" fill="none" xmlns="http://www.w3.org/2000/svg">
<mask id="mask0_369_6219" style="mask-type:luminance" maskUnits="userSpaceOnUse" x="0" y="0" width="47" height="47">
<path d="M0 3.8147e-06H47V47H0V3.8147e-06Z" fill="white"/>
</mask>
<g mask="url(#mask0_369_6219)">
<path d="M18.4842 18.1363C18.3419 18.0445 18.1729 17.9922 17.9922 17.9922C17.4855 17.9922 17.0742 18.4034 17.0742 18.9102C17.0742 19.1507 17.1668 19.3701 17.3184 19.5335C17.4864 19.7152 17.7259 19.8281 17.9922 19.8281C18.4988 19.8281 18.9102 19.4169 18.9102 18.9102C18.9102 18.5843 18.7403 18.2988 18.4842 18.1363Z" fill="white"/>
<path d="M23.5 0.917969V6.97656" stroke="white" stroke-width="2" stroke-linecap="round" stroke-linejoin="round"/>
<path d="M23.5 40.0234V46.082" stroke="white" stroke-width="2" stroke-linecap="round" stroke-linejoin="round"/>
<path d="M6.08594 7.92146L9.98088 11.8164" stroke="white" stroke-width="2" stroke-linecap="round" stroke-linejoin="round"/>
<path d="M37.0195 36.1012L40.9145 39.9961" stroke="white" stroke-width="2" stroke-linecap="round" stroke-linejoin="round"/>
<path d="M40.9145 7.92146L37.0195 11.8164" stroke="white" stroke-width="2" stroke-linecap="round" stroke-linejoin="round"/>
<path d="M9.98088 36.1012L6.08594 39.9961" stroke="white" stroke-width="2" stroke-linecap="round" stroke-linejoin="round"/>
<path d="M43.6953 23.5C43.6953 23.5 35.6677 35.4336 23.5 35.4336C11.3323 35.4336 3.30469 23.5 3.30469 23.5C3.30469 23.5 11.3323 11.5664 23.5 11.5664C35.6677 11.5664 43.6953 23.5 43.6953 23.5Z" stroke="white" stroke-width="2" stroke-linecap="round" stroke-linejoin="round"/>
<path d="M20.8755 16.6391C20.9085 16.6263 20.9416 16.6143 20.9747 16.6024C21.0113 16.5886 21.0481 16.5758 21.0848 16.5629C21.1179 16.551 21.1509 16.54 21.1849 16.5289C21.228 16.5143 21.273 16.4996 21.3171 16.4858C21.374 16.4684 21.4309 16.4509 21.4887 16.4353C21.5447 16.4188 21.6016 16.4032 21.6595 16.3885C21.7201 16.3729 21.7806 16.3582 21.8412 16.3444C21.8981 16.3316 21.9541 16.3187 22.0111 16.3077C22.057 16.2976 22.1029 16.2884 22.1497 16.2802C22.1901 16.2728 22.2304 16.2655 22.2708 16.2591C22.2928 16.2545 22.3157 16.2508 22.3387 16.248C22.3801 16.2407 22.4214 16.2352 22.4627 16.2297C22.4737 16.2279 22.4838 16.226 22.4948 16.2251C22.5297 16.2196 22.5655 16.215 22.6013 16.2104C22.6399 16.2058 22.6784 16.2012 22.717 16.1976L22.7721 16.1921C22.8115 16.1875 22.8519 16.1838 22.8914 16.181C22.9124 16.1792 22.9336 16.1774 22.9546 16.1764C22.9813 16.1737 23.0089 16.1719 23.0355 16.1709C23.075 16.1682 23.1153 16.1663 23.1548 16.1645C23.2062 16.1618 23.2577 16.1599 23.31 16.159C23.3724 16.1572 23.4366 16.1563 23.5 16.1563C27.5556 16.1563 30.8437 19.4444 30.8437 23.5C30.8437 24.7677 30.5225 25.9602 29.957 27.0002C29.901 27.103 29.8431 27.2049 29.7826 27.3041C29.7513 27.3564 29.7192 27.4069 29.6861 27.4583C29.6274 27.5501 29.5669 27.64 29.5044 27.7291C29.498 27.7383 29.4915 27.7465 29.4852 27.7557C29.3511 27.9448 29.2079 28.1275 29.0555 28.3019C28.9407 28.435 28.8205 28.5644 28.6956 28.6893C28.5828 28.8022 28.4661 28.9123 28.346 29.017C27.842 29.4604 27.2774 29.8358 26.6652 30.1277C26.5642 30.1764 26.4622 30.2223 26.3585 30.2663C26.1392 30.3591 25.9133 30.4417 25.6838 30.5133C25.4534 30.5849 25.2194 30.6455 24.9798 30.6941C24.5015 30.7923 24.0066 30.8438 23.5 30.8438C19.4444 30.8438 16.1562 27.5556 16.1562 23.5C16.1562 23.4367 16.1572 23.3733 16.159 23.3109C16.1599 23.2595 16.1617 23.209 16.1645 23.1576C16.1663 23.1099 16.169 23.0621 16.1719 23.0153C16.1728 23.0015 16.1737 22.9878 16.1746 22.974C16.1783 22.9299 16.1809 22.8859 16.1856 22.8418C16.1865 22.8308 16.1875 22.8207 16.1883 22.8097C16.193 22.7574 16.1985 22.705 16.2049 22.6536V22.6518C16.2112 22.5967 16.2178 22.5416 16.226 22.4866C16.2315 22.4453 16.237 22.4039 16.2444 22.3626C16.2517 22.3076 16.2608 22.2543 16.271 22.2002C16.2727 22.1855 16.2756 22.1717 16.2783 22.157" stroke="white" stroke-width="2" stroke-linecap="round" stroke-linejoin="round"/>
<path d="M23.5 26.2539C21.9817 26.2539 20.7461 25.0183 20.7461 23.5C20.7461 21.9817 21.9817 20.7461 23.5 20.7461C25.0183 20.7461 26.2539 21.9817 26.2539 23.5C26.2539 25.0183 25.0183 26.2539 23.5 26.2539Z" stroke="white" stroke-width="2" stroke-linecap="round" stroke-linejoin="round"/>
</g>
</svg>
