<svg width="60" height="60" viewBox="0 0 60 60" fill="none" xmlns="http://www.w3.org/2000/svg">
<path d="M44.538 31.5004C44.1936 34.8393 42.7141 37.9589 40.3466 40.3384C37.9792 42.7178 34.8671 44.2131 31.53 44.5744C31.4628 44.5736 31.3961 44.5863 31.3339 44.6116C31.2716 44.6369 31.2151 44.6745 31.1676 44.722C31.1201 44.7695 31.0825 44.8261 31.0572 44.8883C31.0318 44.9505 31.0192 45.0172 31.02 45.0844V55.9984C31.02 56.2689 30.9125 56.5284 30.7212 56.7197C30.53 56.911 30.2705 57.0184 30 57.0184C29.7295 57.0184 29.47 56.911 29.2788 56.7197C29.0875 56.5284 28.98 56.2689 28.98 55.9984V52.0384C28.9703 51.9064 28.9134 51.7822 28.8198 51.6886C28.7262 51.595 28.602 51.5381 28.47 51.5284C23.9335 51.1613 19.6304 49.3643 16.1802 46.396C12.7299 43.4277 10.3105 39.4412 9.27 35.0104C9.23127 34.8791 9.21936 34.7414 9.23497 34.6054C9.25059 34.4695 9.29341 34.338 9.36089 34.2189C9.42837 34.0998 9.51912 33.9956 9.62775 33.9123C9.73637 33.829 9.86065 33.7685 9.99317 33.7342C10.1257 33.7 10.2637 33.6928 10.3991 33.713C10.5345 33.7332 10.6644 33.7805 10.7811 33.852C10.8978 33.9235 10.999 34.0177 11.0785 34.1291C11.158 34.2405 11.2143 34.3668 11.244 34.5004C12.169 38.4776 14.3259 42.0613 17.4071 44.7408C20.4884 47.4202 24.3369 49.0586 28.404 49.4224C28.536 49.4884 28.662 49.4224 28.788 49.2964C28.8546 49.2588 28.9085 49.2022 28.9427 49.1338C28.9769 49.0653 28.9899 48.9883 28.98 48.9124V45.0844C28.9808 45.0172 28.9682 44.9505 28.9428 44.8883C28.9175 44.8261 28.8799 44.7695 28.8324 44.722C28.7849 44.6745 28.7284 44.6369 28.6661 44.6116C28.6039 44.5863 28.5372 44.5736 28.47 44.5744C25.1488 44.2044 22.0497 42.7246 19.674 40.3744C17.2988 37.9873 15.816 34.8565 15.474 31.5064C15.4545 31.3838 15.393 31.2718 15.2999 31.1897C15.2068 31.1076 15.0881 31.0605 14.964 31.0564H4.05C3.77152 31.0564 3.50445 30.9458 3.30754 30.7489C3.11062 30.552 3 30.2849 3 30.0064C3 29.7279 3.11062 29.4609 3.30754 29.264C3.50445 29.067 3.77152 28.9564 4.05 28.9564H8.196C8.31972 28.9513 8.4379 28.9037 8.53075 28.8218C8.6236 28.7399 8.68547 28.6285 8.706 28.5064C8.97826 23.9766 10.6613 19.6457 13.5192 16.1207C16.377 12.5957 20.2664 10.0535 24.642 8.85042C24.907 8.80013 25.1812 8.85312 25.4083 8.99854C25.6354 9.14396 25.7983 9.37079 25.8636 9.63249C25.9288 9.89419 25.8914 10.1709 25.7591 10.406C25.6268 10.641 25.4096 10.8165 25.152 10.8964C21.2374 11.952 17.7501 14.2037 15.1771 17.3371C12.6041 20.4705 11.0739 24.3292 10.8 28.3744C10.7831 28.4489 10.7838 28.5264 10.802 28.6006C10.8202 28.6748 10.8554 28.7438 10.9049 28.802C10.9544 28.8602 11.0168 28.9061 11.0871 28.936C11.1574 28.966 11.2337 28.9791 11.31 28.9744H14.94C15.0641 28.9704 15.1828 28.9232 15.2759 28.8411C15.369 28.759 15.4305 28.647 15.45 28.5244C15.7898 25.1794 17.2687 22.0528 19.639 19.6682C22.0093 17.2837 25.1271 15.7862 28.47 15.4264C28.5372 15.4272 28.6039 15.4146 28.6661 15.3892C28.7284 15.3639 28.7849 15.3264 28.8324 15.2788C28.8799 15.2313 28.9175 15.1748 28.9428 15.1125C28.9682 15.0503 28.9808 14.9836 28.98 14.9164V4.00242C28.98 3.7319 29.0875 3.47246 29.2788 3.28117C29.47 3.08989 29.7295 2.98242 30 2.98242C30.2705 2.98242 30.53 3.08989 30.7212 3.28117C30.9125 3.47246 31.02 3.7319 31.02 4.00242V16.3804C31.0268 16.5249 31.0034 16.6691 30.9513 16.804C30.8991 16.9388 30.8194 17.0613 30.7171 17.1636C30.6149 17.2658 30.4924 17.3456 30.3576 17.3977C30.2227 17.4499 30.0784 17.4733 29.934 17.4664C18.84 17.4664 13.296 31.0504 21.138 38.8984C28.98 46.7464 42.366 41.1304 42.558 30.0004C42.5564 29.866 42.5817 29.7327 42.6324 29.6082C42.6831 29.4837 42.7581 29.3706 42.8532 29.2756C42.9482 29.1805 43.0613 29.1055 43.1858 29.0548C43.3102 29.0041 43.4436 28.9788 43.578 28.9804H55.95C56.2285 28.9804 56.4955 29.091 56.6925 29.288C56.8894 29.4849 57 29.7519 57 30.0304C57 30.3089 56.8894 30.576 56.6925 30.7729C56.4955 30.9698 56.2285 31.0804 55.95 31.0804H51.87C51.7434 31.0753 51.6197 31.1193 51.5247 31.2031C51.4297 31.2869 51.3707 31.4042 51.36 31.5304C51.0289 36.0884 49.2661 40.4253 46.3234 43.9219C43.3807 47.4184 39.4085 49.8958 34.974 51.0004C33.636 51.3184 33.174 49.2784 34.524 48.9604C38.4843 47.9758 42.0358 45.7735 44.6784 42.6638C47.3209 39.5541 48.9213 35.6937 49.254 31.6264C49.2709 31.5519 49.2702 31.4745 49.252 31.4002C49.2338 31.326 49.1986 31.2571 49.1491 31.1988C49.0996 31.1406 49.0372 31.0947 48.9669 31.0648C48.8966 31.0349 48.8203 31.0217 48.744 31.0264H45.048C44.9239 31.0305 44.8052 31.0776 44.7121 31.1597C44.619 31.2418 44.5575 31.3538 44.538 31.4764V31.5004ZM52.8 14.5324L45.426 21.8644C45.2458 22.06 44.9957 22.1765 44.73 22.1884H39.816C39.6819 22.2002 39.5524 22.2433 39.438 22.3144L30.702 31.1164C30.5056 31.2999 30.2456 31.4001 29.9768 31.3958C29.708 31.3915 29.4514 31.2831 29.2609 31.0934C29.0704 30.9037 28.961 30.6475 28.9556 30.3788C28.9502 30.11 29.0493 29.8496 29.232 29.6524L37.968 20.8444C38.0268 20.815 38.076 20.7695 38.11 20.7132C38.144 20.6569 38.1613 20.5921 38.16 20.5264V15.6004C38.1588 15.4585 38.1863 15.3178 38.241 15.1869C38.2956 15.0559 38.3763 14.9374 38.478 14.8384L45.81 7.51242C45.9516 7.35936 46.136 7.25248 46.3392 7.20571C46.5423 7.15894 46.7549 7.17444 46.9492 7.2502C47.1434 7.32596 47.3103 7.45846 47.4282 7.63044C47.5461 7.80243 47.6094 8.00592 47.61 8.21442V12.2344C47.6185 12.3669 47.6749 12.4917 47.7688 12.5856C47.8627 12.6795 47.9875 12.7359 48.12 12.7444H52.074C52.2849 12.7389 52.4926 12.797 52.67 12.9112C52.8473 13.0254 52.9862 13.1904 53.0684 13.3847C53.1507 13.579 53.1725 13.7936 53.131 14.0004C53.0896 14.2073 52.9868 14.3968 52.836 14.5444L52.8 14.5324ZM44.4 19.9324L48.672 15.6604C48.7462 15.5918 48.7987 15.503 48.8229 15.4049C48.847 15.3068 48.8419 15.2037 48.808 15.1085C48.7741 15.0133 48.7131 14.9301 48.6324 14.8693C48.5516 14.8085 48.4549 14.7727 48.354 14.7664H46.554C46.2753 14.7729 46.0053 14.6696 45.8021 14.4788C45.599 14.288 45.4789 14.0249 45.468 13.7464V12.0004C45.4675 11.8971 45.4367 11.7962 45.3794 11.7102C45.3221 11.6242 45.2408 11.5569 45.1456 11.5167C45.0505 11.4764 44.9456 11.465 44.8439 11.4838C44.7423 11.5026 44.6485 11.5508 44.574 11.6224L40.374 15.8944C40.2619 15.9921 40.1929 16.1301 40.182 16.2784V19.5964C40.1812 19.6636 40.1938 19.7303 40.2192 19.7925C40.2445 19.8548 40.2821 19.9113 40.3296 19.9588C40.3771 20.0064 40.4336 20.0439 40.4959 20.0692C40.5581 20.0946 40.6248 20.1072 40.692 20.1064H44.07C44.202 20.1064 44.328 20.1064 44.388 19.9744L44.4 19.9324ZM38.664 30.0124C38.6664 31.7279 38.1598 33.4056 37.2083 34.8331C36.2568 36.2606 34.9032 37.3737 33.3188 38.0316C31.7344 38.6895 29.9905 38.8625 28.3077 38.5289C26.625 38.1952 25.079 37.3698 23.8655 36.1572C22.652 34.9445 21.8256 33.3991 21.4907 31.7166C21.1559 30.0341 21.3278 28.29 21.9845 26.7052C22.6413 25.1203 23.7535 23.766 25.1803 22.8135C26.6072 21.861 28.2845 21.3532 30 21.3544C30.2578 21.3742 30.4986 21.4905 30.6743 21.6802C30.85 21.8699 30.9476 22.1189 30.9476 22.3774C30.9476 22.636 30.85 22.885 30.6743 23.0746C30.4986 23.2643 30.2578 23.3807 30 23.4004C28.2496 23.4004 26.5708 24.0958 25.3331 25.3335C24.0954 26.5713 23.4 28.25 23.4 30.0004C23.4 31.7508 24.0954 33.4296 25.3331 34.6673C26.5708 35.9051 28.2496 36.6004 30 36.6004C33.828 36.6004 36.378 33.7324 36.564 30.0004C36.558 29.8557 36.5819 29.7112 36.6341 29.5761C36.6863 29.4409 36.7658 29.318 36.8676 29.2149C36.9694 29.1118 37.0913 29.0307 37.2258 28.9768C37.3602 28.9228 37.5043 28.8971 37.6492 28.9012C37.794 28.9053 37.9364 28.9392 38.0676 29.0008C38.1988 29.0623 38.3159 29.1501 38.4116 29.2589C38.5074 29.3676 38.5797 29.4949 38.6242 29.6328C38.6686 29.7707 38.6842 29.9162 38.67 30.0604L38.664 30.0124Z" fill="white"/>
</svg>
