<svg width="20" height="19" viewBox="0 0 20 19" fill="none" xmlns="http://www.w3.org/2000/svg">
<path d="M19.7197 11.6259V17.6259C19.7197 17.9243 19.6012 18.2104 19.3902 18.4214C19.1792 18.6324 18.8931 18.7509 18.5947 18.7509H2.09473C1.79636 18.7509 1.51021 18.6324 1.29923 18.4214C1.08825 18.2104 0.969727 17.9243 0.969727 17.6259V11.6259C0.969727 11.3275 1.08825 11.0414 1.29923 10.8304C1.51021 10.6194 1.79636 10.5009 2.09473 10.5009C2.3931 10.5009 2.67924 10.6194 2.89022 10.8304C3.1012 11.0414 3.21973 11.3275 3.21973 11.6259V16.5009H17.4697V11.6259C17.4697 11.3275 17.5883 11.0414 17.7992 10.8304C18.0102 10.6194 18.2964 10.5009 18.5947 10.5009C18.8931 10.5009 19.1792 10.6194 19.3902 10.8304C19.6012 11.0414 19.7197 11.3275 19.7197 11.6259ZM7.39066 5.67182L9.21973 3.84464V11.6259C9.21973 11.9243 9.33825 12.2104 9.54923 12.4214C9.76021 12.6324 10.0464 12.7509 10.3447 12.7509C10.6431 12.7509 10.9292 12.6324 11.1402 12.4214C11.3512 12.2104 11.4697 11.9243 11.4697 11.6259V3.84464L13.2988 5.67464C13.4034 5.77928 13.5277 5.86229 13.6644 5.91893C13.8011 5.97556 13.9477 6.00471 14.0957 6.00471C14.2437 6.00471 14.3902 5.97556 14.5269 5.91893C14.6637 5.86229 14.7879 5.77928 14.8925 5.67464C14.9972 5.56999 15.0802 5.44576 15.1368 5.30903C15.1935 5.1723 15.2226 5.02575 15.2226 4.87776C15.2226 4.72977 15.1935 4.58322 15.1368 4.4465C15.0802 4.30977 14.9972 4.18553 14.8925 4.08089L11.1425 0.330887C11.038 0.226007 10.9138 0.142791 10.7771 0.0860095C10.6403 0.0292285 10.4937 0 10.3457 0C10.1976 0 10.051 0.0292285 9.91424 0.0860095C9.7775 0.142791 9.65331 0.226007 9.54879 0.330887L5.79879 4.08089C5.69414 4.18553 5.61113 4.30977 5.5545 4.4465C5.49786 4.58322 5.46871 4.72977 5.46871 4.87776C5.46871 5.17665 5.58744 5.46329 5.79879 5.67464C6.01013 5.88598 6.29678 6.00471 6.59566 6.00471C6.89455 6.00471 7.18119 5.88598 7.39254 5.67464L7.39066 5.67182Z" fill="#488253"/>
</svg>
