<svg width="23" height="23" viewBox="0 0 23 23" fill="none" xmlns="http://www.w3.org/2000/svg">
<path d="M18.7316 17.2057C18.9341 17.4083 19.0479 17.683 19.0479 17.9694C19.0479 18.2558 18.9341 18.5305 18.7316 18.7331C18.5291 18.9356 18.2544 19.0494 17.9679 19.0494C17.6815 19.0494 17.4068 18.9356 17.2043 18.7331L11.5001 13.0271L5.79411 18.7313C5.59157 18.9338 5.31687 19.0476 5.03043 19.0476C4.744 19.0476 4.4693 18.9338 4.26676 18.7313C4.06422 18.5287 3.95044 18.254 3.95044 17.9676C3.95044 17.6812 4.06422 17.4065 4.26676 17.2039L9.97274 11.4998L4.26856 5.79378C4.06602 5.59125 3.95224 5.31654 3.95224 5.03011C3.95224 4.74368 4.06602 4.46898 4.26856 4.26644C4.4711 4.0639 4.7458 3.95012 5.03223 3.95012C5.31866 3.95012 5.59337 4.0639 5.7959 4.26644L11.5001 9.97242L17.2061 4.26554C17.4086 4.063 17.6833 3.94922 17.9697 3.94922C18.2562 3.94922 18.5309 4.063 18.7334 4.26554C18.9359 4.46808 19.0497 4.74278 19.0497 5.02921C19.0497 5.31565 18.9359 5.59035 18.7334 5.79289L13.0274 11.4998L18.7316 17.2057Z" fill="white"/>
</svg>
