<svg width="64" height="64" viewBox="0 0 64 64" fill="none" xmlns="http://www.w3.org/2000/svg">
<g clip-path="url(#clip0_205_9322)">
<path d="M62.6626 16.4951C61.9266 13.7236 59.758 11.541 57.0044 10.8001C52.0134 9.4541 32 9.4541 32 9.4541C32 9.4541 11.9866 9.4541 6.99563 10.8001C4.242 11.5409 2.07337 13.7236 1.33738 16.4951C0 21.5186 0 31.9996 0 31.9996C0 31.9996 0 42.4806 1.33738 47.5041C2.07337 50.2756 4.242 52.4582 6.99563 53.1991C11.9866 54.5451 32 54.5451 32 54.5451C32 54.5451 52.0134 54.5451 57.0044 53.1991C59.758 52.4582 61.9266 50.2756 62.6626 47.5041C64 42.4806 64 31.9996 64 31.9996C64 31.9996 64 21.5186 62.6626 16.4951Z" fill="#FF0000"/>
<path d="M25.4545 41.5154L42.1817 31.9997L25.4545 22.4834V41.5154Z" fill="white"/>
</g>
<defs>
<clipPath id="clip0_205_9322">
<rect width="64" height="64" fill="white"/>
</clipPath>
</defs>
</svg>
