<svg width="24" height="24" viewBox="0 0 24 24" fill="none" xmlns="http://www.w3.org/2000/svg">
<path d="M15 3.75C15.4142 3.75 15.75 3.41421 15.75 3C15.75 2.58579 15.4142 2.25 15 2.25H11.9548C10.1182 2.24999 8.67861 2.24999 7.53648 2.37373C6.37094 2.50001 5.42656 2.76232 4.62024 3.34815C4.13209 3.70281 3.70281 4.13209 3.34815 4.62023C2.76232 5.42656 2.50001 6.37094 2.37373 7.53648C2.24999 8.67861 2.24999 10.1182 2.25 11.9548V12.0452C2.24999 13.8818 2.24999 15.3214 2.37373 16.4635C2.50001 17.6291 2.76232 18.5734 3.34815 19.3798C3.70281 19.8679 4.13209 20.2972 4.62023 20.6518C5.42656 21.2377 6.37094 21.5 7.53648 21.6263C8.67859 21.75 10.1182 21.75 11.9547 21.75H12.0453C13.8818 21.75 15.3214 21.75 16.4635 21.6263C17.6291 21.5 18.5734 21.2377 19.3798 20.6518C19.8679 20.2972 20.2972 19.8679 20.6518 19.3798C21.2377 18.5734 21.5 17.6291 21.6263 16.4635C21.75 15.3214 21.75 13.8818 21.75 12.0453V9C21.75 8.58579 21.4142 8.25 21 8.25C20.5858 8.25 20.25 8.58579 20.25 9V12C20.25 13.8916 20.249 15.25 20.135 16.302C20.0225 17.3399 19.8074 17.9901 19.4383 18.4981C19.1762 18.8589 18.8589 19.1762 18.4981 19.4383C17.9901 19.8074 17.3399 20.0225 16.302 20.135C15.25 20.249 13.8916 20.25 12 20.25C10.1084 20.25 8.74999 20.249 7.69804 20.135C6.66013 20.0225 6.00992 19.8074 5.50191 19.4383C5.14111 19.1762 4.82382 18.8589 4.56168 18.4981C4.19259 17.9901 3.97745 17.3399 3.865 16.302C3.75103 15.25 3.75 13.8916 3.75 12C3.75 10.1084 3.75103 8.74999 3.865 7.69805C3.97745 6.66013 4.19259 6.00992 4.56168 5.50191C4.82382 5.14111 5.14111 4.82382 5.50191 4.56168C6.00992 4.19259 6.66013 3.97745 7.69805 3.865C8.74999 3.75103 10.1084 3.75 12 3.75H15Z" fill="#141414"/>
<path d="M6.32682 14.5268C6.1444 14.8987 6.29799 15.3481 6.66987 15.5305C7.04175 15.7129 7.4911 15.5593 7.67352 15.1874L9.13386 12.2104C9.58649 11.2876 10.9169 11.3327 11.306 12.284C12.1852 14.433 15.1906 14.5348 16.2132 12.4502L17.6736 9.47317C17.856 9.10128 17.7024 8.65193 17.3305 8.46952C16.9586 8.2871 16.5093 8.44069 16.3268 8.81257L14.8665 11.7896C14.4139 12.7124 13.0835 12.6673 12.6944 11.716C11.8152 9.56699 8.80972 9.46518 7.78715 11.5498L6.32682 14.5268Z" fill="#141414"/>
<path fill-rule="evenodd" clip-rule="evenodd" d="M17.5 4C17.5 5.38071 18.6193 6.5 20 6.5C21.3807 6.5 22.5 5.38071 22.5 4C22.5 2.61929 21.3807 1.5 20 1.5C18.6193 1.5 17.5 2.61929 17.5 4ZM19 4C19 4.55228 19.4477 5 20 5C20.5523 5 21 4.55228 21 4C21 3.44772 20.5523 3 20 3C19.4477 3 19 3.44772 19 4Z" fill="#141414"/>
</svg>
