<svg width="24" height="24" viewBox="0 0 24 24" fill="none" xmlns="http://www.w3.org/2000/svg">
<path d="M18.8846 1.09091H12.9106H6.60413C5.08693 1.0937 3.8557 2.31915 3.8457 3.83635V20.1635C3.8557 21.6807 5.08693 22.9062 6.60413 22.9089H18.8924C19.2298 22.9139 19.5551 22.784 19.7962 22.5479C20.0263 22.3116 20.1549 21.9947 20.1547 21.6648V2.36103C20.1533 1.66013 19.5855 1.09234 18.8846 1.09091ZM13.4353 2.12987H16.4872V7.00256L15.4041 5.2753C15.3602 5.20218 15.299 5.14095 15.2259 5.09712C14.9799 4.94952 14.6608 5.02926 14.5132 5.2753L13.4353 6.99477V2.12987ZM4.89764 3.83635C4.90193 2.89564 5.66342 2.13415 6.60413 2.12987H12.3963V7.42853C12.3768 7.85028 12.6416 8.23307 13.043 8.36359C13.5002 8.50125 13.9106 8.20515 14.1547 7.81554L14.9625 6.51685L15.7703 7.81554C16.0119 8.19996 16.4222 8.49606 16.8924 8.36359C17.292 8.23359 17.5563 7.85359 17.5391 7.43373V2.14285H18.8924C19.0123 2.14428 19.1091 2.2411 19.1105 2.36103V17.4255C19.0385 17.4133 18.9655 17.4073 18.8924 17.4077H6.60413C5.98446 17.4075 5.38297 17.6172 4.89764 18.0025V3.83635ZM19.1105 19.6492L7.13399 19.6622C6.84711 19.6622 6.61452 19.8948 6.61452 20.1817C6.61452 20.4686 6.84711 20.7012 7.13399 20.7012L19.1105 20.6882V21.6544C19.1111 21.7125 19.0887 21.7686 19.0482 21.8103C19.0065 21.8507 18.9505 21.8731 18.8924 21.8726H6.60413C5.66095 21.8726 4.89635 21.108 4.89635 20.1648C4.89635 19.2216 5.66095 18.457 6.60413 18.457H18.8924C19.0123 18.4585 19.1091 18.5553 19.1105 18.6752V19.6492Z" fill="#141414" stroke="#141414" stroke-width="0.3"/>
</svg>
