<svg width="22" height="22" viewBox="0 0 22 22" fill="none" xmlns="http://www.w3.org/2000/svg">
<g clip-path="url(#clip0_1177_12022)">
<path d="M16.2428 9.59091C16.7716 9.23655 17.1508 8.7079 17.3179 8.08404C17.5007 7.40212 17.408 6.69177 17.057 6.0838C16.7059 5.47584 16.1371 5.04039 15.4552 4.85764C14.8313 4.6905 14.1839 4.75452 13.6127 5.03528L12.1407 2.48581C11.8274 1.94307 11.2646 1.62674 10.6397 1.63739C10.0132 1.64887 9.46412 1.9863 9.17073 2.54004C8.96474 2.92908 8.77125 3.3332 8.56642 3.76108C7.73158 5.50497 6.78536 7.48153 4.73975 8.66257L2.11122 10.1801C1.20643 10.7025 0.558333 11.5493 0.286255 12.5646C0.0142198 13.58 0.152064 14.6374 0.674435 15.5422C1.40065 16.8 2.7228 17.504 4.08048 17.504C4.57565 17.504 5.07551 17.4102 5.55298 17.2156L7.39054 20.3984C7.77072 21.0569 8.46269 21.4253 9.1734 21.4253C9.5217 21.4253 9.87456 21.3368 10.1973 21.1504C10.6711 20.8769 11.0105 20.4336 11.1528 19.9024C11.2951 19.3711 11.2229 18.8176 10.9493 18.3437L9.14121 15.212C11.0449 14.3069 13.043 14.4605 14.8221 14.598C15.2955 14.6346 15.7425 14.6692 16.1828 14.6853C16.8082 14.7077 17.3759 14.4013 17.699 13.8644C18.0222 13.3275 18.0281 12.683 17.7147 12.1403L16.2428 9.59078L16.2428 9.59091ZM15.1772 5.89525C15.5819 6.00371 15.9191 6.26139 16.1267 6.62091C16.5274 7.3149 16.3332 8.19146 15.7039 8.65733L14.1517 5.9689C14.473 5.82938 14.8309 5.80244 15.1772 5.89525H15.1772ZM4.07872 16.4301C3.09267 16.43 2.13224 15.9187 1.60479 15.0051C1.2259 14.3488 1.12612 13.5809 1.32395 12.8427C1.52174 12.1045 1.99211 11.4894 2.64838 11.1105L4.81198 9.86131L7.66571 14.798L5.49948 16.0487C5.05158 16.3073 4.56216 16.4302 4.07872 16.4301ZM10.1153 19.6244C10.0472 19.8785 9.88556 20.0901 9.66023 20.2202C9.19204 20.4905 8.59121 20.3296 8.32085 19.8613L6.50168 16.7104L8.19989 15.73L10.0191 18.8809C10.1492 19.1063 10.1833 19.3703 10.1152 19.6244H10.1153ZM16.7787 13.3105C16.6565 13.5135 16.4596 13.621 16.2221 13.6118C15.8036 13.5965 15.3671 13.5628 14.9049 13.5271C12.9635 13.3771 10.7806 13.2088 8.60526 14.2769L5.73306 9.30822C7.74812 7.95694 8.69429 5.98184 9.53536 4.22497C9.73534 3.80719 9.92427 3.41256 10.12 3.04286C10.2309 2.83347 10.4225 2.71578 10.6594 2.71148C10.6639 2.7114 10.6683 2.71136 10.6728 2.71136C10.9036 2.71136 11.0942 2.82166 11.2105 3.02296L16.7845 12.6776C16.903 12.8827 16.901 13.1076 16.7787 13.3105L16.7787 13.3105ZM15.3835 2.76446L16.4926 0.843246C16.641 0.586335 16.9694 0.498293 17.2263 0.646664C17.4832 0.794992 17.5713 1.12349 17.4229 1.38036L16.3137 3.30157C16.2143 3.47388 16.0337 3.57021 15.8481 3.57021C15.7569 3.57021 15.6646 3.54701 15.58 3.49816C15.3231 3.34983 15.2351 3.02133 15.3835 2.76446ZM20.3701 4.79113L18.4024 5.92722C18.3178 5.97603 18.2255 5.99928 18.1344 5.99928C17.9487 5.99928 17.7682 5.90294 17.6687 5.73064C17.5204 5.47373 17.6084 5.14523 17.8653 4.99695L19.833 3.86085C20.0898 3.71248 20.4184 3.80057 20.5667 4.05744C20.715 4.3143 20.627 4.64284 20.3701 4.79113ZM21.8504 8.65565C21.8504 8.95226 21.6099 9.19276 21.3133 9.19276H19.0948C18.7982 9.19276 18.5577 8.95231 18.5577 8.65565C18.5577 8.359 18.7982 8.11854 19.0948 8.11854H21.3133C21.6099 8.11854 21.8504 8.359 21.8504 8.65565Z" fill="#141414" stroke="#141414" stroke-width="0.4"/>
</g>
<defs>
<clipPath id="clip0_1177_12022">
<rect width="22" height="22" fill="white"/>
</clipPath>
</defs>
</svg>
