<svg width="20" height="20" viewBox="0 0 20 20" fill="none" xmlns="http://www.w3.org/2000/svg">
<g clip-path="url(#clip0_1177_11995)">
<mask id="mask0_1177_11995" style="mask-type:luminance" maskUnits="userSpaceOnUse" x="0" y="0" width="20" height="20">
<path d="M0 1.90735e-06H20V20H0V1.90735e-06Z" fill="white"/>
</mask>
<g mask="url(#mask0_1177_11995)">
<path d="M12.7344 0.585938V3.71094C12.7344 4.14242 13.0841 4.49219 13.5156 4.49219H16.6406" stroke="#141414" stroke-width="1.3" stroke-miterlimit="10" stroke-linecap="round" stroke-linejoin="round"/>
<path d="M10 7.69531L8.86937 5.43402C8.60469 4.90473 8.06367 4.57031 7.47183 4.57031H2.14844C1.28551 4.57031 0.585938 5.26985 0.585938 6.13281V17.8516C0.585938 18.7145 1.28551 19.4141 2.14844 19.4141H17.8516C18.7145 19.4141 19.4141 18.7145 19.4141 17.8516V9.25781C19.4141 8.39484 18.7145 7.69531 17.8516 7.69531H10Z" stroke="#141414" stroke-width="1.3" stroke-miterlimit="10" stroke-linecap="round" stroke-linejoin="round"/>
<path d="M19.4141 9.25781V6.91406C19.4141 6.05109 18.7145 5.35156 17.8516 5.35156H16.6406" stroke="#141414" stroke-width="1.3" stroke-miterlimit="10" stroke-linecap="round" stroke-linejoin="round"/>
<path d="M16.6406 7.69531V4.49219L12.7344 0.585938H3.35938V4.57031" stroke="#141414" stroke-width="1.3" stroke-miterlimit="10" stroke-linecap="round" stroke-linejoin="round"/>
<path d="M13.125 12.3828H11.1719V10.4297H8.82812V12.3828H6.875V14.7266H8.82812V16.6797H11.1719V14.7266H13.125V12.3828Z" stroke="#141414" stroke-width="1.3" stroke-miterlimit="10" stroke-linecap="round" stroke-linejoin="round"/>
</g>
</g>
<defs>
<clipPath id="clip0_1177_11995">
<rect width="20" height="20" fill="white"/>
</clipPath>
</defs>
</svg>
