<svg width="23" height="23" viewBox="0 0 23 23" fill="none" xmlns="http://www.w3.org/2000/svg">
<path d="M20.8436 9.07541V3.83332C20.8436 2.37666 19.6648 1.19791 18.2082 1.19791H6.70817C5.2515 1.19791 4.07275 2.37666 4.07275 3.83332V5.10791C2.434 5.44332 1.19775 6.89041 1.19775 8.62499V18.2083C1.19775 20.1921 2.80775 21.8021 4.7915 21.8021H18.2082C20.1919 21.8021 21.8019 20.1921 21.8019 18.2083V11.5C21.8019 10.5608 21.4378 9.71749 20.8436 9.07541ZM6.70817 2.63541H18.2082C18.8694 2.63541 19.4061 3.17207 19.4061 3.83332V8.12666C19.0323 7.99249 18.6298 7.90624 18.2082 7.90624H13.934C13.8573 7.90624 13.7807 7.86791 13.7328 7.80082L12.3815 5.77874C12.0653 5.30916 11.5478 5.03124 10.9823 5.03124H5.51025V3.83332C5.51025 3.17207 6.04692 2.63541 6.70817 2.63541ZM20.3644 18.2083C20.3644 19.3967 19.3965 20.3646 18.2082 20.3646H4.7915C3.60317 20.3646 2.63525 19.3967 2.63525 18.2083V8.62499C2.63525 7.43666 3.60317 6.46874 4.7915 6.46874H10.9823C11.059 6.46874 11.1357 6.50707 11.1836 6.57416L12.5348 8.59624C12.8511 9.06582 13.3686 9.34374 13.934 9.34374H18.2082C19.3965 9.34374 20.3644 10.3117 20.3644 11.5V18.2083ZM15.0936 14.375C15.0936 14.7679 14.7678 15.0937 14.3748 15.0937H12.2186V17.25C12.2186 17.6429 11.8928 17.9687 11.4998 17.9687C11.1069 17.9687 10.7811 17.6429 10.7811 17.25V15.0937H8.62484C8.23192 15.0937 7.90609 14.7679 7.90609 14.375C7.90609 13.9821 8.23192 13.6562 8.62484 13.6562H10.7811V11.5C10.7811 11.1071 11.1069 10.7812 11.4998 10.7812C11.8928 10.7812 12.2186 11.1071 12.2186 11.5V13.6562H14.3748C14.7678 13.6562 15.0936 13.9821 15.0936 14.375Z" fill="#141414"/>
</svg>
