<svg width="25" height="25" viewBox="0 0 25 25" fill="none" xmlns="http://www.w3.org/2000/svg">
<path d="M6.25 10.1563C6.25 9.72501 6.59922 9.37501 7.03125 9.37501H11.7188C12.1508 9.37501 12.5 9.72501 12.5 10.1563C12.5 10.5875 12.1508 10.9375 11.7188 10.9375H7.03125C6.59922 10.9375 6.25 10.5875 6.25 10.1563ZM11.7188 12.5H7.03125C6.59922 12.5 6.25 12.85 6.25 13.2813C6.25 13.7125 6.59922 14.0625 7.03125 14.0625H11.7188C12.1508 14.0625 12.5 13.7125 12.5 13.2813C12.5 12.85 12.1508 12.5 11.7188 12.5ZM11.7188 15.625H7.03125C6.59922 15.625 6.25 15.975 6.25 16.4063C6.25 16.8375 6.59922 17.1875 7.03125 17.1875H11.7188C12.1508 17.1875 12.5 16.8375 12.5 16.4063C12.5 15.975 12.1508 15.625 11.7188 15.625ZM11.7188 18.75H7.03125C6.59922 18.75 6.25 19.1 6.25 19.5313C6.25 19.9625 6.59922 20.3125 7.03125 20.3125H11.7188C12.1508 20.3125 12.5 19.9625 12.5 19.5313C12.5 19.1 12.1508 18.75 11.7188 18.75ZM23.4375 22.6563C23.4375 23.0875 23.0883 23.4375 22.6562 23.4375H2.34375C1.91172 23.4375 1.5625 23.0875 1.5625 22.6563C1.5625 22.225 1.91172 21.875 2.34375 21.875H3.125V7.51408C3.125 6.91798 3.45625 6.38283 3.98828 6.11642L13.3633 1.42892C13.8523 1.18517 14.4195 1.21017 14.8836 1.49689C15.3477 1.78361 15.6242 2.28048 15.6242 2.82658V8.59376H20.3117C21.1734 8.59376 21.8742 9.29454 21.8742 10.1563V21.875H22.6555C23.0875 21.875 23.4375 22.225 23.4375 22.6563ZM15.625 10.1563V21.875H20.3125V10.1563H15.625ZM4.6875 21.875H14.0625V2.82658L4.6875 7.51408V21.875Z" fill="#141414"/>
</svg>
