<svg width="22" height="22" viewBox="0 0 22 22" fill="none" xmlns="http://www.w3.org/2000/svg">
<path d="M18.5625 3.61523H18.3552V2.84213C18.3552 1.83323 17.5347 1.0127 16.5261 1.0127C15.5176 1.0127 14.6967 1.83323 14.6967 2.84213V3.61523H7.30331V2.84213C7.30331 1.83323 6.48244 1.0127 5.47388 1.0127C4.46531 1.0127 3.64478 1.83323 3.64478 2.84213V3.61523H3.4375C1.92122 3.61523 0.6875 4.84895 0.6875 6.36523V14.739C0.6875 16.2553 1.92122 17.489 3.4375 17.489H9.54594C9.87594 19.4704 11.5971 20.987 13.6709 20.987C15.7448 20.987 17.4656 19.4704 17.7956 17.489H18.5628C20.0791 17.489 21.3128 16.2553 21.3128 14.739V6.36523C21.3128 4.84895 20.0788 3.61523 18.5625 3.61523ZM16.0717 2.84213C16.0717 2.59154 16.2755 2.3877 16.5261 2.3877C16.7767 2.3877 16.9802 2.59154 16.9802 2.84213V3.61523H16.0713V2.84213H16.0717ZM5.01978 2.84213C5.01978 2.59154 5.22362 2.3877 5.47388 2.3877C5.72412 2.3877 5.92831 2.59154 5.92831 2.84213V3.61523H5.01944L5.01978 2.84213ZM3.4375 4.99023H18.5625C19.3208 4.99023 19.9375 5.60691 19.9375 6.36523V7.10188H2.0625V6.36523C2.0625 5.60691 2.67919 4.99023 3.4375 4.99023ZM13.6709 19.6123C12.1206 19.6123 10.8594 18.3511 10.8594 16.8008C10.8594 15.2505 12.1206 13.9893 13.6709 13.9893C15.2213 13.9893 16.4821 15.2505 16.4821 16.8008C16.4821 18.3511 15.2209 19.6123 13.6709 19.6123ZM18.5625 16.114H17.7956C17.4663 14.1319 15.7448 12.6143 13.6709 12.6143C11.5971 12.6143 9.87491 14.1319 9.54594 16.114H3.4375C2.67919 16.114 2.0625 15.4973 2.0625 14.739V8.47654H19.9375V14.739C19.9375 15.4973 19.3208 16.114 18.5625 16.114Z" fill="#141414"/>
<path d="M14.3584 16.5161V14.9744C14.3584 14.5949 14.0504 14.2869 13.6709 14.2869C13.2914 14.2869 12.9834 14.5949 12.9834 14.9744V16.8008C12.9834 16.983 13.0559 17.1579 13.1848 17.2868L14.1356 18.2376C14.2701 18.3721 14.4457 18.4391 14.6217 18.4391C14.7977 18.4391 14.9734 18.3721 15.1078 18.238C15.3762 17.9695 15.3762 17.5343 15.1078 17.2655L14.3584 16.5161Z" fill="#141414"/>
<path d="M6.61591 9.36993H4.33203C3.95253 9.36993 3.64453 9.67793 3.64453 10.0574C3.64453 10.4369 3.95253 10.7449 4.33203 10.7449H6.61591C6.99541 10.7449 7.30341 10.4369 7.30341 10.0574C7.30341 9.67793 6.99541 9.36993 6.61591 9.36993Z" fill="#141414"/>
</svg>
