<svg width="22" height="22" viewBox="0 0 22 22" fill="none" xmlns="http://www.w3.org/2000/svg">
<g clip-path="url(#clip0_1177_12027)">
<path fill-rule="evenodd" clip-rule="evenodd" d="M13.2198 19.9903C13.2198 19.2299 12.6033 18.6135 11.843 18.6135H10.157C9.79189 18.6135 9.4417 18.7586 9.1835 19.0168C8.9253 19.275 8.78023 19.6252 8.78023 19.9903C8.78023 20.7507 9.39666 21.3671 10.157 21.3671H11.843C12.6033 21.3671 13.2198 20.7507 13.2198 19.9903ZM2.89442 16.4401C3.12439 16.4577 3.40261 16.4678 3.68208 16.4514C3.83096 17.2065 4.20084 17.9068 4.75295 18.4589C5.48591 19.1918 6.47999 19.6036 7.51652 19.6036H8.04186C8.0187 19.7304 8.0068 19.8597 8.0068 19.9903C8.0068 20.1224 8.0187 20.2516 8.04152 20.377H7.51652C6.27486 20.377 5.08402 19.8838 4.20604 19.0058C3.50561 18.3053 3.05001 17.4058 2.89442 16.4401ZM2.501 15.6171C1.89037 15.5142 1.32215 15.2239 0.878582 14.7803C0.316035 14.2177 0 13.4547 0 12.6592V10.8311C0 10.0356 0.316035 9.27257 0.878582 8.71002C1.44113 8.14748 2.20412 7.8314 2.99969 7.8314H3.19937C3.51854 3.80282 6.88909 0.632889 11 0.632889C15.1109 0.632889 18.4815 3.80282 18.8006 7.8314H19.0003C19.7959 7.8314 20.5589 8.14748 21.1214 8.71002C21.684 9.27257 22 10.0356 22 10.8311V12.6592C22 13.4547 21.684 14.2177 21.1214 14.7803C20.5589 15.3429 19.7959 15.6589 19.0003 15.6589H18.1151C17.748 15.6589 17.4504 15.3612 17.4504 14.9942V8.45827C17.4504 4.89582 14.5625 2.00789 11 2.00789C7.43755 2.00789 4.54962 4.89582 4.54962 8.45827V14.9942C4.54962 15.2533 4.40125 15.4779 4.18477 15.5876C3.58888 15.7943 2.66475 15.6448 2.501 15.6171Z" fill="#141414"/>
</g>
<defs>
<clipPath id="clip0_1177_12027">
<rect width="22" height="22" fill="white"/>
</clipPath>
</defs>
</svg>
