<svg width="26" height="26" viewBox="0 0 26 26" fill="none" xmlns="http://www.w3.org/2000/svg">
<path d="M22.75 12.1875H17.0625C15.2799 12.1875 13.8125 13.6549 13.8125 15.4375C13.8125 17.2201 15.2799 18.6875 17.0625 18.6875H20.3125V21.125C20.3125 21.5711 19.9461 21.9375 19.5 21.9375H6.5C5.16263 21.9375 4.0625 20.8374 4.0625 19.5V7.3125C4.0625 5.97513 5.16263 4.875 6.5 4.875H8.125C8.57106 4.875 8.9375 4.50856 8.9375 4.0625C8.9375 3.61644 8.57106 3.25 8.125 3.25H6.5C4.27131 3.25 2.4375 5.08381 2.4375 7.3125V19.5C2.4375 21.7287 4.27131 23.5625 6.5 23.5625H19.5C20.8374 23.5625 21.9375 22.4624 21.9375 21.125V18.6875H22.75C23.1961 18.6875 23.5625 18.3211 23.5625 17.875V13C23.5625 12.5539 23.1961 12.1875 22.75 12.1875ZM21.9375 17.0625H17.0625C16.1712 17.0625 15.4375 16.3288 15.4375 15.4375C15.4375 14.5462 16.1712 13.8125 17.0625 13.8125H21.9375V17.0625Z" fill="#141414"/>
<path d="M6.20765 6.55687C5.3009 6.95255 5.60071 8.12499 6.50015 8.12499H19.5002C19.9462 8.12499 20.3127 8.49143 20.3127 8.93749V9.74999C20.3127 10.1961 20.6791 10.5625 21.1252 10.5625C21.5712 10.5625 21.9377 10.1961 21.9377 9.74999V8.93749C21.9368 8.29155 21.6801 7.67162 21.2227 7.21499C20.766 6.75755 20.1461 6.5008 19.5002 6.49999H19.2402L17.8183 2.94937C17.6533 2.53905 17.1821 2.3343 16.7702 2.49437L6.20765 6.55687ZM17.4852 6.49999H10.8795L16.6077 4.29812L17.4852 6.49999Z" fill="#141414"/>
</svg>
