<svg width="32" height="32" viewBox="0 0 32 32" fill="none" xmlns="http://www.w3.org/2000/svg">
<g clip-path="url(#clip0_5_8075)">
<path d="M26.097 0H17.3352H8.08573C5.8605 0.00409521 4.05471 1.80142 4.04004 4.02664V27.9732C4.05471 30.1984 5.8605 31.9957 8.08573 31.9998H26.1085C26.6033 32.0071 27.0806 31.8166 27.4342 31.4703C27.7716 31.1236 27.9603 30.6589 27.9599 30.1751V1.86285C27.9578 0.834852 27.125 0.00209523 26.097 0ZM18.1047 1.5238H22.5809V8.67042L20.9923 6.13711C20.9279 6.02987 20.8382 5.94006 20.731 5.87577C20.3701 5.6593 19.9021 5.77625 19.6857 6.13711L18.1047 8.659V1.5238ZM5.58289 4.02664C5.58917 2.64694 6.70602 1.53009 8.08573 1.5238H16.5809V9.29518C16.5522 9.91375 16.9406 10.4752 17.5295 10.6666C18.2 10.8685 18.8019 10.4342 19.1599 9.8628L20.3447 7.95805L21.5295 9.8628C21.8837 10.4266 22.4856 10.8609 23.1752 10.6666C23.7613 10.4759 24.1489 9.91861 24.1237 9.3028V1.54285H26.1085C26.2844 1.54494 26.4264 1.68694 26.4285 1.86285V23.9575C26.3228 23.9396 26.2157 23.9307 26.1085 23.9313H8.08573C7.17688 23.931 6.29469 24.2385 5.58289 24.8037V4.02664ZM26.4285 27.2189L8.86287 27.2379C8.44211 27.2379 8.10097 27.5791 8.10097 27.9998C8.10097 28.4206 8.44211 28.7617 8.86287 28.7617L26.4285 28.7427V30.1598C26.4292 30.2451 26.3965 30.3272 26.337 30.3884C26.2759 30.4477 26.1937 30.4806 26.1085 30.4798H8.08573C6.7024 30.4798 5.58098 29.3584 5.58098 27.9751C5.58098 26.5917 6.7024 25.4703 8.08573 25.4703H26.1085C26.2844 25.4724 26.4264 25.6144 26.4285 25.7903V27.2189Z" fill="white"/>
</g>
<defs>
<clipPath id="clip0_5_8075">
<rect width="32" height="32" fill="white"/>
</clipPath>
</defs>
</svg>
