<svg width="33" height="33" viewBox="0 0 33 33" fill="none" xmlns="http://www.w3.org/2000/svg">
<g clip-path="url(#clip0_2_2679)">
<path d="M32.51 19.3955L28.7458 11.3331L30.3707 11.7991C30.7276 11.9016 31.0999 11.6954 31.2021 11.3383C31.3045 10.9815 31.0984 10.6094 30.7415 10.507L19.4435 7.2648C19.4458 7.21649 19.4471 7.16817 19.4471 7.11959C19.4474 5.77804 18.5417 4.60559 17.2435 4.26764C15.9453 3.92943 14.5827 4.51106 13.9286 5.6822L2.62954 2.44031C2.27268 2.3379 1.90034 2.54429 1.79793 2.90115C1.69578 3.258 1.90191 3.63008 2.25877 3.73249L4.48865 4.37242L0.450336 13.022C0.180922 13.1163 0.00026294 13.3705 3.53662e-07 13.6562C-0.000787409 15.8385 1.31451 17.8058 3.33143 18.639C5.34836 19.4724 7.66883 19.0071 9.20864 17.4608C10.2346 16.4606 10.8141 15.0891 10.8167 13.6562C10.8167 13.3552 10.6164 13.0911 10.3267 13.0094L6.57359 4.97085L13.5568 6.97438C13.5544 7.0227 13.5531 7.07102 13.5531 7.11986C13.5552 8.48767 14.4966 9.67482 15.8279 9.98835V23.3038H13.9725C12.4899 23.3038 11.2568 24.4936 11.2568 25.9764V26.3666C10.0093 26.6292 9.11358 27.7263 9.10571 29.0014V29.9425C9.117 30.322 9.42501 30.6255 9.80471 30.631H23.1956C23.5753 30.6255 23.8833 30.322 23.8946 29.9425V29.0014C23.8867 27.7263 22.991 26.6292 21.7435 26.3666V25.9764C21.7435 24.4936 20.5101 23.3038 19.0278 23.3038H17.1724V9.98835C17.978 9.79797 18.6667 9.27858 19.0716 8.55673L26.6803 10.7401L22.6336 19.4081C22.364 19.5024 22.1833 19.7566 22.183 20.042C22.1825 22.2243 23.4978 24.1916 25.5147 25.0248C27.5317 25.8583 29.8519 25.3932 31.3917 23.8469C32.4176 22.8464 32.9974 21.4749 33 20.042C32.9997 19.7411 32.7997 19.4772 32.51 19.3955ZM5.39142 5.58425L8.83104 12.9516H1.95207L5.39142 5.58425ZM5.39142 17.6706C3.41152 17.6821 1.7181 16.2505 1.40037 14.2961H9.41319C9.07104 16.2489 7.37421 17.6729 5.39142 17.6706ZM22.5501 29.0014V29.2866H10.4501V29.0014C10.4501 28.2602 11.0804 27.6733 11.8214 27.6733H21.1789C21.9199 27.6733 22.5501 28.2602 22.5501 29.0014ZM20.399 25.9764V26.3288H12.6013V25.9764C12.6013 25.2352 13.2315 24.6483 13.9725 24.6483H19.0278C19.7688 24.6483 20.399 25.2352 20.399 25.9764ZM16.5001 8.72216C15.8166 8.72268 15.2079 8.28994 14.984 7.64424C14.76 6.99854 14.9698 6.28194 15.5065 5.85892C16.0435 5.43589 16.7895 5.39965 17.3648 5.76885C17.9402 6.13778 18.2182 6.83075 18.0578 7.49509C18.0407 7.53763 18.0281 7.58148 18.02 7.62639C17.8013 8.28023 17.1894 8.72137 16.5001 8.72216ZM31.0143 19.3377H24.1354L27.5747 11.9704L31.0143 19.3377ZM27.5747 24.0567C25.5948 24.0682 23.9014 22.6366 23.5837 20.6822H31.5965C31.2543 22.635 29.5575 24.059 27.5747 24.0567Z" fill="white"/>
</g>
<defs>
<clipPath id="clip0_2_2679">
<rect width="33" height="33" fill="white"/>
</clipPath>
</defs>
</svg>
