<svg width="34" height="34" viewBox="0 0 34 34" fill="none" xmlns="http://www.w3.org/2000/svg">
<g clip-path="url(#clip0_2_2538)">
<path d="M33.9431 20.7322L33.9482 20.7305L28.366 8.5507L29.7197 7.87694L29.2131 6.86261L27.8934 7.51994L27.7149 7.13064C27.5844 6.84618 27.2481 6.7213 26.9636 6.8517C26.8402 6.9083 26.7413 7.00725 26.6847 7.13064L26.5255 7.47857C25.565 7.03247 24.5188 6.80099 23.4598 6.80028H18.6999V5.66695H19.8332V4.53363H18.8591L19.2665 2.90334C19.5793 1.65152 18.8181 0.383114 17.5663 0.0702454C16.3145 -0.242552 15.0461 0.518617 14.7332 1.77044C14.6403 2.14232 14.6403 2.5314 14.7332 2.90327L15.1406 4.53356H14.1666V5.66688H15.2999V6.80021H10.5428C9.48267 6.80106 8.43548 7.0331 7.47428 7.4802L7.31505 7.13227C7.18464 6.84781 6.84826 6.72293 6.56379 6.85333C6.4404 6.90993 6.34145 7.00888 6.28486 7.13227L6.10636 7.52157L4.7866 6.86141L4.28001 7.87686L5.63376 8.55346L0.0515738 20.7305C0.0171491 20.8045 -0.000417465 20.8852 7.53133e-06 20.9668C0.00248668 23.1565 1.77699 24.931 3.96664 24.9335H9.63326C11.8229 24.931 13.5974 23.1565 13.5999 20.9668C13.5985 20.8854 13.5791 20.8053 13.5432 20.7322L7.94574 8.5065C8.7594 8.12882 9.64573 7.93332 10.5428 7.9336H15.2999V28.6655L13.3653 30.6001H11.3332C9.76926 30.6019 8.50178 31.8694 8.49994 33.4334C8.49994 33.7463 8.75366 34 9.0666 34H24.9331C25.2461 34 25.4998 33.7463 25.4998 33.4334C25.498 31.8694 24.2305 30.6019 22.6665 30.6001H20.6344L18.6999 28.6655V7.9336H23.4598C24.3568 7.93332 25.2432 8.12882 26.0568 8.5065L20.4514 20.7305C20.417 20.8045 20.3994 20.8852 20.3998 20.9668C20.4023 23.1565 22.1768 24.931 24.3665 24.9335H30.0331C32.2227 24.931 33.9972 23.1565 33.9997 20.9668C33.9984 20.8854 33.979 20.8053 33.9431 20.7322ZM9.63326 23.8001H3.96664C2.62068 23.7986 1.46093 22.8519 1.19 21.5335H12.4099C12.139 22.8519 10.9792 23.7986 9.63326 23.8001ZM12.1504 20.4002H1.44953L6.65489 9.04369C6.74994 9.06919 6.84996 9.06919 6.94502 9.04369L12.1504 20.4002ZM16.0518 1.59605C16.4931 1.07246 17.2753 1.0058 17.7989 1.44709C17.8527 1.49243 17.9026 1.54229 17.9479 1.59605C18.1771 1.8876 18.2581 2.26896 18.1672 2.62851L17.6906 4.53363H16.3091L15.8325 2.62851C15.7417 2.26896 15.8227 1.8876 16.0518 1.59605ZM16.4332 6.80028V5.66695H17.5665V6.80028H16.4332ZM17.5665 7.9336V28.3334H16.4332V7.9336H17.5665ZM22.6665 31.7334C23.3867 31.7343 24.0285 32.188 24.2696 32.8667H9.73016C9.9712 32.188 10.613 31.7343 11.3332 31.7334H22.6665ZM19.0319 30.6001H14.9678L16.1011 29.4668H17.8986L19.0319 30.6001ZM27.0536 9.04539C27.1472 9.07833 27.2498 9.07408 27.3403 9.03349L32.5502 20.4002H21.8494L27.0536 9.04539ZM30.0331 23.8001H24.3665C23.0205 23.7986 21.8608 22.8519 21.5898 21.5335H32.8097C32.5389 22.8519 31.3791 23.7986 30.0331 23.8001Z" fill="white"/>
</g>
<defs>
<clipPath id="clip0_2_2538">
<rect width="34" height="34" fill="white"/>
</clipPath>
</defs>
</svg>
