<svg width="38" height="38" viewBox="0 0 38 38" fill="none" xmlns="http://www.w3.org/2000/svg">
<path d="M32.7394 17.5866C32.8968 17.5866 33.0479 17.5241 33.1592 17.4127C33.2706 17.3014 33.3331 17.1504 33.3331 16.9929V15.3007H33.8438C34.3162 15.3007 34.7692 15.113 35.1033 14.779C35.4373 14.4449 35.625 13.9919 35.625 13.5195V12.4685C35.6253 12.0072 35.4466 11.5638 35.1266 11.2315C34.8065 10.8993 34.3701 10.7042 33.9091 10.6873V7.83727C33.9151 7.7063 33.8775 7.57703 33.8024 7.46962C33.7272 7.36222 33.6185 7.28271 33.4934 7.24352L19.1781 2.68946C19.0622 2.65299 18.9378 2.65299 18.8219 2.68946L4.50656 7.26727C4.38145 7.30646 4.27283 7.38597 4.19765 7.49337C4.12246 7.60078 4.08494 7.73005 4.09094 7.86102V10.6873C3.62993 10.7042 3.19347 10.8993 2.87342 11.2315C2.55337 11.5638 2.37469 12.0072 2.375 12.4685V13.5313C2.375 14.0037 2.56267 14.4568 2.89672 14.7909C3.23077 15.1249 3.68383 15.3126 4.15625 15.3126H4.66688V17.0048C4.66688 17.1622 4.72943 17.3133 4.84078 17.4246C4.95213 17.536 5.10315 17.5985 5.26063 17.5985H6.38281V28.4285H5.26063C5.10315 28.4285 4.95213 28.4911 4.84078 28.6024C4.72943 28.7138 4.66688 28.8648 4.66688 29.0223V30.7145H4.15625C3.68383 30.7145 3.23077 30.9021 2.89672 31.2362C2.56267 31.5702 2.375 32.0233 2.375 32.4957V33.5585C2.375 34.0309 2.56267 34.484 2.89672 34.8181C3.23077 35.1521 3.68383 35.3398 4.15625 35.3398H33.8438C34.3162 35.3398 34.7692 35.1521 35.1033 34.8181C35.4373 34.484 35.625 34.0309 35.625 33.5585V32.4957C35.625 32.0233 35.4373 31.5702 35.1033 31.2362C34.7692 30.9021 34.3162 30.7145 33.8438 30.7145H33.3331V29.0223C33.3331 28.8648 33.2706 28.7138 33.1592 28.6024C33.0479 28.4911 32.8968 28.4285 32.7394 28.4285H31.6172V17.5866H32.7394ZM5.27844 8.27071L19 3.87696L32.7216 8.27071V10.6873H5.27844V8.27071ZM4.15625 14.1132C3.99878 14.1132 3.84776 14.0507 3.73641 13.9393C3.62506 13.828 3.5625 13.6769 3.5625 13.5195V12.4685C3.5625 12.311 3.62506 12.16 3.73641 12.0487C3.84776 11.9373 3.99878 11.8748 4.15625 11.8748H33.8438C34.0012 11.8748 34.1522 11.9373 34.2636 12.0487C34.3749 12.16 34.4375 12.311 34.4375 12.4685V13.5313C34.4375 13.6888 34.3749 13.8398 34.2636 13.9512C34.1522 14.0625 34.0012 14.1251 33.8438 14.1251L4.15625 14.1132ZM22.4378 28.4285H21.3097V17.5866H22.4378C22.5953 17.5866 22.7463 17.5241 22.8577 17.4127C22.969 17.3014 23.0316 17.1504 23.0316 16.9929V15.3007H25.2759V16.9929C25.2759 17.1504 25.3385 17.3014 25.4498 17.4127C25.5612 17.5241 25.7122 17.5866 25.8697 17.5866H26.9919V28.4285H25.8697C25.7122 28.4285 25.5612 28.4911 25.4498 28.6024C25.3385 28.7138 25.2759 28.8648 25.2759 29.0223V30.7145H23.0316V29.0223C23.0316 28.8648 22.969 28.7138 22.8577 28.6024C22.7463 28.4911 22.5953 28.4285 22.4378 28.4285ZM12.1303 28.4285H11.0081V17.5866H12.1303C12.2878 17.5866 12.4388 17.5241 12.5502 17.4127C12.6615 17.3014 12.7241 17.1504 12.7241 16.9929V15.3007H14.9684V16.9929C14.9684 17.1504 15.031 17.3014 15.1423 17.4127C15.2537 17.5241 15.4047 17.5866 15.5622 17.5866H16.6903V28.4285H15.5622C15.4047 28.4285 15.2537 28.4911 15.1423 28.6024C15.031 28.7138 14.9684 28.8648 14.9684 29.0223V30.7145H12.7241V29.0223C12.7241 28.8648 12.6615 28.7138 12.5502 28.6024C12.4388 28.4911 12.2878 28.4285 12.1303 28.4285ZM16.1559 16.3991V15.3007H21.8441V16.3991H16.1559ZM20.1222 17.5866V28.4285H17.8778V17.5866H20.1222ZM16.1559 29.616H21.8441V30.7145H16.1559V29.616ZM5.85438 16.3991V15.3007H11.5366V16.3991H5.85438ZM9.82063 17.5866V28.4285H7.57031V17.5866H9.82063ZM5.85438 29.616H11.5366V30.7145H5.85438V29.616ZM33.8438 31.902C34.0012 31.902 34.1522 31.9645 34.2636 32.0759C34.3749 32.1872 34.4375 32.3382 34.4375 32.4957V33.5585C34.4375 33.716 34.3749 33.867 34.2636 33.9784C34.1522 34.0897 34.0012 34.1523 33.8438 34.1523H4.15625C3.99878 34.1523 3.84776 34.0897 3.73641 33.9784C3.62506 33.867 3.5625 33.716 3.5625 33.5585V32.4957C3.5625 32.3382 3.62506 32.1872 3.73641 32.0759C3.84776 31.9645 3.99878 31.902 4.15625 31.902H33.8438ZM32.1456 29.616V30.7145H26.4634V29.616H32.1456ZM28.1794 28.4285V17.5866H30.4297V28.4285H28.1794ZM26.4634 16.3991V15.3007H32.1456V16.3991H26.4634Z" fill="white"/>
<path d="M19.0004 5.37891C18.6281 5.37891 18.2642 5.48929 17.9547 5.69611C17.6451 5.90293 17.4039 6.19689 17.2614 6.54081C17.119 6.88474 17.0817 7.26318 17.1543 7.62829C17.227 7.9934 17.4062 8.32877 17.6694 8.592C17.9327 8.85523 18.268 9.03449 18.6332 9.10712C18.9983 9.17974 19.3767 9.14247 19.7206 9.00001C20.0646 8.85755 20.3585 8.6163 20.5653 8.30678C20.7722 7.99726 20.8825 7.63335 20.8825 7.26109C20.8825 6.76191 20.6842 6.28316 20.3313 5.93019C19.9783 5.57721 19.4995 5.37891 19.0004 5.37891ZM19.0004 7.95578C18.863 7.95578 18.7286 7.91504 18.6144 7.83871C18.5002 7.76237 18.4111 7.65388 18.3585 7.52694C18.306 7.4 18.2922 7.26032 18.319 7.12557C18.3458 6.99081 18.412 6.86703 18.5091 6.76988C18.6063 6.67272 18.7301 6.60656 18.8648 6.57975C18.9996 6.55295 19.1393 6.56671 19.2662 6.61929C19.3931 6.67187 19.5016 6.76091 19.578 6.87515C19.6543 6.98939 19.695 7.1237 19.695 7.26109C19.695 7.44534 19.6219 7.62203 19.4916 7.75231C19.3613 7.88259 19.1846 7.95578 19.0004 7.95578Z" fill="white"/>
</svg>
