<svg width="38" height="38" viewBox="0 0 38 38" fill="none" xmlns="http://www.w3.org/2000/svg">
<path d="M28.8972 1.54785H10.5391C9.4374 1.54895 8.38115 1.98695 7.60199 2.76577C6.82284 3.5446 6.38438 4.60066 6.38281 5.70232V33.0148C6.38391 33.9263 6.7465 34.8001 7.39104 35.4446C8.03558 36.0891 8.90944 36.4516 9.82092 36.4526H29.4426C30.0189 36.4519 30.5714 36.2227 30.9788 35.8152C31.3863 35.4077 31.6156 34.8552 31.6163 34.2789V4.26723C31.6155 3.5463 31.3288 2.85511 30.819 2.34531C30.3093 1.83551 29.6181 1.54872 28.8972 1.54785ZM27.0032 2.58691V6.27707L26.0814 5.4093C25.9849 5.31856 25.8575 5.26804 25.7251 5.26804C25.5927 5.26804 25.4653 5.31856 25.3689 5.4093L24.4468 6.27707V2.58691H27.0032ZM23.4083 2.58691V7.4812C23.4085 7.58257 23.4384 7.68166 23.4942 7.76626C23.5501 7.85087 23.6295 7.91728 23.7226 7.95733C23.8157 7.99738 23.9185 8.00931 24.0183 7.99164C24.1182 7.97398 24.2106 7.9275 24.2844 7.85793L25.726 6.50121L27.1673 7.85793C27.2411 7.92711 27.3335 7.97325 27.4331 7.99069C27.5327 8.00813 27.6353 7.99612 27.7282 7.95612C27.8211 7.91612 27.9003 7.84987 27.956 7.76551C28.0118 7.68115 28.0418 7.58233 28.0422 7.4812V2.58691H28.8972C29.3428 2.58723 29.7701 2.76434 30.0852 3.07938C30.4004 3.39441 30.5777 3.82162 30.5781 4.26723V29.5761H10.3413V2.59701C10.407 2.59285 10.472 2.58691 10.5385 2.58691H23.4083ZM9.30228 2.84401V29.6198C8.59293 29.7274 7.93524 30.0549 7.42188 30.5561V5.70232C7.42273 5.09449 7.60116 4.50015 7.93522 3.99235C8.26929 3.48455 8.74444 3.08542 9.30228 2.84401ZM30.5781 34.2783C30.5778 34.5792 30.4582 34.8676 30.2454 35.0803C30.0327 35.293 29.7443 35.4127 29.4435 35.413H9.82181C9.50454 35.4165 9.18972 35.3571 8.89557 35.2381C8.60143 35.1191 8.33381 34.943 8.1082 34.7199C7.8826 34.4968 7.70349 34.2311 7.58126 33.9383C7.45902 33.6455 7.39608 33.3314 7.39608 33.0141C7.39608 32.6968 7.45902 32.3826 7.58126 32.0898C7.70349 31.797 7.8826 31.5314 8.1082 31.3083C8.33381 31.0852 8.60143 30.909 8.89557 30.7901C9.18972 30.6711 9.50454 30.6117 9.82181 30.6152H30.5781V34.2783Z" fill="white"/>
<path d="M26.425 32.4951H12.3555C12.2177 32.4951 12.0855 32.5499 11.9881 32.6473C11.8907 32.7447 11.8359 32.8769 11.8359 33.0146C11.8359 33.1524 11.8907 33.2846 11.9881 33.382C12.0855 33.4794 12.2177 33.5342 12.3555 33.5342H26.425C26.5628 33.5342 26.6949 33.4794 26.7923 33.382C26.8898 33.2846 26.9445 33.1524 26.9445 33.0146C26.9445 32.8769 26.8898 32.7447 26.7923 32.6473C26.6949 32.5499 26.5628 32.4951 26.425 32.4951Z" fill="white"/>
<path d="M14.7252 26.8263H26.1941C26.3656 26.8263 26.5355 26.7925 26.694 26.7268C26.8524 26.6612 26.9964 26.565 27.1177 26.4437C27.239 26.3224 27.3352 26.1784 27.4009 26.0199C27.4665 25.8614 27.5003 25.6915 27.5003 25.52V19.3316C27.5003 19.1601 27.4665 18.9902 27.4009 18.8318C27.3352 18.6733 27.239 18.5293 27.1177 18.408C26.9964 18.2867 26.8524 18.1905 26.694 18.1248C26.5355 18.0592 26.3656 18.0254 26.1941 18.0254H14.7252C14.3788 18.0254 14.0465 18.163 13.8015 18.408C13.5566 18.653 13.4189 18.9852 13.4189 19.3316V25.5206C13.4191 25.8669 13.5568 26.199 13.8017 26.4439C14.0467 26.6887 14.3789 26.8263 14.7252 26.8263ZM14.458 19.3316C14.458 19.2608 14.4862 19.1928 14.5363 19.1427C14.5864 19.0926 14.6543 19.0645 14.7252 19.0645H26.1941C26.2649 19.0645 26.3329 19.0926 26.383 19.1427C26.4331 19.1928 26.4613 19.2608 26.4613 19.3316V25.5206C26.4613 25.5557 26.4543 25.5904 26.4409 25.6228C26.4275 25.6553 26.4078 25.6847 26.383 25.7095C26.3582 25.7343 26.3287 25.754 26.2963 25.7674C26.2639 25.7809 26.2292 25.7878 26.1941 25.7878H14.7252C14.6901 25.7878 14.6554 25.7809 14.6229 25.7674C14.5905 25.754 14.5611 25.7343 14.5363 25.7095C14.5115 25.6847 14.4918 25.6553 14.4783 25.6228C14.4649 25.5904 14.458 25.5557 14.458 25.5206V19.3316Z" fill="white"/>
<path d="M16.5703 21.7998H24.3484C24.4862 21.7998 24.6184 21.7451 24.7158 21.6476C24.8132 21.5502 24.868 21.4181 24.868 21.2803C24.868 21.1425 24.8132 21.0103 24.7158 20.9129C24.6184 20.8155 24.4862 20.7607 24.3484 20.7607H16.5703C16.4325 20.7607 16.3004 20.8155 16.2029 20.9129C16.1055 21.0103 16.0508 21.1425 16.0508 21.2803C16.0508 21.4181 16.1055 21.5502 16.2029 21.6476C16.3004 21.7451 16.4325 21.7998 16.5703 21.7998Z" fill="white"/>
<path d="M16.5703 24.0908H24.3484C24.4862 24.0908 24.6184 24.0361 24.7158 23.9387C24.8132 23.8412 24.868 23.7091 24.868 23.5713C24.868 23.4335 24.8132 23.3014 24.7158 23.2039C24.6184 23.1065 24.4862 23.0518 24.3484 23.0518H16.5703C16.4325 23.0518 16.3004 23.1065 16.2029 23.2039C16.1055 23.3014 16.0508 23.4335 16.0508 23.5713C16.0508 23.7091 16.1055 23.8412 16.2029 23.9387C16.3004 24.0361 16.4325 24.0908 16.5703 24.0908Z" fill="white"/>
</svg>
