<svg width="32" height="32" viewBox="0 0 32 32" fill="none" xmlns="http://www.w3.org/2000/svg">
<g clip-path="url(#clip0_489_7024)">
<path d="M18.6667 12.1191L30.4133 14.4525C31.36 14.6525 32 15.4525 32 16.3991V29.9991C32 31.1058 31.1067 31.9991 30 31.9991H18C18.3733 31.9991 18.6667 31.7058 18.6667 31.3325V30.6658H30C30.36 30.6658 30.6667 30.3725 30.6667 29.9991V16.3991C30.6667 16.0925 30.4533 15.8125 30.1467 15.7458L18.6667 13.4791V12.1191Z" fill="white"/>
<path d="M26.0003 18.666C26.3737 18.666 26.667 18.9593 26.667 19.3327C26.667 19.706 26.3737 19.9993 26.0003 19.9993H23.3337C22.9603 19.9993 22.667 19.706 22.667 19.3327C22.667 18.9593 22.9603 18.666 23.3337 18.666H26.0003Z" fill="white"/>
<path d="M26.0003 22.666C26.3737 22.666 26.667 22.9593 26.667 23.3327C26.667 23.706 26.3737 23.9993 26.0003 23.9993H23.3337C22.9603 23.9993 22.667 23.706 22.667 23.3327C22.667 22.9593 22.9603 22.666 23.3337 22.666H26.0003Z" fill="white"/>
<path d="M26.0003 26.666C26.3737 26.666 26.667 26.9593 26.667 27.3327C26.667 27.706 26.3737 27.9993 26.0003 27.9993H23.3337C22.9603 27.9993 22.667 27.706 22.667 27.3327C22.667 26.9593 22.9603 26.666 23.3337 26.666H26.0003Z" fill="white"/>
<path d="M18.6663 31.3331C18.6663 31.7065 18.373 31.9998 17.9997 31.9998C17.6263 31.9998 17.333 31.7065 17.333 31.3331V30.6665V12.6665C17.333 12.4665 17.4263 12.2798 17.573 12.1465C17.733 12.0265 17.933 11.9731 18.133 12.0131L18.6663 12.1198V13.4798V30.6665V31.3331Z" fill="white"/>
<path d="M17.3337 30.666V31.3327C17.3337 31.706 17.627 31.9993 18.0003 31.9993H12.667C13.0403 31.9993 13.3337 31.706 13.3337 31.3327V30.666H17.3337Z" fill="white"/>
<path d="M14.0003 6.66602C14.3737 6.66602 14.667 6.95935 14.667 7.33268C14.667 7.70602 14.3737 7.99935 14.0003 7.99935H11.3337C10.9603 7.99935 10.667 7.70602 10.667 7.33268C10.667 6.95935 10.9603 6.66602 11.3337 6.66602H14.0003Z" fill="white"/>
<path d="M14.667 11.3327C14.667 11.706 14.3737 11.9993 14.0003 11.9993H11.3337C10.9603 11.9993 10.667 11.706 10.667 11.3327C10.667 10.9593 10.9603 10.666 11.3337 10.666H14.0003C14.3737 10.666 14.667 10.9593 14.667 11.3327Z" fill="white"/>
<path d="M14.0003 14.666C14.3737 14.666 14.667 14.9593 14.667 15.3327C14.667 15.706 14.3737 15.9993 14.0003 15.9993H11.3337C10.9603 15.9993 10.667 15.706 10.667 15.3327C10.667 14.9593 10.9603 14.666 11.3337 14.666H14.0003Z" fill="white"/>
<path d="M14.0003 18.666C14.3737 18.666 14.667 18.9593 14.667 19.3327C14.667 19.706 14.3737 19.9993 14.0003 19.9993H11.3337C10.9603 19.9993 10.667 19.706 10.667 19.3327C10.667 18.9593 10.9603 18.666 11.3337 18.666H14.0003Z" fill="white"/>
<path d="M8 19.3327C8 19.706 7.70667 19.9993 7.33333 19.9993H4.66667C4.29333 19.9993 4 19.706 4 19.3327C4 18.9593 4.29333 18.666 4.66667 18.666H7.33333C7.70667 18.666 8 18.9593 8 19.3327Z" fill="white"/>
<path d="M7.33333 6.66602C7.70667 6.66602 8 6.95935 8 7.33268C8 7.70602 7.70667 7.99935 7.33333 7.99935H4.66667C4.29333 7.99935 4 7.70602 4 7.33268C4 6.95935 4.29333 6.66602 4.66667 6.66602H7.33333Z" fill="white"/>
<path d="M7.33333 10.666C7.70667 10.666 8 10.9593 8 11.3327C8 11.706 7.70667 11.9993 7.33333 11.9993H4.66667C4.29333 11.9993 4 11.706 4 11.3327C4 10.9593 4.29333 10.666 4.66667 10.666H7.33333Z" fill="white"/>
<path d="M7.33333 14.666C7.70667 14.666 8 14.9593 8 15.3327C8 15.706 7.70667 15.9993 7.33333 15.9993H4.66667C4.29333 15.9993 4 15.706 4 15.3327C4 14.9593 4.29333 14.666 4.66667 14.666H7.33333Z" fill="white"/>
<path d="M11.9997 24.666C11.9997 24.2927 11.693 23.9993 11.333 23.9993H7.33301C6.95967 23.9993 6.66634 24.2927 6.66634 24.666V30.666H5.33301V24.666C5.33301 23.5593 6.22634 22.666 7.33301 22.666H11.333C12.4397 22.666 13.333 23.5593 13.333 24.666V30.666H11.9997V24.666Z" fill="white"/>
<path d="M6.66634 30.666H11.9997H13.333V31.3327C13.333 31.706 13.0397 31.9993 12.6663 31.9993H5.99967C5.62634 31.9993 5.33301 31.706 5.33301 31.3327V30.666H6.66634Z" fill="white"/>
<path d="M2.33333 0.266193L16.9867 2.49286C17.96 2.65286 18.6667 3.47953 18.6667 4.46619V12.1195L18.1333 12.0129C17.9333 11.9729 17.7333 12.0262 17.5733 12.1462C17.4267 12.2795 17.3333 12.4662 17.3333 12.6662V4.46619C17.3333 4.13286 17.0933 3.85286 16.7733 3.79953L2.12 1.58619C2.08 1.57286 2.04 1.57286 2 1.57286C1.84 1.57286 1.69333 1.62619 1.57333 1.73286C1.41333 1.86619 1.33333 2.03953 1.33333 2.23953V29.9995C1.33333 30.3729 1.64 30.6662 2 30.6662H5.33333V31.3329C5.33333 31.7062 5.62667 31.9995 6 31.9995H2C0.893334 31.9995 0 31.1062 0 29.9995V2.23953C0 1.65286 0.253333 1.09286 0.706667 0.719526C1.16 0.33286 1.74667 0.17286 2.33333 0.266193Z" fill="white"/>
</g>
<defs>
<clipPath id="clip0_489_7024">
<rect width="32" height="32" fill="white"/>
</clipPath>
</defs>
</svg>
