<svg width="36" height="36" viewBox="0 0 36 36" fill="none" xmlns="http://www.w3.org/2000/svg">
<g clip-path="url(#clip0_2_2512)">
<path d="M18 23.0625C16.0875 23.0625 15.4125 22.6125 14.7937 22.1625C14.625 22.05 14.5125 21.9375 14.3438 21.8813C12.6562 20.8688 11.4187 19.125 10.8562 16.65C10.0687 16.3687 9 15.525 9 13.5C9 11.925 9.73125 11.4188 9.7875 11.3625C10.0687 11.1938 10.4062 11.25 10.575 11.5312C10.7437 11.8125 10.6875 12.15 10.4062 12.3187C10.125 12.4875 10.0687 12.6 10.0687 13.5562C10.0687 15.4688 11.25 15.6937 11.3625 15.6937C11.5875 15.75 11.8125 15.9187 11.8688 16.1437C12.2063 17.7188 12.9375 19.8562 14.85 20.9812C15.075 21.0938 15.2437 21.2063 15.4125 21.3188C15.975 21.7125 16.425 21.9937 17.9437 21.9937C19.4625 21.9937 19.9125 21.7125 20.475 21.3188C20.6438 21.2063 20.8125 21.0938 21.0375 20.9812C22.95 19.8562 23.7375 17.775 24.0188 16.1437C24.075 15.9187 24.3 15.6937 24.525 15.6937C24.6375 15.6937 25.8188 15.4688 25.8188 13.5562C25.8188 12.6 25.4812 12.3187 25.4812 12.3187C25.2 12.15 25.1437 11.8125 25.3687 11.5312C25.5375 11.25 25.9312 11.1937 26.1562 11.4187C26.2125 11.475 26.9438 12.0375 26.9438 13.5562C26.9438 15.5812 25.875 16.425 25.0875 16.7062C24.525 19.125 23.3438 20.925 21.6 21.9375C21.4313 22.05 21.2625 22.1625 21.15 22.2188C20.5875 22.6125 19.9125 23.0625 18 23.0625Z" fill="white"/>
<path d="M25.875 12.375C24.1875 12.375 23.7375 10.8563 23.3438 9.61875C22.95 8.2125 22.6125 7.3125 21.375 7.3125C20.5312 7.3125 19.9687 7.48125 19.4625 7.59375C18.9562 7.7625 18.5625 7.875 18 7.875C17.4375 7.875 17.0437 7.7625 16.5375 7.59375C16.0312 7.48125 15.4688 7.3125 14.625 7.3125C13.3875 7.3125 13.05 8.2125 12.6562 9.61875C12.2625 10.8563 11.8125 12.375 10.125 12.375C9.7875 12.375 9.5625 12.15 9.5625 11.8125C9.5625 11.475 9.7875 11.25 10.125 11.25C10.9125 11.25 11.1375 10.6312 11.5875 9.28125C11.9813 7.9875 12.5438 6.1875 14.625 6.1875C15.6375 6.1875 16.3125 6.35625 16.875 6.525C17.2688 6.6375 17.6062 6.75 18 6.75C18.3938 6.75 18.7312 6.6375 19.125 6.525C19.6875 6.35625 20.3625 6.1875 21.375 6.1875C23.5125 6.1875 24.0188 7.9875 24.4125 9.28125C24.8063 10.6312 25.0875 11.25 25.875 11.25C26.2125 11.25 26.4375 11.475 26.4375 11.8125C26.4375 12.15 26.2125 12.375 25.875 12.375Z" fill="white"/>
<path d="M34.875 35.4375C34.5375 35.4375 34.3125 35.2125 34.3125 34.875C34.3125 31.7812 34.3125 29.3063 29.925 28.2375C26.2688 27.3938 21.9375 25.7062 21.9375 22.8375V20.5312C21.9375 20.1937 22.1625 19.9688 22.5 19.9688C22.8375 19.9688 23.0625 20.1937 23.0625 20.5312V22.8375C23.0625 24.4687 25.65 26.0437 30.15 27.1687C35.4375 28.4062 35.4375 31.8375 35.4375 34.8188C35.4375 35.1563 35.2125 35.4375 34.875 35.4375Z" fill="white"/>
<path d="M1.125 34.875H0.5625C0.5625 31.8375 0.5625 28.4062 5.85 27.1687C10.35 26.1 12.9375 24.525 12.9375 22.8375V20.5312C12.9375 20.1937 13.1625 19.9688 13.5 19.9688C13.8375 19.9688 14.0625 20.1937 14.0625 20.5312V22.8375C14.0625 25.7062 9.73125 27.3938 6.075 28.2375C1.6875 29.3063 1.6875 31.7813 1.6875 34.8188L1.125 34.875Z" fill="white"/>
<path d="M26.0437 12.5437C25.9875 12.5437 25.9313 12.5438 25.8188 12.4875C25.5375 12.375 25.3687 12.0375 25.4812 11.7562C25.875 10.8 25.875 9.5625 25.875 8.49375C25.875 3.9375 23.2875 1.6875 18 1.6875C15.1312 1.6875 14.0062 2.75625 13.3875 3.7125C13.3312 3.825 13.2187 3.88125 13.1062 3.9375C11.7 4.5 10.0687 6.1875 10.0687 9.05625C10.0687 10.2375 10.0688 10.8562 10.4625 11.8125C10.575 12.0938 10.4062 12.4312 10.125 12.5437C9.84375 12.6562 9.50625 12.4875 9.39375 12.2063C9 11.025 9 10.1812 9 9C9 5.68125 10.9125 3.65625 12.5437 2.925C13.725 1.29375 15.4688 0.5625 18 0.5625C23.9625 0.5625 27 3.2625 27 8.55C27 9.61875 27 11.025 26.55 12.2063C26.4937 12.375 26.2687 12.5437 26.0437 12.5437Z" fill="white"/>
<path d="M20.8121 31.4996C20.6434 31.4996 20.4746 31.4433 20.3621 31.2746L17.5496 27.8996C17.4371 27.7308 17.3809 27.5058 17.4371 27.3371C17.4934 27.1683 17.6621 26.9996 17.8871 26.9996C19.7996 26.7183 21.4871 25.6496 22.6121 24.0746C22.7809 23.7933 23.1184 23.7371 23.3996 23.9621C23.6809 24.1308 23.7371 24.4683 23.5121 24.7496C22.3871 26.3246 20.8121 27.4496 18.9559 27.9558L21.1496 30.5996C21.3746 30.8246 21.3184 31.2183 21.0934 31.3871C21.0934 31.4433 20.9246 31.4996 20.8121 31.4996Z" fill="white"/>
<path d="M15.1874 31.4999C15.0749 31.4999 14.9061 31.4436 14.8499 31.3874C14.6249 31.1624 14.5686 30.8249 14.7936 30.5999L16.9874 27.9561C15.1874 27.4499 13.5561 26.3249 12.4311 24.7499C12.2624 24.4686 12.3186 24.1311 12.5436 23.9624C12.8249 23.7936 13.1624 23.8499 13.3311 24.0749C14.4561 25.6499 16.1436 26.7186 18.0561 26.9999C18.2811 27.0561 18.4499 27.1686 18.5061 27.3374C18.5624 27.5061 18.5624 27.7311 18.3936 27.8999L15.5811 31.2749C15.5249 31.4436 15.3561 31.4999 15.1874 31.4999Z" fill="white"/>
<path d="M20.8125 31.5C20.6437 31.5 20.4188 31.3875 20.3625 31.2187C20.1938 30.9375 20.3062 30.6 20.5312 30.4312C22.3875 29.25 24.0187 27.7312 25.2 25.875C25.3687 25.5937 25.7063 25.5375 25.9875 25.7063C26.2688 25.875 26.325 26.2125 26.1562 26.4937C24.8625 28.4625 23.1187 30.15 21.15 31.3875C21.0375 31.5 20.925 31.5 20.8125 31.5Z" fill="white"/>
<path d="M15.1871 31.5C15.0746 31.5 14.9621 31.5 14.9059 31.3875C12.9371 30.15 11.1934 28.4625 9.89961 26.4937C9.73086 26.2125 9.78711 25.875 10.0684 25.7063C10.3496 25.5375 10.6871 25.5937 10.8559 25.875C12.0371 27.675 13.6684 29.25 15.5246 30.4312C15.8059 30.6 15.8621 30.9375 15.6934 31.2187C15.5809 31.3875 15.3559 31.5 15.1871 31.5Z" fill="white"/>
<path d="M19.6875 35.4374C19.4062 35.4374 19.1812 35.2686 19.125 34.9874L18.5625 32.1749C18.5625 32.0624 18.5625 31.9499 18.5625 31.8374L19.4062 29.6999C19.5188 29.4186 19.8562 29.2499 20.1375 29.3624C20.4187 29.4749 20.5875 29.8124 20.475 30.0936L19.6875 32.1186L20.1938 34.7624C20.25 35.0436 20.0812 35.3811 19.7437 35.4374C19.7437 35.4374 19.7437 35.4374 19.6875 35.4374Z" fill="white"/>
<path d="M16.3126 35.4374C16.2563 35.4374 16.2563 35.4374 16.2001 35.4374C15.9188 35.3811 15.6938 35.0999 15.7501 34.7624L16.2563 32.1186L15.4688 30.0936C15.3563 29.8124 15.5251 29.4749 15.8063 29.3624C16.0876 29.2499 16.4251 29.4186 16.5376 29.6999L17.3813 31.8374C17.4376 31.9499 17.4376 32.0624 17.3813 32.1749L16.8188 34.9874C16.8188 35.2686 16.5938 35.4374 16.3126 35.4374Z" fill="white"/>
<path d="M19.125 32.625H16.875C16.5375 32.625 16.3125 32.4 16.3125 32.0625C16.3125 31.725 16.5375 31.5 16.875 31.5H19.125C19.4625 31.5 19.6875 31.725 19.6875 32.0625C19.6875 32.4 19.4625 32.625 19.125 32.625Z" fill="white"/>
</g>
<defs>
<clipPath id="clip0_2_2512">
<rect width="36" height="36" fill="white"/>
</clipPath>
</defs>
</svg>
