<svg width="44" height="44" viewBox="0 0 44 44" fill="none" xmlns="http://www.w3.org/2000/svg">
<g clip-path="url(#clip0_217_4753)">
<path d="M25.6667 16.665L41.8183 19.8734C43.12 20.1484 44 21.2484 44 22.55V41.25C44 42.7717 42.7717 44 41.25 44H24.75C25.2633 44 25.6667 43.5967 25.6667 43.0834V42.1667H41.25C41.745 42.1667 42.1667 41.7634 42.1667 41.25V22.55C42.1667 22.1284 41.8733 21.7434 41.4517 21.6517L25.6667 18.535V16.665Z" fill="white"/>
<path d="M35.7503 25.6667C36.2637 25.6667 36.667 26.0701 36.667 26.5834C36.667 27.0967 36.2637 27.5001 35.7503 27.5001H32.0837C31.5703 27.5001 31.167 27.0967 31.167 26.5834C31.167 26.0701 31.5703 25.6667 32.0837 25.6667H35.7503Z" fill="white"/>
<path d="M35.7503 31.1667C36.2637 31.1667 36.667 31.5701 36.667 32.0834C36.667 32.5967 36.2637 33.0001 35.7503 33.0001H32.0837C31.5703 33.0001 31.167 32.5967 31.167 32.0834C31.167 31.5701 31.5703 31.1667 32.0837 31.1667H35.7503Z" fill="white"/>
<path d="M35.7503 36.6667C36.2637 36.6667 36.667 37.0701 36.667 37.5834C36.667 38.0967 36.2637 38.5001 35.7503 38.5001H32.0837C31.5703 38.5001 31.167 38.0967 31.167 37.5834C31.167 37.0701 31.5703 36.6667 32.0837 36.6667H35.7503Z" fill="white"/>
<path d="M25.6663 43.0833C25.6663 43.5966 25.263 44 24.7497 44C24.2363 44 23.833 43.5966 23.833 43.0833V42.1666V17.4166C23.833 17.1416 23.9613 16.885 24.163 16.7016C24.383 16.5366 24.658 16.4633 24.933 16.5183L25.6663 16.665V18.535V42.1666V43.0833Z" fill="white"/>
<path d="M23.8337 42.1667V43.0834C23.8337 43.5967 24.237 44.0001 24.7503 44.0001H17.417C17.9303 44.0001 18.3337 43.5967 18.3337 43.0834V42.1667H23.8337Z" fill="white"/>
<path d="M19.2503 9.16675C19.7637 9.16675 20.167 9.57008 20.167 10.0834C20.167 10.5967 19.7637 11.0001 19.2503 11.0001H15.5837C15.0703 11.0001 14.667 10.5967 14.667 10.0834C14.667 9.57008 15.0703 9.16675 15.5837 9.16675H19.2503Z" fill="white"/>
<path d="M20.167 15.5834C20.167 16.0967 19.7637 16.5001 19.2503 16.5001H15.5837C15.0703 16.5001 14.667 16.0967 14.667 15.5834C14.667 15.0701 15.0703 14.6667 15.5837 14.6667H19.2503C19.7637 14.6667 20.167 15.0701 20.167 15.5834Z" fill="white"/>
<path d="M19.2503 20.1667C19.7637 20.1667 20.167 20.5701 20.167 21.0834C20.167 21.5967 19.7637 22.0001 19.2503 22.0001H15.5837C15.0703 22.0001 14.667 21.5967 14.667 21.0834C14.667 20.5701 15.0703 20.1667 15.5837 20.1667H19.2503Z" fill="white"/>
<path d="M19.2503 25.6667C19.7637 25.6667 20.167 26.0701 20.167 26.5834C20.167 27.0967 19.7637 27.5001 19.2503 27.5001H15.5837C15.0703 27.5001 14.667 27.0967 14.667 26.5834C14.667 26.0701 15.0703 25.6667 15.5837 25.6667H19.2503Z" fill="white"/>
<path d="M11 26.5834C11 27.0967 10.5967 27.5001 10.0833 27.5001H6.41667C5.90333 27.5001 5.5 27.0967 5.5 26.5834C5.5 26.0701 5.90333 25.6667 6.41667 25.6667H10.0833C10.5967 25.6667 11 26.0701 11 26.5834Z" fill="white"/>
<path d="M10.0833 9.16675C10.5967 9.16675 11 9.57008 11 10.0834C11 10.5967 10.5967 11.0001 10.0833 11.0001H6.41667C5.90333 11.0001 5.5 10.5967 5.5 10.0834C5.5 9.57008 5.90333 9.16675 6.41667 9.16675H10.0833Z" fill="white"/>
<path d="M10.0833 14.6667C10.5967 14.6667 11 15.0701 11 15.5834C11 16.0967 10.5967 16.5001 10.0833 16.5001H6.41667C5.90333 16.5001 5.5 16.0967 5.5 15.5834C5.5 15.0701 5.90333 14.6667 6.41667 14.6667H10.0833Z" fill="white"/>
<path d="M10.0833 20.1667C10.5967 20.1667 11 20.5701 11 21.0834C11 21.5967 10.5967 22.0001 10.0833 22.0001H6.41667C5.90333 22.0001 5.5 21.5967 5.5 21.0834C5.5 20.5701 5.90333 20.1667 6.41667 20.1667H10.0833Z" fill="white"/>
<path d="M16.4997 33.9167C16.4997 33.4034 16.078 33.0001 15.583 33.0001H10.083C9.56967 33.0001 9.16634 33.4034 9.16634 33.9167V42.1667H7.33301V33.9167C7.33301 32.3951 8.56134 31.1667 10.083 31.1667H15.583C17.1047 31.1667 18.333 32.3951 18.333 33.9167V42.1667H16.4997V33.9167Z" fill="white"/>
<path d="M9.16634 42.1667H16.4997H18.333V43.0834C18.333 43.5967 17.9297 44.0001 17.4163 44.0001H8.24967C7.73634 44.0001 7.33301 43.5967 7.33301 43.0834V42.1667H9.16634Z" fill="white"/>
<path d="M3.20833 0.366748L23.3567 3.42841C24.695 3.64841 25.6667 4.78508 25.6667 6.14175V16.6651L24.9333 16.5184C24.6583 16.4634 24.3833 16.5367 24.1633 16.7017C23.9617 16.8851 23.8333 17.1417 23.8333 17.4167V6.14175C23.8333 5.68341 23.5033 5.29841 23.0633 5.22508L2.915 2.18175C2.86 2.16341 2.805 2.16341 2.75 2.16341C2.53 2.16341 2.32833 2.23675 2.16333 2.38341C1.94333 2.56675 1.83333 2.80508 1.83333 3.08008V41.2501C1.83333 41.7634 2.255 42.1667 2.75 42.1667H7.33333V43.0834C7.33333 43.5967 7.73667 44.0001 8.25 44.0001H2.75C1.22833 44.0001 0 42.7718 0 41.2501V3.08008C0 2.27341 0.348333 1.50341 0.971667 0.990081C1.595 0.458415 2.40167 0.238414 3.20833 0.366748Z" fill="white"/>
</g>
<defs>
<clipPath id="clip0_217_4753">
<rect width="44" height="44" fill="white"/>
</clipPath>
</defs>
</svg>
