<svg width="29" height="29" viewBox="0 0 29 29" fill="none" xmlns="http://www.w3.org/2000/svg">
<path d="M23.5625 3.625H20.8438V2.71875C20.8438 2.4784 20.7483 2.24789 20.5783 2.07793C20.4084 1.90798 20.1779 1.8125 19.9375 1.8125C19.6971 1.8125 19.4666 1.90798 19.2967 2.07793C19.1267 2.24789 19.0312 2.4784 19.0312 2.71875V3.625H9.96875V2.71875C9.96875 2.4784 9.87327 2.24789 9.70332 2.07793C9.53336 1.90798 9.30285 1.8125 9.0625 1.8125C8.82215 1.8125 8.59164 1.90798 8.42168 2.07793C8.25173 2.24789 8.15625 2.4784 8.15625 2.71875V3.625H5.4375C4.9568 3.625 4.49578 3.81596 4.15587 4.15587C3.81596 4.49578 3.625 4.95679 3.625 5.4375V23.5625C3.625 24.0432 3.81596 24.5042 4.15587 24.8441C4.49578 25.184 4.9568 25.375 5.4375 25.375H23.5625C24.0432 25.375 24.5042 25.184 24.8441 24.8441C25.184 24.5042 25.375 24.0432 25.375 23.5625V5.4375C25.375 4.95679 25.184 4.49578 24.8441 4.15587C24.5042 3.81596 24.0432 3.625 23.5625 3.625ZM8.15625 5.4375V6.34375C8.15625 6.5841 8.25173 6.81461 8.42168 6.98457C8.59164 7.15452 8.82215 7.25 9.0625 7.25C9.30285 7.25 9.53336 7.15452 9.70332 6.98457C9.87327 6.81461 9.96875 6.5841 9.96875 6.34375V5.4375H19.0312V6.34375C19.0312 6.5841 19.1267 6.81461 19.2967 6.98457C19.4666 7.15452 19.6971 7.25 19.9375 7.25C20.1779 7.25 20.4084 7.15452 20.5783 6.98457C20.7483 6.81461 20.8438 6.5841 20.8438 6.34375V5.4375H23.5625V9.0625H5.4375V5.4375H8.15625ZM23.5625 23.5625H5.4375V10.875H23.5625V23.5625ZM16.3125 17.2188C16.3125 17.5772 16.2062 17.9277 16.007 18.2257C15.8079 18.5238 15.5248 18.7561 15.1936 18.8933C14.8624 19.0305 14.498 19.0664 14.1464 18.9964C13.7948 18.9265 13.4719 18.7539 13.2184 18.5004C12.9649 18.2469 12.7923 17.9239 12.7223 17.5724C12.6524 17.2208 12.6883 16.8563 12.8255 16.5251C12.9627 16.1939 13.195 15.9109 13.493 15.7117C13.7911 15.5126 14.1415 15.4062 14.5 15.4062C14.9807 15.4062 15.4417 15.5972 15.7816 15.9371C16.1215 16.277 16.3125 16.738 16.3125 17.2188Z" fill="#488253"/>
</svg>
