<svg width="22" height="22" viewBox="0 0 22 22" fill="none" xmlns="http://www.w3.org/2000/svg">
<path d="M18.6043 8.9797L11.7293 15.8547C11.6335 15.9508 11.5197 16.0271 11.3943 16.0792C11.269 16.1312 11.1346 16.158 10.9989 16.158C10.8631 16.158 10.7287 16.1312 10.6034 16.0792C10.478 16.0271 10.3642 15.9508 10.2684 15.8547L3.39339 8.9797C3.19966 8.78597 3.09082 8.52321 3.09082 8.24923C3.09082 7.97525 3.19966 7.71249 3.39339 7.51876C3.58712 7.32503 3.84988 7.21619 4.12386 7.21619C4.39784 7.21619 4.6606 7.32503 4.85433 7.51876L10.9997 13.6642L17.1451 7.5179C17.3388 7.32417 17.6016 7.21533 17.8756 7.21533C18.1496 7.21533 18.4123 7.32417 18.606 7.5179C18.7998 7.71163 18.9086 7.97439 18.9086 8.24837C18.9086 8.52235 18.7998 8.78511 18.606 8.97884L18.6043 8.9797Z" fill="white"/>
</svg>
