<svg width="26" height="26" viewBox="0 0 26 26" fill="none" xmlns="http://www.w3.org/2000/svg">
<g clip-path="url(#clip0_1_10700)">
<path d="M22.4656 25.1875H16.9406C15.4375 25.1875 14.2188 23.9688 14.2188 22.4656V15.0312C14.2188 14.5844 14.5844 14.2188 15.0312 14.2188H22.4656C23.9688 14.2188 25.1875 15.4375 25.1875 16.9406V22.4656C25.1875 23.9688 23.9688 25.1875 22.4656 25.1875ZM15.8438 15.8438V22.4656C15.8438 23.075 16.3313 23.5625 16.9406 23.5625H22.4656C23.075 23.5625 23.5625 23.075 23.5625 22.4656V16.9406C23.5625 16.3313 23.075 15.8438 22.4656 15.8438H15.8438Z" fill="white"/>
<path d="M9.05937 25.1875H3.53437C2.03125 25.1875 0.8125 23.9688 0.8125 22.4656V16.9406C0.8125 15.4375 2.03125 14.2188 3.53437 14.2188H10.9688C11.4156 14.2188 11.7812 14.5844 11.7812 15.0312V22.4656C11.7812 23.9688 10.5625 25.1875 9.05937 25.1875ZM3.53437 15.8438C2.925 15.8438 2.4375 16.3313 2.4375 16.9406V22.4656C2.4375 23.075 2.925 23.5625 3.53437 23.5625H9.05937C9.66875 23.5625 10.1562 23.075 10.1562 22.4656V15.8438H3.53437Z" fill="white"/>
<path d="M22.4656 11.7812H15.0312C14.5844 11.7812 14.2188 11.4156 14.2188 10.9688V3.53437C14.2188 2.03125 15.4375 0.8125 16.9406 0.8125H22.4656C23.9688 0.8125 25.1875 2.03125 25.1875 3.53437V9.05937C25.1875 10.5625 23.9688 11.7812 22.4656 11.7812ZM15.8438 10.1562H22.4656C23.075 10.1562 23.5625 9.66875 23.5625 9.05937V3.53437C23.5625 2.925 23.075 2.4375 22.4656 2.4375H16.9406C16.3313 2.4375 15.8438 2.925 15.8438 3.53437V10.1562Z" fill="white"/>
<path d="M10.9688 11.7812H3.53437C2.03125 11.7812 0.8125 10.5625 0.8125 9.05937V3.53437C0.8125 2.03125 2.03125 0.8125 3.53437 0.8125H9.05937C10.5625 0.8125 11.7812 2.03125 11.7812 3.53437V10.9688C11.7812 11.4156 11.4156 11.7812 10.9688 11.7812ZM3.53437 2.4375C2.925 2.4375 2.4375 2.925 2.4375 3.53437V9.05937C2.4375 9.66875 2.925 10.1562 3.53437 10.1562H10.1562V3.53437C10.1562 2.925 9.66875 2.4375 9.05937 2.4375H3.53437Z" fill="white"/>
</g>
<defs>
<clipPath id="clip0_1_10700">
<rect width="26" height="26" fill="white"/>
</clipPath>
</defs>
</svg>
