<svg width="34" height="34" viewBox="0 0 34 34" fill="none" xmlns="http://www.w3.org/2000/svg">
<g clip-path="url(#clip0_2_3197)">
<path d="M33.0976 31.5881H32.0879V25.6664H33.0976C33.3727 25.6664 33.5956 25.4434 33.5956 25.1684C33.5956 24.8933 33.3727 24.6703 33.0976 24.6703H23.1316V23.3482C23.1316 22.446 22.3976 21.712 21.4954 21.712H20.6027V20.6845C20.6027 19.6952 19.8116 18.8876 18.8289 18.8597V10.8242C18.8289 10.5492 18.6059 10.3262 18.3308 10.3262C18.0558 10.3262 17.8328 10.5492 17.8328 10.8242V18.8583H16.1683V7.34606H17.8328V8.5C17.8328 8.77505 18.0558 8.99805 18.3308 8.99805C18.6059 8.99805 18.8289 8.77505 18.8289 8.5V7.18004C18.8289 6.7223 18.4566 6.34997 17.9988 6.34997H17.4985V4.66079C18.3991 4.46628 19.1096 3.7558 19.3041 2.8552H25.4082V3.76357L20.5383 13.0166C20.3187 13.0401 20.12 13.1666 20.0081 13.3602C19.884 13.5752 19.884 13.8424 20.0081 14.0575L21.2043 16.1292C21.3284 16.3443 21.5598 16.4779 21.8082 16.4779H26.4966C26.7716 16.4779 26.9946 16.2549 26.9946 15.9799C26.9946 15.7048 26.7716 15.4818 26.4966 15.4818H21.9808L21.1297 14.0076H30.6829L29.8318 15.4818H28.8208C28.5457 15.4818 28.3227 15.7048 28.3227 15.9799C28.3227 16.2549 28.5457 16.4779 28.8208 16.4779H30.0043C30.2526 16.4779 30.4839 16.3444 30.6081 16.1293L31.8043 14.0573C31.9285 13.8423 31.9285 13.5751 31.8043 13.3601C31.6925 13.1665 31.4937 13.0399 31.2741 13.0164L26.4043 3.76357V2.85514H28.2686C28.5437 2.85514 28.7667 2.63214 28.7667 2.35709C28.7667 2.08204 28.5437 1.85904 28.2686 1.85904H19.3042C19.0749 0.797805 18.1293 0 17.0005 0C15.8716 0 14.9261 0.797805 14.6968 1.85904H5.73232C5.45726 1.85904 5.23427 2.08204 5.23427 2.35709C5.23427 2.63214 5.45726 2.85514 5.73232 2.85514H7.59661V3.76351L2.72684 13.0166C2.50723 13.0401 2.30848 13.1666 2.19665 13.3602C2.07247 13.5752 2.07247 13.8424 2.19658 14.0575V14.0575L3.39282 16.1295C3.517 16.3445 3.74836 16.478 3.99666 16.478H12.1927C12.441 16.478 12.6724 16.3445 12.7965 16.1294L13.9927 14.0575C14.1169 13.8425 14.1169 13.5753 13.9927 13.3603C13.881 13.1667 13.6822 13.0401 13.4625 13.0166L8.5927 3.76357V2.85514H14.6968C14.8913 3.75574 15.6017 4.46622 16.5023 4.66072V6.3499H16.0021C15.5444 6.3499 15.172 6.72224 15.172 7.17998V18.8596C14.1893 18.8875 13.3983 19.6951 13.3983 20.6845V21.7119H12.5056C11.6034 21.7119 10.8693 22.446 10.8693 23.3482V24.6703H4.36222C2.18038 24.6703 0.405273 26.4453 0.405273 28.6272C0.405273 30.809 2.18031 32.5841 4.36222 32.5841H7.15507V33.3023C7.15507 33.5625 7.29824 33.7991 7.52867 33.9199C7.7591 34.0406 8.03515 34.0238 8.24911 33.8756L9.46661 33.0331L10.684 33.8756C10.8032 33.958 10.9416 33.9999 11.0806 33.9999C11.1913 33.9999 11.3023 33.9734 11.4045 33.9198C11.6349 33.7991 11.7781 33.5624 11.7781 33.3022V32.584H33.0976C33.3727 32.584 33.5956 32.361 33.5956 32.086C33.5956 31.8109 33.3727 31.5881 33.0976 31.5881ZM25.4082 13.0116H21.6666L25.4082 5.90225V13.0116ZM26.4043 5.90225L30.1459 13.0116H26.4043V5.90225ZM7.59661 5.90225V13.0116H3.85501L7.59661 5.90225ZM12.0201 15.4819H4.16918L3.31805 14.0077H12.8713L12.0201 15.4819ZM12.3344 13.0116H8.59277V5.90225L12.3344 13.0116ZM15.6395 2.35709C15.6395 1.60663 16.25 0.996094 17.0005 0.996094C17.7509 0.996094 18.3615 1.60663 18.3615 2.35709C18.3615 3.10755 17.7509 3.71809 17.0005 3.71809C16.25 3.71809 15.6395 3.10755 15.6395 2.35709ZM14.3944 20.6845C14.3944 20.2267 14.7667 19.8544 15.2244 19.8544H18.7764C19.2342 19.8544 19.6065 20.2267 19.6065 20.6845V21.7119H14.3944V20.6845ZM4.36222 31.5881C2.72963 31.5881 1.40137 30.2599 1.40137 28.6272C1.40137 26.9946 2.72956 25.6664 4.36222 25.6664H5.0555C4.80761 26.0303 4.66245 26.4695 4.66245 26.9421V30.3123C4.66245 30.7849 4.80761 31.2242 5.05557 31.5881H4.36222ZM10.7819 32.7322L9.74996 32.018C9.57943 31.9 9.35358 31.9 9.18312 32.018L8.1511 32.7322V27.8836H10.7819V32.7322ZM31.0918 26.8876H20.3264C20.0513 26.8876 19.8283 27.1105 19.8283 27.3856C19.8283 27.6607 20.0513 27.8837 20.3264 27.8837H31.0919V29.3709H20.3264C20.0513 29.3709 19.8283 29.5939 19.8283 29.8689C19.8283 30.144 20.0513 30.367 20.3264 30.367H31.0919V31.5881H11.778V27.8837H15.9805C16.2556 27.8837 16.4786 27.6607 16.4786 27.3856C16.4786 27.1105 16.2556 26.8876 15.9805 26.8876H6.9342C6.65915 26.8876 6.43616 27.1105 6.43616 27.3856C6.43616 27.6607 6.65915 27.8837 6.9342 27.8837H7.15507V31.5881H6.9342C6.23076 31.5881 5.65847 31.0158 5.65847 30.3124V26.9422C5.65847 26.2388 6.23076 25.6665 6.9342 25.6665H14.9419C15.2169 25.6665 15.4399 25.4435 15.4399 25.1684C15.4399 24.8934 15.2169 24.6704 14.9419 24.6704H11.8654V23.3483C11.8654 22.9954 12.1525 22.7081 12.5056 22.7081H21.4954C21.8483 22.7081 22.1355 22.9954 22.1355 23.3483V24.6704H17.2661C16.991 24.6704 16.768 24.8934 16.768 25.1684C16.768 25.4435 16.991 25.6665 17.2661 25.6665H31.0918V26.8876Z" fill="white"/>
</g>
<defs>
<clipPath id="clip0_2_3197">
<rect width="34" height="34" fill="white"/>
</clipPath>
</defs>
</svg>
