<svg width="32" height="32" viewBox="0 0 32 32" fill="none" xmlns="http://www.w3.org/2000/svg">
<g clip-path="url(#clip0_5_8094)">
<path d="M28.6562 2.86067e-07H4.84375C4.33008 0.000595774 3.83761 0.204916 3.47439 0.568139C3.11117 0.931361 2.90685 1.42383 2.90625 1.9375V26.6572C2.90685 27.1709 3.11117 27.6634 3.47439 28.0266C3.83761 28.3898 4.33008 28.5942 4.84375 28.5947H11.1875V31.5635C11.1875 31.6416 11.2083 31.7182 11.2479 31.7855C11.2875 31.8528 11.3444 31.9082 11.4127 31.9461C11.481 31.984 11.5581 32.0029 11.6362 32.0008C11.7142 31.9988 11.7903 31.9759 11.8565 31.9345L14.0315 30.579L16.2065 31.9345C16.2727 31.9759 16.3488 31.9988 16.4268 32.0008C16.5049 32.0029 16.582 31.984 16.6503 31.9461C16.7186 31.9082 16.7755 31.8528 16.8151 31.7855C16.8547 31.7182 16.8755 31.6416 16.8755 31.5635V28.5942H28.6567C28.7728 28.5942 28.8841 28.5482 28.9661 28.4661C29.0482 28.3841 29.0942 28.2728 29.0942 28.1567V0.437C29.0942 0.379547 29.0828 0.322669 29.0608 0.269614C29.0387 0.216559 29.0064 0.168367 28.9658 0.127787C28.9251 0.0872082 28.8768 0.0550373 28.8237 0.0331116C28.7706 0.0111858 28.7137 -6.54124e-05 28.6562 2.86067e-07ZM4.84375 27.7192C4.56206 27.7189 4.292 27.6069 4.09281 27.4077C3.89363 27.2085 3.78158 26.9384 3.78125 26.6567V1.937C3.78158 1.65531 3.89363 1.38525 4.09281 1.18606C4.292 0.986879 4.56206 0.874831 4.84375 0.8745H8.953V27.7192H4.84375ZM16 30.775L14.2627 29.6922C14.1933 29.6489 14.1131 29.626 14.0312 29.626C13.9494 29.626 13.8692 29.6489 13.7998 29.6922L12.0625 30.775V28.5947H16V30.775ZM9.828 27.7192V0.875H28.2188V11.3515H18.1875C17.6075 11.3522 17.0515 11.5828 16.6414 11.9929C16.2313 12.403 16.0007 12.959 16 13.539V15.0548C16.0007 15.6347 16.2313 16.1907 16.6414 16.6008C17.0515 17.0109 17.6075 17.2416 18.1875 17.2423H28.2188V27.7192H9.828ZM28.2188 16.3673H22.7145C23.0009 15.9896 23.1561 15.5287 23.1562 15.0548V13.539C23.1561 13.065 23.0009 12.6041 22.7145 12.2265H28.2188V16.3673ZM22.2812 13.539V15.0548C22.2809 15.4027 22.1424 15.7363 21.8964 15.9824C21.6503 16.2284 21.3167 16.3669 20.9688 16.3673H18.1875C17.8395 16.3669 17.5059 16.2284 17.2599 15.9824C17.0138 15.7363 16.8754 15.4027 16.875 15.0548V13.539C16.8754 13.191 17.0138 12.8574 17.2599 12.6114C17.5059 12.3653 17.8395 12.2269 18.1875 12.2265H20.9688C21.3167 12.2269 21.6503 12.3653 21.8964 12.6114C22.1424 12.8574 22.2809 13.191 22.2812 13.539Z" fill="white"/>
<path d="M27.0939 9.789V2.437C27.0937 2.32105 27.0476 2.2099 26.9656 2.12796C26.8835 2.04602 26.7723 2 26.6564 2H11.3906C11.2746 2.00007 11.1634 2.04618 11.0813 2.12821C10.9993 2.21025 10.9532 2.32149 10.9531 2.4375V9.789C10.9531 9.90503 10.9992 10.0163 11.0813 10.0984C11.1633 10.1804 11.2746 10.2265 11.3906 10.2265H26.6564C26.7138 10.2265 26.7707 10.2152 26.8238 10.1933C26.8769 10.1713 26.9252 10.1391 26.9658 10.0984C27.0064 10.0578 27.0387 10.0096 27.0606 9.95646C27.0826 9.90337 27.0939 9.84646 27.0939 9.789ZM26.2189 9.3515H11.8281V2.875H26.2189V9.3515Z" fill="white"/>
<path d="M18.0498 14.2969C18.0498 14.4129 18.0959 14.5242 18.1779 14.6062C18.26 14.6883 18.3713 14.7344 18.4873 14.7344H20.6671C20.7831 14.7344 20.8944 14.6883 20.9764 14.6062C21.0585 14.5242 21.1046 14.4129 21.1046 14.2969C21.1046 14.1808 21.0585 14.0696 20.9764 13.9875C20.8944 13.9055 20.7831 13.8594 20.6671 13.8594H18.4881C18.4305 13.8592 18.3735 13.8705 18.3204 13.8924C18.2672 13.9143 18.2189 13.9465 18.1781 13.9872C18.1374 14.0278 18.1051 14.0761 18.0831 14.1292C18.0611 14.1824 18.0498 14.2394 18.0498 14.2969Z" fill="white"/>
<path d="M13.7812 5.33203H23.9062C24.0223 5.33203 24.1336 5.28594 24.2156 5.20389C24.2977 5.12184 24.3438 5.01056 24.3438 4.89453C24.3438 4.7785 24.2977 4.66722 24.2156 4.58517C24.1336 4.50313 24.0223 4.45703 23.9062 4.45703H13.7812C13.6652 4.45703 13.5539 4.50313 13.4719 4.58517C13.3898 4.66722 13.3438 4.7785 13.3438 4.89453C13.3438 5.01056 13.3898 5.12184 13.4719 5.20389C13.5539 5.28594 13.6652 5.33203 13.7812 5.33203Z" fill="white"/>
<path d="M21.9688 6.89453H15.7188C15.6027 6.89453 15.4914 6.94063 15.4094 7.02267C15.3273 7.10472 15.2812 7.216 15.2812 7.33203C15.2812 7.44806 15.3273 7.55934 15.4094 7.64139C15.4914 7.72344 15.6027 7.76953 15.7188 7.76953H21.9688C22.0848 7.76953 22.1961 7.72344 22.2781 7.64139C22.3602 7.55934 22.4062 7.44806 22.4062 7.33203C22.4062 7.216 22.3602 7.10472 22.2781 7.02267C22.1961 6.94063 22.0848 6.89453 21.9688 6.89453Z" fill="white"/>
</g>
<defs>
<clipPath id="clip0_5_8094">
<rect width="32" height="32" fill="white"/>
</clipPath>
</defs>
</svg>
