<svg width="38" height="38" viewBox="0 0 38 38" fill="none" xmlns="http://www.w3.org/2000/svg">
<path d="M32.6562 30.2812V4.75C32.6553 3.96292 32.3422 3.20835 31.7857 2.6518C31.2291 2.09525 30.4745 1.78218 29.6875 1.78125H5.93746C5.15038 1.78218 4.39581 2.09525 3.83926 2.6518C3.28271 3.20835 2.96964 3.96292 2.96871 4.75V7.71875H7.71871V9.5301C6.43009 9.64683 5.20524 10.144 4.19979 10.9584C3.19434 11.7728 2.45366 12.8676 2.07185 14.1039C1.69004 15.3402 1.68434 16.6621 2.05547 17.9016C2.42661 19.1411 3.15782 20.2424 4.15621 21.0654V29.0427L7.71871 25.4802V33.25C7.71964 34.0371 8.03271 34.7917 8.58926 35.3482C9.14581 35.9047 9.90038 36.2178 10.6875 36.2188H32.0625C32.8495 36.2178 33.6041 35.9047 34.1607 35.3482C34.7172 34.7917 35.0303 34.0371 35.0312 33.25V30.2812H32.6562ZM4.15621 6.53125V4.75C4.15621 4.27758 4.34388 3.82452 4.67793 3.49047C5.01197 3.15642 5.46504 2.96875 5.93746 2.96875C6.40988 2.96875 6.86294 3.15642 7.19699 3.49047C7.53104 3.82452 7.71871 4.27758 7.71871 4.75V6.53125H4.15621ZM2.96871 16.0312C2.96871 14.9744 3.28212 13.9412 3.86929 13.0624C4.45647 12.1836 5.29105 11.4987 6.26749 11.0943C7.24394 10.6898 8.31839 10.584 9.35497 10.7902C10.3916 10.9964 11.3437 11.5053 12.0911 12.2526C12.8384 13 13.3473 13.9521 13.5535 14.9887C13.7597 16.0253 13.6539 17.0998 13.2494 18.0762C12.845 19.0527 12.1601 19.8872 11.2813 20.4744C10.4025 21.0616 9.36935 21.375 8.31246 21.375C6.89569 21.3734 5.5374 20.8099 4.53559 19.8081C3.53379 18.8063 2.97028 17.448 2.96871 16.0312ZM5.34371 21.8415C6.26159 22.3153 7.27952 22.5625 8.31246 22.5625C9.3454 22.5625 10.3633 22.3153 11.2812 21.8415V26.1759L8.31246 23.2071L5.34371 26.1759V21.8415ZM12.4687 33.25C12.4687 33.7224 12.281 34.1755 11.947 34.5095C11.6129 34.8436 11.1599 35.0312 10.6875 35.0312C10.215 35.0312 9.76197 34.8436 9.42793 34.5095C9.09388 34.1755 8.90621 33.7224 8.90621 33.25V25.4802L12.4687 29.0427V21.0654C13.4671 20.2424 14.1983 19.1411 14.5694 17.9016C14.9406 16.6621 14.9349 15.3402 14.5531 14.1039C14.1713 12.8676 13.4306 11.7728 12.4251 10.9584C11.4197 10.144 10.1948 9.64683 8.90621 9.5301V4.75C8.90702 4.10733 8.69814 3.48194 8.31127 2.96875H29.6875C30.1597 2.96927 30.6125 3.1571 30.9464 3.49104C31.2804 3.82498 31.4682 4.27774 31.4687 4.75V30.2812H12.4687V33.25ZM33.8437 33.25C33.8432 33.7223 33.6554 34.175 33.3214 34.509C32.9875 34.8429 32.5347 35.0307 32.0625 35.0312H13.0613C13.4481 34.5181 13.657 33.8927 13.6562 33.25V31.4688H33.8437V33.25Z" fill="white"/>
<path d="M11.875 5.34375H20.1875V6.53125H11.875V5.34375Z" fill="white"/>
<path d="M17.2188 10.6875H21.375V11.875H17.2188V10.6875Z" fill="white"/>
<path d="M17.2188 14.25H25.5312V15.4375H17.2188V14.25Z" fill="white"/>
<path d="M17.2188 17.8125H25.5312V19H17.2188V17.8125Z" fill="white"/>
<path d="M17.2188 21.375H25.5312V22.5625H17.2188V21.375Z" fill="white"/>
<path d="M20.7812 26.7188H29.0938V27.9062H20.7812V26.7188Z" fill="white"/>
<path d="M27.3125 4.75C26.8428 4.75 26.3836 4.88929 25.993 5.15026C25.6025 5.41123 25.298 5.78215 25.1183 6.21613C24.9385 6.6501 24.8915 7.12763 24.9831 7.58834C25.0748 8.04904 25.301 8.47223 25.6331 8.80438C25.9653 9.13653 26.3885 9.36273 26.8492 9.45437C27.3099 9.54601 27.7874 9.49897 28.2214 9.31921C28.6553 9.13946 29.0263 8.83505 29.2872 8.44448C29.5482 8.05391 29.6875 7.59473 29.6875 7.125C29.6869 6.4953 29.4365 5.89156 28.9912 5.4463C28.5459 5.00103 27.9422 4.75061 27.3125 4.75ZM27.3125 8.3125C27.0776 8.3125 26.848 8.24285 26.6528 8.11237C26.4575 7.98189 26.3053 7.79642 26.2154 7.57944C26.1255 7.36245 26.102 7.12368 26.1478 6.89333C26.1936 6.66298 26.3067 6.45139 26.4728 6.28531C26.6389 6.11924 26.8505 6.00614 27.0808 5.96032C27.3112 5.9145 27.5499 5.93801 27.7669 6.02789C27.9839 6.11777 28.1694 6.26998 28.2999 6.46526C28.4304 6.66054 28.5 6.89013 28.5 7.125C28.4996 7.43981 28.3743 7.74161 28.1517 7.96422C27.9291 8.18683 27.6273 8.31208 27.3125 8.3125Z" fill="white"/>
<path d="M8.3125 19.5938C9.0171 19.5938 9.70587 19.3848 10.2917 18.9934C10.8776 18.6019 11.3342 18.0455 11.6038 17.3946C11.8735 16.7436 11.944 16.0273 11.8065 15.3362C11.6691 14.6452 11.3298 14.0104 10.8316 13.5122C10.3333 13.014 9.69857 12.6747 9.00751 12.5372C8.31645 12.3997 7.60015 12.4703 6.94919 12.7399C6.29823 13.0096 5.74184 13.4662 5.35039 14.052C4.95894 14.6379 4.75 15.3267 4.75 16.0313C4.75104 16.9758 5.1267 17.8813 5.79458 18.5492C6.46245 19.217 7.36798 19.5927 8.3125 19.5938ZM8.3125 13.6563C8.78223 13.6563 9.24141 13.7955 9.63198 14.0565C10.0225 14.3175 10.327 14.6884 10.5067 15.1224C10.6865 15.5564 10.7335 16.0339 10.6419 16.4946C10.5502 16.9553 10.324 17.3785 9.99188 17.7106C9.65973 18.0428 9.23654 18.269 8.77584 18.3606C8.31513 18.4523 7.8376 18.4052 7.40363 18.2255C6.96965 18.0457 6.59873 17.7413 6.33776 17.3507C6.07679 16.9602 5.9375 16.501 5.9375 16.0313C5.93811 15.4016 6.18853 14.7978 6.6338 14.3525C7.07906 13.9073 7.6828 13.6569 8.3125 13.6563Z" fill="white"/>
</svg>
