<svg width="36" height="36" viewBox="0 0 36 36" fill="none" xmlns="http://www.w3.org/2000/svg">
<path d="M12.0002 25.7998H10.8002C10.4688 25.7998 10.2002 26.0685 10.2002 26.3998C10.2002 26.7312 10.4688 26.9998 10.8002 26.9998H12.0002C12.3315 26.9998 12.6002 26.7312 12.6002 26.3998C12.6002 26.0685 12.3315 25.7998 12.0002 25.7998Z" fill="white"/>
<path d="M28.7998 25.7998H14.3998C14.0685 25.7998 13.7998 26.0685 13.7998 26.3998C13.7998 26.7312 14.0685 26.9998 14.3998 26.9998H28.7998C29.1312 26.9998 29.3998 26.7312 29.3998 26.3998C29.3998 26.0685 29.1312 25.7998 28.7998 25.7998Z" fill="white"/>
<path d="M12.0002 22.2002H10.8002C10.4688 22.2002 10.2002 22.4688 10.2002 22.8002C10.2002 23.1315 10.4688 23.4002 10.8002 23.4002H12.0002C12.3315 23.4002 12.6002 23.1315 12.6002 22.8002C12.6002 22.4688 12.3315 22.2002 12.0002 22.2002Z" fill="white"/>
<path d="M28.7998 22.2002H14.3998C14.0685 22.2002 13.7998 22.4688 13.7998 22.8002C13.7998 23.1315 14.0685 23.4002 14.3998 23.4002H28.7998C29.1312 23.4002 29.3998 23.1315 29.3998 22.8002C29.3998 22.4688 29.1312 22.2002 28.7998 22.2002Z" fill="white"/>
<path d="M12.0002 18.5996H10.8002C10.4688 18.5996 10.2002 18.8683 10.2002 19.1996C10.2002 19.531 10.4688 19.7996 10.8002 19.7996H12.0002C12.3315 19.7996 12.6002 19.531 12.6002 19.1996C12.6002 18.8683 12.3315 18.5996 12.0002 18.5996Z" fill="white"/>
<path d="M28.7998 18.5996H14.3998C14.0685 18.5996 13.7998 18.8683 13.7998 19.1996C13.7998 19.531 14.0685 19.7996 14.3998 19.7996H28.7998C29.1312 19.7996 29.3998 19.531 29.3998 19.1996C29.3998 18.8683 29.1312 18.5996 28.7998 18.5996Z" fill="white"/>
<path d="M12.0002 15H10.8002C10.4688 15 10.2002 15.2686 10.2002 15.6C10.2002 15.9314 10.4688 16.2 10.8002 16.2H12.0002C12.3315 16.2 12.6002 15.9314 12.6002 15.6C12.6002 15.2686 12.3315 15 12.0002 15Z" fill="white"/>
<path d="M28.7998 15H14.3998C14.0685 15 13.7998 15.2686 13.7998 15.6C13.7998 15.9314 14.0685 16.2 14.3998 16.2H28.7998C29.1312 16.2 29.3998 15.9314 29.3998 15.6C29.3998 15.2686 29.1312 15 28.7998 15Z" fill="white"/>
<path d="M12.0002 11.4004H10.8002C10.4688 11.4004 10.2002 11.669 10.2002 12.0004C10.2002 12.3317 10.4688 12.6004 10.8002 12.6004H12.0002C12.3315 12.6004 12.6002 12.3317 12.6002 12.0004C12.6002 11.669 12.3315 11.4004 12.0002 11.4004Z" fill="white"/>
<path d="M28.7998 11.4004H14.3998C14.0685 11.4004 13.7998 11.669 13.7998 12.0004C13.7998 12.3317 14.0685 12.6004 14.3998 12.6004H28.7998C29.1312 12.6004 29.3998 12.3317 29.3998 12.0004C29.3998 11.669 29.1312 11.4004 28.7998 11.4004Z" fill="white"/>
<path d="M32.9922 8.9622C32.9892 8.90963 32.9789 8.85773 32.9616 8.808C32.955 8.7888 32.9502 8.7702 32.9418 8.7516C32.9126 8.68635 32.872 8.6268 32.8218 8.5758L24.4218 0.1758C24.3708 0.125625 24.3112 0.084975 24.246 0.0558C24.2274 0.0474 24.2088 0.0426 24.1902 0.036C24.14 0.01875 24.0877 0.00825 24.0348 0.0048C24.0246 0.0066 24.0132 0 24 0H7.2C6.86865 0 6.6 0.26865 6.6 0.6V2.4H3.6C3.26865 2.4 3 2.66865 3 3V35.4C3 35.7313 3.26865 36 3.6 36H28.8C29.1313 36 29.4 35.7313 29.4 35.4V32.4H32.4C32.7313 32.4 33 32.1314 33 31.8V9C33 8.9868 32.9934 8.9754 32.9922 8.9622ZM24.6 2.0484L30.9516 8.4H24.6V2.0484ZM28.2 34.8H4.2V3.6H6.6V31.8C6.6 32.1314 6.86865 32.4 7.2 32.4H28.2V34.8ZM31.8 31.2H7.8V1.2H23.4V9C23.4 9.33135 23.6686 9.6 24 9.6H31.8V31.2Z" fill="white"/>
<path d="M14.4002 5.40039H10.8002C10.4688 5.40039 10.2002 5.66904 10.2002 6.00039V9.60039C10.2002 9.93174 10.4688 10.2004 10.8002 10.2004H14.4002C14.7315 10.2004 15.0002 9.93174 15.0002 9.60039V6.00039C15.0002 5.66904 14.7315 5.40039 14.4002 5.40039ZM13.8002 9.00039H11.4002V6.60039H13.8002V9.00039Z" fill="white"/>
</svg>
