<svg width="60" height="60" viewBox="0 0 60 60" fill="none" xmlns="http://www.w3.org/2000/svg">
<path fill-rule="evenodd" clip-rule="evenodd" d="M26.1026 38.0146C25.5899 38.086 25.2319 38.5584 25.3033 39.0711C25.3162 39.1645 25.3125 39.2688 25.3125 39.3751C25.3125 41.5309 24.6204 43.573 23.3821 45.3082C22.2141 43.447 20.4563 42.0653 18.4195 41.3183C19.6405 40.3203 20.4373 38.8216 20.4373 37.1247C20.4373 34.1272 17.9984 31.6883 15 31.6883C12.0016 31.6883 9.56268 34.1272 9.56268 37.1247C9.56268 38.8216 10.3595 40.3203 11.5805 41.3183C9.54311 42.0656 7.78484 43.4477 6.61674 45.3098C5.38582 43.5911 4.6875 41.5413 4.6875 39.3751C4.6875 36.6083 5.7605 34.021 7.71515 32.0838C9.4693 30.3141 11.7068 29.2814 14.1888 29.0973C14.7052 29.0589 15.0925 28.6094 15.054 28.093C15.0156 27.5776 14.5834 27.1866 14.0497 27.2278C11.153 27.443 8.43018 28.6991 6.38947 30.759C4.08325 33.0451 2.8125 36.1048 2.8125 39.3751C2.8125 42.4842 3.97522 45.4285 6.08002 47.6624C8.37158 50.1398 11.6226 51.5626 15 51.5626C18.2703 51.5626 21.33 50.2918 23.6133 47.9883C23.725 47.8766 23.8358 47.7631 23.9136 47.6679C26.0248 45.4285 27.1875 42.4842 27.1875 39.3751C27.1875 39.1791 27.1838 38.985 27.16 38.8147C27.0886 38.3002 26.6107 37.945 26.1026 38.0146ZM11.4377 37.1247C11.4377 35.1618 13.0353 33.5633 15 33.5633C16.9647 33.5633 18.5623 35.1618 18.5623 37.1247C18.5623 39.0894 16.9647 40.6879 15 40.6879C13.0353 40.6879 11.4377 39.0894 11.4377 37.1247ZM7.91931 46.8392C9.29283 44.23 11.9957 42.5629 15 42.5629C18.0033 42.5629 20.7051 44.2287 22.0792 46.8364C20.1698 48.6648 17.6749 49.6876 15 49.6876C12.3623 49.6876 9.82429 48.6516 7.91931 46.8392Z" fill="white"/>
<path fill-rule="evenodd" clip-rule="evenodd" d="M53.6169 30.7646C51.5698 28.6991 48.847 27.443 45.9503 27.2279C45.4395 27.1922 44.9835 27.5758 44.9451 28.0931C44.9066 28.6094 45.2948 29.0589 45.8112 29.0974C48.2922 29.2814 50.5316 30.3141 52.2913 32.0912C54.2395 34.0211 55.3125 36.6084 55.3125 39.3751C55.3125 41.5284 54.621 43.5697 53.3814 45.3074C52.2136 43.4467 50.4565 42.0653 48.4201 41.3183C49.6413 40.3203 50.4382 38.8217 50.4382 37.1247C50.4382 34.1273 47.9993 31.6883 45 31.6883C42.0007 31.6883 39.5618 34.1273 39.5618 37.1247C39.5618 38.8217 40.3587 40.3203 41.5799 41.3183C39.543 42.0655 37.7855 43.4473 36.6177 45.3088C35.3858 43.5889 34.6875 41.5396 34.6875 39.3751C34.6875 39.2689 34.6838 39.1645 34.6967 39.0712C34.7681 38.5585 34.411 38.086 33.8965 38.0146C33.4204 37.9524 32.9095 38.3003 32.84 38.8148C32.8162 38.9851 32.8125 39.1792 32.8125 39.3751C32.8125 42.4842 33.9752 45.4286 36.0809 47.6606C38.3716 50.1399 41.6217 51.5626 45 51.5626C48.2703 51.5626 51.33 50.2919 53.6133 47.9884C53.725 47.8767 53.8367 47.7613 53.9136 47.668C56.0248 45.4286 57.1875 42.4842 57.1875 39.3751C57.1875 36.1048 55.9167 33.0451 53.6169 30.7646ZM41.4368 37.1247C41.4368 35.1618 43.0353 33.5633 45 33.5633C46.9647 33.5633 48.5632 35.1618 48.5632 37.1247C48.5632 39.0895 46.9647 40.688 45 40.688C43.0353 40.688 41.4368 39.0895 41.4368 37.1247ZM37.9208 46.8391C39.2923 44.23 41.9957 42.563 45 42.563C48.0034 42.563 50.7063 44.229 52.0781 46.8368C50.1703 48.665 47.6756 49.6876 45 49.6876C42.3621 49.6876 39.825 48.6515 37.9208 46.8391Z" fill="white"/>
<path fill-rule="evenodd" clip-rule="evenodd" d="M44.0625 22.5C44.0625 20.1196 43.4894 17.85 42.3578 15.7544C42.1106 15.2975 41.5356 15.1291 41.087 15.3754C40.6311 15.6216 40.4608 16.1902 40.708 16.6461C41.6895 18.4644 42.1875 20.4346 42.1875 22.5C42.1875 25.0424 41.4052 27.4603 39.9704 29.4968C38.2801 27.7718 36.189 26.5387 33.8921 25.8788C35.503 24.6817 36.5625 22.7813 36.5625 20.625C36.5625 17.0068 33.6182 14.0625 30 14.0625C26.3818 14.0625 23.4375 17.0068 23.4375 20.625C23.4375 22.7813 24.497 24.6817 26.1079 25.8788C23.8132 26.5382 21.7234 27.7694 20.0335 29.4919C18.639 27.5102 17.8125 25.1017 17.8125 22.5C17.8125 19.2444 19.0796 16.1838 21.3812 13.8812C23.6829 11.5796 26.7435 10.3125 30 10.3125C32.0654 10.3125 34.0356 10.8105 35.8557 11.7938C36.3062 12.0392 36.8774 11.8698 37.1265 11.4148C37.3718 10.9589 37.2015 10.3903 36.7456 10.144C34.649 9.01154 32.3804 8.4375 30 8.4375C26.2427 8.4375 22.7106 9.8996 20.0555 12.5555C17.3996 15.2124 15.9375 18.7436 15.9375 22.5C15.9375 30.2545 22.2455 36.5625 30 36.5625C33.7555 36.5625 37.2876 35.0995 39.9445 32.4445C42.5995 29.7876 44.0625 26.2564 44.0625 22.5ZM25.3125 20.625C25.3125 18.0405 27.4155 15.9375 30 15.9375C32.5854 15.9375 34.6875 18.0405 34.6875 20.625C34.6875 23.2095 32.5854 25.3125 30 25.3125C27.4155 25.3125 25.3125 23.2095 25.3125 20.625ZM30 34.6875C26.5598 34.6875 23.4541 33.2486 21.2359 30.9483C23.5061 28.5571 26.6496 27.1875 30 27.1875C33.3529 27.1875 36.4978 28.5593 38.7683 30.9538C38.7166 31.0074 38.6716 31.0659 38.6188 31.1188C36.3153 33.4204 33.2556 34.6875 30 34.6875Z" fill="white"/>
<path fill-rule="evenodd" clip-rule="evenodd" d="M10.0378 13.7878L10.3125 13.5132V22.5C10.3125 23.0182 10.7318 23.4375 11.25 23.4375C11.7682 23.4375 12.1875 23.0182 12.1875 22.5V13.5132L12.4622 13.7878C12.6453 13.9709 12.8851 14.0625 13.125 14.0625C13.3649 14.0625 13.6047 13.9709 13.7878 13.7878C14.1541 13.4216 14.1541 12.8284 13.7878 12.4622L11.9128 10.5872C11.5466 10.2209 10.9534 10.2209 10.5872 10.5872L8.71216 12.4622C8.34595 12.8284 8.34595 13.4216 8.71216 13.7878C9.07837 14.1541 9.67163 14.1541 10.0378 13.7878Z" fill="white"/>
<path fill-rule="evenodd" clip-rule="evenodd" d="M47.5378 13.7878L47.8125 13.5132V22.5C47.8125 23.0182 48.2318 23.4375 48.75 23.4375C49.2682 23.4375 49.6875 23.0182 49.6875 22.5V13.5132L49.9622 13.7878C50.1453 13.9709 50.3851 14.0625 50.625 14.0625C50.8649 14.0625 51.1047 13.9709 51.2878 13.7878C51.6541 13.4216 51.6541 12.8284 51.2878 12.4622L49.4128 10.5872C49.0466 10.2209 48.4534 10.2209 48.0872 10.5872L46.2122 12.4622C45.8459 12.8284 45.8459 13.4216 46.2122 13.7878C46.5784 14.1541 47.1716 14.1541 47.5378 13.7878Z" fill="white"/>
<path fill-rule="evenodd" clip-rule="evenodd" d="M39.9441 13.8822C40.3102 13.516 40.3102 12.9225 39.9441 12.5563C39.578 12.1902 38.9844 12.1902 38.6183 12.5563C38.2522 12.9225 38.2522 13.516 38.6183 13.8822C38.9844 14.2483 39.578 14.2483 39.9441 13.8822Z" fill="white"/>
</svg>
