<svg width="48" height="48" viewBox="0 0 48 48" fill="none" xmlns="http://www.w3.org/2000/svg">
<g clip-path="url(#clip0_431_1556)">
<path fill-rule="evenodd" clip-rule="evenodd" d="M40.7733 27.5853C40.464 27.5853 40.2109 27.3322 40.2109 27.0229V25.392C40.2109 22.0457 37.4833 19.3181 34.1371 19.3181H33.4341C33.1248 19.3181 32.8717 19.0651 32.8717 18.7557C32.8717 18.4464 33.1248 18.1934 33.4341 18.1934H34.1371C38.1019 18.1934 41.3357 21.4271 41.3357 25.392V27.0229C41.3357 27.3322 41.0826 27.5853 40.7733 27.5853ZM18.6151 27.276C18.3058 27.276 18.0527 27.0229 18.0527 26.7136V25.392C18.0527 21.4271 21.2865 18.1934 25.2794 18.1934H25.9543C26.2636 18.1934 26.5167 18.4464 26.5167 18.7557C26.5167 19.0651 26.2636 19.3181 25.9543 19.3181H25.2794C21.9051 19.3181 19.1775 22.0457 19.1775 25.392V26.7136C19.1775 27.0229 18.9244 27.276 18.6151 27.276Z" fill="white"/>
<path fill-rule="evenodd" clip-rule="evenodd" d="M29.6943 23.2831C27.5291 23.2831 25.6732 21.3709 25.392 18.8121C25.3639 18.5028 25.5889 18.2216 25.8982 18.1934C26.2075 18.1653 26.4887 18.3903 26.5168 18.6715C26.7418 20.668 28.0915 22.1583 29.6943 22.1583C31.2971 22.1583 32.675 20.668 32.8718 18.6715C32.928 18.3903 33.1811 18.1372 33.4904 18.1934C33.7998 18.2216 34.0247 18.5028 33.9966 18.8121C33.7154 21.3709 31.8595 23.2831 29.6943 23.2831Z" fill="white"/>
<path fill-rule="evenodd" clip-rule="evenodd" d="M25.9552 19.3181C25.9271 19.3181 25.8709 19.3181 25.8428 19.29C25.5334 19.2337 25.3366 18.9244 25.421 18.6432C25.421 18.6151 25.5897 17.6871 25.5053 16.5905C25.4772 16.2812 25.7022 16 26.0115 15.9719C26.3208 15.9437 26.602 16.1687 26.6301 16.478C26.7426 17.7715 26.5176 18.8119 26.5176 18.8682C26.4614 19.1212 26.2083 19.3181 25.9552 19.3181Z" fill="white"/>
<path fill-rule="evenodd" clip-rule="evenodd" d="M33.4341 19.3181C33.181 19.3181 32.9561 19.1212 32.8998 18.8682C32.8717 18.8119 32.6749 17.7715 32.7873 16.478C32.8155 16.1687 33.0967 15.9437 33.406 15.9719C33.7153 16 33.9402 16.2812 33.9121 16.5905C33.7996 17.6871 33.9965 18.6151 33.9965 18.6432C34.0527 18.9244 33.8559 19.2337 33.5466 19.29C33.5185 19.3181 33.4903 19.3181 33.4341 19.3181Z" fill="white"/>
<path fill-rule="evenodd" clip-rule="evenodd" d="M29.6951 18.2494C25.9271 18.2494 22.834 15.1844 22.834 11.3883C22.834 10.8821 22.8902 10.3479 23.0027 9.84171C23.0589 9.58864 23.312 9.41992 23.5651 9.41992H35.8533C36.1064 9.41992 36.3313 9.58864 36.3876 9.84171C36.5001 10.3479 36.5563 10.8821 36.5563 11.3883C36.5563 15.1844 33.4913 18.2494 29.6951 18.2494ZM24.015 10.5447C23.9869 10.8259 23.9588 11.1071 23.9588 11.3883C23.9588 14.5658 26.5458 17.1247 29.6951 17.1247C32.8726 17.1247 35.4315 14.5658 35.4315 11.3883C35.4315 11.1071 35.4315 10.8259 35.3753 10.5447H24.015Z" fill="white"/>
<path fill-rule="evenodd" clip-rule="evenodd" d="M36.4437 8.91377H31.8884C31.6072 8.91377 31.3822 8.71693 31.3541 8.43573L30.3699 2.10885C30.3699 2.02449 30.3418 1.94013 30.3137 1.82765C30.2856 1.65893 30.3418 1.4621 30.4824 1.3215C30.5949 1.1809 30.7917 1.12466 30.9604 1.15278C34.4191 1.77141 36.9499 4.75208 37.0061 8.26702V8.35138C37.0061 8.66069 36.7531 8.91377 36.4437 8.91377ZM32.3664 7.78899H35.8532C35.6283 5.31447 33.9411 3.20551 31.5791 2.4744L32.3664 7.78899ZM27.5017 8.91377H22.9745C22.6652 8.91377 22.4121 8.66069 22.4121 8.35138C22.4121 4.80832 24.9429 1.77141 28.4297 1.15278C28.5984 1.12466 28.7952 1.1809 28.9358 1.3215C29.0483 1.4621 29.1046 1.65893 29.0764 1.82765C29.0483 1.91201 29.0483 1.99637 29.0202 2.10885L28.0641 8.43573C28.0079 8.71693 27.7829 8.91377 27.5017 8.91377ZM23.565 7.78899H27.0237L27.8392 2.4744C25.4771 3.20551 23.79 5.31447 23.565 7.78899Z" fill="white"/>
<path fill-rule="evenodd" clip-rule="evenodd" d="M31.9166 8.91388C31.8885 8.91388 31.8885 8.91388 31.8885 8.91388H27.5018C27.3331 8.91388 27.1925 8.85764 27.0801 8.71705C26.9676 8.60457 26.9395 8.43585 26.9395 8.26713L27.9236 1.94025C28.1767 0.253076 28.9078 0 29.3296 0H30.0607C30.4825 0 31.2417 0.253076 31.4948 1.94025L32.4509 8.18278C32.4509 8.23902 32.479 8.29525 32.479 8.35149C32.479 8.66081 32.2259 8.91388 31.9166 8.91388ZM28.1486 7.7891H31.2417L30.37 2.10896C30.2576 1.40598 30.0888 1.1529 30.0326 1.12478H29.3296C29.3296 1.1529 29.1328 1.40598 29.0203 2.10896L28.1486 7.7891Z" fill="white"/>
<path fill-rule="evenodd" clip-rule="evenodd" d="M37.7647 27.2759H37.7366H21.6522C21.5116 27.2759 21.3429 27.2197 21.2304 27.1072C21.1461 26.9947 21.0898 26.826 21.0898 26.6854C21.2023 25.195 22.074 24.0984 23.1144 24.0984H36.2744C37.3148 24.0984 38.1584 25.1669 38.299 26.5729C38.299 26.6291 38.3271 26.6573 38.3271 26.7135C38.3271 27.0228 38.074 27.2759 37.7647 27.2759ZM22.3271 26.1511H37.0898C36.893 25.5887 36.5556 25.2232 36.2744 25.2232H23.1144C22.8333 25.2232 22.4958 25.5887 22.3271 26.1511Z" fill="white"/>
<path fill-rule="evenodd" clip-rule="evenodd" d="M35.3747 25.2232C35.0654 25.2232 34.8123 24.9702 34.8123 24.6608V18.8682C34.8123 18.5589 35.0654 18.3058 35.3747 18.3058C35.684 18.3058 35.9371 18.5589 35.9371 18.8682V24.6608C35.9371 24.9702 35.684 25.2232 35.3747 25.2232ZM33.4345 25.2232C33.1251 25.2232 32.8721 24.9702 32.8721 24.6608V18.7557C32.8721 18.4464 33.1251 18.1934 33.4345 18.1934C33.7438 18.1934 33.9969 18.4464 33.9969 18.7557V24.6608C33.9969 24.9702 33.7438 25.2232 33.4345 25.2232Z" fill="white"/>
<path fill-rule="evenodd" clip-rule="evenodd" d="M25.955 25.2232C25.6457 25.2232 25.3926 24.9702 25.3926 24.6608V18.7557C25.3926 18.4464 25.6457 18.1934 25.955 18.1934C26.2643 18.1934 26.5174 18.4464 26.5174 18.7557V24.6608C26.5174 24.9702 26.2643 25.2232 25.955 25.2232ZM24.0429 25.2232C23.7335 25.2232 23.4805 24.9702 23.4805 24.6608V18.8682C23.4805 18.5589 23.7335 18.3058 24.0429 18.3058C24.3522 18.3058 24.6052 18.5589 24.6052 18.8682V24.6608C24.6052 24.9702 24.3522 25.2232 24.0429 25.2232Z" fill="white"/>
<path fill-rule="evenodd" clip-rule="evenodd" d="M36.7806 10.5448H22.6084C22.1023 10.5448 21.6523 10.123 21.6523 9.58871V8.74513C21.6523 8.21086 22.1023 7.78906 22.6084 7.78906H36.7806C37.3149 7.78906 37.7367 8.21086 37.7367 8.74513V9.58871C37.7367 10.123 37.3149 10.5448 36.7806 10.5448ZM22.7771 9.41999H36.6119V8.91384H22.7771V9.41999Z" fill="white"/>
<path fill-rule="evenodd" clip-rule="evenodd" d="M39.3116 34.6151H8.6894C6.35549 34.6151 4.44336 32.703 4.44336 30.369C4.44336 28.0632 6.35549 26.1511 8.6894 26.1511H39.3116C41.6455 26.1511 43.5295 28.0632 43.5295 30.369C43.5295 32.703 41.6455 34.6151 39.3116 34.6151ZM8.6894 27.2759C6.97412 27.2759 5.56814 28.6819 5.56814 30.369C5.56814 32.0843 6.97412 33.4903 8.6894 33.4903H39.3116C41.0268 33.4903 42.4047 32.0843 42.4047 30.369C42.4047 28.6819 41.0268 27.2759 39.3116 27.2759H8.6894Z" fill="white"/>
<path fill-rule="evenodd" clip-rule="evenodd" d="M9.56083 32.9281C8.15485 32.9281 7.00195 31.8033 7.00195 30.3692C7.00195 28.9632 8.15485 27.8103 9.56083 27.8103C10.9668 27.8103 12.1197 28.9632 12.1197 30.3692C12.1197 31.8033 10.9668 32.9281 9.56083 32.9281ZM9.56083 28.9351C8.77348 28.9351 8.12673 29.5818 8.12673 30.3692C8.12673 31.1846 8.77348 31.8314 9.56083 31.8314C10.3482 31.8314 10.9949 31.1846 10.9949 30.3692C10.9949 29.5818 10.3482 28.9351 9.56083 28.9351Z" fill="white"/>
<path fill-rule="evenodd" clip-rule="evenodd" d="M16.7882 32.9281C15.3541 32.9281 14.2012 31.8033 14.2012 30.3692C14.2012 28.9632 15.3541 27.8103 16.7882 27.8103C18.1941 27.8103 19.347 28.9632 19.347 30.3692C19.347 31.8033 18.1941 32.9281 16.7882 32.9281ZM16.7882 28.9351C15.9727 28.9351 15.326 29.5818 15.326 30.3692C15.326 31.1846 15.9727 31.8314 16.7882 31.8314C17.5755 31.8314 18.2223 31.1846 18.2223 30.3692C18.2223 29.5818 17.5755 28.9351 16.7882 28.9351Z" fill="white"/>
<path fill-rule="evenodd" clip-rule="evenodd" d="M23.9866 32.9281C22.5806 32.9281 21.4277 31.8033 21.4277 30.3692C21.4277 28.9632 22.5806 27.8103 23.9866 27.8103C25.4207 27.8103 26.5455 28.9632 26.5455 30.3692C26.5455 31.8033 25.4207 32.9281 23.9866 32.9281ZM23.9866 28.9351C23.1993 28.9351 22.5525 29.5818 22.5525 30.3692C22.5525 31.1846 23.1993 31.8314 23.9866 31.8314C24.8021 31.8314 25.4207 31.1846 25.4207 30.3692C25.4207 29.5818 24.8021 28.9351 23.9866 28.9351Z" fill="white"/>
<path fill-rule="evenodd" clip-rule="evenodd" d="M31.2132 32.9281C29.8072 32.9281 28.6543 31.8033 28.6543 30.3692C28.6543 28.9632 29.8072 27.8103 31.2132 27.8103C32.6191 27.8103 33.772 28.9632 33.772 30.3692C33.772 31.8033 32.6191 32.9281 31.2132 32.9281ZM31.2132 28.9351C30.4258 28.9351 29.7791 29.5818 29.7791 30.3692C29.7791 31.1846 30.4258 31.8314 31.2132 31.8314C32.0005 31.8314 32.6473 31.1846 32.6473 30.3692C32.6473 29.5818 32.0005 28.9351 31.2132 28.9351Z" fill="white"/>
<path fill-rule="evenodd" clip-rule="evenodd" d="M38.4397 32.9281C37.0338 32.9281 35.8809 31.8033 35.8809 30.3692C35.8809 28.9632 37.0338 27.8103 38.4397 27.8103C39.8457 27.8103 40.9986 28.9632 40.9986 30.3692C40.9986 31.8033 39.8457 32.9281 38.4397 32.9281ZM38.4397 28.9351C37.6524 28.9351 37.0056 29.5818 37.0056 30.3692C37.0056 31.1846 37.6524 31.8314 38.4397 31.8314C39.2271 31.8314 39.8738 31.1846 39.8738 30.3692C39.8738 29.5818 39.2271 28.9351 38.4397 28.9351Z" fill="white"/>
<path fill-rule="evenodd" clip-rule="evenodd" d="M39.3115 47.9718C39.0022 47.9718 38.7491 47.7468 38.7491 47.4094V34.615H9.25173V47.4094C9.25173 47.7468 8.99866 47.9718 8.68934 47.9718C8.38003 47.9718 8.12695 47.7187 8.12695 47.4094V34.0526C8.12695 33.7433 8.38003 33.4902 8.68934 33.4902H39.3115C39.6208 33.4902 39.8739 33.7433 39.8739 34.0526V47.4094C39.8739 47.7468 39.6208 47.9718 39.3115 47.9718Z" fill="white"/>
<path fill-rule="evenodd" clip-rule="evenodd" d="M39.3115 41.7573H8.68934C8.38003 41.7573 8.12695 41.5043 8.12695 41.195C8.12695 40.8856 8.38003 40.6326 8.68934 40.6326H39.3115C39.6208 40.6326 39.8739 40.8856 39.8739 41.195C39.8739 41.5043 39.6208 41.7573 39.3115 41.7573Z" fill="white"/>
<path fill-rule="evenodd" clip-rule="evenodd" d="M18.6151 27.2758H8.6327C8.32339 27.2758 8.07031 27.0227 8.07031 26.7134V20.2741C8.07031 19.9647 8.32339 19.7117 8.6327 19.7117H18.6151C18.9244 19.7117 19.1775 19.9647 19.1775 20.2741V26.7134C19.1775 27.0227 18.9244 27.2758 18.6151 27.2758ZM9.19509 26.151H18.0527V20.8365H9.19509V26.151Z" fill="white"/>
</g>
<defs>
<clipPath id="clip0_431_1556">
<rect width="48" height="48" fill="white"/>
</clipPath>
</defs>
</svg>
