<svg width="30" height="30" viewBox="0 0 30 30" fill="none" xmlns="http://www.w3.org/2000/svg">
<path d="M25.6585 24.054L17.9425 10.7078V3.26849H19.5035V1.70752H10.1377V3.26849H11.6986V10.7078L3.98304 24.054C3.46515 24.9499 3.4645 26.02 3.9819 26.9164C4.49897 27.813 5.4258 28.3481 6.46044 28.3481H23.1807C24.2157 28.3481 25.1424 27.813 25.6596 26.9164C26.177 26.02 26.1764 24.9499 25.6585 24.054ZM9.35718 21.0116C9.35718 20.4368 9.82336 19.9709 10.3978 19.9709C10.9726 19.9709 11.4385 20.4368 11.4385 21.0116C11.4385 21.5864 10.9726 22.0522 10.3978 22.0522C9.82336 22.0522 9.35718 21.5864 9.35718 21.0116ZM11.4385 25.1742C10.864 25.1742 10.3978 24.7083 10.3978 24.1335C10.3978 23.5587 10.864 23.0929 11.4385 23.0929C12.0133 23.0929 12.4791 23.5587 12.4791 24.1335C12.4791 24.7083 12.0133 25.1742 11.4385 25.1742ZM16.1214 22.8327C15.2595 22.8327 14.5604 22.1337 14.5604 21.2717C14.5604 20.4098 15.2595 19.7108 16.1214 19.7108C16.9837 19.7108 17.6824 20.4098 17.6824 21.2717C17.6824 22.1337 16.9837 22.8327 16.1214 22.8327ZM10.523 15.8604L13.2596 11.1267V3.26849H16.3816V11.1267L19.1185 15.8604H10.523ZM20.8043 25.1742C20.2299 25.1742 19.7637 24.7083 19.7637 24.1335C19.7637 23.5587 20.2299 23.0929 20.8043 23.0929C21.3791 23.0929 21.845 23.5587 21.845 24.1335C21.845 24.7083 21.3791 25.1742 20.8043 25.1742Z" fill="#488253"/>
</svg>
