<svg width="13" height="7" viewBox="0 0 13 7" fill="none" xmlns="http://www.w3.org/2000/svg">
<path d="M12.8267 0.995977L6.91804 6.82893C6.86316 6.88316 6.798 6.92618 6.72627 6.95554C6.65454 6.98489 6.57765 7 6.5 7C6.42235 7 6.34546 6.98489 6.27373 6.95554C6.202 6.92618 6.13684 6.88316 6.08196 6.82893L0.173294 0.995977C0.0905658 0.9144 0.0342163 0.810425 0.0113791 0.697217C-0.0114582 0.584008 0.000243729 0.466655 0.0450034 0.360015C0.089763 0.253376 0.165568 0.162244 0.262821 0.0981569C0.360074 0.0340698 0.474402 -9.06601e-05 0.591332 1.80705e-07H12.4087C12.5256 -9.06601e-05 12.6399 0.0340698 12.7372 0.0981569C12.8344 0.162244 12.9102 0.253376 12.955 0.360015C12.9998 0.466655 13.0115 0.584008 12.9886 0.697217C12.9658 0.810425 12.9094 0.9144 12.8267 0.995977Z" fill="#033750"/>
</svg>
