<svg width="34" height="34" viewBox="0 0 34 34" fill="none" xmlns="http://www.w3.org/2000/svg">
<g clip-path="url(#clip0_2_2621)">
<path d="M14.2255 28.5753C14.078 27.8363 13.7736 27.1374 13.333 26.526C12.8924 25.9145 12.3257 25.4047 11.6713 25.0308C11.0422 24.6735 10.369 24.3999 9.66901 24.217C10.293 23.7484 10.7538 23.0955 10.9862 22.3505C11.2186 21.6056 11.2107 20.8065 10.9638 20.0662C10.7168 19.326 10.2432 18.6822 9.61015 18.2261C8.97705 17.7699 8.21649 17.5244 7.43616 17.5244C6.65583 17.5244 5.89527 17.7699 5.26218 18.2261C4.62908 18.6822 4.15552 19.326 3.90856 20.0662C3.6616 20.8065 3.65375 21.6056 3.88612 22.3505C4.11849 23.0955 4.57931 23.7484 5.20332 24.217C4.50383 24.4 3.83124 24.6736 3.20263 25.0308C2.54829 25.4046 1.9817 25.9144 1.54108 26.5258C1.10046 27.1371 0.796055 27.8358 0.648382 28.5748L0.0108818 31.7692C-0.0137917 31.8921 0.0057894 32.0198 0.0661626 32.1296C0.126536 32.2395 0.223811 32.3245 0.340788 32.3695C4.90851 34.1291 9.967 34.1291 14.5347 32.3695C14.6517 32.3245 14.749 32.2395 14.8094 32.1296C14.8697 32.0198 14.8893 31.8921 14.8646 31.7692L14.2255 28.5753ZM4.78151 21.2505C4.78151 20.7251 4.93729 20.2116 5.22917 19.7747C5.52104 19.3379 5.93589 18.9975 6.42125 18.7964C6.90662 18.5954 7.4407 18.5428 7.95597 18.6453C8.47123 18.7477 8.94453 19.0007 9.31601 19.3722C9.68749 19.7437 9.94048 20.217 10.043 20.7323C10.1455 21.2475 10.0929 21.7816 9.89181 22.267C9.69077 22.7523 9.35031 23.1672 8.91349 23.4591C8.47667 23.7509 7.96311 23.9067 7.43776 23.9067C6.73353 23.9059 6.0584 23.6257 5.56044 23.1278C5.06248 22.6298 4.78235 21.9547 4.78151 21.2505ZM1.14085 31.5349L1.69176 28.7831C1.8096 28.193 2.05263 27.6351 2.40446 27.147C2.75628 26.6589 3.20872 26.252 3.73123 25.9536C4.86399 25.3205 6.14006 24.988 7.43776 24.988C8.73546 24.988 10.0115 25.3205 11.1443 25.9536C11.6669 26.252 12.1194 26.659 12.4712 27.1472C12.823 27.6354 13.066 28.1935 13.1838 28.7836L13.7347 31.5349C9.66337 32.9932 5.21214 32.9932 1.14085 31.5349Z" fill="white"/>
<path d="M33.9896 31.7692L33.3521 28.5732C33.2046 27.8341 32.9002 27.1353 32.4596 26.5238C32.0189 25.9124 31.4523 25.4026 30.7979 25.0287C30.1682 24.6719 29.4945 24.399 28.794 24.217C29.418 23.7484 29.8788 23.0955 30.1112 22.3505C30.3436 21.6056 30.3357 20.8065 30.0888 20.0662C29.8418 19.326 29.3682 18.6822 28.7351 18.2261C28.1021 17.7699 27.3415 17.5244 26.5612 17.5244C25.7808 17.5244 25.0203 17.7699 24.3872 18.2261C23.7541 18.6822 23.2805 19.326 23.0336 20.0662C22.7866 20.8065 22.7788 21.6056 23.0111 22.3505C23.2435 23.0955 23.7043 23.7484 24.3283 24.217C23.6288 24.4 22.9562 24.6736 22.3276 25.0308C21.6733 25.4046 21.1067 25.9144 20.6661 26.5258C20.2255 27.1371 19.9211 27.8358 19.7734 28.5748L19.1359 31.7692C19.1112 31.8921 19.1308 32.0198 19.1912 32.1296C19.2515 32.2395 19.3488 32.3245 19.4658 32.3695C24.0335 34.1291 29.092 34.1291 33.6597 32.3695C33.7767 32.3245 33.874 32.2395 33.9344 32.1296C33.9947 32.0198 34.0143 31.8921 33.9896 31.7692ZM23.9065 21.2505C23.9065 20.7251 24.0623 20.2116 24.3542 19.7747C24.646 19.3379 25.0609 18.9975 25.5463 18.7964C26.0316 18.5954 26.5657 18.5428 27.081 18.6453C27.5962 18.7477 28.0695 19.0007 28.441 19.3722C28.8125 19.7437 29.0655 20.217 29.168 20.7323C29.2705 21.2475 29.2179 21.7816 29.0168 22.267C28.8158 22.7523 28.4753 23.1672 28.0385 23.4591C27.6017 23.7509 27.0881 23.9067 26.5628 23.9067C25.8585 23.9059 25.1834 23.6257 24.6854 23.1278C24.1875 22.6298 23.9074 21.9547 23.9065 21.2505ZM20.2659 31.5349L20.8168 28.7831C20.9346 28.193 21.1776 27.6351 21.5295 27.147C21.8813 26.6589 22.3337 26.252 22.8562 25.9536C23.989 25.3205 25.2651 24.988 26.5628 24.988C27.8605 24.988 29.1365 25.3205 30.2693 25.9536C30.7919 26.252 31.2444 26.659 31.5962 27.1472C31.948 27.6354 32.191 28.1935 32.3088 28.7836L32.8597 31.5349C28.7884 32.9932 24.3371 32.9932 20.2659 31.5349Z" fill="white"/>
<path d="M20.6858 12.7203L22.9272 16.2265C22.9839 16.3155 23.066 16.3856 23.1627 16.4278C23.2595 16.47 23.3667 16.4825 23.4706 16.4635C23.5745 16.4445 23.6703 16.395 23.7459 16.3213C23.8216 16.2475 23.8735 16.153 23.8951 16.0496L24.6596 12.4206C28.6732 11.5515 31.3438 9.15184 31.3438 6.375C31.3438 2.85972 26.9344 0 21.5156 0C16.0969 0 11.6875 2.85972 11.6875 6.375C11.6875 9.69425 15.6187 12.4472 20.6858 12.7203ZM21.5156 1.0625C26.35 1.0625 30.2812 3.44569 30.2812 6.375C30.2812 8.66894 27.7445 10.7541 24.1129 11.4453C24.0099 11.4648 23.915 11.5144 23.8402 11.5877C23.7653 11.6611 23.7138 11.7549 23.6922 11.8575L23.1227 14.5562L21.4328 11.9138C21.3863 11.8414 21.323 11.7813 21.2483 11.7387C21.1735 11.6961 21.0895 11.6724 21.0035 11.6694C16.3752 11.5063 12.75 9.18 12.75 6.375C12.75 3.44569 16.6812 1.0625 21.5156 1.0625Z" fill="white"/>
<path d="M20.1716 13.7986C20.1546 13.7309 20.1244 13.6672 20.0828 13.6112C20.0411 13.5552 19.9889 13.5079 19.929 13.4721C19.8691 13.4363 19.8027 13.4126 19.7337 13.4025C19.6647 13.3923 19.5943 13.3959 19.5266 13.4129C17.8044 13.838 16.0166 13.9281 14.2603 13.6785C14.1353 13.6603 14.0079 13.6881 13.9017 13.7566L11.4219 15.3323L11.8129 13.5717C11.8404 13.4481 11.8228 13.3187 11.7633 13.2068C11.7037 13.095 11.6062 13.0081 11.4883 12.9619C8.95209 11.9674 7.4375 10.2992 7.4375 8.50042C7.4375 6.73402 8.90269 5.08289 11.3565 4.08414C11.4212 4.05784 11.48 4.01906 11.5296 3.97003C11.5793 3.921 11.6188 3.86266 11.6459 3.79836C11.673 3.73405 11.6872 3.66504 11.6876 3.59526C11.6881 3.52548 11.6748 3.45629 11.6485 3.39166C11.6222 3.32702 11.5834 3.2682 11.5343 3.21854C11.4853 3.16889 11.427 3.12938 11.3627 3.10228C11.2984 3.07517 11.2294 3.06099 11.1596 3.06056C11.0898 3.06012 11.0206 3.07343 10.956 3.09973C8.08775 4.26742 6.375 6.2867 6.375 8.50042C6.375 10.644 7.97459 12.591 10.6781 13.7763L10.1049 16.3539C10.082 16.4565 10.09 16.5637 10.128 16.6618C10.1661 16.7599 10.2323 16.8444 10.3185 16.9048C10.4046 16.9652 10.5068 16.9986 10.6119 17.0009C10.7171 17.0032 10.8206 16.9741 10.9092 16.9175L14.3092 14.7543C16.1383 14.9911 17.9954 14.8856 19.7859 14.443C19.9224 14.4086 20.0398 14.3215 20.1121 14.2006C20.1844 14.0798 20.2058 13.9352 20.1716 13.7986Z" fill="white"/>
<path d="M18.0625 3.71875H20.7188V4.78125H18.0625V3.71875Z" fill="white"/>
<path d="M21.7812 3.71875H22.8438V4.78125H21.7812V3.71875Z" fill="white"/>
<path d="M23.9062 3.71875H26.5625V4.78125H23.9062V3.71875Z" fill="white"/>
<path d="M16.4688 5.84375H22.8438V6.90625H16.4688V5.84375Z" fill="white"/>
<path d="M23.9062 5.84375H26.5625V6.90625H23.9062V5.84375Z" fill="white"/>
<path d="M16.4688 7.96875H18.5938V9.03125H16.4688V7.96875Z" fill="white"/>
<path d="M19.6562 7.96875H25.5V9.03125H19.6562V7.96875Z" fill="white"/>
</g>
<defs>
<clipPath id="clip0_2_2621">
<rect width="34" height="34" fill="white"/>
</clipPath>
</defs>
</svg>
