<svg width="35" height="35" viewBox="0 0 35 35" fill="none" xmlns="http://www.w3.org/2000/svg">
<g clip-path="url(#clip0_2_3200)">
<path d="M22.6437 9.67141L13.3629 18.9521L7.17578 12.765L16.4565 3.4842L22.6437 9.67141Z" stroke="white" stroke-miterlimit="10" stroke-linecap="round" stroke-linejoin="round"/>
<mask id="mask0_2_3200" style="mask-type:luminance" maskUnits="userSpaceOnUse" x="0" y="0" width="35" height="35">
<path d="M0 3.8147e-06H35V35H0V3.8147e-06Z" fill="white"/>
</mask>
<g mask="url(#mask0_2_3200)">
<path d="M33.6762 29.9843C32.8219 30.8386 31.4369 30.8386 30.5826 29.9843L16.457 15.8587L19.5506 12.7651L33.6762 26.8907C34.5305 27.745 34.5305 29.13 33.6762 29.9843Z" stroke="white" stroke-miterlimit="10" stroke-linecap="round" stroke-linejoin="round"/>
<path d="M24.9635 9.67179C24.3227 10.3125 23.284 10.3125 22.6433 9.67179L16.4561 3.48459C15.8154 2.84392 15.8154 1.80514 16.4561 1.1644C17.0968 0.523739 18.1356 0.523739 18.7763 1.1644L24.9635 7.35161C25.6042 7.99227 25.6042 9.03106 24.9635 9.67179Z" stroke="white" stroke-miterlimit="10" stroke-linecap="round" stroke-linejoin="round"/>
<path d="M13.3629 21.2724C12.7222 21.9131 11.6834 21.9131 11.0427 21.2724L4.8555 15.0852C4.21483 14.4445 4.21483 13.4057 4.8555 12.765C5.49623 12.1243 6.53502 12.1243 7.17568 12.765L13.3629 18.9522C14.0036 19.5929 14.0036 20.6316 13.3629 21.2724Z" stroke="white" stroke-miterlimit="10" stroke-linecap="round" stroke-linejoin="round"/>
<path d="M19.3408 18.7432L22.4344 15.6496" stroke="white" stroke-miterlimit="10" stroke-linecap="round" stroke-linejoin="round"/>
<path d="M16.0647 28.3008H23.9714C24.7013 28.3008 25.293 28.8925 25.293 29.6224V34.3164H0.683594V29.6224C0.683594 28.8925 1.27531 28.3008 2.00525 28.3008H9.91211" stroke="white" stroke-miterlimit="10" stroke-linecap="round" stroke-linejoin="round"/>
<path d="M22.2852 28.3008V26.2728C22.2852 25.2786 21.4792 24.4727 20.485 24.4727H5.49151C4.49736 24.4727 3.69141 25.2786 3.69141 26.2728V28.3008" stroke="white" stroke-miterlimit="10" stroke-linecap="round" stroke-linejoin="round"/>
</g>
</g>
<defs>
<clipPath id="clip0_2_3200">
<rect width="35" height="35" fill="white"/>
</clipPath>
</defs>
</svg>
