<svg width="32" height="32" viewBox="0 0 32 32" fill="none" xmlns="http://www.w3.org/2000/svg">
<path d="M1.99995 15.9997C2.03027 15.9996 2.06055 15.9976 2.09062 15.9937C6.9879 15.3292 11.7643 13.9643 16.2733 11.941C20.8268 9.8923 25.0574 7.19103 28.832 3.92234L28.0199 7.17167C27.9772 7.34309 28.0042 7.52446 28.0951 7.67596C28.186 7.82746 28.3333 7.9367 28.5046 7.97967C28.5576 7.99279 28.612 7.9995 28.6666 7.99967C28.8152 7.99949 28.9595 7.94966 29.0765 7.8581C29.1936 7.76655 29.2767 7.63852 29.3126 7.49434L30.646 2.16101C30.6704 2.06281 30.6723 1.96032 30.6513 1.86131C30.6302 1.76231 30.587 1.66939 30.5247 1.58959C30.4625 1.50979 30.3829 1.44522 30.2919 1.40076C30.201 1.35631 30.1012 1.33314 30 1.33301H24.6666C24.4898 1.33301 24.3202 1.40325 24.1952 1.52827C24.0702 1.65329 24 1.82286 24 1.99967C24 2.17649 24.0702 2.34605 24.1952 2.47108C24.3202 2.5961 24.4898 2.66634 24.6666 2.66634H28.2459C24.4972 5.96072 20.2776 8.67689 15.7266 10.725C11.334 12.696 6.68085 14.0254 1.90995 14.6723C1.74234 14.695 1.58959 14.7805 1.48266 14.9115C1.37573 15.0426 1.32261 15.2094 1.33405 15.3781C1.34549 15.5469 1.42064 15.7049 1.54429 15.8204C1.66793 15.9358 1.83081 15.9999 1.99995 15.9997Z" fill="white"/>
<path d="M29.9999 29.3327H29.3333V11.3327C29.3333 11.1559 29.263 10.9863 29.138 10.8613C29.013 10.7363 28.8434 10.666 28.6666 10.666H21.9999C21.8231 10.666 21.6535 10.7363 21.5285 10.8613C21.4035 10.9863 21.3333 11.1559 21.3333 11.3327V29.3327H19.9999V15.3327C19.9999 15.1559 19.9297 14.9863 19.8047 14.8613C19.6796 14.7363 19.5101 14.666 19.3333 14.666H12.6666C12.4898 14.666 12.3202 14.7363 12.1952 14.8613C12.0702 14.9863 11.9999 15.1559 11.9999 15.3327V29.3327H10.6666V19.3327C10.6666 19.1559 10.5963 18.9863 10.4713 18.8613C10.3463 18.7363 10.1767 18.666 9.99992 18.666H3.33325C3.15644 18.666 2.98687 18.7363 2.86185 18.8613C2.73682 18.9863 2.66659 19.1559 2.66659 19.3327V29.3327H1.99992C1.82311 29.3327 1.65354 29.4029 1.52851 29.5279C1.40349 29.653 1.33325 29.8225 1.33325 29.9993C1.33325 30.1762 1.40349 30.3457 1.52851 30.4708C1.65354 30.5958 1.82311 30.666 1.99992 30.666H29.9999C30.1767 30.666 30.3463 30.5958 30.4713 30.4708C30.5963 30.3457 30.6666 30.1762 30.6666 29.9993C30.6666 29.8225 30.5963 29.653 30.4713 29.5279C30.3463 29.4029 30.1767 29.3327 29.9999 29.3327ZM22.6666 11.9993H27.9999V29.3327H22.6666V11.9993ZM13.3333 15.9993H18.6666V29.3327H13.3333V15.9993ZM3.99992 19.9993H9.33325V29.3327H3.99992V19.9993Z" fill="white"/>
</svg>
