<svg width="33" height="30" viewBox="0 0 33 30" fill="none" xmlns="http://www.w3.org/2000/svg">
<path d="M29.6273 17.9102H19.8298C18.0461 17.9102 16.595 19.3659 16.595 21.155V26.6164C16.595 28.4058 18.0461 29.8612 19.8298 29.8612H29.6273C31.411 29.8612 32.8621 28.4055 32.8621 26.6164V21.155C32.8621 19.3659 31.411 17.9102 29.6273 17.9102ZM32.1982 26.6167C32.1982 28.04 31.0449 29.1976 29.6273 29.1976H19.8298C18.4122 29.1976 17.2589 28.0396 17.2589 26.6167V21.155C17.2589 19.7321 18.4122 18.5741 19.8298 18.5741H29.6273C31.0449 18.5741 32.1982 19.7321 32.1982 21.155V26.6167Z" fill="white"/>
<path d="M27.6704 23.7658L23.0708 21.0718C22.9686 21.012 22.8414 21.011 22.7382 21.0701C22.6349 21.1292 22.5712 21.2391 22.5712 21.3583V26.746C22.5712 26.8649 22.6349 26.9751 22.7378 27.0342C22.7889 27.0634 22.846 27.078 22.9032 27.078C22.9612 27.078 23.019 27.0627 23.0708 27.0325L27.6704 24.3391C27.772 24.2797 27.8348 24.1705 27.8348 24.0526C27.8348 23.9348 27.7723 23.8252 27.6704 23.7658ZM23.2351 26.1667V21.9373L26.8458 24.0523L23.2351 26.1667Z" fill="white"/>
<path d="M10.0552 0H3.73211C1.67419 0 0 1.59809 0 3.56247V9.59829C0 11.5626 1.67419 13.1607 3.73211 13.1607H10.0553C12.1132 13.1607 13.7874 11.5626 13.7874 9.59829V3.56247C13.7874 1.59809 12.1132 0 10.0552 0ZM12.9791 9.59829C12.9791 11.1371 11.6675 12.3891 10.0552 12.3891H3.73211C2.11988 12.3891 0.808274 11.1371 0.808274 9.59829V3.56247C0.808274 2.02352 2.11988 0.771534 3.73211 0.771534H10.0553C11.6675 0.771534 12.9791 2.02352 12.9791 3.56247V9.59829Z" fill="white"/>
<path d="M6.89402 2.98145C4.81527 2.98145 3.12415 4.5957 3.12415 6.57996C3.12415 8.56422 4.81527 10.1785 6.89402 10.1785C8.97277 10.1785 10.6639 8.56422 10.6639 6.57996C10.6639 4.5957 8.97277 2.98145 6.89402 2.98145ZM6.89402 9.40695C5.26106 9.40695 3.93242 8.13879 3.93242 6.57996C3.93242 5.02123 5.26106 3.75298 6.89402 3.75298C8.52708 3.75298 9.85562 5.02123 9.85562 6.57996C9.85562 8.13879 8.52708 9.40695 6.89402 9.40695Z" fill="white"/>
<path d="M10.7541 1.7041C10.1398 1.7041 9.64014 2.18114 9.64014 2.76742C9.64014 3.3538 10.1398 3.83084 10.7541 3.83084C11.3684 3.83084 11.8681 3.3538 11.8681 2.76742C11.8681 2.18104 11.3684 1.7041 10.7541 1.7041ZM10.7541 3.05921C10.5856 3.05921 10.4484 2.92827 10.4484 2.76742C10.4484 2.60647 10.5856 2.47564 10.7541 2.47564C10.9227 2.47564 11.0599 2.60647 11.0599 2.76742C11.0599 2.92827 10.9227 3.05921 10.7541 3.05921Z" fill="white"/>
<path d="M7.50491 22.8779L11.6141 17.8359H10.6403L7.07235 22.2138L4.22262 17.8359H0.935791L5.24515 24.456L0.935791 29.7432H1.90958L5.67746 25.1201L8.68698 29.7432H11.9738L7.50467 22.8779H7.50491ZM6.17117 24.5143L5.73454 23.8551L2.26045 18.6097H3.75614L6.55977 22.8429L6.9964 23.5021L10.6408 29.0046H9.1451L6.17117 24.5146V24.5143Z" fill="white"/>
<path d="M26.3503 12.299V6.68928H28.2325L28.5149 4.50241H26.3503V3.10641C26.3503 2.47346 26.5254 2.04211 27.4341 2.04211L28.5911 2.04163V0.0856197C28.391 0.0596167 27.7042 0 26.9047 0C25.2354 0 24.0925 1.01895 24.0925 2.88982V4.50241H22.2046V6.68928H24.0925V12.299H26.3503Z" fill="white"/>
</svg>
