<svg width="43" height="43" viewBox="0 0 43 43" fill="none" xmlns="http://www.w3.org/2000/svg">
<mask id="mask0_2_3221" style="mask-type:luminance" maskUnits="userSpaceOnUse" x="0" y="0" width="43" height="43">
<path d="M0 3.8147e-06H43V43H0V3.8147e-06Z" fill="white"/>
</mask>
<g mask="url(#mask0_2_3221)">
<path d="M0.675819 20.1835L4.98262 9.2666C5.11557 8.92948 5.49669 8.76395 5.8338 8.89698L9.26078 10.249C9.5979 10.3819 9.76343 10.763 9.6304 11.1001L5.3236 22.0171C5.19065 22.3542 4.80953 22.5197 4.47242 22.3866L1.04543 21.0347C0.708321 20.9017 0.542872 20.5206 0.675819 20.1835Z" stroke="white" stroke-miterlimit="10" stroke-linecap="round" stroke-linejoin="round"/>
<path d="M30.8572 26.29L28.6152 24.5626" stroke="white" stroke-miterlimit="10" stroke-linecap="round" stroke-linejoin="round"/>
<path d="M27.8574 28.7041L25.8643 27.1696" stroke="white" stroke-miterlimit="10" stroke-linecap="round" stroke-linejoin="round"/>
<path d="M24.5601 30.9033L23.1396 29.804" stroke="white" stroke-miterlimit="10" stroke-linecap="round" stroke-linejoin="round"/>
<path d="M9.58636 27.2924C8.88492 26.6976 8.79841 25.6468 9.39319 24.9454L10.9502 23.1178C11.545 22.4164 12.5958 22.3299 13.2971 22.9247C13.9986 23.5194 14.0851 24.5701 13.4903 25.2715L11.9333 27.0992C11.3385 27.8006 10.2878 27.8871 9.58636 27.2924Z" stroke="white" stroke-miterlimit="10" stroke-linecap="round" stroke-linejoin="round"/>
<path d="M12.1264 29.4457C11.4249 28.8509 11.3385 27.8002 11.9332 27.0987L13.4903 25.2711C14.085 24.5697 15.1358 24.4832 15.8372 25.078C16.5386 25.6727 16.6251 26.7235 16.0304 27.4248L14.4733 29.2525C13.8785 29.9539 12.8278 30.0405 12.1264 29.4457Z" stroke="white" stroke-miterlimit="10" stroke-linecap="round" stroke-linejoin="round"/>
<path d="M14.6664 31.6C13.965 31.0052 13.8785 29.9545 14.4733 29.253L16.0303 27.4254C16.625 26.724 17.6758 26.6375 18.3773 27.2323C19.0786 27.827 19.1651 28.8777 18.5704 29.5791L17.0134 31.4068C16.4186 32.1082 15.3679 32.1947 14.6664 31.6Z" stroke="white" stroke-miterlimit="10" stroke-linecap="round" stroke-linejoin="round"/>
<path d="M17.2065 33.7533C16.505 33.1585 16.4185 32.1078 17.0133 31.4063L18.5703 29.5788C19.1651 28.8773 20.2159 28.7908 20.9172 29.3856C21.6187 29.9803 21.7052 31.031 21.1104 31.7325L19.5534 33.5601C18.9586 34.2616 17.9079 34.3481 17.2065 33.7533Z" stroke="white" stroke-miterlimit="10" stroke-linecap="round" stroke-linejoin="round"/>
<path d="M33.651 23.6565L32.8135 23.0384L28.8747 20.1315L28.4233 19.8142C24.7048 20.4458 22.2119 18.4084 21.1972 17.3487C20.8987 17.037 20.406 17.0251 20.0849 17.3136C16.5982 20.4451 14.579 19.6424 13.5987 18.7109C13.1273 18.263 13.2084 17.4909 13.7557 17.1396C15.6298 15.9367 17.3799 14.4142 18.6303 13.2275L18.4077 13.1441C17.6161 12.8475 16.7843 12.6726 15.9404 12.6251L13.6344 12.4956C13.3324 12.4787 13.0295 12.4749 12.7277 12.4943C12.1834 12.5293 11.6369 12.4383 11.1313 12.2267L9.46176 11.5281L5.36719 21.907L8.6042 23.9485L9.62864 24.6686L10.9501 23.1175C11.5448 22.416 12.5956 22.3296 13.297 22.9243C13.9984 23.5191 14.0849 24.5698 13.4902 25.2712C14.0849 24.5698 15.1357 24.4833 15.8371 25.0781C16.5385 25.6729 16.625 26.7236 16.0303 27.425C16.625 26.7236 17.6758 26.6371 18.3772 27.2319C19.0786 27.8265 19.1651 28.8774 18.5704 29.5787C19.1651 28.8774 20.2159 28.7909 20.9173 29.3855C21.6188 29.9803 21.7053 31.0311 21.1105 31.7325L20.4789 32.4738L21.8691 33.4999C22.6412 34.0696 23.7292 34.0042 24.3921 33.3106C25.0373 32.6355 25.0758 31.6193 24.56 30.9029L25.257 31.4173C26.052 32.004 27.178 31.914 27.8314 31.173C28.4644 30.4552 28.4484 29.402 27.8573 28.7044L28.2489 28.9933C29.0069 29.5527 30.0724 29.502 30.7393 28.8365C31.4483 28.1291 31.4671 27.0209 30.8574 26.2904L31.4453 26.7243C32.2671 27.3308 33.4244 27.1751 34.056 26.367C34.7154 25.5233 34.5126 24.2923 33.651 23.6565Z" stroke="white" stroke-miterlimit="10" stroke-linecap="round" stroke-linejoin="round"/>
<path d="M24.2283 11.9045L21.8374 11.5256C21.0285 11.3974 20.2066 11.6652 19.6309 12.2475C18.4445 13.4477 16.2057 15.5669 13.7558 17.1394C13.2085 17.4907 13.1273 18.2627 13.5988 18.7106C14.579 19.6421 16.5982 20.4448 20.0851 17.3132C20.4061 17.0248 20.8987 17.0367 21.1973 17.3484C22.2137 18.4098 24.7128 20.4525 28.4412 19.8113L34.0468 23.9482L37.5504 21.6978L33.5494 11.5562L31.1177 12.4539C30.4433 12.7028 29.7162 12.7744 29.0062 12.6619L27.1491 12.3676" stroke="white" stroke-miterlimit="10" stroke-linecap="round" stroke-linejoin="round"/>
<path d="M39.6774 13.4754L38.017 9.26656C37.884 8.92953 37.5029 8.764 37.1658 8.89694L33.7388 10.2489C33.4017 10.382 33.2362 10.7631 33.3692 11.1001L37.676 22.0171C37.8089 22.3542 38.1901 22.5196 38.5272 22.3867L41.9541 21.0347C42.2913 20.9017 42.4568 20.5206 42.3238 20.1835L40.7575 16.2132" stroke="white" stroke-miterlimit="10" stroke-linecap="round" stroke-linejoin="round"/>
</g>
</svg>
