<svg width="40" height="40" viewBox="0 0 40 40" fill="none" xmlns="http://www.w3.org/2000/svg">
<g clip-path="url(#clip0_812_11506)">
<path d="M19.072 12.1938C20.123 12.1321 21.1677 11.99 22.197 11.7688C22.8793 11.2707 23.4305 10.6144 23.8033 9.8563C24.2345 11.4875 25.397 12.5 26.872 12.5C29.5783 12.5 32.497 11.1313 32.497 8.12505C32.577 6.48616 32.786 4.85612 33.122 3.25005C33.1529 3.10054 33.128 2.94489 33.052 2.81248C32.976 2.68007 32.8542 2.58005 32.7095 2.5313C32.4908 2.46255 30.472 1.9063 26.6033 3.8188C25.5491 4.33344 24.7007 5.1906 24.197 6.25005C23.572 3.88755 21.172 1.87505 18.747 1.87505C17.222 1.87505 13.4283 0.550049 12.097 0.0437991C12.0091 0.00879675 11.9143 -0.00576558 11.8199 0.00121139C11.7255 0.00818837 11.6339 0.0365223 11.552 0.0840744C11.4701 0.131626 11.4002 0.197154 11.3473 0.27571C11.2945 0.354267 11.2602 0.443799 11.247 0.537549C11.2095 0.800049 10.3595 7.07505 13.8345 10.3313C15.2703 11.6121 17.15 12.2805 19.072 12.1938ZM27.1533 4.9313C28.5239 4.18013 30.0482 3.75255 31.6095 3.6813H31.7595C31.4713 5.14665 31.2999 6.63257 31.247 8.12505C31.247 10.275 28.9783 11.25 26.872 11.25C26.7222 11.2515 26.573 11.2325 26.4283 11.1938L29.2533 7.23755C29.333 7.10299 29.3593 6.94344 29.3271 6.7904C29.2949 6.63736 29.2065 6.50195 29.0794 6.4109C28.9522 6.31985 28.7956 6.27978 28.6403 6.2986C28.485 6.31742 28.3425 6.39376 28.2408 6.51255L25.4283 10.4438C25.2284 10.1534 25.0824 9.82955 24.997 9.48755C24.7966 8.5964 24.9 7.66382 25.2907 6.8382C25.6815 6.01258 26.3371 5.34134 27.1533 4.9313ZM12.422 1.4938C13.9095 2.0313 17.1533 3.12505 18.747 3.12505C19.8796 3.20885 20.9443 3.69669 21.7474 4.49972C22.5504 5.30274 23.0382 6.3675 23.122 7.50005C23.124 8.03547 23.0195 8.56594 22.8146 9.06059C22.6096 9.55524 22.3084 10.0042 21.9283 10.3813L16.7095 4.5813C16.6562 4.51488 16.5898 4.46006 16.5145 4.42021C16.4392 4.38037 16.3566 4.35634 16.2717 4.3496C16.1867 4.34286 16.1013 4.35355 16.0207 4.38102C15.94 4.40849 15.8659 4.45215 15.8027 4.50933C15.7396 4.56651 15.6888 4.63599 15.6535 4.71351C15.6181 4.79104 15.599 4.87496 15.5973 4.96014C15.5956 5.04531 15.6113 5.12993 15.6435 5.20881C15.6757 5.28768 15.7237 5.35914 15.7845 5.4188L20.622 10.825C18.047 11.175 16.047 10.7063 14.672 9.4188C12.3533 7.2313 12.322 3.18755 12.422 1.4938Z" fill="white"/>
<path d="M24.375 18.75V12.5C24.375 12.3342 24.3092 12.1753 24.1919 12.0581C24.0747 11.9408 23.9158 11.875 23.75 11.875C23.5842 11.875 23.4253 11.9408 23.3081 12.0581C23.1908 12.1753 23.125 12.3342 23.125 12.5V18.75C23.125 18.9158 23.1908 19.0747 23.3081 19.1919C23.4253 19.3092 23.5842 19.375 23.75 19.375C23.9158 19.375 24.0747 19.3092 24.1919 19.1919C24.3092 19.0747 24.375 18.9158 24.375 18.75Z" fill="white"/>
<path d="M39.3737 25H38.5362C38.6582 24.5937 38.7296 24.1738 38.7487 23.75C38.7487 23.5842 38.6828 23.4253 38.5656 23.3081C38.4484 23.1908 38.2894 23.125 38.1237 23.125H37.0737C37.3183 22.5279 37.4619 21.8942 37.4987 21.25C37.4987 21.0842 37.4328 20.9253 37.3156 20.8081C37.1984 20.6908 37.0394 20.625 36.8737 20.625H34.3737C34.2615 20.625 34.1514 20.6553 34.0549 20.7125L30.9299 22.5875C30.8048 22.6785 30.7178 22.8127 30.6859 22.9641C30.654 23.1155 30.6794 23.2733 30.7572 23.4071C30.835 23.5409 30.9596 23.641 31.1069 23.6882C31.2543 23.7354 31.4139 23.7262 31.5549 23.6625L34.5487 21.875H36.1549C36.0987 22.1438 35.7799 23.125 35.7799 23.125H35.6237C35.5115 23.125 35.4014 23.1553 35.3049 23.2125L32.1799 25.0875C32.0548 25.1785 31.9678 25.3127 31.9359 25.4641C31.904 25.6155 31.9294 25.7733 32.0072 25.9071C32.085 26.0409 32.2096 26.141 32.3569 26.1882C32.5043 26.2354 32.6639 26.2262 32.8049 26.1625L35.7987 24.375H37.4049L37.2237 25H36.8737C36.7615 25 36.6514 25.0303 36.5549 25.0875L26.1362 31.2125L14.9987 28.9812C14.8214 28.9419 14.6645 28.8397 14.5569 28.6934C14.4494 28.5472 14.3985 28.3669 14.4138 28.186C14.4291 28.0051 14.5094 27.8359 14.6399 27.7097C14.7705 27.5836 14.9423 27.5091 15.1237 27.5H24.3737C25.0367 27.5 25.6726 27.2366 26.1414 26.7678C26.6103 26.2989 26.8737 25.663 26.8737 25C26.8737 24.337 26.6103 23.7011 26.1414 23.2322C25.6726 22.7634 25.0367 22.5 24.3737 22.5H10.3049C9.14901 22.4916 8.03678 22.941 7.21115 23.75L0.179901 30.8063C0.0622112 30.9239 -0.00390625 31.0836 -0.00390625 31.25C-0.00390625 31.4164 0.0622112 31.5761 0.179901 31.6937C0.297591 31.8114 0.457212 31.8776 0.623651 31.8776C0.79009 31.8776 0.949711 31.8114 1.0674 31.6937L8.12365 24.6625C8.70316 24.0844 9.48637 23.7568 10.3049 23.75H24.3737C24.7052 23.75 25.0231 23.8817 25.2575 24.1161C25.492 24.3505 25.6237 24.6685 25.6237 25C25.6237 25.3315 25.492 25.6495 25.2575 25.8839C25.0231 26.1183 24.7052 26.25 24.3737 26.25H15.1237C14.6313 26.2553 14.1582 26.4421 13.795 26.7746C13.4318 27.1071 13.204 27.5618 13.1552 28.0518C13.1064 28.5418 13.2401 29.0325 13.5307 29.4301C13.8213 29.8276 14.2482 30.104 14.7299 30.2063L26.1237 32.5C26.2757 32.531 26.4339 32.5042 26.5674 32.425L37.0424 26.25H38.6612C38.4549 27.2062 37.7362 29.0875 35.2862 30.725L25.8799 36.8375C24.9959 37.409 23.9929 37.7709 22.9475 37.8955C21.9022 38.0201 20.8423 37.904 19.8487 37.5563L12.7049 35.0563C12.5975 35.0215 12.4826 35.0165 12.3726 35.0418C12.2625 35.0672 12.1614 35.1218 12.0799 35.2L8.3299 38.95C8.27132 39.0081 8.22482 39.0772 8.19309 39.1534C8.16136 39.2296 8.14503 39.3112 8.14503 39.3937C8.14503 39.4763 8.16136 39.5579 8.19309 39.6341C8.22482 39.7103 8.27132 39.7794 8.3299 39.8375C8.388 39.8961 8.45713 39.9426 8.53329 39.9743C8.60945 40.006 8.69114 40.0224 8.77365 40.0224C8.85616 40.0224 8.93785 40.006 9.01401 39.9743C9.09017 39.9426 9.1593 39.8961 9.2174 39.8375L12.6862 36.3625L19.4299 38.75C20.606 39.1573 21.8594 39.2913 23.0951 39.1419C24.3307 38.9924 25.5161 38.5634 26.5612 37.8875L35.9362 31.7688C39.9549 29.1125 39.9986 25.7688 39.9986 25.625C39.9986 25.4592 39.9328 25.3003 39.8156 25.1831C39.6984 25.0658 39.5394 25 39.3737 25Z" fill="white"/>
<path d="M19.3732 18.75C18.5421 18.7477 17.7223 18.9419 16.9804 19.3166C16.2386 19.6913 15.5958 20.236 15.1045 20.9063C15.0134 21.0433 14.98 21.2107 15.0116 21.3722C15.0432 21.5337 15.1372 21.6762 15.2732 21.7688C15.3413 21.8148 15.4178 21.847 15.4983 21.8635C15.5789 21.8799 15.6619 21.8803 15.7426 21.8646C15.8233 21.849 15.9001 21.8175 15.9686 21.7721C16.0372 21.7267 16.0961 21.6682 16.142 21.6C16.5218 21.1037 17.0108 20.7015 17.5712 20.4247C18.1316 20.1479 18.7482 20.0039 19.3732 20.0039C19.9982 20.0039 20.6148 20.1479 21.1752 20.4247C21.7356 20.7015 22.2246 21.1037 22.6045 21.6C22.6618 21.6848 22.7391 21.7543 22.8295 21.8022C22.92 21.8502 23.0208 21.8752 23.1232 21.875C23.2461 21.8764 23.3663 21.8393 23.467 21.7688C23.604 21.6771 23.6992 21.5351 23.732 21.3735C23.7648 21.212 23.7324 21.0441 23.642 20.9063C23.1506 20.236 22.5078 19.6913 21.766 19.3166C21.0242 18.9419 20.2043 18.7477 19.3732 18.75Z" fill="white"/>
<path d="M25 21.25C27.075 21.25 28.1813 23.3875 28.1938 23.4063C28.2457 23.5093 28.3252 23.596 28.4233 23.6567C28.5215 23.7173 28.6346 23.7497 28.75 23.75C28.848 23.7512 28.9448 23.7275 29.0313 23.6812C29.1785 23.6063 29.29 23.4762 29.3415 23.3192C29.3931 23.1623 29.3804 22.9914 29.3062 22.8437C29.25 22.7312 27.8563 20 25 20C24.8342 20 24.6753 20.0658 24.5581 20.1831C24.4408 20.3003 24.375 20.4592 24.375 20.625C24.375 20.7908 24.4408 20.9497 24.5581 21.0669C24.6753 21.1842 24.8342 21.25 25 21.25Z" fill="white"/>
<path d="M28.4375 25.3125C28.769 25.3125 29.087 25.4442 29.3214 25.6786C29.5558 25.913 29.6875 26.231 29.6875 26.5625C29.6875 26.7283 29.7533 26.8872 29.8706 27.0044C29.9878 27.1217 30.1467 27.1875 30.3125 27.1875C30.4783 27.1875 30.6372 27.1217 30.7544 27.0044C30.8717 26.8872 30.9375 26.7283 30.9375 26.5625C30.9375 25.8995 30.6741 25.2636 30.2053 24.7947C29.7364 24.3259 29.1005 24.0625 28.4375 24.0625C28.2717 24.0625 28.1128 24.1283 27.9956 24.2456C27.8783 24.3628 27.8125 24.5217 27.8125 24.6875C27.8125 24.8533 27.8783 25.0122 27.9956 25.1294C28.1128 25.2467 28.2717 25.3125 28.4375 25.3125Z" fill="white"/>
</g>
<defs>
<clipPath id="clip0_812_11506">
<rect width="40" height="40" fill="white"/>
</clipPath>
</defs>
</svg>
