<svg width="40" height="40" viewBox="0 0 40 40" fill="none" xmlns="http://www.w3.org/2000/svg">
<g clip-path="url(#clip0_2_3095)">
<path d="M38.8878 8.60664C37.5554 8.28336 36.2544 7.84203 35.0003 7.28789C33.6912 6.7169 32.3364 6.25694 30.9503 5.91289C29.5729 5.54006 28.1654 5.2891 26.7441 5.16289C25.3901 5.03792 24.0497 4.79534 22.7378 4.43789C21.4144 4.11416 20.122 3.67497 18.8753 3.12539C17.7636 2.63743 16.6166 2.2342 15.4441 1.91914L15.6003 1.29414L14.3753 0.994141L10.3378 16.7066L9.3753 16.8754L8.6878 16.2129C8.51944 16.04 8.31834 15.9023 8.09622 15.8078C7.8741 15.7134 7.63541 15.6641 7.39405 15.6629H7.34405C7.10054 15.6621 6.85937 15.7104 6.63494 15.8049C6.41051 15.8994 6.20742 16.0382 6.0378 16.2129C5.86649 16.38 5.73047 16.5798 5.6378 16.8004C5.28154 16.5952 4.86771 16.5128 4.46003 16.5659C4.05235 16.619 3.67341 16.8046 3.38155 17.0941C3.15757 17.32 2.99472 17.5991 2.90835 17.9053C2.82197 18.2114 2.8149 18.5345 2.8878 18.8441C2.57482 18.9224 2.28806 19.0819 2.05655 19.3066C1.767 19.5985 1.58141 19.9774 1.52833 20.3851C1.47525 20.7928 1.55764 21.2066 1.7628 21.5629C1.54286 21.654 1.34317 21.7878 1.1753 21.9566C0.824177 22.3082 0.626953 22.7848 0.626953 23.2816C0.626953 23.7785 0.824177 24.2551 1.1753 24.6066L2.94405 26.3754C3.23024 26.6633 3.60398 26.848 4.00655 26.9004C4.82648 28.1199 5.77573 29.2473 6.8378 30.2629L5.33155 36.0941L6.54405 36.4066L7.89405 31.1754C9.11 32.1875 10.5719 32.8602 12.1316 33.1254C12.0647 33.2428 12.0376 33.3788 12.0545 33.5129C12.0714 33.647 12.1314 33.772 12.2253 33.8691L17.5003 39.1941C17.5587 39.2521 17.628 39.2979 17.7041 39.329C17.7803 39.3601 17.8618 39.3759 17.9441 39.3754C18.0263 39.3759 18.1078 39.3601 18.184 39.329C18.2601 39.2979 18.3294 39.2521 18.3878 39.1941L25.4816 32.1191C25.598 32.002 25.6633 31.8436 25.6633 31.6785C25.6633 31.5134 25.598 31.355 25.4816 31.2379L20.1753 25.9316C20.0786 25.8391 19.9548 25.7801 19.822 25.7632C19.6892 25.7463 19.5546 25.7725 19.4378 25.8379L18.6316 24.4879C18.6909 23.4065 18.5224 22.3248 18.1369 21.3127C17.7515 20.3006 17.1577 19.3808 16.3941 18.6129L14.0691 16.2941C13.9975 16.222 13.9095 16.1683 13.8126 16.1378C13.7157 16.1073 13.6128 16.1009 13.5128 16.1191L11.6941 16.4566L12.1628 14.6254C13.2779 14.9254 14.3685 15.3099 15.4253 15.7754C16.7284 16.3508 18.0794 16.8109 19.4628 17.1504C20.8402 17.5232 22.2477 17.7742 23.6691 17.9004C25.0289 18.0274 26.3754 18.27 27.6941 18.6254C29.0194 18.9494 30.3139 19.3885 31.5628 19.9379C32.8746 20.513 34.2339 20.9731 35.6253 21.3129H35.7816C35.8898 21.3039 35.9939 21.2668 36.0835 21.2053C36.173 21.1438 36.245 21.0601 36.2924 20.9623C36.3397 20.8645 36.3607 20.756 36.3533 20.6476C36.3459 20.5392 36.3104 20.4346 36.2503 20.3441L31.0316 13.0566L38.9691 9.78789C39.0897 9.7376 39.1915 9.65077 39.2602 9.53959C39.3289 9.42842 39.3611 9.29851 39.3521 9.16813C39.3431 9.03774 39.2935 8.91345 39.2102 8.81273C39.1269 8.71202 39.0142 8.63994 38.8878 8.60664ZM6.91905 17.0941C6.97745 17.0362 7.04671 16.9904 7.12286 16.9593C7.19901 16.9282 7.28055 16.9124 7.3628 16.9129C7.5246 16.9152 7.67919 16.9802 7.79405 17.0941L8.2378 17.5379C8.01389 17.7679 7.83386 18.0369 7.70655 18.3316C7.66457 18.4441 7.62909 18.5589 7.6003 18.6754L6.90655 17.9816C6.79109 17.8652 6.72599 17.7081 6.7253 17.5441C6.72563 17.4599 6.74295 17.3767 6.77625 17.2994C6.80954 17.222 6.85811 17.1522 6.91905 17.0941ZM4.26905 17.9816C4.38616 17.8652 4.54456 17.7999 4.70968 17.7999C4.87479 17.7999 5.0332 17.8652 5.1503 17.9816L6.03155 18.8629L7.80655 20.6254C7.92296 20.7425 7.9883 20.9009 7.9883 21.066C7.9883 21.2311 7.92296 21.3895 7.80655 21.5066C7.74845 21.5652 7.67933 21.6117 7.60316 21.6434C7.527 21.6752 7.44531 21.6915 7.3628 21.6915C7.2803 21.6915 7.19861 21.6752 7.12244 21.6434C7.04628 21.6117 6.97716 21.5652 6.91905 21.5066L4.7128 19.3066L4.2753 18.8691C4.21631 18.8115 4.16933 18.7427 4.13706 18.6667C4.10479 18.5908 4.08788 18.5092 4.0873 18.4267C4.08672 18.3442 4.10248 18.2624 4.13367 18.186C4.16487 18.1096 4.21088 18.0402 4.26905 17.9816ZM2.94405 20.1879C3.06116 20.0715 3.21956 20.0061 3.38468 20.0061C3.54979 20.0061 3.7082 20.0715 3.8253 20.1879L6.0378 22.4004L6.4753 22.8379C6.5835 22.9535 6.64377 23.1059 6.64395 23.2642C6.64413 23.4226 6.5842 23.5751 6.47628 23.6909C6.36835 23.8068 6.22047 23.8774 6.06251 23.8884C5.90455 23.8995 5.74829 23.8501 5.6253 23.7504L2.94405 21.0754C2.88547 21.0173 2.83898 20.9482 2.80725 20.872C2.77552 20.7958 2.75918 20.7141 2.75918 20.6316C2.75918 20.5491 2.77552 20.4674 2.80725 20.3913C2.83898 20.3151 2.88547 20.246 2.94405 20.1879ZM4.70655 25.4941C4.58945 25.6105 4.43104 25.6759 4.26593 25.6759C4.10081 25.6759 3.9424 25.6105 3.8253 25.4941L2.05655 23.7504C1.99797 23.6923 1.95148 23.6232 1.91975 23.547C1.88802 23.4708 1.87168 23.3891 1.87168 23.3066C1.87168 23.2241 1.88802 23.1424 1.91975 23.0663C1.95148 22.9901 1.99797 22.921 2.05655 22.8629C2.11466 22.8043 2.18378 22.7578 2.25994 22.7261C2.3361 22.6944 2.4178 22.678 2.5003 22.678C2.58281 22.678 2.6645 22.6944 2.74066 22.7261C2.81683 22.7578 2.88595 22.8043 2.94405 22.8629L4.7128 24.6316C4.82277 24.7487 4.88347 24.9036 4.8823 25.0641C4.88114 25.2247 4.81821 25.3787 4.70655 25.4941ZM7.20655 28.8566C6.53075 28.1483 5.90428 27.3944 5.33155 26.6004C5.57175 26.4399 5.77058 26.2249 5.91179 25.9729C6.053 25.7209 6.13259 25.439 6.14405 25.1504C6.41631 25.136 6.68216 25.0625 6.92308 24.9349C7.16401 24.8073 7.3742 24.6287 7.53901 24.4115C7.70383 24.1943 7.8193 23.9438 7.87738 23.6774C7.93546 23.4111 7.93475 23.1352 7.8753 22.8691C8.18682 22.7884 8.47144 22.6266 8.7003 22.4004C8.80607 22.2909 8.89839 22.1692 8.9753 22.0379L7.20655 28.8566ZM19.7441 27.2629L24.1628 31.6816L17.9753 37.8691L13.5566 33.4441L19.7441 27.2629ZM13.4191 17.4066L15.5128 19.5004C16.176 20.1627 16.6872 20.9613 17.011 21.8409C17.3348 22.7204 17.4633 23.6599 17.3878 24.5941C17.3818 24.7228 17.4122 24.8506 17.4753 24.9629L18.5253 26.7191L13.3003 31.9441C11.4253 32.0441 9.6878 31.0504 8.25655 29.8316L10.3253 21.7504C10.4264 21.7378 10.5265 21.719 10.6253 21.6941L12.8191 21.1191L12.5003 19.9129L10.3066 20.4879C10.0227 20.5675 9.71955 20.541 9.45381 20.4134C9.18808 20.2857 8.97797 20.0655 8.8628 19.7941C8.79748 19.6399 8.76382 19.4741 8.76382 19.3066C8.76382 19.1392 8.79748 18.9734 8.8628 18.8191C8.99623 18.5073 9.24469 18.2588 9.55655 18.1254L13.4191 17.4066ZM29.8253 12.2066C29.7382 12.2426 29.6603 12.2979 29.5975 12.3682C29.5347 12.4386 29.4887 12.5222 29.4628 12.6129C29.4368 12.7037 29.4317 12.7993 29.4479 12.8924C29.4642 12.9855 29.5013 13.0737 29.5566 13.1504L34.2066 19.6129C33.3066 19.3191 32.6878 19.0566 32.0503 18.7879C30.7446 18.2138 29.3916 17.7538 28.0066 17.4129C26.6282 17.0429 25.2212 16.79 23.8003 16.6566C22.4401 16.5356 21.0933 16.2951 19.7753 15.9379C18.4519 15.6142 17.1595 15.175 15.9128 14.6254C14.8062 14.139 13.6657 13.7337 12.5003 13.4129L15.1316 3.12539C16.2447 3.42525 17.3333 3.80971 18.3878 4.27539C19.6925 4.84014 21.0433 5.2918 22.4253 5.62539C23.8056 5.996 25.2148 6.24899 26.6378 6.38164C27.9959 6.50279 29.3407 6.74331 30.6566 7.10039C31.983 7.4275 33.2793 7.86657 34.5316 8.41289C35.2822 8.74687 36.0499 9.04103 36.8316 9.29414L29.8253 12.2066Z" fill="white"/>
<path d="M11.9625 26.5441C12.108 27.1657 12.389 27.7474 12.7856 28.2477C13.1821 28.748 13.6843 29.1544 14.2563 29.4379L14.8813 28.3504C14.4667 28.1536 14.1006 27.8678 13.809 27.5135C13.5173 27.1592 13.3073 26.745 13.1938 26.3004C12.8813 24.7816 14.0375 23.2379 14.05 23.2191L13.0563 22.4629C12.9938 22.5379 11.5438 24.4566 11.9625 26.5441Z" fill="white"/>
</g>
<defs>
<clipPath id="clip0_2_3095">
<rect width="40" height="40" fill="white"/>
</clipPath>
</defs>
</svg>
