<svg width="40" height="40" viewBox="0 0 40 40" fill="none" xmlns="http://www.w3.org/2000/svg">
<g clip-path="url(#clip0_812_11551)">
<path d="M38.3594 35.9497H38.0192V19.6825C38.0192 19.1277 37.5027 18.755 37.0204 18.755H36.4567V1.64062C36.4567 1.12367 36.0759 0.703125 35.608 0.703125H32.6895C32.2216 0.703125 31.8408 1.12367 31.8408 1.64062V18.755H29.8005V4.76562C29.8005 4.24875 29.4198 3.82812 28.9517 3.82812H26.0334C25.5653 3.82812 25.1845 4.24867 25.1845 4.76562V18.755H21.9923V11.9482L23.5067 11.6823C23.956 11.6034 24.2821 11.2151 24.2821 10.7589V9.33273C24.2821 9.05445 24.1603 8.7925 23.948 8.61422C23.7356 8.43586 23.4564 8.36125 23.1825 8.40937L3.21797 11.9155C2.76875 11.9945 2.44266 12.3827 2.44266 12.8388V14.265C2.44266 14.5434 2.56445 14.8053 2.77672 14.9835C2.9468 15.1263 3.15953 15.2027 3.37844 15.2027C3.43281 15.2027 3.48758 15.1979 3.54227 15.1884L4.73234 14.9794V26.2373H2.62867C2.32664 26.2373 2.0818 26.4822 2.0818 26.7842V35.9497H1.64062C1.12367 35.9497 0.703125 36.3702 0.703125 36.8872V38.3594C0.703125 38.8763 1.12367 39.2969 1.64062 39.2969H38.3594C38.8763 39.2969 39.2969 38.8763 39.2969 38.3594V36.8872C39.2969 36.3703 38.8763 35.9497 38.3594 35.9497ZM36.9255 35.9497H16.4798L16.4799 19.8487H36.9254V35.9497H36.9255ZM35.363 1.79688V2.82109H32.9345V1.79688H35.363ZM32.9345 3.91484H35.363V18.755H32.9345V3.91484ZM28.7066 4.92188V5.94609H26.278V4.92188H28.7066ZM26.278 7.03992H28.7066V18.755H26.278V7.03992ZM3.53648 14.0789V12.9701L23.1881 9.51883V10.6277L3.53648 14.0789ZM5.82617 14.7873L20.8984 12.1404V18.7551H16.2623C15.7546 18.7551 15.3861 19.1452 15.3861 19.6826V26.2374H5.82617V14.7873ZM3.17562 27.3311H15.3861V35.9498H13.8294V30.0463C13.8294 29.5294 13.4088 29.1088 12.8919 29.1088H5.66984C5.15297 29.1088 4.73242 29.5294 4.73242 30.0463V35.9498H3.17562V27.3311ZM5.82617 35.9497V30.2026H8.73406V35.9497H5.82617ZM9.82781 30.2026H12.7357V35.9497H9.82781V30.2026ZM38.2031 38.2031H1.79688V37.0434H38.2031V38.2031ZM31.8347 33.3723H34.2232C34.7402 33.3723 35.1607 32.9518 35.1607 32.4348V30.0463C35.1607 29.5295 34.7402 29.1088 34.2232 29.1088H31.8347C31.3178 29.1088 30.8973 29.5294 30.8973 30.0463V32.4348C30.8973 32.9517 31.3178 33.3723 31.8347 33.3723ZM31.991 30.2026H34.067V32.2786H31.991V30.2026ZM19.1821 33.3723H21.5706C22.0875 33.3723 22.508 32.9518 22.508 32.4348V30.0463C22.508 29.5295 22.0875 29.1088 21.5706 29.1088H19.1821C18.6652 29.1088 18.2446 29.5294 18.2446 30.0463V32.4348C18.2446 32.9517 18.6652 33.3723 19.1821 33.3723ZM19.3384 30.2026H21.4143V32.2786H19.3384V30.2026ZM25.5084 33.3723H27.897C28.4139 33.3723 28.8345 32.9518 28.8345 32.4348V30.0463C28.8345 29.5295 28.4139 29.1088 27.897 29.1088H25.5084C24.9915 29.1088 24.5709 29.5294 24.5709 30.0463V32.4348C24.5709 32.9517 24.9915 33.3723 25.5084 33.3723ZM25.6647 30.2026H27.7407V32.2786H25.6647V30.2026ZM19.1821 26.5314H21.5706C22.0875 26.5314 22.508 26.1109 22.508 25.5939V23.2054C22.508 22.6884 22.0875 22.2679 21.5706 22.2679H19.1821C18.6652 22.2679 18.2446 22.6884 18.2446 23.2054V25.5939C18.2446 26.1108 18.6652 26.5314 19.1821 26.5314ZM19.3384 23.3616H21.4143V25.4377H19.3384V23.3616ZM31.8347 26.5314H34.2232C34.7402 26.5314 35.1607 26.1109 35.1607 25.5939V23.2054C35.1607 22.6885 34.7402 22.2679 34.2232 22.2679H31.8347C31.3178 22.2679 30.8973 22.6884 30.8973 23.2054V25.5939C30.8973 26.1108 31.3178 26.5314 31.8347 26.5314ZM31.991 23.3616H34.067V25.4377H31.991V23.3616ZM25.5084 26.5314H27.897C28.4139 26.5314 28.8345 26.1109 28.8345 25.5939V23.2054C28.8345 22.6885 28.4139 22.2679 27.897 22.2679H25.5084C24.9915 22.2679 24.5709 22.6884 24.5709 23.2054V25.5939C24.5709 26.1108 24.9915 26.5314 25.5084 26.5314ZM25.6647 23.3616H27.7407V25.4377H25.6647V23.3616ZM10.4752 15.3034H8.08664C7.56977 15.3034 7.14922 15.724 7.14922 16.2409V18.6295C7.14922 19.1464 7.56977 19.567 8.08664 19.567H10.4752C10.9921 19.567 11.4127 19.1464 11.4127 18.6295V16.2409C11.4127 15.7241 10.9921 15.3034 10.4752 15.3034ZM10.3189 18.4733H8.24297V16.3973H10.3189V18.4733ZM10.4752 20.7294H8.08664C7.56977 20.7294 7.14922 21.1499 7.14922 21.6669V24.0555C7.14922 24.5724 7.56977 24.993 8.08664 24.993H10.4752C10.9921 24.993 11.4127 24.5724 11.4127 24.0555V21.6669C11.4127 21.1499 10.9921 20.7294 10.4752 20.7294ZM10.3189 23.8991H8.24297V21.8231H10.3189V23.8991Z" fill="white"/>
</g>
<defs>
<clipPath id="clip0_812_11551">
<rect width="40" height="40" fill="white"/>
</clipPath>
</defs>
</svg>
