<svg width="34" height="34" viewBox="0 0 34 34" fill="none" xmlns="http://www.w3.org/2000/svg">
<path d="M17 3.1875C14.2682 3.1875 11.5976 3.99759 9.32619 5.51533C7.05474 7.03306 5.28436 9.19028 4.23892 11.7142C3.19348 14.2381 2.91995 17.0153 3.45291 19.6947C3.98587 22.374 5.30138 24.8352 7.23309 26.7669C9.16481 28.6986 11.626 30.0141 14.3053 30.5471C16.9847 31.0801 19.7619 30.8065 22.2858 29.7611C24.8097 28.7157 26.9669 26.9453 28.4847 24.6738C30.0024 22.4024 30.8125 19.7319 30.8125 17C30.8086 13.3379 29.3522 9.82687 26.7626 7.23736C24.1731 4.64785 20.6621 3.19137 17 3.1875ZM17 28.6875C14.6884 28.6875 12.4288 28.002 10.5068 26.7178C8.58478 25.4336 7.08676 23.6082 6.20216 21.4726C5.31756 19.337 5.08611 16.987 5.53708 14.7199C5.98804 12.4527 7.10117 10.3702 8.7357 8.73569C10.3702 7.10116 12.4527 5.98804 14.7199 5.53707C16.987 5.08611 19.337 5.31756 21.4726 6.20216C23.6082 7.08676 25.4336 8.58477 26.7178 10.5068C28.002 12.4288 28.6875 14.6884 28.6875 17C28.684 20.0986 27.4515 23.0694 25.2604 25.2604C23.0694 27.4515 20.0986 28.684 17 28.6875ZM19.125 23.375C19.125 23.6568 19.0131 23.927 18.8138 24.1263C18.6146 24.3256 18.3443 24.4375 18.0625 24.4375C17.4989 24.4375 16.9584 24.2136 16.5599 23.8151C16.1614 23.4166 15.9375 22.8761 15.9375 22.3125V17C15.6557 17 15.3855 16.8881 15.1862 16.6888C14.9869 16.4895 14.875 16.2193 14.875 15.9375C14.875 15.6557 14.9869 15.3855 15.1862 15.1862C15.3855 14.9869 15.6557 14.875 15.9375 14.875C16.5011 14.875 17.0416 15.0989 17.4401 15.4974C17.8386 15.8959 18.0625 16.4364 18.0625 17V22.3125C18.3443 22.3125 18.6146 22.4244 18.8138 22.6237C19.0131 22.823 19.125 23.0932 19.125 23.375ZM14.875 11.1562C14.875 10.841 14.9685 10.5329 15.1436 10.2708C15.3187 10.0087 15.5676 9.80444 15.8589 9.68382C16.1501 9.56319 16.4705 9.53163 16.7797 9.59312C17.0888 9.65462 17.3728 9.80641 17.5957 10.0293C17.8186 10.2522 17.9704 10.5362 18.0319 10.8453C18.0934 11.1545 18.0618 11.4749 17.9412 11.7662C17.8206 12.0574 17.6163 12.3063 17.3542 12.4814C17.0921 12.6565 16.784 12.75 16.4688 12.75C16.0461 12.75 15.6407 12.5821 15.3418 12.2832C15.0429 11.9843 14.875 11.5789 14.875 11.1562Z" fill="white"/>
</svg>
