<svg width="21" height="20" viewBox="0 0 21 20" fill="none" xmlns="http://www.w3.org/2000/svg">
<g clip-path="url(#clip0_42_1235)">
<path d="M14.961 0.952148H5.83236C2.86136 0.952148 0.444336 3.2593 0.444336 6.09527V14.8091C0.444336 17.645 2.86136 19.9521 5.83236 19.9521H14.9612C17.932 19.9521 20.3491 17.645 20.3491 14.8091V6.09527C20.3491 3.2593 17.932 0.952148 14.961 0.952148ZM19.1822 14.8091C19.1822 17.0308 17.2886 18.8383 14.961 18.8383H5.83236C3.50479 18.8383 1.61124 17.0308 1.61124 14.8091V6.09527C1.61124 3.87349 3.50479 2.06601 5.83236 2.06601H14.9612C17.2886 2.06601 19.1822 3.87349 19.1822 6.09527V14.8091Z" fill="#033750"/>
<path d="M10.3966 5.25684C7.39557 5.25684 4.9541 7.58733 4.9541 10.452C4.9541 13.3167 7.39557 15.6472 10.3966 15.6472C13.3977 15.6472 15.8392 13.3167 15.8392 10.452C15.8392 7.58733 13.3977 5.25684 10.3966 5.25684ZM10.3966 14.5333C8.03916 14.5333 6.121 12.7025 6.121 10.452C6.121 8.20166 8.03916 6.3707 10.3966 6.3707C12.7543 6.3707 14.6723 8.20166 14.6723 10.452C14.6723 12.7025 12.7543 14.5333 10.3966 14.5333Z" fill="#033750"/>
<path d="M15.9694 3.41211C15.0825 3.41211 14.3612 4.10081 14.3612 4.94722C14.3612 5.79377 15.0825 6.48247 15.9694 6.48247C16.8563 6.48247 17.5778 5.79377 17.5778 4.94722C17.5778 4.10066 16.8563 3.41211 15.9694 3.41211ZM15.9694 5.36847C15.7261 5.36847 15.5281 5.17944 15.5281 4.94722C15.5281 4.71485 15.7261 4.52597 15.9694 4.52597C16.2128 4.52597 16.4109 4.71485 16.4109 4.94722C16.4109 5.17944 16.2128 5.36847 15.9694 5.36847Z" fill="#033750"/>
</g>
<defs>
<clipPath id="clip0_42_1235">
<rect width="19.9048" height="19" fill="white" transform="translate(0.444336 0.952148)"/>
</clipPath>
</defs>
</svg>
