<svg width="35" height="35" viewBox="0 0 35 35" fill="none" xmlns="http://www.w3.org/2000/svg">
<path d="M30.7845 25.6313C32.2859 23.1853 33.0788 20.3704 33.0748 17.5003V17.4998C33.0788 14.6297 32.2859 11.8148 30.7845 9.36868L30.7759 9.35533C29.383 7.08501 27.4311 5.20984 25.1068 3.90898C22.7825 2.60813 20.1634 1.92506 17.4999 1.92505C14.8363 1.92504 12.2172 2.60808 9.8929 3.90892C7.56858 5.20976 5.61669 7.08491 4.22373 9.35522L4.21508 9.36874C2.71738 11.8165 1.92482 14.6304 1.9248 17.5C1.92479 20.3696 2.71733 23.1835 4.21502 25.6313L4.22381 25.645C5.61678 27.9153 7.56866 29.7904 9.89296 31.0912C12.2173 32.392 14.8363 33.075 17.4999 33.075C20.1634 33.075 22.7825 32.392 25.1067 31.0911C27.431 29.7903 29.3829 27.9151 30.7758 25.6449L30.7845 25.6313ZM19.4906 30.4057C19.1939 30.692 18.8523 30.928 18.4794 31.1041C18.1733 31.2496 17.8387 31.325 17.4998 31.325C17.1609 31.325 16.8263 31.2496 16.5202 31.1041C15.8106 30.7417 15.2032 30.2071 14.7534 29.5493C13.8349 28.222 13.1542 26.7451 12.7417 25.1846C14.3262 25.0871 15.9122 25.0374 17.4998 25.0356C19.0868 25.0356 20.6729 25.0853 22.2581 25.1846C22.0298 25.987 21.7447 26.7721 21.4048 27.5339C20.9573 28.6053 20.3074 29.5804 19.4906 30.4057ZM3.70525 18.375H9.9874C10.0283 20.128 10.2183 21.8743 10.5554 23.595C8.83807 23.7461 7.12516 23.9537 5.41664 24.2177C4.41616 22.4227 3.83133 20.4261 3.70525 18.375ZM5.41663 10.7824C7.12448 11.0471 8.83799 11.2547 10.5572 11.4052C10.2194 13.1258 10.029 14.8721 9.98797 16.625H3.70525C3.83132 14.574 4.41616 12.5774 5.41663 10.7824ZM15.5089 4.59438C15.8057 4.308 16.1473 4.07207 16.5202 3.89591C16.8263 3.75048 17.1609 3.67503 17.4998 3.67503C17.8387 3.67503 18.1733 3.75048 18.4794 3.89591C19.189 4.25838 19.7964 4.79294 20.2462 5.45072C21.1647 6.77801 21.8454 8.25492 22.2578 9.81545C20.6734 9.91295 19.0874 9.96261 17.4998 9.96445C15.9128 9.96443 14.3267 9.91476 12.7415 9.81543C12.9698 9.01308 13.2549 8.22801 13.5948 7.46617C14.0423 6.39476 14.6922 5.41969 15.5089 4.59438ZM31.2944 16.625H25.0122C24.9713 14.8721 24.7813 13.1258 24.4442 11.4051C26.1616 11.2539 27.8745 11.0464 29.583 10.7824C30.5835 12.5774 31.1683 14.574 31.2944 16.625ZM12.3155 23.459C11.9732 21.7847 11.7799 20.0834 11.7379 18.375H23.2619C23.2202 20.0834 23.0273 21.7847 22.6854 23.459C20.9587 23.3457 19.2302 23.2879 17.4998 23.2856C15.7706 23.2856 14.0425 23.3434 12.3155 23.459ZM22.6841 11.5411C23.0264 13.2154 23.2196 14.9167 23.2617 16.625H11.7377C11.7794 14.9167 11.9723 13.2154 12.3142 11.541C14.0408 11.6543 15.7694 11.7121 17.4998 11.7144C19.229 11.7144 20.9571 11.6566 22.6841 11.5411ZM25.0116 18.375H31.2944C31.1683 20.4261 30.5834 22.4227 29.583 24.2177C27.8751 23.953 26.1616 23.7454 24.4424 23.5949C24.7802 21.8743 24.9706 20.128 25.0116 18.375ZM28.5337 9.17172C27.0405 9.38716 25.5428 9.55772 24.0406 9.68342C23.7707 8.67825 23.4225 7.69574 22.9992 6.74488C22.6128 5.86987 22.1266 5.04244 21.5503 4.27903C24.3355 5.13322 26.7797 6.84563 28.5337 9.17172ZM7.72401 7.72425C9.32173 6.12501 11.2874 4.94211 13.4486 4.27924C13.4158 4.32171 13.3821 4.36229 13.3497 4.40564C12.2389 6.00478 11.4297 7.79354 10.9622 9.68369C9.45992 9.55645 7.96117 9.3858 6.4659 9.17172C6.85154 8.66092 7.27191 8.17728 7.72401 7.72425ZM6.4659 25.8284C7.9591 25.6129 9.45678 25.4423 10.9589 25.3167C11.2289 26.3218 11.5771 27.3043 12.0004 28.2552C12.3868 29.1302 12.873 29.9576 13.4493 30.7211C10.664 29.8669 8.21991 28.1544 6.4659 25.8284ZM27.2756 27.2758C25.6779 28.8751 23.7122 30.058 21.551 30.7208C21.5838 30.6784 21.6175 30.6378 21.6499 30.5944C22.7607 28.9953 23.5699 27.2065 24.0375 25.3164C25.5397 25.4436 27.0384 25.6143 28.5337 25.8284C28.1481 26.3392 27.7277 26.8228 27.2756 27.2758Z" fill="white"/>
</svg>
