<svg width="41" height="41" viewBox="0 0 41 41" fill="none" xmlns="http://www.w3.org/2000/svg">
<g clip-path="url(#clip0_2_5036)">
<path d="M34.8422 13.6608H32.1103C31.8773 13.6626 31.6463 13.7042 31.4273 13.7837V8.19696C31.3339 3.58681 27.5279 -0.0787085 22.9175 0.00128475H17.7679C13.2908 -0.0480601 9.62153 3.54139 9.57219 8.01837C9.5715 8.07787 9.5715 8.13737 9.57219 8.19696V13.7837C9.35321 13.7042 9.12219 13.6626 8.88921 13.6608H6.15732C5.02572 13.6608 4.1084 14.5781 4.1084 15.7097C4.1084 16.8413 5.02572 17.7586 6.15732 17.7586H6.84029V21.9589C6.84405 23.0323 7.7133 23.9016 8.78677 23.9054H9.6678C9.97838 25.1083 11.0617 25.9503 12.3041 25.9543H17.0849V28.0032C17.0849 28.3804 17.3907 28.6862 17.7679 28.6862H18.4508V30.7351C18.4516 30.7995 18.4052 30.8547 18.3416 30.8649L12.6865 31.8074C11.2876 32.0407 10.1785 33.1145 9.90001 34.5051L9.62682 35.871C8.30322 36.5953 7.81737 38.2554 8.54166 39.579C9.26596 40.9026 10.926 41.3884 12.2496 40.6642C13.1317 40.1815 13.6774 39.2533 13.67 38.2478C13.6691 38.0712 13.6508 37.895 13.6154 37.7219L14.1823 35.4476L18.4167 34.9149V36.4516C17.4187 37.5832 17.527 39.3095 18.6586 40.3075C19.7902 41.3055 21.5165 41.1971 22.5145 40.0655C23.4252 39.033 23.4252 37.4841 22.5145 36.4516V34.9217L26.749 35.4544L27.3295 37.7287C27.3128 37.9014 27.3128 38.0752 27.3295 38.2478C27.3223 39.7566 28.5396 40.9855 30.0483 40.9927C31.5571 40.9998 32.786 39.7826 32.7932 38.2738C32.798 37.2707 32.2526 36.3457 31.3727 35.8642L31.0995 34.4983C30.821 33.1077 29.7119 32.0338 28.313 31.8005L22.658 30.858C22.5969 30.8483 22.5512 30.7969 22.5487 30.7351V28.6862H23.2317C23.6088 28.6862 23.9146 28.3804 23.9146 28.0032V25.9543H28.6954C29.9379 25.9503 31.0211 25.1083 31.3317 23.9054H32.2128C33.2862 23.9016 34.1555 23.0323 34.1592 21.9589V17.7586H34.8422C35.9738 17.7586 36.8911 16.8413 36.8911 15.7097C36.8911 14.5781 35.9737 13.6608 34.8422 13.6608ZM9.57219 22.5394H8.78677C8.4662 22.5394 8.20624 22.2795 8.20624 21.9589V17.7586H8.88921C9.12219 17.7567 9.35321 17.7151 9.57219 17.6357V22.5394ZM8.88921 16.3926H6.15732C5.78015 16.3926 5.47435 16.0868 5.47435 15.7097C5.47435 15.3325 5.78015 15.0267 6.15732 15.0267H8.88921C9.26638 15.0267 9.57219 15.3325 9.57219 15.7097C9.57219 16.0868 9.26638 16.3926 8.88921 16.3926ZM10.9381 39.6137C10.1837 39.6137 9.57219 39.0022 9.57219 38.2478C9.57219 37.4934 10.1837 36.8818 10.9381 36.8818C11.6926 36.8818 12.3041 37.4934 12.3041 38.2478C12.3041 39.0022 11.6925 39.6137 10.9381 39.6137ZM20.4998 39.6137C19.7453 39.6137 19.1338 39.0022 19.1338 38.2478C19.1338 37.4934 19.7453 36.8818 20.4998 36.8818C21.2542 36.8818 21.8657 37.4934 21.8657 38.2478C21.8657 39.0022 21.2541 39.6137 20.4998 39.6137ZM31.4273 38.2478C31.4273 39.0022 30.8158 39.6137 30.0614 39.6137C29.307 39.6137 28.6954 39.0022 28.6954 38.2478C28.6954 37.4934 29.307 36.8818 30.0614 36.8818C30.8158 36.8818 31.4273 37.4934 31.4273 38.2478ZM28.0876 33.146C28.9275 33.2855 29.5936 33.9299 29.7609 34.7646L29.9111 35.5159C29.3444 35.5503 28.8026 35.7603 28.3608 36.1169L28.0125 34.669C27.9437 34.3945 27.7129 34.1908 27.4319 34.1568L21.9682 33.4738C21.7754 33.4502 21.5816 33.5098 21.4354 33.6377C21.2804 33.7634 21.1881 33.9505 21.1827 34.15V35.6115C20.7363 35.484 20.2632 35.484 19.8168 35.6115V34.15C19.8165 33.9538 19.7319 33.7672 19.5846 33.6377C19.4384 33.5098 19.2446 33.4502 19.0519 33.4738L13.5881 34.1568C13.3071 34.1908 13.0763 34.3945 13.0075 34.669L12.6387 36.1306C12.1986 35.7691 11.6566 35.5541 11.0884 35.5159L11.2386 34.751C11.406 33.9162 12.072 33.2718 12.9119 33.1323L18.5669 32.1898C19.282 32.0735 19.8095 31.4595 19.8168 30.7351V28.6862H21.1827V30.7351C21.1833 31.4647 21.7125 32.0863 22.4326 32.2035L28.0876 33.146ZM22.5487 27.3202H18.4508V25.9543H22.5487V27.3202ZM28.2037 24.5883H23.2317H12.7958C11.8564 24.6028 11.0564 23.9086 10.9381 22.9765C11.0583 22.3193 11.6361 21.8455 12.3041 21.8564H28.6954C29.3634 21.8455 29.9413 22.3193 30.0614 22.9765C29.9431 23.9086 29.143 24.6028 28.2037 24.5883ZM30.0614 20.8729C29.6489 20.6247 29.1769 20.4925 28.6954 20.4905H12.3041C11.8226 20.4925 11.3506 20.6247 10.9381 20.8729V8.19696C10.8964 4.46673 13.8865 1.40898 17.6168 1.36723C17.6671 1.36663 17.7175 1.36663 17.7679 1.36723H22.9175C26.7736 1.28707 29.9682 4.34115 30.0614 8.19696V20.8729ZM32.7933 21.9589C32.7933 22.2794 32.5334 22.5394 32.2128 22.5394H31.4273V17.6357C31.6463 17.7151 31.8773 17.7567 32.1103 17.7586H32.7933V21.9589ZM34.8422 16.3926H32.1103C31.7331 16.3926 31.4273 16.0868 31.4273 15.7097C31.4273 15.3325 31.7331 15.0267 32.1103 15.0267H34.8422C35.2194 15.0267 35.5252 15.3325 35.5252 15.7097C35.5252 16.0868 35.2194 16.3926 34.8422 16.3926Z" fill="#033750"/>
</g>
<defs>
<clipPath id="clip0_2_5036">
<rect width="41" height="41" fill="white"/>
</clipPath>
</defs>
</svg>
