<svg width="42" height="42" viewBox="0 0 42 42" fill="none" xmlns="http://www.w3.org/2000/svg">
<path fill-rule="evenodd" clip-rule="evenodd" d="M26.4377 28.0791L27.3749 29.0162L26.1116 29.9639L24.868 32.4504C24.7827 32.6217 24.6265 32.747 24.4408 32.7936L19.4782 34.0339C18.8134 35.2782 18.1388 35.943 17.3086 36.6071C16.5027 37.2515 15.5348 37.8947 14.2452 39.1835C14.0976 39.3312 13.8882 39.4001 13.6815 39.3679L8.20312 38.5253V37.1977C10.3583 37.5291 13.5555 38.0213 13.5555 38.0213C14.7729 36.8388 15.7041 36.2101 16.4883 35.582C17.2404 34.9802 17.8428 34.3791 18.4446 33.1762C18.5299 33.0049 18.6861 32.8796 18.8718 32.833L23.8291 31.5933L25.0071 29.2387C25.0524 29.1475 25.1187 29.0681 25.2001 29.007L26.4377 28.0791Z" fill="white"/>
<path fill-rule="evenodd" clip-rule="evenodd" d="M33.7351 10.8291L33.9465 11.6737L35.9342 11.1769C36.267 11.0936 36.6076 11.2806 36.7165 11.6061L37.3728 13.5749C37.4561 13.8255 37.3813 14.1018 37.1824 14.2764L34.5574 16.5733C34.4846 16.6363 34.3999 16.6829 34.3074 16.7098L22.8033 20.0396L28.7227 27.1435C28.8382 27.2813 28.8913 27.4612 28.8703 27.6397C28.8493 27.8182 28.7562 27.9809 28.6124 28.0885L27.1877 29.1576L26.2499 28.2198L27.2724 27.4533L21.1522 20.1085C21.0104 19.9385 20.9638 19.7082 21.0288 19.4962C21.0938 19.2843 21.2611 19.1195 21.4737 19.0578L33.8027 15.4891L35.9894 13.5755L35.6632 12.5977L33.6282 13.1063C33.2764 13.1942 32.9201 12.9803 32.8321 12.6292L32.382 10.8291H33.7351Z" fill="white"/>
<path fill-rule="evenodd" clip-rule="evenodd" d="M9.01803 15.751C8.94059 14.6735 9.07381 14.1393 9.20309 13.5579C9.35731 12.8648 9.50235 12.0944 9.19391 9.93731C9.15847 9.68728 9.26938 9.43921 9.47938 9.29877L11.4481 7.98627C11.5564 7.91408 11.6831 7.87602 11.8124 7.87602C12.8991 7.87602 13.4189 8.43383 13.81 9.07106C13.9347 9.27384 14.0416 9.48515 14.163 9.67087C14.2326 9.77784 14.2956 9.8835 14.4065 9.93009C14.5246 9.97996 14.6743 9.94912 14.8862 9.87825C15.1218 9.80015 15.3817 9.86118 15.5576 10.0371L16.7415 11.2209L18.9084 11.763L32.4482 2.73625C32.6188 2.62272 32.8321 2.59516 33.0257 2.66144C33.2186 2.72772 33.3702 2.88063 33.4352 3.07488L35.404 8.98115C35.5181 9.32502 35.3324 9.69646 34.9885 9.81131L33.5966 10.2753L33.8217 11.177H32.4692L32.1759 10.0042C32.0925 9.67153 32.2795 9.33093 32.605 9.22199L33.951 8.77377L32.4613 4.3047L19.3953 13.0158C19.2411 13.1182 19.0515 13.151 18.8717 13.1063L16.2466 12.4501C16.1318 12.4212 16.0261 12.3615 15.9421 12.2775L14.8935 11.2288C14.5115 11.2971 14.207 11.2564 13.9563 11.1632C13.6039 11.0319 13.3368 10.7852 13.1157 10.4649C12.9444 10.2175 12.8026 9.91631 12.6189 9.64462C12.4798 9.4379 12.3019 9.25284 11.9902 9.20231L10.5491 10.1631C10.8201 12.29 10.6482 13.105 10.4841 13.8427C10.3719 14.3473 10.2636 14.81 10.3371 15.751H9.01803Z" fill="white"/>
<path fill-rule="evenodd" clip-rule="evenodd" d="M10.3137 15.0947C10.3071 15.5429 10.3524 16.1224 10.4909 16.9559C10.4968 16.9913 10.5001 17.0274 10.5001 17.0635C10.5001 18.5223 9.77424 19.9818 9.77424 19.9818C9.76242 20.0061 9.74864 20.0297 9.73355 20.0527C8.73014 21.5575 9.05695 23.0603 9.13767 23.3635C9.28927 23.6352 9.65677 24.4201 9.4553 25.3277C9.32339 25.9209 8.9572 26.5929 8.06273 27.1796C8.57264 28.4481 8.30489 28.9981 8.02729 29.4594C7.9236 29.6333 7.7766 29.7757 7.74314 30.0199C7.72148 30.1767 7.75232 30.3703 7.84157 30.6374C7.8967 30.8021 7.88357 30.9826 7.80548 31.1381C7.20042 32.3489 7.2096 33.1075 7.13413 33.9397C7.06063 34.7469 6.93004 35.617 6.28035 36.902L8.53129 37.2478V38.5761L5.15028 38.0557C4.93438 38.0229 4.74866 37.8837 4.65613 37.6862C4.56294 37.488 4.57475 37.257 4.68763 37.07C5.78685 35.2371 5.78422 34.2829 5.87216 33.286C5.93647 32.5596 6.04082 31.8134 6.51726 30.7896C6.27707 29.886 6.50282 29.4306 6.75351 29.0211C6.85523 28.8557 6.99566 28.7166 7.0206 28.475C7.05013 28.1955 6.94054 27.8188 6.6321 27.2006C6.47001 26.8764 6.60126 26.4827 6.92545 26.3206C7.7241 25.9209 8.07848 25.474 8.17429 25.0429C8.30161 24.4686 7.98529 23.9902 7.98529 23.9902C7.95314 23.9417 7.92689 23.8892 7.90851 23.8334C7.90851 23.8334 7.14792 21.6028 8.61792 19.3597C8.71308 19.1589 9.1718 18.145 9.18755 17.1166C9.04186 16.2294 8.99133 15.5935 8.99592 15.0947H10.3137Z" fill="white"/>
</svg>
