<svg width="33" height="33" viewBox="0 0 33 33" fill="none" xmlns="http://www.w3.org/2000/svg">
<path d="M29.7845 24.6311C31.2859 22.185 32.0788 19.3702 32.0748 16.5001V16.4995C32.0788 13.6294 31.2859 10.8145 29.7845 8.36844L29.7759 8.35508C28.383 6.08477 26.4311 4.20959 24.1068 2.90874C21.7825 1.60788 19.1634 0.924816 16.4999 0.924805C13.8363 0.924794 11.2172 1.60784 8.8929 2.90868C6.56858 4.20951 4.61669 6.08467 3.22373 8.35497L3.21508 8.3685C1.71738 10.8163 0.924816 13.6301 0.924805 16.4998C0.924794 19.3694 1.71733 22.1832 3.21502 24.631L3.22381 24.6447C4.61678 26.915 6.56866 28.7901 8.89296 30.091C11.2173 31.3918 13.8363 32.0748 16.4999 32.0748C19.1634 32.0748 21.7825 31.3917 24.1067 30.0909C26.431 28.79 28.3829 26.9149 29.7758 24.6446L29.7845 24.6311ZM18.4906 29.4054C18.1939 29.6918 17.8523 29.9277 17.4794 30.1039C17.1733 30.2493 16.8387 30.3248 16.4998 30.3248C16.1609 30.3248 15.8263 30.2493 15.5202 30.1039C14.8106 29.7414 14.2032 29.2069 13.7534 28.5491C12.8349 27.2218 12.1542 25.7449 11.7417 24.1844C13.3262 24.0869 14.9122 24.0372 16.4998 24.0354C18.0868 24.0354 19.6729 24.085 21.2581 24.1844C21.0298 24.9867 20.7447 25.7718 20.4048 26.5337C19.9573 27.6051 19.3074 28.5801 18.4906 29.4054ZM2.70525 17.3748H8.9874C9.02831 19.1278 9.21832 20.874 9.55536 22.5948C7.83807 22.7459 6.12516 22.9534 4.41664 23.2174C3.41616 21.4225 2.83133 19.4259 2.70525 17.3748ZM4.41663 9.78217C6.12448 10.0468 7.83799 10.2544 9.55716 10.405C9.21945 12.1256 9.02902 13.8718 8.98796 15.6248H2.70525C2.83132 13.5737 3.41616 11.5771 4.41663 9.78217ZM14.5089 3.59413C14.8057 3.30776 15.1473 3.07182 15.5202 2.89567C15.8263 2.75024 16.1609 2.67478 16.4998 2.67478C16.8387 2.67478 17.1733 2.75024 17.4794 2.89567C18.189 3.25814 18.7964 3.7927 19.2462 4.45048C20.1647 5.77776 20.8454 7.25468 21.2578 8.8152C19.6734 8.9127 18.0874 8.96237 16.4998 8.96421C14.9128 8.96419 13.3267 8.91451 11.7415 8.81519C11.9698 8.01283 12.2549 7.22776 12.5948 6.46593C13.0423 5.39451 13.6922 4.41944 14.5089 3.59413ZM30.2944 15.6248H24.0122C23.9713 13.8718 23.7813 12.1256 23.4442 10.4048C25.1616 10.2537 26.8745 10.0462 28.583 9.78217C29.5835 11.5771 30.1683 13.5737 30.2944 15.6248ZM11.3155 22.4587C10.9732 20.7844 10.7799 19.0832 10.7379 17.3748H22.2619C22.2202 19.0832 22.0273 20.7845 21.6854 22.4588C19.9587 22.3455 18.2302 22.2877 16.4998 22.2854C14.7706 22.2854 13.0425 22.3431 11.3155 22.4587ZM21.6841 10.5409C22.0264 12.2151 22.2196 13.9164 22.2617 15.6248H10.7377C10.7794 13.9164 10.9723 12.2151 11.3142 10.5408C13.0408 10.6541 14.7694 10.7119 16.4998 10.7142C18.229 10.7142 19.9571 10.6564 21.6841 10.5409ZM24.0116 17.3748H30.2944C30.1683 19.4259 29.5834 21.4225 28.583 23.2174C26.8751 22.9527 25.1616 22.7451 23.4424 22.5946C23.7802 20.874 23.9706 19.1278 24.0116 17.3748ZM27.5337 8.17147C26.0405 8.38691 24.5428 8.55748 23.0406 8.68317C22.7707 7.67801 22.4225 6.6955 21.9992 5.74464C21.6128 4.86963 21.1266 4.04219 20.5503 3.27879C23.3355 4.13298 25.7797 5.84538 27.5337 8.17147ZM6.72401 6.72401C8.32173 5.12477 10.2874 3.94187 12.4486 3.27899C12.4158 3.32146 12.3821 3.36205 12.3497 3.40539C11.2389 5.00454 10.4297 6.79329 9.96216 8.68344C8.45992 8.55621 6.96117 8.38555 5.4659 8.17147C5.85154 7.66067 6.27191 7.17704 6.72401 6.72401ZM5.4659 24.8281C6.9591 24.6126 8.45678 24.4421 9.95895 24.3164C10.2289 25.3216 10.5771 26.3041 11.0004 27.255C11.3868 28.13 11.873 28.9574 12.4493 29.7208C9.66405 28.8666 7.21991 27.1542 5.4659 24.8281ZM26.2756 26.2756C24.6779 27.8748 22.7122 29.0577 20.551 29.7206C20.5838 29.6781 20.6175 29.6375 20.6499 29.5942C21.7607 27.995 22.5699 26.2063 23.0375 24.3161C24.5397 24.4434 26.0384 24.614 27.5337 24.8281C27.1481 25.3389 26.7277 25.8225 26.2756 26.2756Z" fill="#fff"/>
</svg>

