<svg width="80" height="80" viewBox="0 0 80 80" fill="none" xmlns="http://www.w3.org/2000/svg">
<path d="M48.7505 35.0001C48.7505 35.9946 48.3555 36.9485 47.6522 37.6517C46.9489 38.355 45.9951 38.7501 45.0005 38.7501H38.7505V45.0001C38.7505 45.9946 38.3555 46.9485 37.6522 47.6517C36.9489 48.355 35.9951 48.7501 35.0005 48.7501C34.006 48.7501 33.0522 48.355 32.3489 47.6517C31.6456 46.9485 31.2505 45.9946 31.2505 45.0001V38.7501H25.0005C24.006 38.7501 23.0522 38.355 22.3489 37.6517C21.6456 36.9485 21.2505 35.9946 21.2505 35.0001C21.2505 34.0055 21.6456 33.0517 22.3489 32.3484C23.0522 31.6452 24.006 31.2501 25.0005 31.2501H31.2505V25.0001C31.2505 24.0055 31.6456 23.0517 32.3489 22.3484C33.0522 21.6451 34.006 21.2501 35.0005 21.2501C35.9951 21.2501 36.9489 21.6451 37.6522 22.3484C38.3555 23.0517 38.7505 24.0055 38.7505 25.0001V31.2501H45.0005C45.9951 31.2501 46.9489 31.6452 47.6522 32.3484C48.3555 33.0517 48.7505 34.0055 48.7505 35.0001ZM72.6537 72.6532C72.3053 73.0028 71.8913 73.2802 71.4355 73.4694C70.9797 73.6587 70.491 73.7562 69.9974 73.7562C69.5039 73.7562 69.0152 73.6587 68.5594 73.4694C68.1035 73.2802 67.6896 73.0028 67.3412 72.6532L52.5005 57.8126C46.702 62.2623 39.428 64.3397 32.1541 63.6235C24.8802 62.9073 18.1511 59.451 13.3318 53.9558C8.51245 48.4607 5.96384 41.3381 6.20292 34.0329C6.442 26.7277 9.45088 19.787 14.6192 14.6187C19.7875 9.45039 26.7282 6.44151 34.0334 6.20243C41.3385 5.96335 48.4611 8.51196 53.9563 13.3313C59.4515 18.1506 62.9078 24.8797 63.624 32.1536C64.3402 39.4275 62.2627 46.7015 57.813 52.5001L72.6693 67.3532C73.3695 68.0584 73.7611 69.0127 73.7582 70.0064C73.7553 71.0002 73.358 71.9521 72.6537 72.6532ZM35.0005 56.2501C39.2034 56.2501 43.3119 55.0038 46.8064 52.6688C50.301 50.3338 53.0246 47.015 54.633 43.1321C56.2413 39.2492 56.6622 34.9765 55.8422 30.8544C55.0223 26.7323 52.9984 22.9459 50.0266 19.974C47.0547 17.0022 43.2683 14.9783 39.1462 14.1584C35.0241 13.3384 30.7515 13.7593 26.8685 15.3676C22.9856 16.976 19.6668 19.6996 17.3318 23.1942C14.9968 26.6887 13.7505 30.7972 13.7505 35.0001C13.7572 40.6339 15.9981 46.0351 19.9818 50.0188C23.9656 54.0025 29.3667 56.2434 35.0005 56.2501Z" fill="white"/>
</svg>
