<svg width="32" height="32" viewBox="0 0 32 32" fill="none" xmlns="http://www.w3.org/2000/svg">
<g clip-path="url(#clip0_1_10395)">
<path d="M28.6581 21.2608L26.5722 20.7624V20.0297C27.7243 19.3491 28.4993 18.095 28.4993 16.6626V13.8971C28.4993 11.742 26.7458 9.98857 24.5907 9.98857H24.1584C23.0077 9.98857 21.9718 10.4886 21.256 11.2826C20.5626 9.03851 18.4688 7.40332 16 7.40332C13.5313 7.40332 11.4374 9.03839 10.7441 11.2826C10.0282 10.4886 8.99231 9.98857 7.84162 9.98857H7.40937C5.25418 9.98857 3.50067 11.742 3.50067 13.8971V16.6626C3.50067 18.0949 4.27561 19.3491 5.42774 20.0297V20.7624L3.34186 21.2608C1.37473 21.7308 0.000854492 23.4715 0.000854492 25.4939V27.3753C0.000854492 27.7204 0.28073 28.0002 0.625793 28.0002H5.67343C5.6418 28.2466 5.62549 28.4974 5.62549 28.7515V30.7501H1.87573C1.53061 30.7501 1.25079 31.03 1.25079 31.3751C1.25079 31.7202 1.53067 32 1.87573 32H30.1242C30.4693 32 30.7491 31.7201 30.7491 31.3751C30.7491 31.0299 30.4692 30.7501 30.1242 30.7501H26.3744V28.7545C26.3744 28.4993 26.358 28.2475 26.3261 28.0003H31.3741C31.7192 28.0003 31.999 27.7204 31.999 27.3754V25.494C31.9991 23.4715 30.6252 21.7307 28.6581 21.2608ZM21.4998 13.8971C21.4997 12.4311 22.6924 11.2385 24.1585 11.2385H24.5907C26.0568 11.2385 27.2495 12.4311 27.2495 13.8971V14.0574C26.3476 14.0464 25.473 13.7806 24.7168 13.2858C24.509 13.1497 24.2403 13.1497 24.0325 13.2858C23.2763 13.7807 22.4017 14.0465 21.4998 14.0574V13.8971H21.4998ZM21.4997 16.1528V15.3075C22.5116 15.2977 23.4967 15.0342 24.3745 14.5398C25.2523 15.0343 26.2375 15.2977 27.2493 15.3075V16.6627C27.2493 18.1287 26.0567 19.3214 24.5906 19.3214H24.1583C22.6923 19.3214 21.4996 18.1287 21.4996 16.6627V16.1528H21.4997ZM22.6983 23.3464C22.4444 23.2464 22.1813 23.1622 21.9093 23.0972L19.923 22.6227C20.0704 22.5621 20.2227 22.5124 20.3792 22.4748L22.3534 22.0017L22.6983 23.3464ZM22.181 20.0322V20.7578L20.0879 21.2593C19.6353 21.3678 19.2066 21.547 18.8155 21.7888V20.8754C19.6721 20.3627 20.3783 19.6238 20.851 18.7418C21.1847 19.2707 21.6413 19.7143 22.181 20.0322ZM20.2498 16.1528C20.2498 18.4962 18.3434 20.4026 16.0001 20.4026C13.6568 20.4026 11.7503 18.4962 11.7503 16.1528V14.3221H12.4372C14.1918 14.3221 15.8634 13.7622 17.2376 12.7455L17.3809 12.9595C17.9515 13.8126 18.9051 14.3221 19.9316 14.3221H20.2499L20.2498 16.1528ZM11.7502 12.903C11.7502 10.5597 13.6566 8.65326 15.9999 8.65326C18.3433 8.65326 20.2497 10.5597 20.2497 12.903V13.0721H19.9314C19.3231 13.0721 18.7579 12.7703 18.4196 12.2646L18.1885 11.9191C18.3759 11.729 18.5554 11.5291 18.7254 11.3188C18.9424 11.0504 18.9006 10.6569 18.6321 10.44C18.3639 10.223 17.9703 10.2646 17.7533 10.5332C16.4493 12.1467 14.5117 13.0721 12.4371 13.0721H11.7502V12.903ZM11.1489 18.7418C11.6227 19.6258 12.331 20.3661 13.1902 20.8788V21.7923C12.7976 21.5487 12.3668 21.3684 11.912 21.2594L9.819 20.7578V20.0322C10.3586 19.7143 10.8152 19.2707 11.1489 18.7418ZM12.0701 22.6199L10.0866 23.0952C9.81619 23.16 9.55475 23.2437 9.30237 23.343L9.64656 22.0018L11.6207 22.475C11.7748 22.5118 11.9248 22.5606 12.0701 22.6199ZM4.75068 13.8971C4.75061 12.4311 5.9433 11.2385 7.40937 11.2385H7.84162C9.30769 11.2385 10.5004 12.4311 10.5004 13.8971V14.0574C9.5985 14.0464 8.72394 13.7806 7.96775 13.2858C7.75987 13.1497 7.49118 13.1497 7.28337 13.2858C6.52718 13.7807 5.65268 14.0465 4.75074 14.0574L4.75068 13.8971ZM4.75061 16.6627V15.3075C5.76249 15.2977 6.74762 15.0342 7.62543 14.5398C8.50325 15.0343 9.48837 15.2977 10.5002 15.3075V16.1528V16.6627C10.5002 18.1287 9.30756 19.3214 7.8415 19.3214H7.40924C5.9433 19.3214 4.75061 18.1287 4.75061 16.6627ZM5.97812 26.7505H1.25079V26.7504V25.494C1.25079 24.0524 2.23011 22.8115 3.63224 22.4766L5.60005 22.0065L6.52974 25.6304C6.30724 25.9809 6.1218 26.356 5.97812 26.7505ZM6.67774 20.5016C6.91487 20.5467 7.15924 20.5713 7.40931 20.5713H7.84156C8.09025 20.5713 8.33318 20.547 8.56906 20.5023V21.1717L7.78593 24.2239C7.69443 24.2976 7.60456 24.3732 7.51799 24.452L6.67774 21.1767V20.5016ZM6.87549 30.7502V28.7517C6.87549 27.2361 7.61143 25.8713 8.784 25.0352L14.499 30.7502H6.87549ZM9.95187 24.4354C10.0907 24.3877 10.2326 24.3455 10.3779 24.3107L13.3626 23.5955L14.8296 29.313L9.95187 24.4354ZM14.4401 22.7655V21.427C14.9348 21.5735 15.4583 21.6527 15.9999 21.6527C16.5437 21.6527 17.0691 21.573 17.5656 21.4253V22.7727L16.0038 28.8602L14.4401 22.7655ZM18.6431 23.6021L21.6189 24.313C21.7686 24.3487 21.9145 24.3923 22.0574 24.4417L17.1753 29.3239L18.6431 23.6021ZM25.1245 30.7502H17.5166L23.2233 25.0435C24.3916 25.8798 25.1245 27.2419 25.1245 28.7545V30.7502ZM25.3223 21.1768L24.4815 24.4544C24.3953 24.376 24.306 24.3009 24.215 24.2275L23.431 21.1718V20.5025C23.6668 20.5471 23.9098 20.5714 24.1585 20.5714H24.5907C24.8408 20.5714 25.0852 20.5468 25.3223 20.5017V21.1768ZM30.7492 26.7504H26.0209C25.8772 26.3565 25.6919 25.9821 25.4697 25.6321L26.3998 22.0064L28.3677 22.4765C29.7699 22.8115 30.7491 24.0524 30.7491 25.4939V26.7504H30.7492Z" fill="white"/>
<path d="M15.9999 0C15.6549 0 15.375 0.279876 15.375 0.624939V3.30082C15.375 3.64601 15.6548 3.92576 15.9999 3.92576C16.3451 3.92576 16.6249 3.64588 16.6249 3.30082V0.624939C16.6249 0.279876 16.3451 0 15.9999 0Z" fill="white"/>
<path d="M16.4418 5.03176C16.3256 4.91557 16.1644 4.84863 16 4.84863C15.8349 4.84863 15.6744 4.91551 15.5581 5.03176C15.4419 5.14801 15.375 5.3087 15.375 5.47363C15.375 5.63801 15.4418 5.79926 15.5581 5.91551C15.6744 6.03176 15.8356 6.09864 16 6.09864C16.1644 6.09864 16.3256 6.03176 16.4418 5.91551C16.5581 5.79863 16.625 5.63801 16.625 5.47363C16.625 5.30863 16.5581 5.14801 16.4418 5.03176Z" fill="white"/>
<path d="M11.8441 5.17396L9.52839 2.85877C9.28432 2.6147 8.88863 2.61483 8.64451 2.85889C8.40051 3.10295 8.40057 3.49864 8.64463 3.74277L10.9604 6.05796C11.0824 6.17996 11.2424 6.24096 11.4023 6.24096C11.5623 6.24096 11.7222 6.1799 11.8443 6.05783C12.0882 5.81383 12.0881 5.41808 11.8441 5.17396Z" fill="white"/>
<path d="M23.449 2.76206C23.2049 2.51818 22.8093 2.51805 22.5651 2.76206L20.1083 5.21875C19.8643 5.46281 19.8643 5.8585 20.1083 6.10262C20.2305 6.22469 20.3904 6.28569 20.5503 6.28569C20.7103 6.28569 20.8702 6.22462 20.9923 6.10262L23.449 3.64593C23.693 3.40187 23.693 3.00612 23.449 2.76206Z" fill="white"/>
</g>
<defs>
<clipPath id="clip0_1_10395">
<rect width="32" height="32" fill="white"/>
</clipPath>
</defs>
</svg>
