<svg width="30" height="30" viewBox="0 0 30 30" fill="none" xmlns="http://www.w3.org/2000/svg">
<path d="M5.65608 5.68637H24.2068C24.6149 5.68637 25.0062 5.52428 25.2947 5.23575C25.5832 4.94723 25.7453 4.55591 25.7453 4.14787C25.7453 3.73984 25.5832 3.34851 25.2947 3.05999C25.0062 2.77147 24.6149 2.60938 24.2068 2.60938H5.65608C5.25053 2.61315 4.86287 2.7769 4.57742 3.06502C4.29198 3.35313 4.13184 3.7423 4.13184 4.14787C4.13184 4.55344 4.29198 4.94261 4.57742 5.23073C4.86287 5.51884 5.25053 5.68259 5.65608 5.68637Z" fill="white"/>
<path d="M24.2069 24.397H5.65617C5.24814 24.397 4.85681 24.5591 4.56829 24.8476C4.27977 25.1361 4.11768 25.5274 4.11768 25.9355C4.11768 26.3435 4.27977 26.7348 4.56829 27.0234C4.85681 27.3119 5.24814 27.474 5.65617 27.474H24.2069C24.6116 27.4689 24.9981 27.3046 25.2825 27.0166C25.5669 26.7286 25.7263 26.3402 25.7263 25.9355C25.7263 25.5307 25.5669 25.1423 25.2825 24.8543C24.9981 24.5663 24.6116 24.402 24.2069 24.397Z" fill="white"/>
<path d="M24.7087 23.5622C26.9421 16.8576 25.6544 9.90889 24.7398 6.51221C24.4817 6.577 5.38124 6.57674 5.12339 6.51221C4.21316 9.91333 2.92553 16.8665 5.15003 23.5622C5.31431 23.5267 24.5488 23.5267 24.7087 23.5622ZM10.1096 8.6257C11.4725 7.13238 13.4932 9.88507 13.9104 11.9158C15.6292 10.5911 17.7144 9.82834 19.8823 9.73128C20.1688 9.71958 20.4502 9.81002 20.6763 9.98648C20.9024 10.1629 21.0584 10.414 21.1166 10.6948C21.4674 12.3421 21.9469 16.4758 18.8389 19.2376C17.0422 20.9667 13.6738 21.5442 11.3217 20.7915C10.566 21.2383 9.76531 21.6045 8.93299 21.8839C8.83046 21.8825 8.73155 21.8457 8.65296 21.7799C8.57437 21.714 8.52091 21.6231 8.50161 21.5223C8.4823 21.4216 8.49833 21.3173 8.54699 21.2271C8.59565 21.1368 8.67397 21.0661 8.76871 21.0269C9.15053 20.8759 9.51907 20.7161 9.86542 20.5474C9.94403 19.6415 10.094 18.7433 10.3139 17.8611C6.98379 13.2256 9.05288 9.86893 10.1096 8.6257Z" fill="white"/>
<path d="M11.1443 15.5079C11.1559 14.1111 10.9948 12.7182 10.6648 11.3608C10.6358 11.2479 10.6524 11.1281 10.7109 11.0273C10.7694 10.9264 10.8652 10.8526 10.9776 10.8217C11.09 10.7909 11.2101 10.8054 11.3119 10.8623C11.4136 10.9191 11.489 11.0136 11.5218 11.1255C11.7615 12.072 11.9175 13.0377 11.988 14.0116C12.3214 13.5129 12.702 13.0475 13.1246 12.6218C13.0565 11.9459 12.8531 11.2907 12.5267 10.6949C12.2002 10.0992 11.7573 9.57522 11.2243 9.15409C11.1594 9.10347 11.0775 9.07983 10.9956 9.08811C10.9137 9.09638 10.8381 9.13592 10.7847 9.19849C9.90998 10.2286 8.2405 12.9415 10.6382 16.76C10.7791 16.3319 10.9482 15.9136 11.1443 15.5079Z" fill="white"/>
<path d="M11.9877 15.7921C11.3636 17.14 10.966 18.5817 10.811 20.059C15.1357 17.648 16.3478 14.4023 16.3612 14.3668C16.4014 14.2561 16.4836 14.1657 16.5899 14.115C16.6962 14.0644 16.8182 14.0575 16.9295 14.0959C16.9844 14.1157 17.0348 14.146 17.0779 14.1853C17.1211 14.2246 17.156 14.272 17.1807 14.3248C17.2055 14.3776 17.2196 14.4348 17.2222 14.493C17.2248 14.5513 17.2159 14.6095 17.1959 14.6643C17.1426 14.8152 16.0681 17.6924 12.4006 20.13C14.443 20.4596 16.7876 19.9336 18.2482 18.576C21.01 16.1206 20.5659 12.3776 20.2507 10.8813C20.2334 10.8062 20.1909 10.7393 20.1303 10.6917C20.0698 10.644 19.9947 10.6185 19.9177 10.6193C17.4426 10.6445 13.5687 12.1683 11.9877 15.7921Z" fill="white"/>
</svg>
