<svg width="32" height="32" viewBox="0 0 32 32" fill="none" xmlns="http://www.w3.org/2000/svg">
<path d="M11.7383 17.0453H15.6718H19.6053C19.8949 17.0453 20.1297 16.8105 20.1297 16.5208V10.4895C20.1297 9.91115 19.6591 9.44059 19.0808 9.44059H16.1981C16.203 9.47365 16.2026 9.50765 16.1961 9.54165V8.39171C16.1961 7.81334 15.7256 7.34277 15.1473 7.34277H12.2627C11.6843 7.34277 11.2138 7.81334 11.2138 8.39171V12.3252H8.32921C7.75084 12.3252 7.28027 12.7958 7.28027 13.3741V16.5209C7.28027 16.8105 7.51509 17.0453 7.80471 17.0453L11.7383 17.0453ZM16.1963 10.4895H19.0808V15.9964H16.1963V10.4895ZM12.2628 8.39165H15.1473V15.9963H12.2628V8.39165ZM8.32927 13.3741H11.2138V15.9964H8.32927V13.3741Z" fill="white"/>
<path d="M13.8364 22.29C19.1865 22.29 23.539 17.9374 23.539 12.5874C23.539 7.23739 19.1865 2.88477 13.8364 2.88477C8.48641 2.88477 4.13379 7.23733 4.13379 12.5874C4.13385 17.9373 8.48641 22.29 13.8364 22.29ZM13.8364 3.9337C18.6081 3.9337 22.4901 7.8157 22.4901 12.5874C22.4901 17.359 18.6081 21.241 13.8364 21.241C9.06473 21.241 5.18273 17.359 5.18273 12.5874C5.18279 7.8157 9.06479 3.9337 13.8364 3.9337Z" fill="white"/>
<path d="M2.95357 31.5088C3.53032 31.8419 4.16051 32.0001 4.78301 32C6.0527 31.9999 7.28938 31.3415 7.96857 30.1651L11.0321 24.859C11.9341 25.065 12.8726 25.1742 13.8362 25.1742C20.7768 25.1742 26.4234 19.5277 26.4234 12.5871C26.4234 5.64656 20.7768 0 13.8362 0C6.89563 0 1.24907 5.64656 1.24907 12.5871C1.24907 15.916 2.54857 18.9467 4.6662 21.1999L1.60976 26.4938C0.597633 28.247 1.20045 30.4967 2.95357 31.5088ZM13.8362 1.04894C20.1984 1.04894 25.3744 6.22494 25.3744 12.5872C25.3744 18.9494 20.1984 24.1254 13.8362 24.1254C7.47401 24.1254 2.29795 18.9494 2.29795 12.5872C2.29801 6.22494 7.47401 1.04894 13.8362 1.04894ZM2.5182 27.0183L5.44057 21.9566C6.74145 23.1235 8.2857 24.0238 9.98688 24.5715L7.0602 29.6406C6.33726 30.8928 4.73032 31.3235 3.47801 30.6005C2.22582 29.8775 1.7952 28.2706 2.5182 27.0183Z" fill="white"/>
</svg>
