<svg width="38" height="38" viewBox="0 0 38 38" fill="none" xmlns="http://www.w3.org/2000/svg">
<path d="M22.7398 8.10259C18.3042 6.48666 10.7891 8.47593 8.66722 13.0161C7.64005 15.2134 7.72402 16.8155 7.80505 18.3652C7.85307 19.2821 7.89847 20.1482 7.73228 21.1677C7.67187 21.5366 7.08576 22.2621 6.61461 22.8449C5.73384 23.9346 4.97332 24.8758 5.35137 25.7114C5.70232 26.4852 6.63846 26.6732 7.25787 26.7982C7.41699 26.83 7.63472 26.8736 7.69691 26.9036C8.46747 27.3097 8.47483 27.4859 8.42032 27.7865C8.27446 28.5885 8.16397 31.1215 9.5256 32.1987C10.2823 32.7975 11.2114 32.761 12.032 32.7303C12.4584 32.7156 12.8603 32.6985 13.1886 32.771C15.4177 33.2619 14.7559 36.6588 14.7488 36.6989C14.6922 37.0271 14.9124 37.3395 15.2406 37.3961C15.5703 37.4573 15.8806 37.2334 15.9381 36.9057C15.9746 36.6947 16.8006 32.3302 13.4479 31.5924C12.9685 31.4869 12.469 31.5063 11.9858 31.5246C11.3151 31.5487 10.6819 31.5752 10.2743 31.2523C9.56626 30.6919 9.43072 28.9751 9.60779 28.0022C9.84914 26.6738 8.81516 26.1287 8.25971 25.8358C8.05285 25.7267 7.79472 25.6749 7.49596 25.6148C7.16386 25.5482 6.54623 25.4239 6.46168 25.2518C6.45106 24.9677 7.14088 24.1138 7.5534 23.604C8.20049 22.8031 8.81164 22.047 8.92329 21.3622C9.1104 20.2142 9.05974 19.2421 9.01052 18.3018C8.93362 16.8359 8.86114 15.4512 9.76043 13.5271C11.585 9.62396 18.3861 7.80143 22.3267 9.23645C27.664 11.1818 30.5505 15.43 30.2461 20.8919C30.0811 23.8592 27.4627 27.5926 25.8986 29.8232C25.1278 30.9223 24.7518 31.4674 24.6315 31.8464C24.0016 33.8389 24.3725 36.7201 24.3888 36.8674C24.4227 37.1768 24.684 37.4055 24.9878 37.4055C25.0099 37.4055 25.032 37.4043 25.0541 37.402C25.3853 37.366 25.6246 37.0678 25.5886 36.7366C25.5848 36.703 25.2291 33.9603 25.7822 32.2106C25.8518 31.9919 26.4016 31.2081 26.8866 30.5162C28.5249 28.1801 31.2668 24.2705 31.4513 20.9591C31.7872 14.9288 28.6122 10.2428 22.7398 8.10259Z" fill="white"/>
<path d="M18.9999 5.47929C19.3332 5.47929 19.6034 5.20908 19.6034 4.87582V1.19721C19.6034 0.863953 19.3332 0.59375 18.9999 0.59375C18.6667 0.59375 18.3965 0.863953 18.3965 1.19721V4.87582C18.3965 5.20908 18.6667 5.47929 18.9999 5.47929Z" fill="white"/>
<path d="M23.7105 6.43609C23.7992 6.48208 23.8941 6.5039 23.9878 6.5039C24.2059 6.5039 24.4166 6.38543 24.5241 6.17828L26.2216 2.9078C26.3752 2.61227 26.2597 2.24773 25.9638 2.09422C25.6686 1.941 25.3038 2.05592 25.1503 2.35178L23.4527 5.62255C23.2992 5.91808 23.4147 6.28258 23.7105 6.43609Z" fill="white"/>
<path d="M28.2053 8.8459C28.337 8.8459 28.4693 8.80318 28.5804 8.71508L31.5297 6.37306C31.7905 6.16562 31.8341 5.78608 31.6269 5.52501C31.4195 5.26394 31.0391 5.22064 30.7789 5.42778L27.8296 7.76977C27.5688 7.97724 27.5252 8.35674 27.7324 8.61781C27.8514 8.76781 28.0276 8.8459 28.2053 8.8459Z" fill="white"/>
<path d="M34.9458 10.8306C34.8474 10.5118 34.5085 10.3333 34.1914 10.4311L30.5435 11.5526C30.225 11.6507 30.0461 11.9884 30.1439 12.3069C30.2238 12.5662 30.4628 12.7333 30.7206 12.7333C30.7795 12.7333 30.8391 12.7245 30.8983 12.7065L34.5462 11.585C34.8648 11.4869 35.0436 11.1492 34.9458 10.8306Z" fill="white"/>
<path d="M13.4771 6.17929C13.5846 6.38615 13.7953 6.50462 14.0133 6.50462C14.1071 6.50462 14.2019 6.4828 14.2909 6.43681C14.5868 6.28301 14.702 5.9188 14.5485 5.62298L12.8503 2.3525C12.6965 2.05664 12.3326 1.9423 12.0364 2.09494C11.7406 2.24878 11.6254 2.61299 11.7789 2.90881L13.4771 6.17929Z" fill="white"/>
<path d="M9.42039 8.71523C9.53121 8.80333 9.66348 8.84606 9.79521 8.84606C9.9729 8.84606 10.1491 8.76796 10.2681 8.61768C10.4753 8.3569 10.4317 7.97707 10.1706 7.76992L7.22071 5.42794C6.96026 5.22079 6.57985 5.26352 6.373 5.52549C6.16581 5.78624 6.20945 6.16607 6.47052 6.37321L9.42039 8.71523Z" fill="white"/>
<path d="M7.28086 12.7333C7.53871 12.7333 7.77767 12.5662 7.85751 12.3069C7.95535 11.9884 7.77647 11.6507 7.45796 11.5526L3.80943 10.4311C3.49059 10.3333 3.15291 10.5118 3.05507 10.8306C2.95726 11.1492 3.1361 11.4869 3.45465 11.585L7.10318 12.7065C7.16239 12.7245 7.22193 12.7333 7.28086 12.7333Z" fill="white"/>
<path d="M26.8897 20.2915C27.3746 20.0997 27.7882 19.7518 28.084 19.2663C28.6641 18.3139 28.6253 17.0905 27.9891 16.2904C27.4586 15.6226 26.832 15.4773 26.2572 15.4817C26.3065 14.8128 26.0463 14.1872 25.5127 13.7672C25.1021 13.4443 24.5999 13.2993 24.1125 13.3338C23.9957 12.6712 23.5798 12.0567 22.8675 11.5057C22.176 10.97 21.4022 11.0289 20.8367 11.0716C20.629 11.0876 20.4138 11.1035 20.3092 11.0781C20.2415 11.0613 20.0597 10.9532 19.9268 10.8739C19.3719 10.543 18.442 9.98935 17.3358 10.5003C16.6534 10.8156 16.251 11.3031 16.0256 11.823C14.5171 11.5159 13.4936 12.3551 13.049 13.2583C12.8652 13.6314 12.774 14.0211 12.7507 14.4004C11.6369 14.4831 10.6903 15.2819 10.4165 16.4124C10.1451 17.533 10.6366 18.6012 11.6691 19.1334C12.6783 19.654 13.4931 19.2919 14.1469 19.0011C14.6452 18.7798 14.9673 18.6489 15.3206 18.7512C15.9871 18.9433 16.224 19.4319 16.4981 19.9976C16.768 20.5545 17.1039 21.2482 17.9322 21.4273C18.8327 21.6224 19.5284 21.2205 20.0361 20.9276C20.4183 20.7072 20.6623 20.5699 20.8744 20.6217C21.3379 20.7266 21.642 21.1138 21.9941 21.5617C22.4556 22.1486 23.0296 22.8788 24.0927 22.8824H24.1034C24.9452 22.8824 25.6515 22.6213 26.1465 22.128C26.6039 21.6721 26.8591 21.0215 26.8897 20.2915ZM25.3999 20.4072C25.4927 20.4253 25.5816 20.425 25.6727 20.4344C25.6263 20.777 25.4981 21.0703 25.2944 21.2735C25.0268 21.5405 24.6264 21.6754 24.1042 21.6754C24.1016 21.6754 24.0989 21.6754 24.0963 21.6754C23.6399 21.6743 23.3737 21.3637 22.9433 20.8162C22.9017 20.7634 22.8583 20.7086 22.8145 20.6538C22.8262 20.5873 22.8327 20.5188 22.8207 20.4485C22.7885 20.2599 22.94 19.9693 23.1893 19.7415C23.4542 19.4993 23.7147 19.426 23.8166 19.4543C24.1413 19.5394 24.469 19.3476 24.5545 19.0252C24.6396 18.7032 24.4475 18.3728 24.1254 18.2874C23.5744 18.1412 22.92 18.3522 22.3748 18.8508C22.0998 19.1023 21.8946 19.3898 21.7656 19.6878C21.5796 19.5828 21.3741 19.4973 21.1414 19.4445C21.0006 19.4126 20.867 19.4047 20.7372 19.4083C20.7462 19.0864 20.7028 18.7692 20.6115 18.4718C20.6394 18.4541 20.6702 18.4434 20.6956 18.4206C21.3535 17.8286 21.9334 17.683 22.7002 17.9179C23.0166 18.0151 23.3561 17.8377 23.4542 17.5186C23.5523 17.2001 23.3735 16.8624 23.0549 16.7646C22.5982 16.624 22.1682 16.5763 21.7554 16.6185C21.5264 16.12 21.5071 15.3974 21.7378 14.9338C21.8863 14.6353 21.7649 14.2732 21.4667 14.1246C21.1661 13.9756 20.8058 14.0975 20.6575 14.3958C20.2844 15.1454 20.2863 16.181 20.6109 16.9943C20.3992 17.1152 20.1904 17.2687 19.9829 17.4464C19.5513 17.0365 18.9781 16.8233 18.307 16.8539C17.9743 16.8701 17.7174 17.1532 17.7336 17.4862C17.7498 17.8189 18.0333 18.0676 18.3659 18.0596C18.7726 18.0381 19.0887 18.176 19.2906 18.4656C19.5433 18.8287 19.5889 19.3878 19.4346 19.8814C19.4339 19.8818 19.4331 19.8823 19.4323 19.8827C19.0033 20.1296 18.6329 20.3447 18.1874 20.2475C17.9566 20.1974 17.8326 19.9841 17.5842 19.4713C17.333 18.953 17.0006 18.286 16.2778 17.8627C16.5101 17.5362 16.6485 17.1781 16.7 16.8113C17.1833 16.6623 18.0146 16.3378 18.6697 15.7123C19.7014 14.7264 19.5702 13.4018 19.5641 13.3459C19.5284 13.017 19.2384 12.7789 18.9046 12.8137C18.5751 12.8464 18.3338 13.1416 18.3636 13.4714C18.3665 13.5038 18.4287 14.2732 17.8361 14.8395C17.4267 15.2303 16.8978 15.4666 16.5234 15.5986C16.3994 15.326 16.2113 15.035 15.919 14.7396C15.6851 14.5033 15.3029 14.5013 15.0654 14.7352C14.8285 14.9698 14.8267 15.3519 15.061 15.5888C15.3751 15.9059 15.5316 16.2238 15.5266 16.5341C15.5198 16.9387 15.241 17.2619 15.0754 17.4187C15.0462 17.4463 15.0313 17.4817 15.0088 17.5132C14.4927 17.5297 14.0407 17.7271 13.6569 17.8978C13.0396 18.173 12.6945 18.3042 12.2222 18.0608C11.4496 17.6624 11.5224 16.9741 11.5895 16.6965C11.7186 16.1646 12.1951 15.5918 12.9367 15.5912C12.9431 15.5912 12.9484 15.5878 12.9547 15.5876C13.1109 15.9301 13.3441 16.2227 13.661 16.4168C13.7594 16.4773 13.8682 16.5058 13.9757 16.5058C14.1788 16.5058 14.3771 16.4036 14.4908 16.2177C14.665 15.9336 14.5757 15.562 14.2916 15.3879C13.8977 15.1462 13.8243 14.4155 14.1316 13.792C14.2918 13.4659 14.7564 12.8051 15.7786 13.006C15.7733 13.3177 15.8093 13.6006 15.8642 13.8173C15.9456 14.1391 16.2723 14.3327 16.5935 14.2531C16.9156 14.1736 17.1127 13.8471 17.0349 13.5244C17.0005 13.3809 16.73 12.1098 17.842 11.5958C18.3332 11.3684 18.7416 11.5729 19.3089 11.9108C19.5505 12.0546 19.7786 12.1905 20.0219 12.2503C20.3142 12.3213 20.6263 12.2977 20.9286 12.2751C21.378 12.2412 21.8035 12.2082 22.1288 12.4601C22.6353 12.852 22.9079 13.2483 22.9394 13.6379C22.9677 13.99 22.7986 14.3648 22.4367 14.7523C22.2089 14.9957 22.2219 15.3776 22.4656 15.605C22.582 15.7138 22.7299 15.7677 22.8776 15.7677C23.0387 15.7677 23.1996 15.7035 23.3184 15.5762C23.6087 15.2655 23.8225 14.9385 23.9616 14.6046C24.2475 14.4769 24.5629 14.5552 24.7663 14.7158C24.9307 14.8454 25.18 15.1421 24.9982 15.6737C24.8783 16.0261 24.5088 16.37 24.3783 16.4714C24.1134 16.6735 24.0627 17.0524 24.2651 17.317C24.3839 17.4726 24.5633 17.5543 24.7451 17.5543C24.8727 17.5543 25.0015 17.5139 25.1108 17.4302C25.1634 17.3901 25.4937 17.1263 25.7837 16.7275C26.3978 16.6463 26.7288 16.6446 27.0444 17.0412C27.3664 17.4464 27.3703 18.118 27.0535 18.638C26.8776 18.9265 26.4621 19.3865 25.6338 19.2229C25.3088 19.1581 24.9897 19.3706 24.9249 19.6979C24.86 20.0247 25.0728 20.3424 25.3999 20.4072Z" fill="white"/>
</svg>
