<svg width="40" height="40" viewBox="0 0 40 40" fill="none" xmlns="http://www.w3.org/2000/svg">
<g clip-path="url(#clip0_489_6858)">
<path d="M37.4457 16.7082C37.2811 16.1367 36.7591 15.7424 36.1644 15.7402H34.9504L32.1163 6.67664C31.9443 6.11843 31.4277 5.73811 30.8436 5.73998H29.6522L27.5855 2.0192C27.4101 1.70318 27.1139 1.47192 26.7647 1.37841C26.4156 1.28489 26.0434 1.33715 25.7335 1.52317L22.4448 3.49587L20.1827 2.1392C19.6047 1.7924 18.8589 1.93146 18.4447 2.46319L15.1646 6.67797L14.698 6.56063C14.0771 6.40539 13.4335 6.71321 13.1646 7.294L9.5332 15.0735H7.76644C7.23909 15.0736 6.76134 15.3846 6.54774 15.8668L4.30301 20.917L3.4583 20.6349C2.80071 20.4198 2.08741 20.7408 1.81225 21.3756L0.0536201 25.4784C-0.0343505 25.6842 -0.0131001 25.9206 0.110184 26.1075C0.233468 26.2944 0.442378 26.407 0.66629 26.4071H4.51036C4.51036 27.1435 5.10732 27.7405 5.84374 27.7405H10.1559C10.5095 27.7405 10.8486 27.6 11.0987 27.3499C11.3488 27.0998 11.4893 26.7607 11.4893 26.4071H15.1333L14.5113 28.0005H12.8866C12.5183 28.0005 12.2199 28.2989 12.2199 28.6671C12.2199 29.0353 12.5184 29.3338 12.8866 29.3338H13.9926L13.2133 31.3338H10.7799C10.4117 31.3338 10.1132 31.6323 10.1132 32.0005C10.1132 32.3686 10.4117 32.6671 10.7799 32.6671H12.6946L11.6559 35.3338H8.66654C8.29833 35.3338 7.99988 35.6323 7.99988 36.0005C7.99988 36.3687 8.29841 36.6671 8.66654 36.6671H11.1373L11.0673 36.8464C10.9063 37.2566 10.9582 37.7198 11.2062 38.084C11.4542 38.4483 11.8661 38.6665 12.3067 38.6671H14.8267C15.4241 38.6647 15.9476 38.2667 16.1094 37.6918L16.3941 36.667H26.273L26.5577 37.6924C26.7199 38.2671 27.2433 38.6648 27.8404 38.6671H30.3604C30.7998 38.6661 31.2105 38.4487 31.4583 38.0858C31.7061 37.723 31.7593 37.2614 31.6005 36.8517L31.5338 36.667H34.0005C34.3687 36.667 34.6672 36.3685 34.6672 36.0004C34.6672 35.6322 34.3687 35.3337 34.0005 35.3337H31.0118L29.9751 32.667H31.8872C32.2554 32.667 32.5538 32.3686 32.5538 32.0004C32.5538 31.6322 32.2554 31.3337 31.8872 31.3337H29.4571L28.6792 29.3337H29.7805C30.1487 29.3337 30.4472 29.0352 30.4472 28.667C30.4472 28.2989 30.1487 28.0004 29.7805 28.0004H28.1612L27.5419 26.407H31.6612C31.656 26.7606 31.7935 27.1013 32.0427 27.3522C32.2919 27.6032 32.6317 27.7431 32.9853 27.7404H36.2554C36.609 27.7416 36.9484 27.6014 37.198 27.3509C37.4476 27.1004 37.5866 26.7606 37.5841 26.407H39.3341C39.5431 26.4068 39.74 26.3086 39.8659 26.1417C39.9917 25.9749 40.0321 25.7586 39.9748 25.5576L37.4457 16.7082ZM5.84242 26.4111V26.4077L7.04244 24.4076H8.95451L10.1545 26.4077L5.84242 26.4111ZM27.2595 25.0737L26.0835 15.0735H27.4075L28.5835 25.0737H27.2595ZM18.4327 29.3338H24.2328L24.7888 31.3338H17.8767L18.4327 29.3338ZM23.8668 28.0005H18.8067L19.25 26.4071H23.4235L23.8668 28.0005ZM16.7533 25.0737L17.9293 15.0735H24.7408L25.9168 25.0737H16.7533ZM14.6666 13.7402V12.4068H28.0002V13.7402H14.6666ZM15.2593 15.0735H16.5833L15.4072 25.0737H14.0832L15.2593 15.0735ZM12.3072 37.3339L12.7245 36.2619L12.7285 36.2526L16.5626 26.4071H17.8626L14.8265 37.3339H12.3072ZM16.7646 35.3339L17.5059 32.6672H25.1608L25.9021 35.3339H16.7646ZM27.8422 37.3339L24.8041 26.4071H26.1108L28.3849 32.2545L28.3882 32.2638L29.9336 36.2426L29.9449 36.2719L30.3602 37.3339H27.8422ZM32.9843 26.4084L33.837 24.275L34.995 23.8897L36.2543 26.4071L32.9843 26.4084ZM37.079 25.075L36.189 23.295C35.8901 22.7035 35.2034 22.42 34.5743 22.6283L33.4143 23.0143C33.0439 23.1382 32.7463 23.4181 32.6003 23.7804L32.0829 25.0738H29.9262L28.7262 14.8569C29.1045 14.6113 29.333 14.1912 29.3335 13.7402V12.4068C29.3335 11.6704 28.7366 11.0735 28.0002 11.0735H14.6666C13.9302 11.0735 13.3332 11.6704 13.3332 12.4068V13.7402C13.3342 14.1916 13.5635 14.6118 13.9425 14.8569L12.7425 25.0738H10.9104L10.0991 23.7217C9.85735 23.3208 9.4239 23.0751 8.95568 23.0737H7.04377C6.57563 23.0752 6.14219 23.3208 5.90039 23.7217L5.08904 25.0738H1.67764L3.03767 21.9003L4.45567 22.373C4.7813 22.4816 5.13615 22.3253 5.27568 22.0117L7.76644 16.4069H8.9085L8.7292 16.7922C8.57349 17.1258 8.71763 17.5224 9.05123 17.6782C9.21155 17.7529 9.39491 17.7609 9.56109 17.7004C9.72726 17.6398 9.86258 17.5159 9.93727 17.3555L14.3713 7.85331L19.1715 9.05334C19.4054 9.11998 19.6571 9.05388 19.8282 8.88099C19.9992 8.70801 20.0625 8.45559 19.9933 8.22238C19.924 7.98917 19.7333 7.81221 19.4955 7.76065L16.5794 7.03134L19.4975 3.28259L21.1495 4.27331L19.6569 5.16864C19.3411 5.35826 19.2389 5.76795 19.4285 6.08366C19.6181 6.39937 20.0278 6.50164 20.3435 6.31203L26.4189 2.66664L28.127 5.74006H25.3335C24.9653 5.74006 24.6669 6.03858 24.6669 6.40672C24.6669 6.77485 24.9653 7.07337 25.3335 7.07337H30.8437L33.553 15.7402H32.667C32.2988 15.7402 32.0003 16.0386 32.0003 16.4069C32.0003 16.7751 32.2988 17.0735 32.667 17.0735H36.1644L38.4498 25.0737L37.079 25.075Z" fill="white"/>
</g>
<defs>
<clipPath id="clip0_489_6858">
<rect width="40" height="40" fill="white"/>
</clipPath>
</defs>
</svg>
