<svg width="27" height="27" viewBox="0 0 27 27" fill="none" xmlns="http://www.w3.org/2000/svg">
<g clip-path="url(#clip0_15_19999)">
<path d="M23.2314 10.4804C22.4248 10.4804 21.6665 10.7945 21.0962 11.3648C20.7084 11.7526 20.4394 12.2274 20.3068 12.7451H17.8301C17.7143 12.0579 17.4435 11.4226 17.0546 10.877L21.645 6.28655C23.6102 7.47938 26.22 5.99878 26.1972 3.68629C26.1972 2.02135 24.8426 0.666772 23.1776 0.666772C20.8652 0.644175 19.3844 3.25379 20.5774 5.21898L15.987 9.80938C14.4295 8.69919 12.3225 8.68213 10.741 9.80938L8.41528 7.48366C9.60811 5.51852 8.12751 2.90865 5.81502 2.9315C4.15008 2.9315 2.7955 4.28608 2.7955 5.95107C2.7729 8.26351 5.38252 9.74431 7.34771 8.55123L9.67343 10.877C8.55372 12.4478 8.55458 14.5556 9.67545 16.1257L5.13391 20.7117C3.16867 19.5217 0.561823 21.0026 0.584621 23.3136C0.584621 24.9786 1.9392 26.3331 3.60419 26.3331C5.91809 26.3557 7.39864 23.7432 6.20274 21.7781L10.7438 17.1925C11.2889 17.5804 11.9231 17.8505 12.6629 17.9661V19.7438C10.3817 20.2303 9.57082 23.1872 11.2289 24.8013C12.406 25.9785 14.3217 25.9787 15.4992 24.8013C16.6766 23.624 16.6766 21.7083 15.4992 20.531C15.1038 20.1356 14.6249 19.8736 14.1727 19.7438V17.966C16.0127 17.6469 17.511 16.1486 17.8302 14.2548H20.3069C20.4395 14.7725 20.7085 15.2473 21.0963 15.635C22.2763 16.8151 24.1864 16.8153 25.3666 15.635C27.2608 13.755 25.9044 10.4716 23.2314 10.4804Z" fill="#488253"/>
</g>
<defs>
<clipPath id="clip0_15_19999">
<rect width="25.6667" height="25.6667" fill="white" transform="translate(0.583496 0.666626)"/>
</clipPath>
</defs>
</svg>
