<svg width="32" height="32" viewBox="0 0 32 32" fill="none" xmlns="http://www.w3.org/2000/svg">
<g clip-path="url(#clip0_2_2686)">
<path d="M6.3737 31.0591C5.06258 31.0591 3.83372 30.5432 2.91369 29.6066C2.77421 29.4648 2.73928 29.2507 2.82591 29.0717C3.01915 28.6728 3.27651 28.3136 3.59062 28.0037C4.3328 27.2615 5.322 26.8516 6.3737 26.8516C7.89415 26.8516 9.2533 27.7017 9.92058 29.0705C10.0079 29.2498 9.97297 29.4644 9.83372 29.6066C8.91369 30.5432 7.68483 31.0591 6.3737 31.0591ZM3.83901 29.1843C4.54581 29.7886 5.43345 30.1179 6.3737 30.1179C7.31373 30.1179 8.20137 29.7886 8.90794 29.1843C8.35946 28.3182 7.41621 27.7927 6.3737 27.7927C5.57338 27.7927 4.8204 28.1048 4.25376 28.6714C4.09567 28.8274 3.95711 28.9989 3.83901 29.1843Z" fill="white"/>
<path d="M6.37422 27.7916C5.05575 27.7916 3.98291 26.7188 3.98291 25.4001C3.98291 24.0816 5.05575 23.0088 6.37422 23.0088C7.6927 23.0088 8.76554 24.0816 8.76554 25.4001C8.76554 26.7188 7.6927 27.7916 6.37422 27.7916ZM6.37422 23.95C5.57459 23.95 4.92409 24.6005 4.92409 25.4001C4.92409 26.1997 5.57459 26.8505 6.37422 26.8505C7.17386 26.8505 7.82436 26.1997 7.82436 25.4001C7.82436 24.6005 7.17386 23.95 6.37422 23.95Z" fill="white"/>
<path d="M6.37368 31.0581C4.90815 31.0581 3.53269 30.4809 2.50052 29.4327C1.50281 28.4108 0.954102 27.0639 0.954102 25.6386C0.954102 23.4956 2.22156 21.5503 4.18342 20.6827C4.8785 20.3773 5.61495 20.2227 6.37368 20.2227C9.36196 20.2227 11.7933 22.6521 11.7933 25.6386C11.7933 27.0636 11.2445 28.4106 10.2482 29.4313C9.77349 29.9138 9.19215 30.3166 8.566 30.5972C7.86472 30.9037 7.1285 31.0581 6.37368 31.0581ZM6.37368 21.1638C5.74615 21.1638 5.13701 21.2916 4.56302 21.5439C2.94284 22.2603 1.89528 23.8679 1.89528 25.6386C1.89528 26.8166 2.34886 27.9301 3.17239 28.7737C4.02487 29.6395 5.16228 30.117 6.37368 30.117C6.99799 30.117 7.60759 29.989 8.18526 29.7364C8.70134 29.5053 9.18365 29.1712 9.57588 28.7725C10.3985 27.9299 10.8521 26.8166 10.8521 25.6386C10.8521 23.1712 8.84312 21.1638 6.37368 21.1638Z" fill="white"/>
<path d="M16.1182 14.0273C14.5378 14.0273 13.0566 13.4057 11.9477 12.2768C11.8085 12.1351 11.7735 11.9209 11.8599 11.7419C12.0915 11.264 12.4004 10.8329 12.7777 10.4604C13.6688 9.56911 14.8558 9.07715 16.1182 9.07715C17.9427 9.07715 19.5741 10.0978 20.3756 11.7408C20.4633 11.92 20.4279 12.1348 20.2882 12.2768C19.1793 13.4057 17.6982 14.0273 16.1182 14.0273ZM12.8687 11.8543C13.7662 12.6511 14.9073 13.0861 16.1182 13.0861C17.3287 13.0861 18.4698 12.6511 19.3677 11.8545C18.6821 10.7139 17.4661 10.0183 16.1182 10.0183C15.1072 10.0183 14.1563 10.4124 13.4408 11.1282C13.2188 11.3471 13.0277 11.5902 12.8687 11.8543Z" fill="white"/>
<path d="M16.1183 14.026C14.3485 14.026 12.6872 13.3288 11.4405 12.063C10.2364 10.8295 9.57373 9.20312 9.57373 7.48162C9.57373 4.89361 11.1041 2.54435 13.4731 1.49678C14.3122 1.12799 15.2019 0.941406 16.1183 0.941406C19.7268 0.941406 22.6624 3.87523 22.6624 7.48162C22.6624 9.20312 21.9997 10.8295 20.7971 12.0616C20.2226 12.645 19.5204 13.1317 18.7649 13.4697C17.9189 13.8394 17.0296 14.026 16.1183 14.026ZM16.1183 1.88258C15.3329 1.88258 14.571 2.04251 13.8527 2.358C11.8256 3.2546 10.5149 5.26585 10.5149 7.48162C10.5149 8.95588 11.0825 10.3488 12.1128 11.404C13.1794 12.4874 14.6027 13.0848 16.1183 13.0848C16.8991 13.0848 17.6615 12.9246 18.3844 12.6089C19.0301 12.3199 19.6335 11.9023 20.1247 11.4028C21.1537 10.3488 21.7212 8.95588 21.7212 7.48162C21.7212 4.3943 19.2079 1.88258 16.1183 1.88258Z" fill="white"/>
<path d="M16.1187 10.0164C14.5594 10.0164 13.2905 8.74776 13.2905 7.18848C13.2905 5.62896 14.5594 4.36035 16.1187 4.36035C17.6779 4.36035 18.9468 5.62896 18.9468 7.18848C18.9468 8.74776 17.6779 10.0164 16.1187 10.0164ZM16.1187 5.30153C15.0782 5.30153 14.2317 6.14804 14.2317 7.18848C14.2317 8.22892 15.0782 9.0752 16.1187 9.0752C17.1591 9.0752 18.0056 8.22892 18.0056 7.18848C18.0056 6.14804 17.1591 5.30153 16.1187 5.30153Z" fill="white"/>
<path d="M25.6263 31.0591C24.3152 31.0591 23.0863 30.5432 22.1663 29.6066C22.0266 29.4648 21.9917 29.2507 22.0785 29.0717C22.2715 28.6728 22.5289 28.3134 22.8432 28.0034C23.5854 27.2615 24.5744 26.8516 25.6263 26.8516C27.1465 26.8516 28.5054 27.7017 29.1732 29.0705C29.2605 29.2498 29.2256 29.4644 29.0863 29.6066C28.1663 30.5432 26.9374 31.0591 25.6263 31.0591ZM23.0914 29.1843C23.7986 29.7886 24.686 30.1179 25.6263 30.1179C26.5666 30.1179 27.454 29.7888 28.1608 29.1843C27.6116 28.3182 26.6686 27.7927 25.6263 27.7927C24.8258 27.7927 24.073 28.1048 23.5064 28.6714C23.3483 28.8274 23.2095 28.9989 23.0914 29.1843Z" fill="white"/>
<path d="M25.6269 27.7916C24.3084 27.7916 23.2354 26.7188 23.2354 25.4001C23.2354 24.0816 24.3084 23.0088 25.6269 23.0088C26.9454 23.0088 28.018 24.0816 28.018 25.4001C28.018 26.7188 26.9454 27.7916 25.6269 27.7916ZM25.6269 23.95C24.8273 23.95 24.1765 24.6005 24.1765 25.4001C24.1765 26.1997 24.8273 26.8505 25.6269 26.8505C26.4265 26.8505 27.0768 26.1997 27.0768 25.4001C27.0768 24.6005 26.4265 23.95 25.6269 23.95Z" fill="white"/>
<path d="M25.6266 31.0581C24.1611 31.0581 22.7852 30.4809 21.753 29.4327C20.7557 28.4108 20.207 27.0641 20.207 25.6386C20.207 23.4956 21.4745 21.5503 23.4364 20.6827C24.1312 20.3773 24.8679 20.2227 25.6266 20.2227C28.6147 20.2227 31.0457 22.6521 31.0457 25.6386C31.0457 27.0641 30.497 28.4108 29.5011 29.4313C29.0255 29.9143 28.4442 30.3171 27.8192 30.5972C27.1174 30.9037 26.3812 31.0581 25.6266 31.0581ZM25.6266 21.1638C24.9989 21.1638 24.3899 21.2916 23.8159 21.5439C22.1955 22.2603 21.1482 23.8679 21.1482 25.6386C21.1482 26.8169 21.6018 27.9304 22.4253 28.7737C23.2778 29.6395 24.4152 30.117 25.6266 30.117C26.2507 30.117 26.8601 29.989 27.4382 29.7364C27.9538 29.5055 28.4359 29.1714 28.8288 28.7723C29.651 27.9304 30.1045 26.8169 30.1045 25.6386C30.1045 23.1712 28.0958 21.1638 25.6266 21.1638Z" fill="white"/>
<path d="M16.1163 19.1245C15.0998 19.1245 14.2312 18.3608 14.0966 17.3477C14.086 17.2378 14.0791 17.1592 14.0791 17.0804C14.0791 15.957 14.9932 15.043 16.1163 15.043C17.2436 15.043 18.1604 15.957 18.1604 17.0804C18.1604 17.1643 18.1526 17.2482 18.1444 17.332C18.0083 18.3605 17.137 19.1245 16.1163 19.1245ZM16.1163 15.9841C15.512 15.9841 15.0203 16.4759 15.0203 17.0804C15.0203 17.1296 15.0258 17.1788 15.0304 17.2279C15.1035 17.7796 15.5607 18.1834 16.1163 18.1834C16.6669 18.1834 17.137 17.7709 17.2096 17.2238C17.2133 17.1852 17.2193 17.133 17.2193 17.0804C17.2193 16.4759 16.7243 15.9841 16.1163 15.9841Z" fill="white"/>
<path d="M16.1163 26.3433C15.0998 26.3433 14.2312 25.5795 14.0966 24.5664C14.086 24.4566 14.0791 24.378 14.0791 24.2992C14.0791 23.1758 14.9932 22.2617 16.1163 22.2617C17.2436 22.2617 18.1604 23.1758 18.1604 24.2992C18.1604 24.383 18.1526 24.4669 18.1444 24.5508C18.0083 25.5793 17.137 26.3433 16.1163 26.3433ZM16.1163 23.2029C15.512 23.2029 15.0203 23.6946 15.0203 24.2992C15.0203 24.3483 15.0258 24.3975 15.0304 24.4467C15.1035 24.9984 15.5607 25.4021 16.1163 25.4021C16.6669 25.4021 17.137 24.9897 17.2096 24.4426C17.2133 24.404 17.2193 24.3518 17.2193 24.2992C17.2193 23.6946 16.7243 23.2029 16.1163 23.2029Z" fill="white"/>
<path d="M25.6266 19.1245C24.6031 19.1245 23.7345 18.3608 23.5999 17.3477C23.5971 17.3272 23.5958 17.3063 23.5958 17.2856L23.593 17.2068C23.5907 17.1648 23.5889 17.1225 23.5889 17.0804C23.5889 15.957 24.4997 15.043 25.6197 15.043C26.747 15.043 27.6638 15.957 27.6638 17.0804C27.6638 17.1225 27.6619 17.1648 27.6596 17.2068L27.6569 17.2856C27.6569 17.3063 27.6555 17.327 27.6527 17.3474C27.5186 18.3605 26.6472 19.1245 25.6266 19.1245ZM24.5365 17.2489C24.6201 17.7833 25.0815 18.1834 25.6197 18.1834C26.1688 18.1834 26.6325 17.7835 26.7162 17.2491C26.7166 17.219 26.7185 17.1891 26.7198 17.1592L26.7226 17.0804C26.7226 16.4759 26.2277 15.9841 25.6197 15.9841C25.019 15.9841 24.53 16.4759 24.53 17.0804L24.5328 17.1592C24.5342 17.1891 24.536 17.219 24.5365 17.2489Z" fill="white"/>
<path d="M6.37388 19.1245C5.35711 19.1245 4.48877 18.3605 4.35435 17.3477C4.34401 17.2482 4.33643 17.1643 4.33643 17.0804C4.33643 15.957 5.25049 15.043 6.37388 15.043C7.50095 15.043 8.418 15.957 8.418 17.0804C8.418 17.1618 8.41087 17.2429 8.40283 17.324C8.26588 18.3605 7.39456 19.1245 6.37388 19.1245ZM6.37388 15.9841C5.76933 15.9841 5.2776 16.4759 5.2776 17.0804C5.2776 17.133 5.28358 17.1852 5.28886 17.2378C5.36124 17.7796 5.81804 18.1834 6.37388 18.1834C6.92466 18.1834 7.39479 17.7707 7.4674 17.2236C7.47108 17.182 7.47682 17.1312 7.47682 17.0804C7.47682 16.4759 6.98211 15.9841 6.37388 15.9841Z" fill="white"/>
<path d="M16.118 15.9836C15.8579 15.9836 15.6475 15.7729 15.6475 15.513V13.5272C15.6475 13.2673 15.8579 13.0566 16.118 13.0566C16.3782 13.0566 16.5886 13.2673 16.5886 13.5272V15.513C16.5886 15.7729 16.3782 15.9836 16.118 15.9836Z" fill="white"/>
<path d="M14.5628 17.7566H7.93348C7.6736 17.7566 7.46289 17.5459 7.46289 17.286C7.46289 17.0261 7.6736 16.8154 7.93348 16.8154H14.5628C14.823 16.8154 15.0334 17.0261 15.0334 17.286C15.0334 17.5459 14.823 17.7566 14.5628 17.7566Z" fill="white"/>
<path d="M6.37391 21.1636C6.11403 21.1636 5.90332 20.9529 5.90332 20.693V18.6542C5.90332 18.3943 6.11403 18.1836 6.37391 18.1836C6.63379 18.1836 6.8445 18.3943 6.8445 18.6542V20.693C6.8445 20.9529 6.63379 21.1636 6.37391 21.1636Z" fill="white"/>
<path d="M16.1195 23.2024C15.8594 23.2024 15.6489 22.9917 15.6489 22.7318V18.6542C15.6489 18.3943 15.8594 18.1836 16.1195 18.1836C16.3796 18.1836 16.5901 18.3943 16.5901 18.6542V22.7318C16.5901 22.9917 16.3796 23.2024 16.1195 23.2024Z" fill="white"/>
<path d="M25.6263 21.1636C25.3662 21.1636 25.1558 20.9529 25.1558 20.693V18.6542C25.1558 18.3943 25.3662 18.1836 25.6263 18.1836C25.8865 18.1836 26.0969 18.3943 26.0969 18.6542V20.693C26.0969 20.9529 25.8865 21.1636 25.6263 21.1636Z" fill="white"/>
<path d="M24.0663 17.7566H17.6762C17.416 17.7566 17.2056 17.5459 17.2056 17.286C17.2056 17.0261 17.416 16.8154 17.6762 16.8154H24.0663C24.3264 16.8154 24.5369 17.0261 24.5369 17.286C24.5369 17.5459 24.3264 17.7566 24.0663 17.7566Z" fill="white"/>
</g>
<defs>
<clipPath id="clip0_2_2686">
<rect width="32" height="32" fill="white"/>
</clipPath>
</defs>
</svg>
