<svg width="34" height="34" viewBox="0 0 34 34" fill="none" xmlns="http://www.w3.org/2000/svg">
<g clip-path="url(#clip0_2_2554)">
<path d="M19.6669 6.89463C20.4631 6.16873 20.9669 5.12663 20.9669 3.96667C20.9669 1.7799 19.1875 0 17.0002 0C14.8129 0 13.0335 1.7799 13.0335 3.96667C13.0335 5.12663 13.5373 6.16873 14.3335 6.89463C11.9824 7.34797 10.2002 9.41857 10.2002 11.9V14.1667C10.2002 14.48 10.4541 14.7333 10.7669 14.7333H23.2335C23.5463 14.7333 23.8002 14.48 23.8002 14.1667V11.9C23.8002 9.41857 22.018 7.34797 19.6669 6.89463ZM14.1669 3.96667C14.1669 2.40437 15.4379 1.13333 17.0002 1.13333C18.5625 1.13333 19.8335 2.40437 19.8335 3.96667C19.8335 5.52897 18.5625 6.8 17.0002 6.8C15.4379 6.8 14.1669 5.52897 14.1669 3.96667ZM22.6669 13.6H11.3335V11.9C11.3335 9.71323 13.1129 7.93333 15.3002 7.93333H18.7002C20.8875 7.93333 22.6669 9.71323 22.6669 11.9V13.6Z" fill="white"/>
<path d="M9.46673 26.1612C10.2629 25.4353 10.7667 24.3932 10.7667 23.2333C10.7667 21.0465 8.98733 19.2666 6.8 19.2666C4.61267 19.2666 2.83333 21.0465 2.83333 23.2333C2.83333 24.3932 3.3371 25.4353 4.13327 26.1612C1.78217 26.6146 0 28.6852 0 31.1666V33.4333C0 33.7466 0.253867 33.9999 0.566667 33.9999H13.0333C13.3461 33.9999 13.6 33.7466 13.6 33.4333V31.1666C13.6 28.6852 11.8178 26.6146 9.46673 26.1612ZM3.96667 23.2333C3.96667 21.671 5.2377 20.3999 6.8 20.3999C8.3623 20.3999 9.63333 21.671 9.63333 23.2333C9.63333 24.7956 8.3623 26.0666 6.8 26.0666C5.2377 26.0666 3.96667 24.7956 3.96667 23.2333ZM12.4667 32.8666H1.13333V31.1666C1.13333 28.9798 2.91267 27.1999 5.1 27.1999H8.5C10.6873 27.1999 12.4667 28.9798 12.4667 31.1666V32.8666Z" fill="white"/>
<path d="M29.8666 26.1612C30.6628 25.4353 31.1666 24.3932 31.1666 23.2333C31.1666 21.0465 29.3872 19.2666 27.1999 19.2666C25.0126 19.2666 23.2332 21.0465 23.2332 23.2333C23.2332 24.3932 23.737 25.4353 24.5332 26.1612C22.1821 26.6146 20.3999 28.6852 20.3999 31.1666V33.4333C20.3999 33.7466 20.6538 33.9999 20.9666 33.9999H33.4332C33.746 33.9999 33.9999 33.7466 33.9999 33.4333V31.1666C33.9999 28.6852 32.2177 26.6146 29.8666 26.1612ZM24.3666 23.2333C24.3666 21.671 25.6376 20.3999 27.1999 20.3999C28.7622 20.3999 30.0332 21.671 30.0332 23.2333C30.0332 24.7956 28.7622 26.0666 27.1999 26.0666C25.6376 26.0666 24.3666 24.7956 24.3666 23.2333ZM32.8666 32.8666H21.5332V31.1666C21.5332 28.9798 23.3126 27.1999 25.4999 27.1999H28.8999C31.0872 27.1999 32.8666 28.9798 32.8666 31.1666V32.8666Z" fill="white"/>
<path d="M3.41101 18.1152L2.27881 18.1594C2.29411 18.5499 2.32528 18.9454 2.37174 19.3341L3.49714 19.1993C3.45408 18.8406 3.42518 18.4756 3.41101 18.1152Z" fill="white"/>
<path d="M2.37118 15.8086C2.32528 16.1951 2.29354 16.59 2.27881 16.9827L3.41101 17.0269C3.42518 16.6643 3.45408 16.2999 3.49658 15.9423L2.37118 15.8086Z" fill="white"/>
<path d="M8.06852 5.84668C7.75856 6.08298 7.45312 6.33571 7.16016 6.59865L7.91779 7.44185C8.18752 7.19931 8.46916 6.96585 8.75532 6.74825L8.06852 5.84668Z" fill="white"/>
<path d="M3.66457 11.2939C3.49797 11.6481 3.34383 12.013 3.20557 12.3808L4.26637 12.7792C4.39387 12.4403 4.5361 12.1037 4.68967 11.7779L3.66457 11.2939Z" fill="white"/>
<path d="M2.83495 13.5C2.72729 13.8746 2.63379 14.2605 2.55615 14.6447L3.66739 14.8685C3.73879 14.5143 3.82492 14.1585 3.92465 13.8122L2.83495 13.5Z" fill="white"/>
<path d="M6.31645 7.42188C6.04502 7.70748 5.78435 8.00498 5.53955 8.30701L6.42072 9.01987C6.64625 8.74107 6.88765 8.46567 7.13812 8.20217L6.31645 7.42188Z" fill="white"/>
<path d="M10.0488 4.57324C9.70599 4.75628 9.36429 4.95744 9.03223 5.17108L9.64649 6.12421C9.95249 5.92644 10.2676 5.74114 10.5826 5.57284L10.0488 4.57324Z" fill="white"/>
<path d="M4.83572 9.25098C4.61415 9.57454 4.40335 9.91001 4.20898 10.2494L5.19215 10.8127C5.37122 10.4999 5.56615 10.1899 5.77072 9.89188L4.83572 9.25098Z" fill="white"/>
<path d="M14.3151 30.9014L14.0913 32.0126C14.4727 32.0897 14.8648 32.1514 15.2564 32.1973L15.3878 31.0719C15.028 31.0294 14.6665 30.9722 14.3151 30.9014Z" fill="white"/>
<path d="M19.7204 30.8945C19.3685 30.9659 19.0075 31.0243 18.646 31.0685L18.7826 32.1939C19.1736 32.1463 19.5646 32.0828 19.9454 32.0058L19.7204 30.8945Z" fill="white"/>
<path d="M17.5629 31.1553C17.2008 31.1694 16.8348 31.1711 16.4749 31.157L16.4302 32.2892C16.6189 32.2971 16.8093 32.3005 17.0019 32.3005C17.2048 32.2994 17.4071 32.2954 17.6083 32.2875L17.5629 31.1553Z" fill="white"/>
<path d="M26.842 6.60352L26.085 7.44672C26.3547 7.68925 26.6165 7.94425 26.8641 8.20492L27.6869 7.42575C27.4183 7.14242 27.1344 6.86588 26.842 6.60352Z" fill="white"/>
<path d="M28.4627 8.31055L27.5815 9.02341C27.8076 9.30278 28.0264 9.59688 28.2315 9.89608L29.1659 9.25518C28.9438 8.93161 28.7075 8.61371 28.4627 8.31055Z" fill="white"/>
<path d="M31.7216 16.9844L30.5894 17.0286C30.5967 17.2071 30.6001 17.3873 30.6001 17.5669C30.6001 17.7511 30.5967 17.9341 30.5894 18.1171L31.7216 18.1613C31.7295 17.9641 31.7335 17.7658 31.7335 17.5658C31.7335 17.3714 31.7295 17.177 31.7216 16.9844Z" fill="white"/>
<path d="M29.7933 10.252L28.8096 10.8158C28.9892 11.1292 29.1581 11.4539 29.3122 11.7803L30.3373 11.2963C30.1707 10.9427 29.9877 10.5914 29.7933 10.252Z" fill="white"/>
<path d="M30.7957 12.3828L29.7349 12.7817C29.8618 13.1195 29.9763 13.4668 30.076 13.8136L31.1657 13.5014C31.058 13.1251 30.9334 12.7489 30.7957 12.3828Z" fill="white"/>
<path d="M31.4432 14.6465L30.3325 14.8698C30.4039 15.2245 30.4617 15.586 30.5037 15.9442L31.6291 15.8104C31.5832 15.4228 31.5208 15.0313 31.4432 14.6465Z" fill="white"/>
<path d="M24.9711 5.17383L24.3574 6.12696C24.66 6.32189 24.9592 6.53213 25.2477 6.75256L25.9356 5.85099C25.6234 5.61243 25.2992 5.38519 24.9711 5.17383Z" fill="white"/>
<path d="M22.8958 4.06055L22.4419 5.09868C22.7723 5.24318 23.1009 5.40298 23.42 5.57411L23.956 4.57565C23.6109 4.38978 23.2539 4.21638 22.8958 4.06055Z" fill="white"/>
</g>
<defs>
<clipPath id="clip0_2_2554">
<rect width="34" height="34" fill="white"/>
</clipPath>
</defs>
</svg>
