<svg width="90" height="84" viewBox="0 0 90 84" fill="none" xmlns="http://www.w3.org/2000/svg">
<path d="M59.7357 27.5901C56.594 23.1071 52.8809 20.0356 48.604 20.0356C45.3007 20.0356 42.4318 21.902 39.96 24.8556" stroke="white" stroke-width="3" stroke-miterlimit="10" stroke-linecap="round" stroke-linejoin="round"/>
<path d="M42.8111 33.4441C38.6075 19.5924 33.4751 7.7417 27.4273 7.7417C12.6163 7.7417 4.8937 54.7778 2.03594 77.4001C1.81463 79.1528 2.64349 80.7914 3.74869 80.7914H16.7122" stroke="white" stroke-width="3" stroke-miterlimit="10" stroke-linecap="round" stroke-linejoin="round"/>
<path d="M22.4512 80.791H71.8399" stroke="white" stroke-width="3" stroke-miterlimit="10" stroke-linecap="round" stroke-linejoin="round"/>
<path d="M47.5389 50.9153C46.8087 47.983 46.0369 44.9528 45.2236 41.9253" stroke="white" stroke-width="3" stroke-miterlimit="10" stroke-linecap="round" stroke-linejoin="round"/>
<path d="M51.7227 51.3997C55.1471 37.5644 59.9819 21.2534 66.9986 21.2534C79.1374 21.2534 85.2284 59.3087 87.9486 77.2917C88.2185 79.0729 87.3845 80.7897 86.2511 80.7897H77.5766" stroke="white" stroke-width="3" stroke-miterlimit="10" stroke-linecap="round" stroke-linejoin="round"/>
<path d="M64.3191 80.7917C65.5794 80.7917 66.4273 78.6996 65.9211 76.8316C63.3106 67.1979 57.5813 50.7886 48.8398 50.7886C40.1852 50.7886 35.3449 67.1718 33.2172 77.0201C32.8191 78.8632 33.6585 80.7917 34.8649 80.7917" stroke="white" stroke-width="3" stroke-miterlimit="10" stroke-linecap="round" stroke-linejoin="round"/>
<path d="M44.6641 64.2806V64.2593" stroke="white" stroke-width="3" stroke-miterlimit="10" stroke-linecap="round" stroke-linejoin="round"/>
<path d="M11.8584 13.1503V13.1289" stroke="white" stroke-width="3" stroke-miterlimit="10" stroke-linecap="round" stroke-linejoin="round"/>
<path d="M60.084 13.161V13.1396" stroke="white" stroke-width="3" stroke-miterlimit="10" stroke-linecap="round" stroke-linejoin="round"/>
<path d="M40.876 7.76403V7.74268" stroke="white" stroke-width="3" stroke-miterlimit="10" stroke-linecap="round" stroke-linejoin="round"/>
<path d="M35.9307 2.02135V2" stroke="white" stroke-width="3" stroke-miterlimit="10" stroke-linecap="round" stroke-linejoin="round"/>
<path d="M81.084 27.8397V27.8184" stroke="white" stroke-width="3" stroke-miterlimit="10" stroke-linecap="round" stroke-linejoin="round"/>
<path d="M49.0498 70.2499V70.2285" stroke="white" stroke-width="3" stroke-miterlimit="10" stroke-linecap="round" stroke-linejoin="round"/>
<path d="M26.4141 25.5804V25.5591" stroke="white" stroke-width="3" stroke-miterlimit="10" stroke-linecap="round" stroke-linejoin="round"/>
<path d="M32.8711 53.5399V53.5186" stroke="white" stroke-width="3" stroke-miterlimit="10" stroke-linecap="round" stroke-linejoin="round"/>
<path d="M11.8584 70.2386V70.2173" stroke="white" stroke-width="3" stroke-miterlimit="10" stroke-linecap="round" stroke-linejoin="round"/>
<path d="M63.7373 52.9979V52.9766" stroke="white" stroke-width="3" stroke-miterlimit="10" stroke-linecap="round" stroke-linejoin="round"/>
<path d="M63.918 45.1234V45.1021" stroke="white" stroke-width="3" stroke-miterlimit="10" stroke-linecap="round" stroke-linejoin="round"/>
<path d="M75.4189 67.0233L75.4192 67.002" stroke="white" stroke-width="3" stroke-miterlimit="10" stroke-linecap="round" stroke-linejoin="round"/>
<path d="M21.7812 33.7713V33.75" stroke="white" stroke-width="3" stroke-miterlimit="10" stroke-linecap="round" stroke-linejoin="round"/>
</svg>
