<svg width="32" height="32" viewBox="0 0 32 32" fill="none" xmlns="http://www.w3.org/2000/svg">
<g clip-path="url(#clip0_2_3098)">
<path d="M30.0625 4.5545H26.6695V0.484316C26.6691 0.355738 26.6177 0.232556 26.5267 0.141772C26.4356 0.0509874 26.3123 7.91079e-06 26.1837 8.46692e-06H0.646871C0.583098 -0.000369177 0.519882 0.0118895 0.460872 0.0360768C0.401863 0.0602641 0.348229 0.0959008 0.303068 0.140929C0.257907 0.185958 0.222112 0.239487 0.197751 0.298424C0.17339 0.357362 0.160945 0.420542 0.161135 0.484316V28.9313C0.162647 29.7453 0.486788 30.5256 1.06253 31.101C1.63828 31.6765 2.41867 32.0003 3.2327 32.0014H28.7696C29.5836 32.0007 30.364 31.677 30.9396 31.1014C31.5152 30.5258 31.8389 29.7453 31.8397 28.9313V6.33172C31.8393 5.86049 31.652 5.40866 31.3187 5.07545C30.9855 4.74224 30.5337 4.55488 30.0625 4.5545ZM3.2327 31.03C2.67608 31.0296 2.14235 30.8084 1.74863 30.415C1.35491 30.0215 1.13336 29.4879 1.13261 28.9313V0.970052H25.7051C25.7208 3.41016 25.6751 26.2026 25.7223 29.237C25.7916 29.9079 26.0786 30.5376 26.5395 31.03H3.2327ZM30.8768 28.9299C30.8625 29.4776 30.6349 29.998 30.2425 30.3803C29.8501 30.7627 29.3239 30.9766 28.776 30.9766C28.2281 30.9766 27.7019 30.7627 27.3095 30.3803C26.9171 29.998 26.6895 29.4776 26.6752 28.9299V5.52311H28.4938C28.3617 5.77229 28.2916 6.04967 28.2895 6.33172V28.947C28.2963 29.0711 28.3503 29.1879 28.4405 29.2733C28.5307 29.3588 28.6503 29.4064 28.7746 29.4064C28.8988 29.4064 29.0184 29.3588 29.1086 29.2733C29.1988 29.1879 29.2528 29.0711 29.2596 28.947V6.33172C29.2596 6.11726 29.3448 5.91159 29.4964 5.75995C29.6481 5.6083 29.8537 5.52311 30.0682 5.52311C30.2826 5.52311 30.4883 5.6083 30.64 5.75995C30.7916 5.91159 30.8768 6.11726 30.8768 6.33172V28.9299ZM23.1136 3.08015H3.71844C3.58948 3.08052 3.46593 3.13202 3.37488 3.22334C3.28383 3.31466 3.2327 3.43835 3.2327 3.56731V9.32471C3.23308 9.45329 3.28442 9.57647 3.37547 9.66725C3.46653 9.75804 3.58986 9.80902 3.71844 9.80902H23.1136C23.1771 9.80902 23.24 9.79648 23.2987 9.77213C23.3574 9.74777 23.4107 9.71207 23.4555 9.66708C23.5004 9.62209 23.5359 9.56869 23.5601 9.50994C23.5843 9.45119 23.5967 9.38824 23.5965 9.32471V3.5716C23.5972 3.50757 23.5853 3.44402 23.5614 3.38462C23.5375 3.32521 23.5021 3.27112 23.4572 3.22544C23.4124 3.17977 23.3589 3.14342 23.2999 3.11848C23.2409 3.09355 23.1776 3.08052 23.1136 3.08015ZM22.6279 8.8404H4.20274V4.05162H22.6321L22.6279 8.8404ZM11.7988 12.7149H3.71844C3.58999 12.7149 3.4668 12.6638 3.37598 12.573C3.28515 12.4822 3.23413 12.359 3.23413 12.2306C3.23413 12.1021 3.28515 11.9789 3.37598 11.8881C3.4668 11.7973 3.58999 11.7462 3.71844 11.7462H11.7988C11.9272 11.7462 12.0504 11.7973 12.1413 11.8881C12.2321 11.9789 12.2831 12.1021 12.2831 12.2306C12.2831 12.359 12.2321 12.4822 12.1413 12.573C12.0504 12.6638 11.9272 12.7149 11.7988 12.7149ZM11.7988 15.6236H3.71844C3.58999 15.6236 3.4668 15.5725 3.37598 15.4817C3.28515 15.3909 3.23413 15.2677 3.23413 15.1393C3.23413 15.0108 3.28515 14.8876 3.37598 14.7968C3.4668 14.706 3.58999 14.6549 3.71844 14.6549H11.7988C11.9278 14.6549 12.0515 14.7062 12.1428 14.7974C12.234 14.8887 12.2852 15.0124 12.2852 15.1414C12.2852 15.2704 12.234 15.3941 12.1428 15.4854C12.0515 15.5766 11.9278 15.6278 11.7988 15.6278V15.6236ZM11.7988 18.5323H3.71844C3.58999 18.5323 3.4668 18.4812 3.37598 18.3904C3.28515 18.2996 3.23413 18.1764 3.23413 18.048C3.23413 17.9195 3.28515 17.7963 3.37598 17.7055C3.4668 17.6147 3.58999 17.5637 3.71844 17.5637H11.7988C11.9278 17.5637 12.0515 17.6149 12.1428 17.7061C12.234 17.7974 12.2852 17.9211 12.2852 18.0501C12.2852 18.1791 12.234 18.3028 12.1428 18.3941C12.0515 18.4853 11.9278 18.5366 11.7988 18.5366V18.5323ZM3.71844 20.4781H8.40579C8.52987 20.4848 8.64666 20.5388 8.73211 20.6291C8.81756 20.7193 8.86519 20.8388 8.86519 20.9631C8.86519 21.0874 8.81756 21.2069 8.73211 21.2971C8.64666 21.3873 8.52987 21.4414 8.40579 21.4481H3.71844C3.59435 21.4414 3.47757 21.3873 3.39212 21.2971C3.30666 21.2069 3.25903 21.0874 3.25903 20.9631C3.25903 20.8388 3.30666 20.7193 3.39212 20.6291C3.47757 20.5388 3.59435 20.4848 3.71844 20.4781ZM11.7988 24.3568H3.71844C3.59435 24.3501 3.47757 24.296 3.39212 24.2058C3.30666 24.1156 3.25903 23.9961 3.25903 23.8718C3.25903 23.7475 3.30666 23.628 3.39212 23.5378C3.47757 23.4475 3.59435 23.3935 3.71844 23.3868H11.7988C11.9229 23.3935 12.0397 23.4475 12.1251 23.5378C12.2106 23.628 12.2582 23.7475 12.2582 23.8718C12.2582 23.9961 12.2106 24.1156 12.1251 24.2058C12.0397 24.296 11.9229 24.3501 11.7988 24.3568ZM9.86014 27.2655H3.71844C3.59435 27.2588 3.47757 27.2047 3.39212 27.1145C3.30666 27.0243 3.25903 26.9048 3.25903 26.7805C3.25903 26.6562 3.30666 26.5367 3.39212 26.4465C3.47757 26.3562 3.59435 26.3022 3.71844 26.2955H9.86157C9.98564 26.3024 10.1023 26.3566 10.1877 26.4469C10.273 26.5373 10.3204 26.6569 10.3203 26.7812C10.3201 26.9054 10.2723 27.0249 10.1867 27.115C10.1011 27.2051 9.98423 27.259 9.86014 27.2655ZM23.1136 12.7149H15.0304C14.9019 12.7149 14.7787 12.6638 14.6879 12.573C14.5971 12.4822 14.5461 12.359 14.5461 12.2306C14.5461 12.1021 14.5971 11.9789 14.6879 11.8881C14.7787 11.7973 14.9019 11.7462 15.0304 11.7462H23.1136C23.242 11.7462 23.3652 11.7973 23.456 11.8881C23.5469 11.9789 23.5979 12.1021 23.5979 12.2306C23.5979 12.359 23.5469 12.4822 23.456 12.573C23.3652 12.6638 23.242 12.7149 23.1136 12.7149ZM15.0304 14.6549H21.1735C21.3019 14.6549 21.4251 14.706 21.516 14.7968C21.6068 14.8876 21.6578 15.0108 21.6578 15.1393C21.6578 15.2677 21.6068 15.3909 21.516 15.4817C21.4251 15.5725 21.3019 15.6236 21.1735 15.6236H15.0304C14.9103 15.6122 14.7988 15.5565 14.7177 15.4674C14.6365 15.3782 14.5916 15.262 14.5916 15.1414C14.5916 15.0208 14.6365 14.9046 14.7177 14.8154C14.7988 14.7263 14.9103 14.6706 15.0304 14.6592V14.6549ZM23.1136 27.2612H15.0304C14.9063 27.2545 14.7895 27.2005 14.7041 27.1102C14.6186 27.02 14.571 26.9005 14.571 26.7762C14.571 26.6519 14.6186 26.5324 14.7041 26.4422C14.7895 26.352 14.9063 26.2979 15.0304 26.2912H23.1136C23.2428 26.2912 23.3667 26.3425 23.4581 26.4339C23.5494 26.5252 23.6008 26.6491 23.6008 26.7783C23.6008 26.9076 23.5494 27.0315 23.4581 27.1228C23.3667 27.2142 23.2428 27.2655 23.1136 27.2655V27.2612ZM23.1136 17.5637H15.0304C14.9018 17.564 14.7786 17.6154 14.6878 17.7064C14.597 17.7975 14.5461 17.9208 14.5461 18.0494V23.8725C14.5464 24.0008 14.5976 24.1238 14.6883 24.2145C14.7791 24.3053 14.902 24.3564 15.0304 24.3568H23.1136C23.2418 24.3564 23.3646 24.3052 23.4551 24.2145C23.5456 24.1237 23.5965 24.0007 23.5965 23.8725V18.0537C23.5957 17.926 23.5446 17.8037 23.4541 17.7136C23.3637 17.6234 23.2413 17.5726 23.1136 17.5722V17.5637ZM15.5161 23.3868V18.5294H22.6279V23.3868H15.5161Z" fill="white"/>
</g>
<defs>
<clipPath id="clip0_2_3098">
<rect width="32" height="32" fill="white"/>
</clipPath>
</defs>
</svg>
