<svg width="91" height="91" viewBox="0 0 91 91" fill="none" xmlns="http://www.w3.org/2000/svg">
<g clip-path="url(#clip0_489_5710)">
<path d="M89.6668 88.334H83.8496C84.93 85.9372 85.7099 83.5178 86.1717 81.1167C86.3107 80.3939 85.8374 79.695 85.1143 79.5561C84.3913 79.4178 83.6926 79.8904 83.5537 80.6134C83.0612 83.1742 82.1707 85.7677 80.9033 88.3338H75.2242V86.2813C75.2242 85.545 74.6275 84.9483 73.8911 84.9483C73.1548 84.9483 72.5581 85.545 72.5581 86.2813V88.3338H66.879C64.8923 84.312 63.844 80.2537 63.7612 76.2589C63.7162 74.0932 63.9565 71.9092 64.4741 69.7229H83.3077C83.7687 71.6702 84.0101 73.6151 84.0245 75.5451C84.03 76.2779 84.6257 76.8682 85.3573 76.8682H85.3674C86.1038 76.8627 86.696 76.2614 86.6905 75.5252C86.6757 73.5419 86.4447 71.5484 86.0046 69.556C86.4146 69.3287 86.6924 68.8918 86.6924 68.3897C86.6924 67.6534 86.0958 67.0567 85.3594 67.0567H85.3415C84.8515 65.4749 84.2308 63.8968 83.4765 62.3283C82.9771 61.29 81.9509 60.591 80.808 60.4841V58.4036C80.808 56.7908 79.5093 55.4777 77.903 55.4503V6.74483C77.903 3.02574 74.8774 0.000177734 71.1583 0.000177734L21.1822 0C17.4631 0 14.4373 3.02557 14.4373 6.74465V9.53152H10.2458C8.57762 9.53152 7.22062 10.8887 7.22062 12.5567V16.5197C6.81806 16.7491 6.54594 17.1814 6.54594 17.678C6.54594 18.1745 6.81788 18.6068 7.22062 18.8363V51.9684C4.9131 55.3201 3.56001 59.3774 3.56001 63.7452V67.4188H2.68823C1.95188 67.4188 1.35522 68.0154 1.35522 68.7518C1.35522 69.4881 1.95188 70.0848 2.68823 70.0848H3.56001V77.2725C3.56001 78.0089 4.15667 78.6055 4.89302 78.6055C5.62937 78.6055 6.22602 78.0089 6.22602 77.2725V70.0848H42.5346V88.3342H30.9766V80.9881C30.9766 79.6737 29.9071 78.6045 28.593 78.6045H20.1678C18.8535 78.6045 17.7842 79.6739 17.7842 80.9881V88.3342H6.22602V82.6024C6.22602 81.8661 5.62937 81.2694 4.89302 81.2694C4.15667 81.2694 3.56001 81.8661 3.56001 82.6024V88.3342H1.33301C0.596653 88.3342 0 88.9308 0 89.6672C0 90.4035 0.596653 91.0002 1.33301 91.0002H89.6668C90.4032 91.0002 90.9998 90.4035 90.9998 89.6672C90.9998 88.9308 90.4032 88.334 89.6668 88.334ZM20.4501 81.2703H28.3105V88.3338H20.4501V81.2703ZM70.2049 55.4479H69.9298C68.3 55.4479 66.9739 56.7739 66.9739 58.4038V60.4843C65.8311 60.5913 64.8048 61.2903 64.3054 62.3287C63.5492 63.9016 62.9299 65.4781 62.4412 67.0571H62.4227C61.6863 67.0571 61.0897 67.6537 61.0897 68.3901C61.0897 68.8927 61.368 69.3301 61.7789 69.5571C61.5795 70.4641 61.4243 71.3716 61.3129 72.2794H56.1906C56.1892 67.5606 56.1903 35.8598 56.1906 25.9454C56.5932 25.716 56.8651 25.2837 56.8651 24.7873C56.8651 24.2909 56.5932 23.8585 56.1906 23.6292V19.6663C56.1906 17.9981 54.8333 16.6411 53.1652 16.6411H49.1906V13.1237C49.1906 11.7983 50.2687 10.72 51.5941 10.72H67.8013C69.1266 10.72 70.2049 11.7983 70.2049 13.1237V55.4479ZM42.19 26.1203H53.5243V35.6136H42.19V26.1203ZM42.19 38.2796H53.5243V47.8279H42.19V38.2796ZM53.1649 19.3069C53.363 19.3069 53.5243 19.4681 53.5243 19.6661V23.4541H42.19V19.6661C42.19 19.4681 42.3512 19.3069 42.5492 19.3069H53.1649ZM39.524 35.365H23.933V33.5366H39.524V35.365ZM21.2207 23.4021H18.2184C17.4821 23.4021 16.8854 23.9987 16.8854 24.7351C16.8854 25.4714 17.4821 26.0681 18.2184 26.0681H21.2207V35.6163H9.88646V26.0681H12.8887C13.6251 26.0681 14.2217 25.4714 14.2217 24.7351C14.2217 23.9987 13.6251 23.4021 12.8887 23.4021H9.88646V19.011H21.2207V23.4021ZM21.2207 38.2823V43.1643C16.8494 43.8326 12.9222 45.8662 9.88646 48.8136V38.2823H21.2207ZM23.8867 38.031H39.5009C39.501 38.3011 39.4952 50.2355 39.5241 49.4726C35.7251 45.4439 30.3417 42.9249 24.3803 42.9249C24.2154 42.9249 24.051 42.9274 23.8869 42.9311V38.031H23.8867ZM42.19 50.4939H53.5243V62.8185H45.1787C45.0206 59.2267 43.9492 55.868 42.19 52.9708V50.4939ZM46.0722 70.0846C46.8086 70.0846 47.4052 69.488 47.4052 68.7516C47.4052 68.0153 46.8086 67.4186 46.0722 67.4186H45.2006V65.4843H53.5244V72.2793H45.2006V70.0844H46.0722V70.0846ZM45.2006 74.9455H61.1121C61.0947 75.567 61.0979 76.1885 61.1218 76.8099H45.2008V74.9455H45.2006ZM61.3502 79.4759C61.7443 82.4346 62.6049 85.39 63.9331 88.334H56.1904V79.4759H61.3502ZM81.0741 63.4839C81.6451 64.6717 82.1321 65.8638 82.5384 67.0571H65.2447C65.651 65.864 66.1368 64.6723 66.708 63.4841C66.8102 63.2717 67.0343 63.1343 67.2789 63.1343H80.5034C80.7479 63.1343 80.9719 63.2715 81.0741 63.4839ZM78.1422 58.4038V60.4683H69.6399V58.4038C69.6399 58.244 69.7699 58.1139 69.9298 58.1139H77.8525C78.0121 58.1139 78.1422 58.2438 78.1422 58.4038ZM17.1033 6.74465C17.1033 4.49578 18.9331 2.66601 21.1822 2.66601L71.1585 2.66619C73.4074 2.66619 75.2371 4.49596 75.2371 6.74483V55.4477H72.871V13.1237C72.871 10.3281 70.5967 8.05402 67.8013 8.05402H51.5941C48.7987 8.05402 46.5246 10.3283 46.5246 13.1237V16.6409H42.5497C40.8815 16.6409 39.5245 17.9981 39.5245 19.6661V23.629C39.1219 23.8585 38.8498 24.2907 38.8498 24.7873C38.8498 25.2839 39.1217 25.7162 39.5245 25.9456V30.8708H23.9335C23.9082 21.4626 23.9719 35.2527 23.8871 18.8363C24.2897 18.6068 24.5618 18.1745 24.5618 17.678C24.5618 17.1814 24.2898 16.7491 23.8871 16.5197V12.5567C23.8871 10.8885 22.5299 9.53152 20.8619 9.53152H17.1033V6.74465ZM10.2458 12.1975H20.8615C21.0595 12.1975 21.2207 12.3587 21.2207 12.5567V16.3448H9.88646V12.5567C9.88646 12.3587 10.0478 12.1975 10.2458 12.1975ZM6.22602 67.4186V63.745C6.22602 53.7349 14.37 45.5907 24.3805 45.5907C34.3906 45.5907 42.5348 53.7347 42.5348 63.745V67.4186H6.22602ZM45.2006 79.4759H53.5244V88.334H45.2006V79.4759Z" fill="white"/>
<path d="M24.3805 52.1646C23.1181 52.1646 21.9397 53.0756 21.0624 54.7302C20.4293 55.9238 20.0205 57.3899 20.0205 58.4656C20.0205 60.8698 21.9765 62.8258 24.3805 62.8258C26.7847 62.8258 28.7407 60.8698 28.7407 58.4656C28.7407 57.3899 28.3317 55.9238 27.6988 54.7302C26.8215 53.0756 25.6431 52.1646 24.3805 52.1646ZM24.3805 60.1596C23.4463 60.1596 22.6865 59.3996 22.6865 58.4654C22.6865 57.0178 23.8528 54.913 24.3748 54.8302C24.9084 54.9129 26.0747 57.0176 26.0747 58.4654C26.0749 59.3996 25.3147 60.1596 24.3805 60.1596Z" fill="white"/>
</g>
<defs>
<clipPath id="clip0_489_5710">
<rect width="91" height="91" fill="white"/>
</clipPath>
</defs>
</svg>
