<svg width="30" height="30" viewBox="0 0 30 30" fill="none" xmlns="http://www.w3.org/2000/svg">
<g clip-path="url(#clip0_78_5238)">
<path d="M12.5 23.5H1.5C1.23503 23.4992 0.981133 23.3936 0.793767 23.2062C0.606402 23.0189 0.500791 22.765 0.5 22.5V1.5C0.500791 1.23503 0.606402 0.981133 0.793767 0.793767C0.981133 0.606402 1.23503 0.500791 1.5 0.5H16.5C16.765 0.500791 17.0189 0.606402 17.2062 0.793767C17.3936 0.981133 17.4992 1.23503 17.5 1.5V12.5L12.5 23.5Z" fill="#D4E6E7"/>
<path d="M27.5 12.5H14.5C13.3954 12.5 12.5 13.3954 12.5 14.5V27.5C12.5 28.6046 13.3954 29.5 14.5 29.5H27.5C28.6046 29.5 29.5 28.6046 29.5 27.5V14.5C29.5 13.3954 28.6046 12.5 27.5 12.5Z" fill="#033750"/>
<path d="M19.5 2.5H6.5C5.94772 2.5 5.5 2.94772 5.5 3.5V9.5C5.5 10.0523 5.94772 10.5 6.5 10.5H19.5C20.0523 10.5 20.5 10.0523 20.5 9.5V3.5C20.5 2.94772 20.0523 2.5 19.5 2.5Z" fill="#B1854F"/>
<path d="M26.5 24C26.3674 24 26.2402 24.0527 26.1464 24.1464C26.0527 24.2402 26 24.3674 26 24.5V26.5H16V24.5C16 24.3674 15.9473 24.2402 15.8536 24.1464C15.7598 24.0527 15.6326 24 15.5 24C15.3674 24 15.2402 24.0527 15.1464 24.1464C15.0527 24.2402 15 24.3674 15 24.5V26.5C15 26.7652 15.1054 27.0196 15.2929 27.2071C15.4804 27.3946 15.7348 27.5 16 27.5H26C26.2652 27.5 26.5196 27.3946 26.7071 27.2071C26.8946 27.0196 27 26.7652 27 26.5V24.5C27 24.3674 26.9473 24.2402 26.8536 24.1464C26.7598 24.0527 26.6326 24 26.5 24Z" fill="white"/>
<path d="M20.6462 24.8535C20.74 24.9472 20.8671 24.9999 20.9997 24.9999C21.1323 24.9999 21.2595 24.9472 21.3532 24.8535L22.8532 23.3535C22.9443 23.2592 22.9947 23.1329 22.9936 23.0018C22.9924 22.8707 22.9398 22.7453 22.8471 22.6526C22.7544 22.5599 22.629 22.5073 22.4979 22.5062C22.3668 22.505 22.2405 22.5554 22.1462 22.6465L21.4997 23.293V15C21.4997 14.8674 21.447 14.7402 21.3533 14.6464C21.2595 14.5527 21.1323 14.5 20.9997 14.5C20.8671 14.5 20.7399 14.5527 20.6462 14.6464C20.5524 14.7402 20.4997 14.8674 20.4997 15V23.293L19.8532 22.6465C19.7589 22.5554 19.6326 22.505 19.5015 22.5062C19.3704 22.5073 19.245 22.5599 19.1523 22.6526C19.0596 22.7453 19.007 22.8707 19.0059 23.0018C19.0047 23.1329 19.0551 23.2592 19.1462 23.3535L20.6462 24.8535Z" fill="white"/>
<path d="M9 4H8C7.86739 4 7.74021 4.05268 7.64645 4.14645C7.55268 4.24021 7.5 4.36739 7.5 4.5V8.5C7.5 8.63261 7.55268 8.75979 7.64645 8.85355C7.74021 8.94732 7.86739 9 8 9C8.13261 9 8.25979 8.94732 8.35355 8.85355C8.44732 8.75979 8.5 8.63261 8.5 8.5V7H9C9.39782 7 9.77936 6.84197 10.0607 6.56066C10.342 6.27936 10.5 5.89783 10.5 5.5C10.5 5.10218 10.342 4.72064 10.0607 4.43934C9.77936 4.15804 9.39782 4 9 4ZM9 6H8.5V5H9C9.13261 5 9.25979 5.05268 9.35355 5.14645C9.44732 5.24022 9.5 5.36739 9.5 5.5C9.5 5.63261 9.44732 5.75979 9.35355 5.85355C9.25979 5.94732 9.13261 6 9 6Z" fill="white"/>
<path d="M13 4H12C11.8674 4 11.7402 4.05268 11.6464 4.14645C11.5527 4.24021 11.5 4.36739 11.5 4.5V8.5C11.5 8.63261 11.5527 8.75979 11.6464 8.85355C11.7402 8.94732 11.8674 9 12 9H13C13.3978 9 13.7794 8.84197 14.0607 8.56066C14.342 8.27936 14.5 7.89783 14.5 7.5V5.5C14.5 5.10218 14.342 4.72064 14.0607 4.43934C13.7794 4.15804 13.3978 4 13 4ZM13.5 7.5C13.5 7.63261 13.4473 7.75979 13.3536 7.85355C13.2598 7.94732 13.1326 8 13 8H12.5V5H13C13.1326 5 13.2598 5.05268 13.3536 5.14645C13.4473 5.24022 13.5 5.36739 13.5 5.5V7.5Z" fill="white"/>
<path d="M18 4H16C15.8674 4 15.7402 4.05268 15.6464 4.14645C15.5527 4.24021 15.5 4.36739 15.5 4.5V8.5C15.5 8.63261 15.5527 8.75979 15.6464 8.85355C15.7402 8.94732 15.8674 9 16 9C16.1326 9 16.2598 8.94732 16.3536 8.85355C16.4473 8.75979 16.5 8.63261 16.5 8.5V7H17.5C17.6326 7 17.7598 6.94732 17.8536 6.85355C17.9473 6.75979 18 6.63261 18 6.5C18 6.36739 17.9473 6.24022 17.8536 6.14645C17.7598 6.05268 17.6326 6 17.5 6H16.5V5H18C18.1326 5 18.2598 4.94732 18.3536 4.85355C18.4473 4.75979 18.5 4.63261 18.5 4.5C18.5 4.36739 18.4473 4.24021 18.3536 4.14645C18.2598 4.05268 18.1326 4 18 4Z" fill="white"/>
<path d="M10 13.5H3C2.86739 13.5 2.74021 13.4473 2.64645 13.3536C2.55268 13.2598 2.5 13.1326 2.5 13C2.5 12.8674 2.55268 12.7402 2.64645 12.6464C2.74021 12.5527 2.86739 12.5 3 12.5H10C10.1326 12.5 10.2598 12.5527 10.3536 12.6464C10.4473 12.7402 10.5 12.8674 10.5 13C10.5 13.1326 10.4473 13.2598 10.3536 13.3536C10.2598 13.4473 10.1326 13.5 10 13.5Z" fill="#86A9AF"/>
<path d="M10 17H3C2.86739 17 2.74021 16.9473 2.64645 16.8536C2.55268 16.7598 2.5 16.6326 2.5 16.5C2.5 16.3674 2.55268 16.2402 2.64645 16.1464C2.74021 16.0527 2.86739 16 3 16H10C10.1326 16 10.2598 16.0527 10.3536 16.1464C10.4473 16.2402 10.5 16.3674 10.5 16.5C10.5 16.6326 10.4473 16.7598 10.3536 16.8536C10.2598 16.9473 10.1326 17 10 17Z" fill="#86A9AF"/>
<path d="M10 20.5H3C2.86739 20.5 2.74021 20.4473 2.64645 20.3536C2.55268 20.2598 2.5 20.1326 2.5 20C2.5 19.8674 2.55268 19.7402 2.64645 19.6464C2.74021 19.5527 2.86739 19.5 3 19.5H10C10.1326 19.5 10.2598 19.5527 10.3536 19.6464C10.4473 19.7402 10.5 19.8674 10.5 20C10.5 20.1326 10.4473 20.2598 10.3536 20.3536C10.2598 20.4473 10.1326 20.5 10 20.5Z" fill="#86A9AF"/>
</g>
<defs>
<clipPath id="clip0_78_5238">
<rect width="30" height="30" fill="white"/>
</clipPath>
</defs>
</svg>
