<svg width="42" height="42" viewBox="0 0 42 42" fill="none" xmlns="http://www.w3.org/2000/svg">
<g clip-path="url(#clip0_2_2684)">
<path d="M36.8812 12.4329L38.3227 10.4224C38.4133 10.296 38.456 10.1415 38.4433 9.98654C38.4306 9.83155 38.3633 9.68611 38.2533 9.57614C38.1434 9.46617 37.9979 9.39883 37.8429 9.38611C37.688 9.37339 37.5335 9.41612 37.4071 9.50669L35.435 10.9206C32.4541 8.09946 28.7119 6.21363 24.6709 5.4962C20.6299 4.77877 16.4673 5.26117 12.6975 6.8838C8.92767 8.50642 5.71596 11.1981 3.45932 14.6262C1.20268 18.0543 2.47585e-05 22.0686 0 26.1727C0 26.3468 0.0691404 26.5137 0.192211 26.6368C0.315282 26.7598 0.482202 26.829 0.65625 26.829H7.65663C7.83068 26.829 7.9976 26.7598 8.12067 26.6368C8.24374 26.5137 8.31288 26.3468 8.31288 26.1727C8.31288 19.177 14.0043 13.486 21 13.486C23.6832 13.4872 26.2971 14.338 28.4669 15.9165L24.8391 18.5173C22.7694 17.6083 20.4448 17.4615 18.2773 18.1031C16.1098 18.7447 14.2395 20.133 12.9981 22.0221C11.7566 23.9111 11.2243 26.1788 11.4953 28.4229C11.7664 30.667 12.8234 32.7427 14.479 34.2818C16.1345 35.8209 18.2816 36.724 20.5395 36.831C22.7974 36.938 25.0203 36.2419 26.8139 34.8663C28.6076 33.4906 29.8561 31.5242 30.3382 29.3158C30.8203 27.1074 30.5047 24.7995 29.4475 22.8016L31.8024 19.5169C33.0399 21.516 33.6929 23.8216 33.6874 26.1727C33.6874 26.3468 33.7565 26.5137 33.8796 26.6368C34.0026 26.7598 34.1696 26.829 34.3436 26.829H41.3437C41.5178 26.829 41.6847 26.7598 41.8078 26.6368C41.9309 26.5137 42 26.3468 42 26.1727C42.0049 21.1257 40.1872 16.2466 36.8812 12.4329ZM7.01556 25.5165H1.32325C1.46065 21.2813 2.96778 17.2048 5.61848 13.8988L9.67386 17.9543C8.06548 20.1599 7.14105 22.7896 7.01556 25.5165ZM10.5 16.9242L6.47423 12.8984C8.24134 10.9592 10.3791 9.39362 12.7612 8.29415C15.1433 7.19468 17.7216 6.5836 20.3437 6.49697V12.1884C18.469 12.2762 16.6312 12.7408 14.9399 13.5545C13.2486 14.3681 11.7386 15.5142 10.5 16.9242ZM21.6562 12.189V6.49697C26.3763 6.64081 30.8844 8.48954 34.3465 11.701L29.5846 15.115C27.3058 13.3472 24.5371 12.3254 21.6562 12.189ZM21 35.5151C19.3692 35.5151 17.7749 35.0315 16.4189 34.1255C15.063 33.2195 14.0061 31.9317 13.382 30.425C12.7579 28.9183 12.5946 27.2604 12.9127 25.6609C13.2309 24.0614 14.0162 22.5921 15.1694 21.439C16.3226 20.2858 17.7918 19.5005 19.3913 19.1823C20.9908 18.8642 22.6487 19.0275 24.1554 19.6516C25.6621 20.2757 26.9499 21.3325 27.8559 22.6885C28.762 24.0445 29.2456 25.6387 29.2455 27.2696C29.2431 29.4557 28.3735 31.5515 26.8277 33.0973C25.2819 34.6431 23.1861 35.5126 21 35.5151ZM26.1287 19.2073L34.9365 12.8927L28.6919 21.6026C27.9913 20.6541 27.1225 19.8422 26.1287 19.2073ZM34.9846 25.5165C34.8709 22.9625 34.0539 20.4896 32.6238 18.3706L36.0928 13.532C38.9201 16.9007 40.5343 21.1212 40.6765 25.5168L34.9846 25.5165ZM21 26.9043C21.6263 26.9043 22.2384 26.7186 22.7592 26.3707C23.2799 26.0227 23.6857 25.5282 23.9254 24.9496C24.165 24.371 24.2277 23.7344 24.1056 23.1201C23.9834 22.5059 23.6818 21.9417 23.239 21.4989C22.7962 21.0561 22.232 20.7545 21.6177 20.6323C21.0035 20.5101 20.3669 20.5728 19.7883 20.8125C19.2097 21.0522 18.7152 21.458 18.3672 21.9787C18.0193 22.4994 17.8336 23.1116 17.8336 23.7379C17.8346 24.5774 18.1685 25.3822 18.7621 25.9758C19.3557 26.5694 20.1605 26.9033 21 26.9043ZM21 21.884C21.3667 21.884 21.7251 21.9927 22.03 22.1964C22.3348 22.4001 22.5725 22.6897 22.7128 23.0284C22.8531 23.3672 22.8898 23.7399 22.8183 24.0996C22.7467 24.4592 22.5702 24.7895 22.3109 25.0488C22.0516 25.3081 21.7213 25.4846 21.3617 25.5562C21.0021 25.6277 20.6293 25.591 20.2905 25.4507C19.9518 25.3104 19.6622 25.0727 19.4585 24.7679C19.2548 24.463 19.1461 24.1046 19.1461 23.7379C19.1466 23.2463 19.3421 22.7751 19.6897 22.4275C20.0372 22.0799 20.5085 21.8846 21 21.884ZM21 27.1706C19.5994 27.1722 18.2566 27.7293 17.2663 28.7196C16.2759 29.71 15.7188 31.0528 15.7172 32.4534C15.7172 32.6274 15.7863 32.7943 15.9094 32.9174C16.0325 33.0405 16.1994 33.1096 16.3734 33.1096H25.6266C25.8006 33.1096 25.9675 33.0405 26.0906 32.9174C26.2137 32.7943 26.2828 32.6274 26.2828 32.4534C26.2812 31.0528 25.7242 29.7099 24.7338 28.7195C23.7434 27.7291 22.4006 27.1722 21 27.1706ZM17.0838 31.7971C17.2392 30.8708 17.7178 30.0295 18.4348 29.4227C19.1518 28.816 20.0607 28.483 21 28.483C21.9392 28.483 22.8481 28.816 23.5651 29.4227C24.2821 30.0295 24.7608 30.8708 24.9161 31.7971H17.0838Z" fill="white"/>
</g>
<defs>
<clipPath id="clip0_2_2684">
<rect width="42" height="42" fill="white"/>
</clipPath>
</defs>
</svg>
