<svg width="29" height="29" viewBox="0 0 29 29" fill="none" xmlns="http://www.w3.org/2000/svg">
<g clip-path="url(#clip0_491_27271)">
<path d="M22.9195 17.9648C22.3258 17.3466 21.6097 17.0161 20.8508 17.0161C20.0979 17.0161 19.3757 17.3405 18.7575 17.9587L16.8234 19.8867C16.6642 19.801 16.5051 19.7214 16.3521 19.6418C16.1317 19.5317 15.9236 19.4276 15.7461 19.3174C13.9344 18.1668 12.288 16.6672 10.7088 14.727C9.94376 13.7599 9.42962 12.9458 9.05626 12.1196C9.55816 11.6605 10.0233 11.1831 10.4763 10.7241C10.6476 10.5527 10.819 10.3752 10.9904 10.2038C12.2757 8.91846 12.2757 7.25364 10.9904 5.96831L9.31945 4.29737C9.12971 4.10763 8.93385 3.91177 8.75023 3.71591C8.38299 3.33643 7.99739 2.94471 7.59955 2.57747C7.00585 1.98989 6.29585 1.67773 5.54913 1.67773C4.80241 1.67773 4.08018 1.98989 3.46811 2.57747C3.46199 2.58359 3.46199 2.58359 3.45587 2.58971L1.37485 4.68909C0.591408 5.47254 0.1446 6.42736 0.0466699 7.5352C-0.100226 9.32242 0.42615 10.9872 0.830113 12.0767C1.82166 14.7514 3.30286 17.2303 5.51241 19.8867C8.19325 23.0878 11.4188 25.6156 15.1035 27.3967C16.5112 28.0638 18.3903 28.8534 20.4896 28.9881C20.6182 28.9942 20.7528 29.0003 20.8752 29.0003C22.2891 29.0003 23.4765 28.4923 24.4069 27.4824C24.413 27.4701 24.4252 27.464 24.4313 27.4518C24.7496 27.0662 25.1168 26.7173 25.5024 26.3439C25.7656 26.093 26.0349 25.8298 26.2981 25.5544C26.9041 24.924 27.2223 24.1895 27.2223 23.4366C27.2223 22.6777 26.898 21.9493 26.2798 21.3373L22.9195 17.9648ZM25.1107 24.4098C25.1046 24.4098 25.1046 24.4159 25.1107 24.4098C24.872 24.6669 24.6272 24.8995 24.364 25.1565C23.9662 25.536 23.5622 25.9339 23.1827 26.3807C22.5645 27.0417 21.8362 27.3539 20.8814 27.3539C20.7895 27.3539 20.6916 27.3539 20.5998 27.3477C18.782 27.2314 17.0927 26.5214 15.8257 25.9155C12.3614 24.2384 9.31945 21.8575 6.79162 18.84C4.70448 16.3244 3.30898 13.9986 2.38476 11.5014C1.81554 9.97733 1.60744 8.78993 1.69924 7.66985C1.76045 6.95373 2.03588 6.36003 2.54389 5.85202L4.63104 3.76488C4.93095 3.48333 5.24922 3.33031 5.56137 3.33031C5.94698 3.33031 6.25913 3.56289 6.45499 3.75875C6.46111 3.76488 6.46723 3.771 6.47335 3.77712C6.84671 4.12599 7.20171 4.48711 7.57507 4.87271C7.76481 5.06857 7.96067 5.26443 8.15653 5.46642L9.82747 7.13735C10.4763 7.78614 10.4763 8.38597 9.82747 9.03475C9.64997 9.21225 9.47859 9.38975 9.30109 9.56113C8.78696 10.0875 8.2973 10.5772 7.76481 11.0546C7.75257 11.0668 7.74032 11.0729 7.7342 11.0852C7.20783 11.6115 7.30576 12.1257 7.41593 12.4746C7.42205 12.4929 7.42817 12.5113 7.43429 12.5296C7.86886 13.5824 8.48092 14.5739 9.41126 15.7552L9.41738 15.7613C11.1067 17.8424 12.8878 19.4643 14.8525 20.7068C15.1035 20.866 15.3605 20.9945 15.6054 21.1169C15.8257 21.2271 16.0338 21.3311 16.2113 21.4413C16.2358 21.4536 16.2603 21.4719 16.2847 21.4842C16.4929 21.5882 16.6887 21.6372 16.8907 21.6372C17.3987 21.6372 17.717 21.3189 17.821 21.2148L19.9143 19.1216C20.1224 18.9135 20.4529 18.6625 20.8385 18.6625C21.218 18.6625 21.5301 18.9012 21.7199 19.1093C21.726 19.1155 21.726 19.1155 21.7321 19.1216L25.1046 22.4941C25.735 23.1184 25.735 23.761 25.1107 24.4098Z" fill="#fff"/>
<path d="M15.6723 6.89794C17.2759 7.16725 18.7327 7.92621 19.8956 9.08914C21.0585 10.2521 21.8113 11.7088 22.0868 13.3124C22.1541 13.7163 22.503 13.9979 22.9008 13.9979C22.9498 13.9979 22.9926 13.9918 23.0416 13.9857C23.4945 13.9122 23.7944 13.4838 23.721 13.0308C23.3905 11.0906 22.4724 9.32172 21.0707 7.92009C19.6691 6.51846 17.9002 5.60037 15.96 5.26985C15.5071 5.1964 15.0847 5.49632 15.0052 5.94312C14.9256 6.38993 15.2194 6.8245 15.6723 6.89794Z" fill="#fff"/>
<path d="M28.9672 12.7925C28.4225 9.59753 26.9168 6.69022 24.6032 4.37662C22.2896 2.06301 19.3823 0.557335 16.1873 0.0125972C15.7405 -0.0669712 15.3182 0.239061 15.2386 0.685869C15.1651 1.1388 15.4651 1.56112 15.918 1.64069C18.7702 2.12422 21.3715 3.47688 23.4403 5.53954C25.509 7.60832 26.8556 10.2096 27.3391 13.0618C27.4064 13.4658 27.7553 13.7473 28.1532 13.7473C28.2021 13.7473 28.245 13.7412 28.2939 13.7351C28.7407 13.6678 29.0468 13.2393 28.9672 12.7925Z" fill="#fff"/>
</g>
<defs>
<clipPath id="clip0_491_27271">
<rect width="29" height="29" fill="white"/>
</clipPath>
</defs>
</svg>
