<svg width="29" height="29" viewBox="0 0 29 29" fill="none" xmlns="http://www.w3.org/2000/svg">
<g clip-path="url(#clip0_464_14812)">
<path d="M22.9195 17.9644C22.3258 17.3462 21.6097 17.0157 20.8508 17.0157C20.0979 17.0157 19.3757 17.3401 18.7575 17.9583L16.8234 19.8863C16.6642 19.8006 16.5051 19.721 16.3521 19.6415C16.1317 19.5313 15.9236 19.4272 15.7461 19.3171C13.9344 18.1664 12.288 16.6668 10.7088 14.7266C9.94376 13.7595 9.42962 12.9455 9.05626 12.1192C9.55816 11.6601 10.0233 11.1827 10.4763 10.7237C10.6476 10.5523 10.819 10.3748 10.9904 10.2034C12.2757 8.91809 12.2757 7.25328 10.9904 5.96794L9.31945 4.29701C9.12971 4.10727 8.93385 3.91141 8.75023 3.71554C8.38299 3.33606 7.99739 2.94434 7.59955 2.5771C7.00585 1.98952 6.29585 1.67737 5.54913 1.67737C4.80241 1.67737 4.08018 1.98952 3.46811 2.5771C3.46199 2.58322 3.46199 2.58322 3.45587 2.58934L1.37485 4.68873C0.591408 5.47217 0.1446 6.42699 0.0466699 7.53483C-0.100226 9.32206 0.42615 10.9869 0.830113 12.0763C1.82166 14.7511 3.30285 17.2299 5.51241 19.8863C8.19325 23.0874 11.4188 25.6152 15.1035 27.3963C16.5112 28.0635 18.3903 28.853 20.4896 28.9877C20.6182 28.9938 20.7528 28.9999 20.8752 28.9999C22.2891 28.9999 23.4765 28.4919 24.4069 27.482C24.413 27.4698 24.4252 27.4637 24.4313 27.4514C24.7496 27.0658 25.1168 26.7169 25.5024 26.3436C25.7656 26.0926 26.0349 25.8294 26.2981 25.554C26.9041 24.9236 27.2223 24.1891 27.2223 23.4363C27.2223 22.6773 26.898 21.949 26.2798 21.3369L22.9195 17.9644ZM25.1107 24.4095C25.1046 24.4156 25.1046 24.4095 25.1107 24.4095C24.872 24.6665 24.6272 24.8991 24.364 25.1562C23.9662 25.5357 23.5622 25.9335 23.1827 26.3803C22.5645 27.0413 21.8362 27.3535 20.8814 27.3535C20.7895 27.3535 20.6916 27.3535 20.5998 27.3474C18.782 27.2311 17.0927 26.5211 15.8257 25.9151C12.3614 24.2381 9.31945 21.8571 6.79162 18.8397C4.70448 16.3241 3.30898 13.9982 2.38476 11.501C1.81554 9.97697 1.60744 8.78956 1.69924 7.66948C1.76045 6.95337 2.03588 6.35966 2.54389 5.85165L4.63104 3.76451C4.93095 3.48296 5.24922 3.32994 5.56137 3.32994C5.94698 3.32994 6.25913 3.56253 6.45499 3.75839C6.46111 3.76451 6.46723 3.77063 6.47335 3.77675C6.84671 4.12563 7.20171 4.48675 7.57507 4.87235C7.76481 5.06821 7.96067 5.26407 8.15653 5.46605L9.82747 7.13699C10.4763 7.78578 10.4763 8.3856 9.82747 9.03439C9.64997 9.21189 9.47859 9.38938 9.30109 9.56076C8.78696 10.0871 8.2973 10.5768 7.76481 11.0542C7.75257 11.0664 7.74033 11.0726 7.7342 11.0848C7.20783 11.6112 7.30576 12.1253 7.41593 12.4742C7.42205 12.4926 7.42817 12.5109 7.43429 12.5293C7.86886 13.582 8.48092 14.5736 9.41126 15.7549L9.41738 15.761C11.1067 17.842 12.8878 19.464 14.8525 20.7065C15.1035 20.8656 15.3605 20.9941 15.6054 21.1165C15.8257 21.2267 16.0338 21.3308 16.2113 21.4409C16.2358 21.4532 16.2603 21.4715 16.2847 21.4838C16.4929 21.5878 16.6887 21.6368 16.8907 21.6368C17.3987 21.6368 17.717 21.3185 17.821 21.2145L19.9143 19.1212C20.1224 18.9131 20.4529 18.6622 20.8385 18.6622C21.218 18.6622 21.5301 18.9009 21.7199 19.109C21.726 19.1151 21.726 19.1151 21.7321 19.1212L25.1046 22.4937C25.735 23.118 25.735 23.7607 25.1107 24.4095Z" fill="white"/>
<path d="M15.6723 6.89831C17.2759 7.16762 18.7327 7.92658 19.8956 9.0895C21.0585 10.2524 21.8113 11.7091 22.0868 13.3128C22.1541 13.7167 22.503 13.9983 22.9008 13.9983C22.9498 13.9983 22.9926 13.9921 23.0416 13.986C23.4945 13.9126 23.7944 13.4841 23.721 13.0312C23.3905 11.091 22.4724 9.32209 21.0707 7.92046C19.6691 6.51883 17.9002 5.60073 15.96 5.27022C15.5071 5.19677 15.0847 5.49668 15.0052 5.94349C14.9256 6.3903 15.2194 6.82486 15.6723 6.89831Z" fill="white"/>
<path d="M28.9672 12.7925C28.4225 9.59753 26.9168 6.69022 24.6032 4.37662C22.2896 2.06301 19.3823 0.557335 16.1873 0.0125972C15.7405 -0.0669712 15.3182 0.239061 15.2386 0.685869C15.1651 1.1388 15.4651 1.56112 15.918 1.64069C18.7702 2.12422 21.3715 3.47688 23.4403 5.53954C25.509 7.60832 26.8556 10.2096 27.3391 13.0618C27.4064 13.4658 27.7553 13.7473 28.1532 13.7473C28.2021 13.7473 28.245 13.7412 28.2939 13.7351C28.7407 13.6678 29.0468 13.2393 28.9672 12.7925Z" fill="white"/>
</g>
<defs>
<clipPath id="clip0_464_14812">
<rect width="29" height="29" fill="white"/>
</clipPath>
</defs>
</svg>
