<svg width="42" height="42" viewBox="0 0 42 42" fill="none" xmlns="http://www.w3.org/2000/svg">
<path d="M12.2884 3.52734C11.6143 3.5283 10.9681 3.79655 10.4915 4.27326C10.015 4.74997 9.74687 5.39623 9.74609 6.07031C9.74609 6.2226 9.80659 6.36866 9.91428 6.47635C10.022 6.58403 10.168 6.64453 10.3203 6.64453C10.4726 6.64453 10.6187 6.58403 10.7263 6.47635C10.834 6.36866 10.8945 6.2226 10.8945 6.07031C10.8949 5.70057 11.0419 5.34606 11.3034 5.08461C11.5648 4.82316 11.9193 4.67613 12.2891 4.67578H16.0261C16.1784 4.67578 16.3244 4.61528 16.4321 4.5076C16.5398 4.39991 16.6003 4.25385 16.6003 4.10156C16.6003 3.94927 16.5398 3.80322 16.4321 3.69553C16.3244 3.58784 16.1784 3.52734 16.0261 3.52734H12.2884Z" fill="white"/>
<path d="M19.4664 3.52734H18.4492C18.2969 3.52734 18.1509 3.58784 18.0432 3.69553C17.9355 3.80322 17.875 3.94927 17.875 4.10156C17.875 4.25385 17.9355 4.39991 18.0432 4.5076C18.1509 4.61528 18.2969 4.67578 18.4492 4.67578H19.4664C19.6187 4.67578 19.7648 4.61528 19.8724 4.5076C19.9801 4.39991 20.0406 4.25385 20.0406 4.10156C20.0406 3.94927 19.9801 3.80322 19.8724 3.69553C19.7648 3.58784 19.6187 3.52734 19.4664 3.52734Z" fill="white"/>
<path d="M16.3125 2.70703H19.4655C19.6177 2.70703 19.7638 2.64653 19.8715 2.53885C19.9792 2.43116 20.0397 2.2851 20.0397 2.13281C20.0397 1.98052 19.9792 1.83447 19.8715 1.72678C19.7638 1.61909 19.6177 1.55859 19.4655 1.55859H16.3125C16.1602 1.55859 16.0142 1.61909 15.9065 1.72678C15.7988 1.83447 15.7383 1.98052 15.7383 2.13281C15.7383 2.2851 15.7988 2.43116 15.9065 2.53885C16.0142 2.64653 16.1602 2.70703 16.3125 2.70703Z" fill="white"/>
<path d="M8.35091 6.64453C8.42638 6.64466 8.50114 6.6299 8.5709 6.6011C8.64067 6.57229 8.70406 6.53001 8.75746 6.47667C8.81086 6.42334 8.85321 6.35999 8.8821 6.29026C8.91098 6.22053 8.92582 6.14579 8.92578 6.07031C8.92674 5.17872 9.2813 4.32391 9.91169 3.6934C10.5421 3.06289 11.3968 2.70816 12.2884 2.70703H13.8043C13.9566 2.70703 14.1027 2.64653 14.2104 2.53885C14.3181 2.43116 14.3786 2.2851 14.3786 2.13281C14.3786 1.98052 14.3181 1.83447 14.2104 1.72678C14.1027 1.61909 13.9566 1.55859 13.8043 1.55859H12.2884C11.0923 1.56007 9.94569 2.03591 9.1 2.88172C8.25431 3.72753 7.77865 4.87424 7.77734 6.07031C7.7773 6.14568 7.7921 6.22031 7.8209 6.28996C7.8497 6.3596 7.89194 6.42289 7.9452 6.47621C7.99846 6.52953 8.0617 6.57184 8.13131 6.60072C8.20092 6.6296 8.27554 6.64449 8.35091 6.64453Z" fill="white"/>
<path d="M27.2266 3.52734C26.5524 3.52813 25.906 3.7963 25.4293 4.27303C24.9525 4.74976 24.6844 5.39612 24.6836 6.07031C24.6836 6.2226 24.7441 6.36866 24.8518 6.47635C24.9595 6.58403 25.1055 6.64453 25.2578 6.64453C25.4101 6.64453 25.5562 6.58403 25.6638 6.47635C25.7715 6.36866 25.832 6.2226 25.832 6.07031C25.8324 5.70057 25.9794 5.34606 26.2409 5.08461C26.5023 4.82316 26.8568 4.67613 27.2266 4.67578H28.9581C29.1104 4.67578 29.2564 4.61528 29.3641 4.5076C29.4718 4.39991 29.5323 4.25385 29.5323 4.10156C29.5323 3.94927 29.4718 3.80322 29.3641 3.69553C29.2564 3.58784 29.1104 3.52734 28.9581 3.52734H27.2266Z" fill="white"/>
<path d="M30.8047 4.10156C30.8046 4.17698 30.8195 4.25167 30.8483 4.32136C30.8772 4.39104 30.9194 4.45436 30.9728 4.50769C31.0261 4.56102 31.0894 4.60332 31.1591 4.63216C31.2288 4.661 31.3035 4.67582 31.3789 4.67578H34.4052C34.5575 4.67578 34.7035 4.61528 34.8112 4.5076C34.9189 4.39991 34.9794 4.25385 34.9794 4.10156C34.9794 3.94927 34.9189 3.80322 34.8112 3.69553C34.7035 3.58784 34.5575 3.52734 34.4052 3.52734H31.3789C31.3035 3.5273 31.2288 3.54212 31.1591 3.57097C31.0894 3.59981 31.0261 3.6421 30.9728 3.69543C30.9194 3.74876 30.8772 3.81208 30.8483 3.88177C30.8195 3.95145 30.8046 4.02614 30.8047 4.10156Z" fill="white"/>
<path d="M33.6133 2.70703H34.4044C34.5567 2.70703 34.7027 2.64653 34.8104 2.53885C34.9181 2.43116 34.9786 2.2851 34.9786 2.13281C34.9786 1.98052 34.9181 1.83447 34.8104 1.72678C34.7027 1.61909 34.5567 1.55859 34.4044 1.55859H33.6133C33.461 1.55859 33.3149 1.61909 33.2072 1.72678C33.0996 1.83447 33.0391 1.98052 33.0391 2.13281C33.0391 2.2851 33.0996 2.43116 33.2072 2.53885C33.3149 2.64653 33.461 2.70703 33.6133 2.70703Z" fill="white"/>
<path d="M23.2891 6.64453C23.4414 6.64453 23.5874 6.58403 23.6951 6.47635C23.8028 6.36866 23.8633 6.2226 23.8633 6.07031C23.8642 5.17861 24.2189 4.3237 24.8494 3.69317C25.4799 3.06264 26.3349 2.70799 27.2266 2.70703H30.455C30.6073 2.70703 30.7533 2.64653 30.861 2.53885C30.9687 2.43116 31.0292 2.2851 31.0292 2.13281C31.0292 1.98052 30.9687 1.83447 30.861 1.72678C30.7533 1.61909 30.6073 1.55859 30.455 1.55859H27.2266C26.0304 1.5599 24.8836 2.03566 24.0377 2.88148C23.1919 3.72731 22.7161 4.87413 22.7148 6.07031C22.7148 6.14573 22.7296 6.22042 22.7585 6.29011C22.7873 6.35979 22.8296 6.42311 22.8829 6.47644C22.9363 6.52977 22.9996 6.57207 23.0693 6.60091C23.139 6.62975 23.2136 6.64457 23.2891 6.64453Z" fill="white"/>
<path d="M35.9297 20.585C35.7774 20.585 35.6313 20.6455 35.5237 20.7531C35.416 20.8608 35.3555 21.0069 35.3555 21.1592V23.1279C35.3555 23.2802 35.416 23.4263 35.5237 23.534C35.6313 23.6416 35.7774 23.7021 35.9297 23.7021C36.082 23.7021 36.228 23.6416 36.3357 23.534C36.4434 23.4263 36.5039 23.2802 36.5039 23.1279V21.1592C36.5039 21.0069 36.4434 20.8608 36.3357 20.7531C36.228 20.6455 36.082 20.585 35.9297 20.585Z" fill="white"/>
<path d="M39.8672 37.3242H38.4727V16.9476L39.9358 16.7718C40.0842 16.7504 40.2184 16.6718 40.3097 16.5528C40.4009 16.4337 40.442 16.2837 40.4241 16.1348C40.4061 15.9859 40.3307 15.8499 40.2138 15.7559C40.0969 15.6619 39.9479 15.6174 39.7986 15.6319L28.1033 17.0369L27.7883 10.4298C27.8893 10.3847 27.9751 10.3113 28.0354 10.2185C28.0957 10.1257 28.1278 10.0174 28.1279 9.90674V7.93799C28.1278 7.78572 28.0672 7.63972 27.9596 7.53205C27.8519 7.42438 27.7059 7.36386 27.5536 7.36377H20.9911C20.8388 7.36377 20.6928 7.42427 20.5851 7.53195C20.4774 7.63964 20.4169 7.7857 20.4169 7.93799V9.90674C20.4167 10.0179 20.4489 10.1267 20.5094 10.2199C20.5699 10.3131 20.6562 10.3867 20.7578 10.4317L20.4002 17.9642L13.2494 18.8225L12.8517 10.4291C12.9525 10.384 13.0382 10.3107 13.0983 10.218C13.1585 10.1253 13.1905 10.0172 13.1906 9.90674V7.93799C13.1906 7.7857 13.1301 7.63964 13.0224 7.53195C12.9148 7.42427 12.7687 7.36377 12.6164 7.36377H6.05391C5.90161 7.36377 5.75556 7.42427 5.64787 7.53195C5.54019 7.63964 5.47969 7.7857 5.47969 7.93799V9.90674C5.47969 10.018 5.51207 10.127 5.5729 10.2202C5.63373 10.3134 5.72037 10.3869 5.82225 10.4317L4.77455 32.4023H4.33781C4.19029 32.4023 4.04843 32.4591 3.94164 32.5609C3.83485 32.6627 3.77133 32.8016 3.76425 32.949L3.55425 37.3242H2.13281C2.05739 37.3242 1.9827 37.339 1.91302 37.3678C1.84333 37.3967 1.78001 37.439 1.72668 37.4923C1.67335 37.5456 1.63106 37.6089 1.60222 37.6786C1.57337 37.7483 1.55855 37.823 1.55859 37.8984V39.8672C1.55855 39.9426 1.57337 40.0173 1.60222 40.087C1.63106 40.1567 1.67335 40.22 1.72668 40.2733C1.78001 40.3266 1.84333 40.3689 1.91302 40.3978C1.9827 40.4266 2.05739 40.4414 2.13281 40.4414H39.8672C39.9426 40.4414 40.0173 40.4266 40.087 40.3978C40.1567 40.3689 40.22 40.3266 40.2733 40.2733C40.3266 40.22 40.3689 40.1567 40.3978 40.087C40.4266 40.0173 40.4414 39.9426 40.4414 39.8672V37.8984C40.4414 37.823 40.4266 37.7483 40.3978 37.6786C40.3689 37.6089 40.3266 37.5456 40.2733 37.4923C40.22 37.439 40.1567 37.3967 40.087 37.3678C40.0173 37.339 39.9426 37.3242 39.8672 37.3242ZM34.1024 37.3242V31.3359C34.1024 31.1836 34.0419 31.0376 33.9342 30.9299C33.8265 30.8222 33.6804 30.7617 33.5281 30.7617H29.5906C29.5152 30.7617 29.4405 30.7765 29.3708 30.8053C29.3012 30.8342 29.2378 30.8765 29.1845 30.9298C29.1312 30.9831 29.0889 31.0464 29.06 31.1161C29.0312 31.1858 29.0164 31.2605 29.0164 31.3359V37.3242H28.1305V31.3359C28.1305 31.1836 28.07 31.0376 27.9623 30.9299C27.8546 30.8222 27.7086 30.7617 27.5563 30.7617H23.6188C23.5433 30.7617 23.4687 30.7765 23.399 30.8053C23.3293 30.8342 23.266 30.8765 23.2126 30.9298C23.1593 30.9831 23.117 31.0464 23.0882 31.1161C23.0593 31.1858 23.0445 31.2605 23.0445 31.3359V37.3242H9.90938V20.3808L37.3242 17.0861V37.3242H34.1024ZM32.9539 37.3242H30.1649V31.9101H32.9539V37.3242ZM26.982 37.3242H24.193V31.9101H26.982V37.3242ZM21.568 8.51221H26.982V9.33252H21.568V8.51221ZM21.9079 10.481H26.6411L26.9601 17.1747L21.5578 17.8241L21.9079 10.481ZM6.63009 8.51221H12.0422V9.33252H6.62813L6.63009 8.51221ZM6.97167 10.481H11.7045L12.1058 18.9597L7.29717 19.5382C7.15219 19.556 7.01942 19.6283 6.9259 19.7405C6.83238 19.8527 6.78514 19.9964 6.7938 20.1422C6.80245 20.288 6.86635 20.425 6.97249 20.5254C7.07863 20.6257 7.21902 20.6819 7.36509 20.6824C7.38823 20.6824 7.41134 20.681 7.43433 20.6784L8.76094 20.5186V32.4023H5.9243L6.97167 10.481ZM4.88512 33.5508H8.76094V37.3242H4.704L4.88512 33.5508ZM39.293 39.293H2.70703V38.4726H39.293V39.293Z" fill="white"/>
<path d="M19.8359 28.8477H13.2734C13.1211 28.8477 12.9751 28.9082 12.8674 29.0158C12.7597 29.1235 12.6992 29.2696 12.6992 29.4219C12.6992 29.5742 12.7597 29.7202 12.8674 29.8279C12.9751 29.9356 13.1211 29.9961 13.2734 29.9961H19.8359C19.9882 29.9961 20.1343 29.9356 20.242 29.8279C20.3497 29.7202 20.4102 29.5742 20.4102 29.4219C20.4102 29.2696 20.3497 29.1235 20.242 29.0158C20.1343 28.9082 19.9882 28.8477 19.8359 28.8477Z" fill="white"/>
<path d="M19.8359 24.9102H13.2734C13.1211 24.9102 12.9751 24.9707 12.8674 25.0783C12.7597 25.186 12.6992 25.3321 12.6992 25.4844C12.6992 25.6367 12.7597 25.7827 12.8674 25.8904C12.9751 25.9981 13.1211 26.0586 13.2734 26.0586H19.8359C19.9882 26.0586 20.1343 25.9981 20.242 25.8904C20.3497 25.7827 20.4102 25.6367 20.4102 25.4844C20.4102 25.3321 20.3497 25.186 20.242 25.0783C20.1343 24.9707 19.9882 24.9102 19.8359 24.9102Z" fill="white"/>
<path d="M19.8359 26.8789H13.2734C13.1211 26.8789 12.9751 26.9394 12.8674 27.0471C12.7597 27.1548 12.6992 27.3008 12.6992 27.4531C12.6992 27.6054 12.7597 27.7515 12.8674 27.8592C12.9751 27.9668 13.1211 28.0273 13.2734 28.0273H19.8359C19.9882 28.0273 20.1343 27.9668 20.242 27.8592C20.3497 27.7515 20.4102 27.6054 20.4102 27.4531C20.4102 27.3008 20.3497 27.1548 20.242 27.0471C20.1343 26.9394 19.9882 26.8789 19.8359 26.8789Z" fill="white"/>
<path d="M26.5703 25.8945H24.6016C24.5261 25.8945 24.4515 25.9093 24.3818 25.9382C24.3121 25.967 24.2488 26.0093 24.1954 26.0626C24.1421 26.1159 24.0998 26.1793 24.071 26.249C24.0421 26.3186 24.0273 26.3933 24.0273 26.4688V28.4375C24.0273 28.5129 24.0421 28.5876 24.071 28.6573C24.0998 28.727 24.1421 28.7903 24.1954 28.8436C24.2488 28.897 24.3121 28.9393 24.3818 28.9681C24.4515 28.9969 24.5261 29.0118 24.6016 29.0117H26.5703C26.7226 29.0117 26.8687 28.9512 26.9763 28.8435C27.084 28.7358 27.1445 28.5898 27.1445 28.4375V26.4688C27.1445 26.3165 27.084 26.1704 26.9763 26.0627C26.8687 25.955 26.7226 25.8945 26.5703 25.8945ZM25.9961 27.8633H25.1758V27.043H25.9961V27.8633Z" fill="white"/>
<path d="M32.543 25.8945H30.5742C30.4988 25.8945 30.4241 25.9093 30.3544 25.9382C30.2847 25.967 30.2214 26.0093 30.1681 26.0626C30.1148 26.1159 30.0725 26.1793 30.0436 26.249C30.0148 26.3186 30 26.3933 30 26.4688V28.4375C30 28.5129 30.0148 28.5876 30.0436 28.6573C30.0725 28.727 30.1148 28.7903 30.1681 28.8436C30.2214 28.897 30.2847 28.9393 30.3544 28.9681C30.4241 28.9969 30.4988 29.0118 30.5742 29.0117H32.543C32.6953 29.0117 32.8413 28.9512 32.949 28.8435C33.0567 28.7358 33.1172 28.5898 33.1172 28.4375V26.4688C33.1172 26.3165 33.0567 26.1704 32.949 26.0627C32.8413 25.955 32.6953 25.8945 32.543 25.8945ZM31.9688 27.8633H31.1484V27.043H31.9688V27.8633Z" fill="white"/>
</svg>
