<svg width="32" height="32" viewBox="0 0 32 32" fill="none" xmlns="http://www.w3.org/2000/svg">
<g clip-path="url(#clip0_1_10733)">
<path d="M31.5444 8.40312C31.5444 8.40312 31.5444 8.40312 31.5443 8.40312L31.5432 8.40206L29.4777 8.10737C29.1874 8.06602 28.9856 7.79714 29.0269 7.50683C29.0468 7.36732 29.1213 7.24148 29.234 7.15692L30.9034 5.90487C31.138 5.72892 31.1856 5.39613 31.0096 5.1615L29.0981 2.61281C28.9221 2.37819 28.5893 2.33067 28.3547 2.50662L26.6859 3.75866C26.4522 3.93594 26.1192 3.89028 25.9419 3.65665C25.8558 3.54322 25.8189 3.39992 25.8395 3.25901L26.1347 1.19351C26.1763 0.903201 25.9747 0.634195 25.6845 0.592513C25.6843 0.592513 25.6841 0.592447 25.6839 0.592447L22.532 0.142178C22.2418 0.100497 21.9726 0.302002 21.931 0.592314C21.931 0.59238 21.931 0.59238 21.931 0.592447L21.6357 2.65795C21.5944 2.94826 21.3255 3.1501 21.0352 3.10875C20.8957 3.0889 20.7698 3.01437 20.6853 2.90167L19.4338 1.23227C19.2578 0.997649 18.925 0.950126 18.6904 1.12608L17.0948 2.32343C16.3729 2.24671 15.645 2.24671 14.9231 2.32343C10.1957 2.86377 6.48848 6.63384 6.02765 11.3697C6.01332 11.52 6.00801 11.6692 6.00057 11.8184H5.84128C5.58933 11.8188 5.37236 11.9963 5.32198 12.2431L4.95508 13.9879L3.48534 12.9743C3.2744 12.8287 2.98954 12.8547 2.80834 13.0359L1.21541 14.6288C1.03448 14.81 1.00859 15.0944 1.15381 15.3053L2.16267 16.7724L0.417349 17.1393C0.173232 17.1928 -0.000529764 17.4092 1.21357e-06 17.6591V19.783C-0.000131531 20.0342 0.175821 20.2511 0.421597 20.3028L2.16692 20.6698L1.15806 22.1368C1.01284 22.3477 1.03873 22.6322 1.21966 22.8133L2.81259 24.4062C2.99378 24.5874 3.27865 24.6134 3.48958 24.4678L4.95667 23.4563L5.32358 25.2016C5.37395 25.4485 5.59092 25.626 5.84287 25.6264H7.96678C8.21793 25.6266 8.43484 25.4506 8.48661 25.2048L8.85351 23.4595L10.3206 24.4684C10.5315 24.6136 10.8159 24.5877 10.9971 24.4068L11.8217 23.5795V25.0928C11.8241 25.8482 12.2287 26.545 12.8836 26.9215V29.8716C12.8836 31.0446 13.8345 31.9955 15.0075 31.9955H17.1314C18.3044 31.9955 19.2554 31.0446 19.2554 29.8716V26.9215C19.9102 26.545 20.3149 25.8482 20.3173 25.0928V22.9912C20.3317 22.1069 20.7943 21.2905 21.5455 20.8237C21.9861 20.5379 22.404 20.2183 22.7954 19.868L22.0871 19.0768C21.7369 19.3906 21.3629 19.6766 20.9683 19.9322C19.914 20.594 19.2686 21.7464 19.2554 22.9912V25.0928C19.2554 25.6793 18.7799 26.1547 18.1934 26.1547H13.9456C13.3591 26.1547 12.8836 25.6793 12.8836 25.0928V22.9471C12.8714 21.7259 12.2361 20.5957 11.1994 19.9503C6.99091 17.3059 5.72294 11.7506 8.36734 7.54214C10.0081 4.93099 12.8715 3.34171 15.9553 3.3307C15.9474 3.34961 15.9405 3.36893 15.9346 3.38857C15.9149 3.52795 15.9514 3.66953 16.036 3.78203L17.2876 5.45089C17.4195 5.62166 17.4322 5.85622 17.3194 6.04027C17.2108 6.22545 17.0009 6.32647 16.7884 6.29567L14.7229 6.00045C14.4326 5.95883 14.1636 6.16041 14.1219 6.45065C14.1219 6.45085 14.1219 6.45105 14.1219 6.45125L13.6711 9.60472C13.6295 9.89497 13.831 10.164 14.1213 10.2057C14.1215 10.2057 14.1217 10.2058 14.1219 10.2058L16.1874 10.501C16.4777 10.5424 16.6795 10.8112 16.6382 11.1015C16.6183 11.2411 16.5438 11.3669 16.4311 11.4515L14.7622 12.703C14.5276 12.8789 14.4801 13.2117 14.656 13.4463L16.5675 15.995C16.7435 16.2297 17.0763 16.2772 17.3109 16.1012L18.9803 14.8497C19.2151 14.6741 19.5479 14.7221 19.7235 14.957C19.8076 15.0693 19.8437 15.2104 19.824 15.3494L19.5293 17.4149C19.4877 17.7051 19.6892 17.9742 19.9795 18.0159C19.9795 18.0159 19.9795 18.0159 19.9796 18.0159L23.1336 18.4667C23.1584 18.4699 23.1835 18.4715 23.2085 18.4715C23.4728 18.4718 23.6971 18.2776 23.7347 18.0159L24.0294 15.9504C24.0707 15.6601 24.3396 15.4583 24.6299 15.4996C24.7694 15.5195 24.8953 15.594 24.9798 15.7067L26.2319 17.3756C26.4078 17.6102 26.7406 17.6577 26.9752 17.4818L29.5239 15.5702C29.7585 15.3943 29.8061 15.0615 29.6301 14.8269L28.3786 13.158C28.2473 12.987 28.2346 12.7528 28.3467 12.5686C28.453 12.381 28.6649 12.2793 28.8777 12.3138L30.9432 12.6085C31.2335 12.6501 31.5026 12.4486 31.5443 12.1583C31.5443 12.1583 31.5443 12.1583 31.5443 12.1582L31.9946 9.00419C32.0362 8.71387 31.8347 8.4448 31.5444 8.40312ZM13.9456 27.2167H18.1934V28.2787H13.9456V27.2167ZM13.9456 29.3406H18.1934V29.8716C18.1934 30.4581 17.718 30.9335 17.1314 30.9335H15.0075C14.421 30.9335 13.9456 30.4581 13.9456 29.8716V29.3406ZM9.71848 20.1839C10.0084 20.421 10.3113 20.6417 10.6259 20.845C11.1276 21.162 11.5053 21.6417 11.6958 22.2037L10.5569 23.3406L9.45405 22.5802C8.97113 22.2474 8.30986 22.3691 7.977 22.8521C7.89722 22.9679 7.84121 23.0984 7.81227 23.236L7.53404 24.5618H6.2719L5.99367 23.2381C5.87287 22.6642 5.30971 22.2968 4.73579 22.4176C4.5982 22.4465 4.46771 22.5026 4.35189 22.5823L3.24852 23.3406L2.28108 22.3753L3.04091 21.2729C3.37403 20.7902 3.2527 20.1289 2.76998 19.7958C2.65409 19.7158 2.52347 19.6596 2.38568 19.6306L1.06196 19.3519V18.0903L2.38568 17.8115C2.9594 17.6898 3.32591 17.1261 3.20425 16.5524C3.17538 16.4162 3.12009 16.2871 3.04144 16.1724L2.28108 15.0669L3.24852 14.1016L4.35242 14.8619C4.83554 15.1944 5.49681 15.0723 5.82927 14.5891C5.90891 14.4734 5.9648 14.3431 5.99367 14.2056L6.08659 13.7639C6.17168 14.3757 6.31259 14.9783 6.50766 15.5644C4.76054 15.7727 3.51308 17.3579 3.72135 19.105C3.92963 20.8521 5.51486 22.0996 7.26198 21.8913C8.31371 21.7659 9.23436 21.126 9.71848 20.1839ZM8.89387 19.4358C8.49736 20.5379 7.28255 21.1099 6.18044 20.7134C5.07833 20.3169 4.50634 19.1021 4.90278 18C5.2061 17.1569 6.00661 16.5953 6.90264 16.5972C6.90954 16.5972 6.91591 16.5972 6.92281 16.5972C7.41111 17.65 8.07796 18.6104 8.89387 19.4358ZM30.5652 11.4807L29.0253 11.2608C28.1544 11.1365 27.3476 11.7417 27.2232 12.6126C27.1635 13.0308 27.2723 13.4556 27.5259 13.7936L28.4588 15.0377L26.7597 16.312L25.8262 15.0685C25.2984 14.3646 24.3 14.2218 23.5962 14.7496C23.2582 15.003 23.0347 15.3804 22.9749 15.7986L22.7598 17.3405L20.6577 17.04L20.8775 15.5002C21.0022 14.6293 20.3973 13.8222 19.5264 13.6976C19.1079 13.6376 18.6829 13.7465 18.3447 14.0001L17.1007 14.9331L15.8263 13.2339L17.0699 12.3005C17.7737 11.7727 17.9165 10.7743 17.3887 10.0705C17.1353 9.73249 16.758 9.50901 16.3398 9.44915L14.7999 9.22932L15.1005 7.12718L16.6403 7.34701C17.5112 7.47172 18.3182 6.8668 18.4429 5.99594C18.5028 5.57746 18.394 5.15241 18.1403 4.81425L17.2042 3.5691L18.9033 2.29476L19.8368 3.53884C20.3646 4.24272 21.363 4.38548 22.0668 3.85769C22.4048 3.60428 22.6283 3.22696 22.6881 2.80875L22.9079 1.26891L25.0101 1.56891L24.7903 3.10875C24.6659 3.97968 25.2711 4.7865 26.142 4.91088C26.5602 4.97062 26.9851 4.86177 27.323 4.60823L28.5671 3.6753L29.8414 5.37443L28.5974 6.30788C27.8935 6.83568 27.7507 7.83411 28.2785 8.53792C28.5319 8.87589 28.9093 9.09936 29.3275 9.15923L30.8673 9.37906L30.5652 11.4807Z" fill="white"/>
<path d="M22.832 5.05566C20.4861 5.05566 18.5842 6.95749 18.5842 9.30348C18.5842 11.6495 20.4861 13.5513 22.832 13.5513C25.178 13.5513 27.0799 11.6495 27.0799 9.30348C27.0772 6.95855 25.177 5.05825 22.832 5.05566ZM22.832 12.4893C21.0725 12.4893 19.6462 11.063 19.6462 9.30348C19.6462 7.54396 21.0725 6.11762 22.832 6.11762C24.5916 6.11762 26.0179 7.54396 26.0179 9.30348C26.0159 11.0621 24.5907 12.4873 22.832 12.4893Z" fill="white"/>
<path d="M16.6005 23.5H15.5386V25.0929H16.6005V23.5Z" fill="white"/>
<path d="M13.747 18.2853C10.4692 17.0049 8.85008 13.3097 10.1306 10.0319C10.6268 8.76178 11.5173 7.68436 12.6713 6.95798L12.1036 6.05957C8.63 8.24793 7.58802 12.8379 9.77638 16.3115C10.6239 17.6568 11.8804 18.695 13.3615 19.2735C14.6725 19.7758 15.5382 21.0342 15.5385 22.4381H16.6005C16.6022 20.5961 15.4671 18.9442 13.747 18.2853Z" fill="white"/>
<path d="M29.8748 19.7832H26.158V20.8452H29.8748V19.7832Z" fill="white"/>
<path d="M25.9671 22.5601L25.2874 23.376L28.4734 26.0304L29.1532 25.2145L25.9671 22.5601Z" fill="white"/>
<path d="M24.0341 24.0303H22.9722V27.7471H24.0341V24.0303Z" fill="white"/>
<path d="M4.78976 8.11694L0.542236 9.17871L0.799632 10.2084L5.04715 9.14663L4.78976 8.11694Z" fill="white"/>
<path d="M2.04122 2.8912L1.42432 3.75488L5.14086 6.40949L5.75776 5.54581L2.04122 2.8912Z" fill="white"/>
<path d="M7.00245 0.00453205L5.97363 0.267578L7.05962 4.51507L8.08844 4.25202L7.00245 0.00453205Z" fill="white"/>
</g>
<defs>
<clipPath id="clip0_1_10733">
<rect width="32" height="32" fill="white"/>
</clipPath>
</defs>
</svg>
