<svg width="33" height="33" viewBox="0 0 33 33" fill="none" xmlns="http://www.w3.org/2000/svg">
<path d="M13.3434 23.5039V28.3096" stroke="white" stroke-width="1.5" stroke-miterlimit="10" stroke-linecap="round" stroke-linejoin="round"/>
<mask id="mask0_1_10350" style="mask-type:luminance" maskUnits="userSpaceOnUse" x="0" y="0" width="33" height="33">
<path d="M0 3.8147e-06H33V33H0V3.8147e-06Z" fill="white"/>
</mask>
<g mask="url(#mask0_1_10350)">
<path d="M12.3989 11.4297L13.6615 12.0592C14.5519 12.5031 15.6025 12.487 16.4789 12.0158L17.0253 11.7221C17.3593 11.5425 17.5647 11.1913 17.5574 10.8122C17.5505 10.4468 17.3468 10.1137 17.0248 9.94073L12.8599 7.70486C11.8465 7.16081 10.5841 7.57137 10.0846 8.60739L9.08607 10.6784C8.39197 12.1181 8.62839 13.8335 9.68606 15.0318L13.3434 19.1751V21.4434" stroke="white" stroke-width="1.5" stroke-miterlimit="10" stroke-linecap="round" stroke-linejoin="round"/>
<path d="M16.7706 11.8583L17.6442 12.9098C18.0129 13.3537 18.2148 13.9127 18.2148 14.4898V16.4883" stroke="white" stroke-width="1.5" stroke-miterlimit="10" stroke-linecap="round" stroke-linejoin="round"/>
<path d="M14.9756 8.83984V5.66218C14.9756 4.93579 14.3867 4.34695 13.6603 4.34695C12.9339 4.34695 12.3451 4.93579 12.3451 5.66218V7.51237" stroke="white" stroke-width="1.5" stroke-miterlimit="10" stroke-linecap="round" stroke-linejoin="round"/>
<path d="M17.1655 10.0322C17.4358 9.79137 17.6062 9.44074 17.6062 9.05022V6.05979C17.6062 5.33334 17.0173 4.74449 16.2909 4.74449C15.5645 4.74449 14.9756 5.33334 14.9756 6.05979V8.8401" stroke="white" stroke-width="1.5" stroke-miterlimit="10" stroke-linecap="round" stroke-linejoin="round"/>
<path d="M18.9214 10.3652C18.1949 10.3652 17.6061 9.77639 17.6061 9.04994V6.44797C17.6061 5.72158 18.1949 5.13267 18.9214 5.13267C19.6478 5.13267 20.2366 5.72158 20.2366 6.44797V9.04994C20.2366 9.77639 19.6478 10.3652 18.9214 10.3652Z" stroke="white" stroke-width="1.5" stroke-miterlimit="10" stroke-linecap="round" stroke-linejoin="round"/>
<path d="M21.552 10.7207C20.8255 10.7207 20.2367 10.1319 20.2367 9.40541V6.88877C20.2367 6.16238 20.8255 5.57354 21.552 5.57354C22.2784 5.57354 22.8672 6.16238 22.8672 6.88877V9.40541C22.8672 10.1319 22.2784 10.7207 21.552 10.7207Z" stroke="white" stroke-width="1.5" stroke-miterlimit="10" stroke-linecap="round" stroke-linejoin="round"/>
<path d="M21.5906 28.6309V19.4826C21.5906 19.3921 21.6147 19.3033 21.6604 19.2252L22.1864 18.3267C22.4809 17.8238 22.6361 17.2515 22.6361 16.6687V15.2036" stroke="white" stroke-width="1.5" stroke-miterlimit="10" stroke-linecap="round" stroke-linejoin="round"/>
<path d="M22.6361 13.1436V10.5081" stroke="white" stroke-width="1.5" stroke-miterlimit="10" stroke-linecap="round" stroke-linejoin="round"/>
<path d="M5.65718 26.5332H4.12854C2.10646 26.5332 0.467285 24.894 0.467285 22.8719V21.2966C0.467285 21.2508 0.50441 21.2137 0.550236 21.2137H9.23555C9.28131 21.2137 9.3185 21.2508 9.3185 21.2966V22.8719C9.3185 24.894 7.67927 26.5332 5.65718 26.5332Z" stroke="white" stroke-width="1.5" stroke-miterlimit="10" stroke-linecap="round" stroke-linejoin="round"/>
<path d="M4.52051 7.71028L4.57852 7.47716C4.64658 7.20297 5.03633 7.20297 5.10432 7.47716L8.51074 21.1484" stroke="white" stroke-width="1.5" stroke-miterlimit="10" stroke-linecap="round" stroke-linejoin="round"/>
<path d="M1.17212 21.1484L3.89797 10.2087" stroke="white" stroke-width="1.5" stroke-miterlimit="10" stroke-linecap="round" stroke-linejoin="round"/>
<path d="M28.1072 21.2137H23.8999C23.7794 21.2137 23.6816 21.3114 23.6816 21.4319V22.8719C23.6816 24.894 25.3209 26.5332 27.343 26.5332H28.8715C30.8936 26.5332 32.5329 24.894 32.5329 22.8719V21.4319C32.5329 21.3114 32.4351 21.2137 32.3146 21.2137H30.1673" stroke="white" stroke-width="1.5" stroke-miterlimit="10" stroke-linecap="round" stroke-linejoin="round"/>
<path d="M27.2152 10.2087L24.4894 21.1484" stroke="white" stroke-width="1.5" stroke-miterlimit="10" stroke-linecap="round" stroke-linejoin="round"/>
<path d="M31.8279 21.1484L28.4215 7.47722C28.3535 7.20297 27.9637 7.20297 27.8957 7.47722L27.8376 7.71029" stroke="white" stroke-width="1.5" stroke-miterlimit="10" stroke-linecap="round" stroke-linejoin="round"/>
<path d="M22.9316 7.71059H31.2848C31.9747 7.71059 32.5339 8.26985 32.5339 8.95975C32.5339 9.64966 31.9747 10.209 31.2848 10.209H22.9316" stroke="white" stroke-width="1.5" stroke-miterlimit="10" stroke-linecap="round" stroke-linejoin="round"/>
<path d="M9.25399 10.209H1.77968C1.08978 10.209 0.530518 9.64966 0.530518 8.95975C0.530518 8.26985 1.08978 7.71059 1.77968 7.71059H10.8058" stroke="white" stroke-width="1.5" stroke-miterlimit="10" stroke-linecap="round" stroke-linejoin="round"/>
</g>
</svg>
