<svg width="90" height="142" viewBox="0 0 90 142" fill="none" xmlns="http://www.w3.org/2000/svg">
<g clip-path="url(#clip0_489_5724)">
<path d="M59.9691 57.3283C56.7775 52.8888 53.0056 49.8472 48.6609 49.8472C45.3052 49.8472 42.3909 51.6954 39.8799 54.6203" stroke="white" stroke-width="3" stroke-miterlimit="10" stroke-linecap="round" stroke-linejoin="round"/>
<path d="M42.7764 63.1258C38.5061 49.4085 33.2924 37.6729 27.1487 37.6729C12.1029 37.6729 4.25793 84.2524 1.35487 106.655C1.13005 108.391 1.97205 110.013 3.09477 110.013H16.2637" stroke="white" stroke-width="3" stroke-miterlimit="10" stroke-linecap="round" stroke-linejoin="round"/>
<path d="M22.0928 110.013H72.2644" stroke="white" stroke-width="3" stroke-miterlimit="10" stroke-linecap="round" stroke-linejoin="round"/>
<path d="M47.5795 80.4276C46.8377 77.5238 46.0537 74.523 45.2275 71.5249" stroke="white" stroke-width="3" stroke-miterlimit="10" stroke-linecap="round" stroke-linejoin="round"/>
<path d="M51.8291 80.9073C55.3078 67.2064 60.2192 51.0537 67.3472 51.0537C79.6784 51.0537 85.866 88.7396 88.6293 106.548C88.9035 108.312 88.0562 110.012 86.9048 110.012H78.0928" stroke="white" stroke-width="3" stroke-miterlimit="10" stroke-linecap="round" stroke-linejoin="round"/>
<path d="M64.6272 110.014C65.9074 110.014 66.7687 107.942 66.2546 106.092C63.6027 96.5518 57.7825 80.3018 48.9025 80.3018C40.1107 80.3018 35.1937 96.526 33.0323 106.279C32.6278 108.104 33.4805 110.014 34.7061 110.014" stroke="white" stroke-width="3" stroke-miterlimit="10" stroke-linecap="round" stroke-linejoin="round"/>
<path d="M44.6602 93.663V93.6416" stroke="white" stroke-width="3" stroke-miterlimit="10" stroke-linecap="round" stroke-linejoin="round"/>
<path d="M11.332 43.0287V43.0073" stroke="white" stroke-width="3" stroke-miterlimit="10" stroke-linecap="round" stroke-linejoin="round"/>
<path d="M60.3223 43.0394V43.0181" stroke="white" stroke-width="3" stroke-miterlimit="10" stroke-linecap="round" stroke-linejoin="round"/>
<path d="M40.8105 37.6942V37.6729" stroke="white" stroke-width="3" stroke-miterlimit="10" stroke-linecap="round" stroke-linejoin="round"/>
<path d="M35.7871 32.0082V31.9868" stroke="white" stroke-width="3" stroke-miterlimit="10" stroke-linecap="round" stroke-linejoin="round"/>
<path d="M81.6553 57.576V57.5547" stroke="white" stroke-width="3" stroke-miterlimit="10" stroke-linecap="round" stroke-linejoin="round"/>
<path d="M49.1133 99.5741V99.5527" stroke="white" stroke-width="3" stroke-miterlimit="10" stroke-linecap="round" stroke-linejoin="round"/>
<path d="M26.1201 55.3387V55.3174" stroke="white" stroke-width="3" stroke-miterlimit="10" stroke-linecap="round" stroke-linejoin="round"/>
<path d="M32.6787 83.0262V83.0049" stroke="white" stroke-width="3" stroke-miterlimit="10" stroke-linecap="round" stroke-linejoin="round"/>
<path d="M11.332 99.5633V99.542" stroke="white" stroke-width="3" stroke-miterlimit="10" stroke-linecap="round" stroke-linejoin="round"/>
<path d="M64.0342 82.4896V82.4683" stroke="white" stroke-width="3" stroke-miterlimit="10" stroke-linecap="round" stroke-linejoin="round"/>
<path d="M64.2188 74.6913V74.6699" stroke="white" stroke-width="3" stroke-miterlimit="10" stroke-linecap="round" stroke-linejoin="round"/>
<path d="M75.9014 96.3793L75.9015 96.3579" stroke="white" stroke-width="3" stroke-miterlimit="10" stroke-linecap="round" stroke-linejoin="round"/>
<path d="M21.4141 63.4501V63.4287" stroke="white" stroke-width="3" stroke-miterlimit="10" stroke-linecap="round" stroke-linejoin="round"/>
</g>
<defs>
<clipPath id="clip0_489_5724">
<rect width="90" height="142" fill="white"/>
</clipPath>
</defs>
</svg>
