<svg width="35" height="35" viewBox="0 0 35 35" fill="none" xmlns="http://www.w3.org/2000/svg">
<mask id="mask0_2_3121" style="mask-type:luminance" maskUnits="userSpaceOnUse" x="0" y="0" width="35" height="35">
<path d="M0 3.8147e-06H35V35H0V3.8147e-06Z" fill="white"/>
</mask>
<g mask="url(#mask0_2_3121)">
<path d="M26.5875 34.4873H6.03971C5.37375 34.4873 4.83398 33.9475 4.83398 33.2816V4.09111C4.83398 3.42522 5.37375 2.88539 6.03971 2.88539H26.5875C27.2534 2.88539 27.7932 3.42522 27.7932 4.09111V33.2816C27.7932 33.9475 27.2534 34.4873 26.5875 34.4873Z" stroke="white" stroke-miterlimit="10" stroke-linecap="round" stroke-linejoin="round"/>
<path d="M24.7968 8.36035H18.1683C17.9049 8.36035 17.6914 8.1468 17.6914 7.88341C17.6914 7.62009 17.9049 7.40653 18.1683 7.40653H24.7968C25.0602 7.40653 25.2737 7.62009 25.2737 7.88341C25.2737 8.1468 25.0602 8.36035 24.7968 8.36035Z" fill="white"/>
<path d="M24.7968 10.5918H18.1683C17.9049 10.5918 17.6914 10.3782 17.6914 10.1149C17.6914 9.85153 17.9049 9.63805 18.1683 9.63805H24.7968C25.0602 9.63805 25.2737 9.85153 25.2737 10.1149C25.2737 10.3782 25.0602 10.5918 24.7968 10.5918Z" fill="white"/>
<path d="M24.7968 12.8223H18.1683C17.9049 12.8223 17.6914 12.6087 17.6914 12.3453C17.6914 12.082 17.9049 11.8684 18.1683 11.8684H24.7968C25.0602 11.8684 25.2737 12.082 25.2737 12.3453C25.2737 12.6087 25.0602 12.8223 24.7968 12.8223Z" fill="white"/>
<path d="M24.7961 25.2725H18.6341C18.3707 25.2725 18.1572 25.059 18.1572 24.7956C18.1572 24.5322 18.3707 24.3187 18.6341 24.3187H24.7961C25.0595 24.3187 25.273 24.5322 25.273 24.7956C25.273 25.059 25.0595 25.2725 24.7961 25.2725Z" fill="white"/>
<path d="M14.4589 20.6191H7.83039C7.567 20.6191 7.35352 20.4056 7.35352 20.1422C7.35352 19.8789 7.567 19.6653 7.83039 19.6653H14.4589C14.7223 19.6653 14.9358 19.8789 14.9358 20.1422C14.9358 20.4056 14.7223 20.6191 14.4589 20.6191Z" fill="white"/>
<path d="M14.4589 18.3887H7.83039C7.567 18.3887 7.35352 18.1751 7.35352 17.9118C7.35352 17.6484 7.567 17.4349 7.83039 17.4349H14.4589C14.7223 17.4349 14.9358 17.6484 14.9358 17.9118C14.9358 18.1751 14.7223 18.3887 14.4589 18.3887Z" fill="white"/>
<path d="M11.7842 5.48235V9.91211H16.2139C16.2139 7.46566 14.2307 5.48235 11.7842 5.48235Z" stroke="white" stroke-miterlimit="10" stroke-linecap="round" stroke-linejoin="round"/>
<path d="M11.7842 5.48222C9.33773 5.48222 7.35449 7.46553 7.35449 9.91197C7.35449 12.3585 9.33773 14.3418 11.7842 14.3418C14.2308 14.3418 16.214 12.3585 16.214 9.91197H11.7842V5.48222Z" stroke="white" stroke-miterlimit="10" stroke-linecap="round" stroke-linejoin="round"/>
<path d="M24.9553 21.6338H16.9918C16.8162 21.6338 16.6738 21.4914 16.6738 21.3158V16.7377C16.6738 16.5621 16.8162 16.4198 16.9918 16.4198H24.9553C25.1309 16.4198 25.2732 16.5621 25.2732 16.7377V21.3158C25.2732 21.4914 25.1309 21.6338 24.9553 21.6338Z" stroke="white" stroke-miterlimit="10" stroke-linecap="round" stroke-linejoin="round"/>
<path d="M9.06448 31.0771H7.67139C7.49584 31.0771 7.35352 30.9348 7.35352 30.7592V23.8047C7.35352 23.6291 7.49584 23.4868 7.67139 23.4868H9.06448C9.24003 23.4868 9.38242 23.6291 9.38242 23.8047V30.7592C9.38242 30.9348 9.24003 31.0771 9.06448 31.0771Z" stroke="white" stroke-miterlimit="10" stroke-linecap="round" stroke-linejoin="round"/>
<path d="M12.8496 31.0771H11.4566C11.281 31.0771 11.1387 30.9348 11.1387 30.7592V25.6295C11.1387 25.4538 11.281 25.3115 11.4566 25.3115H12.8496C13.0253 25.3115 13.1676 25.4538 13.1676 25.6295V30.7592C13.1676 30.9348 13.0253 31.0771 12.8496 31.0771Z" stroke="white" stroke-miterlimit="10" stroke-linecap="round" stroke-linejoin="round"/>
<path d="M16.6349 31.0771H15.2418C15.0662 31.0771 14.9238 30.9348 14.9238 30.7592V27.9028C14.9238 27.7273 15.0662 27.5849 15.2418 27.5849H16.6349C16.8104 27.5849 16.9528 27.7273 16.9528 27.9028V30.7592C16.9528 30.9348 16.8104 31.0771 16.6349 31.0771Z" stroke="white" stroke-miterlimit="10" stroke-linecap="round" stroke-linejoin="round"/>
<path d="M24.7961 27.6162H18.6341C18.3707 27.6162 18.1572 27.4027 18.1572 27.1393C18.1572 26.8759 18.3707 26.6625 18.6341 26.6625H24.7961C25.0595 26.6625 25.273 26.8759 25.273 27.1393C25.273 27.4027 25.0595 27.6162 24.7961 27.6162Z" fill="white"/>
<path d="M24.7961 29.959H18.6341C18.3707 29.959 18.1572 29.7455 18.1572 29.4821C18.1572 29.2187 18.3707 29.0052 18.6341 29.0052H24.7961C25.0595 29.0052 25.273 29.2187 25.273 29.4821C25.273 29.7455 25.0595 29.959 24.7961 29.959Z" fill="white"/>
<path d="M28.9606 0.512338H8.41275C7.74687 0.512338 7.20703 1.05217 7.20703 1.71806V2.88502H26.5879C27.2538 2.88502 27.7936 3.42486 27.7936 4.09075V32.1143H28.9606C29.6265 32.1143 30.1663 31.5744 30.1663 30.9085V1.71806C30.1663 1.05217 29.6265 0.512338 28.9606 0.512338Z" stroke="white" stroke-miterlimit="10" stroke-linecap="round" stroke-linejoin="round"/>
</g>
</svg>
