<svg width="236" height="230" viewBox="0 0 236 230" fill="none" xmlns="http://www.w3.org/2000/svg">
<path opacity="0.05" d="M92.0911 63.4093L118 2.81534L143.909 63.4093C144.401 64.5594 145.667 65.169 146.872 64.8364L210.4 47.3131L179.18 105.349C178.588 106.451 178.9 107.821 179.912 108.556L233.222 147.299L168.382 159.074C167.151 159.298 166.275 160.396 166.331 161.646L169.278 227.481L119.645 184.129C118.703 183.306 117.297 183.306 116.355 184.129L66.7216 227.481L69.6693 161.646C69.7252 160.396 68.8491 159.298 67.6185 159.074L2.77847 147.299L56.088 108.556L55.2061 107.342L56.088 108.556C57.0998 107.821 57.4124 106.451 56.8199 105.349L25.5995 47.3131L89.1277 64.8364C90.3334 65.169 91.5994 64.5594 92.0911 63.4093ZM210.954 46.2832L210.954 46.2845L210.954 46.2832ZM169.331 228.649C169.331 228.649 169.331 228.648 169.331 228.648L169.331 228.649ZM24.4722 47.0021L24.473 47.0023L24.4722 47.0021Z" stroke="#033750" stroke-width="3"/>
</svg>
