<svg width="43" height="43" viewBox="0 0 43 43" fill="none" xmlns="http://www.w3.org/2000/svg">
<path d="M19.9949 41.8438H18.2691C18.115 41.8438 17.9672 41.7826 17.8582 41.6736C17.7492 41.5646 17.688 41.4168 17.688 41.2627C17.688 41.1086 17.7492 40.9608 17.8582 40.8518C17.9672 40.7429 18.115 40.6816 18.2691 40.6816H19.9949C20.149 40.6816 20.2968 40.7429 20.4058 40.8518C20.5147 40.9608 20.576 41.1086 20.576 41.2627C20.576 41.4168 20.5147 41.5646 20.4058 41.6736C20.2968 41.7826 20.149 41.8438 19.9949 41.8438Z" fill="#033750"/>
<path d="M40.0945 41.8436H29.821C29.6669 41.8436 29.5191 41.7823 29.4101 41.6734C29.3012 41.5644 29.2399 41.4166 29.2399 41.2625C29.2399 41.1084 29.3012 40.9606 29.4101 40.8516C29.5191 40.7426 29.6669 40.6814 29.821 40.6814H40.0945C40.2487 40.6814 40.3965 40.6202 40.5054 40.5112C40.6144 40.4022 40.6756 40.2544 40.6756 40.1003V14.8233H2.32427V40.1003C2.32427 40.2544 2.38549 40.4022 2.49447 40.5112C2.60344 40.6202 2.75124 40.6814 2.90535 40.6814H14.2016C14.3557 40.6814 14.5035 40.7426 14.6125 40.8516C14.7214 40.9606 14.7827 41.1084 14.7827 41.2625C14.7827 41.4166 14.7214 41.5644 14.6125 41.6734C14.5035 41.7823 14.3557 41.8436 14.2016 41.8436H2.90535C2.44302 41.8436 1.99962 41.6599 1.67269 41.333C1.34577 41.0061 1.16211 40.5627 1.16211 40.1003V14.2422C1.16211 14.0881 1.22333 13.9403 1.3323 13.8313C1.44128 13.7224 1.58908 13.6611 1.74319 13.6611H41.2567C41.4108 13.6611 41.5586 13.7224 41.6676 13.8313C41.7766 13.9403 41.8378 14.0881 41.8378 14.2422V40.1003C41.8378 40.5627 41.6541 41.0061 41.3272 41.333C41.0003 41.6599 40.5569 41.8436 40.0945 41.8436Z" fill="#033750"/>
<path d="M25.7535 41.8438H24.0625C23.9084 41.8438 23.7606 41.7826 23.6516 41.6736C23.5427 41.5646 23.4814 41.4168 23.4814 41.2627C23.4814 41.1086 23.5427 40.9608 23.6516 40.8518C23.7606 40.7429 23.9084 40.6816 24.0625 40.6816H25.7535C25.9076 40.6816 26.0554 40.7429 26.1644 40.8518C26.2733 40.9608 26.3346 41.1086 26.3346 41.2627C26.3346 41.4168 26.2733 41.5646 26.1644 41.6736C26.0554 41.7826 25.9076 41.8438 25.7535 41.8438Z" fill="#033750"/>
<path d="M41.2567 14.8237H1.74319C1.58908 14.8237 1.44128 14.7625 1.3323 14.6535C1.22333 14.5445 1.16211 14.3967 1.16211 14.2426V6.68856C1.16211 6.22622 1.34577 5.78282 1.67269 5.4559C1.99962 5.12897 2.44302 4.94531 2.90535 4.94531H8.71616C8.87028 4.94531 9.01808 5.00653 9.12705 5.11551C9.23602 5.22448 9.29725 5.37228 9.29725 5.52639C9.29725 5.68051 9.23602 5.82831 9.12705 5.93728C9.01808 6.04625 8.87028 6.10747 8.71616 6.10747H2.90535C2.75124 6.10747 2.60344 6.1687 2.49447 6.27767C2.38549 6.38664 2.32427 6.53444 2.32427 6.68856V13.6615H40.6756V6.68856C40.6756 6.53444 40.6144 6.38664 40.5054 6.27767C40.3965 6.1687 40.2487 6.10747 40.0945 6.10747H34.2837C34.1296 6.10747 33.9818 6.04625 33.8728 5.93728C33.7639 5.82831 33.7027 5.68051 33.7027 5.52639C33.7027 5.37228 33.7639 5.22448 33.8728 5.11551C33.9818 5.00653 34.1296 4.94531 34.2837 4.94531H40.0945C40.5569 4.94531 41.0003 5.12897 41.3272 5.4559C41.6541 5.78282 41.8378 6.22622 41.8378 6.68856V14.2426C41.8378 14.3967 41.7766 14.5445 41.6676 14.6535C41.5586 14.7625 41.4108 14.8237 41.2567 14.8237Z" fill="#033750"/>
<path d="M30.2162 6.10747H12.7837C12.6296 6.10747 12.4818 6.04625 12.3728 5.93728C12.2639 5.82831 12.2026 5.68051 12.2026 5.52639C12.2026 5.37228 12.2639 5.22448 12.3728 5.11551C12.4818 5.00653 12.6296 4.94531 12.7837 4.94531H30.2162C30.3703 4.94531 30.5181 5.00653 30.627 5.11551C30.736 5.22448 30.7972 5.37228 30.7972 5.52639C30.7972 5.68051 30.736 5.82831 30.627 5.93728C30.5181 6.04625 30.3703 6.10747 30.2162 6.10747Z" fill="#033750"/>
<path d="M32.2501 9.91363C31.5566 9.91363 30.8915 9.63813 30.4011 9.14775C29.9107 8.65737 29.6353 7.99227 29.6353 7.29876V3.7594C29.6353 3.06589 29.9107 2.40079 30.4011 1.91041C30.8915 1.42003 31.5566 1.14453 32.2501 1.14453C32.9436 1.14453 33.6087 1.42003 34.0991 1.91041C34.5895 2.40079 34.865 3.06589 34.865 3.7594V7.29876C34.865 7.99227 34.5895 8.65737 34.0991 9.14775C33.6087 9.63813 32.9436 9.91363 32.2501 9.91363ZM32.2501 2.30669C31.8648 2.30669 31.4953 2.45975 31.2229 2.73218C30.9505 3.00461 30.7974 3.37412 30.7974 3.7594V7.29876C30.7974 7.68404 30.9505 8.05354 31.2229 8.32598C31.4953 8.59841 31.8648 8.75146 32.2501 8.75146C32.6354 8.75146 33.0049 8.59841 33.2773 8.32598C33.5498 8.05354 33.7028 7.68404 33.7028 7.29876V3.7594C33.7028 3.37412 33.5498 3.00461 33.2773 2.73218C33.0049 2.45975 32.6354 2.30669 32.2501 2.30669Z" fill="#033750"/>
<path d="M10.7501 9.91363C10.0566 9.91363 9.39151 9.63813 8.90113 9.14775C8.41075 8.65737 8.13525 7.99227 8.13525 7.29876V3.7594C8.13525 3.06589 8.41075 2.40079 8.90113 1.91041C9.39151 1.42003 10.0566 1.14453 10.7501 1.14453C11.4436 1.14453 12.1087 1.42003 12.5991 1.91041C13.0895 2.40079 13.365 3.06589 13.365 3.7594V7.29876C13.365 7.99227 13.0895 8.65737 12.5991 9.14775C12.1087 9.63813 11.4436 9.91363 10.7501 9.91363ZM10.7501 2.30669C10.3648 2.30669 9.99534 2.45975 9.7229 2.73218C9.45047 3.00461 9.29742 3.37412 9.29742 3.7594V7.29876C9.29742 7.68404 9.45047 8.05354 9.7229 8.32598C9.99534 8.59841 10.3648 8.75146 10.7501 8.75146C11.1354 8.75146 11.5049 8.59841 11.7773 8.32598C12.0498 8.05354 12.2028 7.68404 12.2028 7.29876V3.7594C12.2028 3.37412 12.0498 3.00461 11.7773 2.73218C11.5049 2.45975 11.1354 2.30669 10.7501 2.30669Z" fill="#033750"/>
<path d="M37.08 23.197H33.407C33.0988 23.197 32.8032 23.0745 32.5853 22.8566C32.3673 22.6386 32.2449 22.343 32.2449 22.0348V18.3624C32.2449 18.0541 32.3673 17.7585 32.5853 17.5406C32.8032 17.3226 33.0988 17.2002 33.407 17.2002H37.08C37.3883 17.2002 37.6839 17.3226 37.9018 17.5406C38.1198 17.7585 38.2422 18.0541 38.2422 18.3624V22.0348C38.2422 22.343 38.1198 22.6386 37.9018 22.8566C37.6839 23.0745 37.3883 23.197 37.08 23.197ZM33.407 18.3624V22.0348H37.08V18.3624H33.407Z" fill="#033750"/>
<path d="M27.9175 23.197H24.2444C23.9362 23.197 23.6406 23.0745 23.4227 22.8566C23.2047 22.6386 23.0823 22.343 23.0823 22.0348V18.3624C23.0823 18.0541 23.2047 17.7585 23.4227 17.5406C23.6406 17.3226 23.9362 17.2002 24.2444 17.2002H27.9175C28.2257 17.2002 28.5213 17.3226 28.7392 17.5406C28.9572 17.7585 29.0796 18.0541 29.0796 18.3624V22.0348C29.0796 22.343 28.9572 22.6386 28.7392 22.8566C28.5213 23.0745 28.2257 23.197 27.9175 23.197ZM24.2444 18.3624V22.0348H27.9175V18.3624H24.2444Z" fill="#033750"/>
<path d="M18.7549 23.197H15.0818C14.7736 23.197 14.478 23.0745 14.2601 22.8566C14.0421 22.6386 13.9197 22.343 13.9197 22.0348V18.3624C13.9197 18.0541 14.0421 17.7585 14.2601 17.5406C14.478 17.3226 14.7736 17.2002 15.0818 17.2002H18.7549C19.0631 17.2002 19.3587 17.3226 19.5766 17.5406C19.7946 17.7585 19.917 18.0541 19.917 18.3624V22.0348C19.917 22.343 19.7946 22.6386 19.5766 22.8566C19.3587 23.0745 19.0631 23.197 18.7549 23.197ZM15.0818 18.3624V22.0348H18.7549V18.3624H15.0818Z" fill="#033750"/>
<path d="M37.08 30.7507H33.407C33.0988 30.7507 32.8032 30.6282 32.5853 30.4103C32.3673 30.1923 32.2449 29.8967 32.2449 29.5885V25.9161C32.2449 25.6078 32.3673 25.3122 32.5853 25.0943C32.8032 24.8763 33.0988 24.7539 33.407 24.7539H37.08C37.3883 24.7539 37.6839 24.8763 37.9018 25.0943C38.1198 25.3122 38.2422 25.6078 38.2422 25.9161V29.5885C38.2422 29.8967 38.1198 30.1923 37.9018 30.4103C37.6839 30.6282 37.3883 30.7507 37.08 30.7507ZM33.407 25.9161V29.5885H37.08V25.9161H33.407Z" fill="#033750"/>
<path d="M9.59308 30.7507H5.91949C5.61126 30.7507 5.31566 30.6282 5.09771 30.4103C4.87977 30.1923 4.75732 29.8967 4.75732 29.5885V25.9161C4.75732 25.6078 4.87977 25.3122 5.09771 25.0943C5.31566 24.8763 5.61126 24.7539 5.91949 24.7539H9.59308C9.90131 24.7539 10.1969 24.8763 10.4149 25.0943C10.6328 25.3122 10.7552 25.6078 10.7552 25.9161V29.5885C10.7552 29.8967 10.6328 30.1923 10.4149 30.4103C10.1969 30.6282 9.90131 30.7507 9.59308 30.7507ZM5.91949 25.9161V29.5885H9.59308V25.9161H5.91949Z" fill="#033750"/>
<path d="M27.9175 38.3054H24.2444C23.9362 38.3054 23.6406 38.1829 23.4227 37.965C23.2047 37.747 23.0823 37.4514 23.0823 37.1432V33.4708C23.0823 33.1625 23.2047 32.8669 23.4227 32.649C23.6406 32.431 23.9362 32.3086 24.2444 32.3086H27.9175C28.2257 32.3086 28.5213 32.431 28.7392 32.649C28.9572 32.8669 29.0796 33.1625 29.0796 33.4708V37.1432C29.0796 37.4514 28.9572 37.747 28.7392 37.965C28.5213 38.1829 28.2257 38.3054 27.9175 38.3054ZM24.2444 33.4708V37.1432H27.9175V33.4708H24.2444Z" fill="#033750"/>
<path d="M18.7549 38.3054H15.0818C14.7736 38.3054 14.478 38.1829 14.2601 37.965C14.0421 37.747 13.9197 37.4514 13.9197 37.1432V33.4708C13.9197 33.1625 14.0421 32.8669 14.2601 32.649C14.478 32.431 14.7736 32.3086 15.0818 32.3086H18.7549C19.0631 32.3086 19.3587 32.431 19.5766 32.649C19.7946 32.8669 19.917 33.1625 19.917 33.4708V37.1432C19.917 37.4514 19.7946 37.747 19.5766 37.965C19.3587 38.1829 19.0631 38.3054 18.7549 38.3054ZM15.0818 33.4708V37.1432H18.7549V33.4708H15.0818Z" fill="#033750"/>
<path d="M9.59308 38.3054H5.91949C5.61126 38.3054 5.31566 38.1829 5.09771 37.965C4.87977 37.747 4.75732 37.4514 4.75732 37.1432V33.4708C4.75732 33.1625 4.87977 32.8669 5.09771 32.649C5.31566 32.431 5.61126 32.3086 5.91949 32.3086H9.59308C9.90131 32.3086 10.1969 32.431 10.4149 32.649C10.6328 32.8669 10.7552 33.1625 10.7552 33.4708V37.1432C10.7552 37.4514 10.6328 37.747 10.4149 37.965C10.1969 38.1829 9.90131 38.3054 9.59308 38.3054ZM5.91949 33.4708V37.1432H9.59308V33.4708H5.91949Z" fill="#033750"/>
<path d="M25.3293 29.646C25.1752 29.6459 25.0274 29.5847 24.9185 29.4757L23.7964 28.3571C23.6906 28.2475 23.632 28.1007 23.6333 27.9484C23.6346 27.796 23.6958 27.6503 23.8035 27.5425C23.9112 27.4348 24.057 27.3737 24.2093 27.3724C24.3617 27.371 24.5085 27.4296 24.6181 27.5355L25.3293 28.2409L27.5432 26.0264C27.6528 25.9205 27.7996 25.862 27.952 25.8633C28.1043 25.8646 28.2501 25.9257 28.3578 26.0335C28.4655 26.1412 28.5266 26.287 28.528 26.4393C28.5293 26.5917 28.4707 26.7385 28.3649 26.848L25.7419 29.4757C25.6877 29.5299 25.6234 29.5728 25.5526 29.602C25.4818 29.6312 25.4059 29.6462 25.3293 29.646Z" fill="#033750"/>
<path d="M16.1662 29.646C16.0121 29.6459 15.8643 29.5847 15.7554 29.4757L14.6345 28.3571C14.5803 28.3031 14.5374 28.239 14.508 28.1684C14.4787 28.0978 14.4635 28.0221 14.4634 27.9457C14.4633 27.8692 14.4782 27.7935 14.5074 27.7228C14.5365 27.6521 14.5793 27.5879 14.6333 27.5337C14.6873 27.4796 14.7514 27.4366 14.822 27.4072C14.8926 27.3779 14.9683 27.3627 15.0448 27.3626C15.1212 27.3625 15.197 27.3775 15.2677 27.4066C15.3383 27.4358 15.4026 27.4786 15.4567 27.5326L16.1662 28.2409L18.3813 26.0264C18.4909 25.9205 18.6377 25.862 18.79 25.8633C18.9424 25.8646 19.0881 25.9257 19.1959 26.0335C19.3036 26.1412 19.3647 26.287 19.366 26.4393C19.3674 26.5917 19.3088 26.7385 19.203 26.848L16.577 29.4734C16.5233 29.5278 16.4593 29.571 16.3888 29.6006C16.3183 29.6302 16.2427 29.6456 16.1662 29.646Z" fill="#033750"/>
</svg>
