<svg width="21" height="17" viewBox="0 0 21 17" fill="none" xmlns="http://www.w3.org/2000/svg">
<path d="M-6.36839e-05 8.48273C-6.3712e-05 8.16144 0.129745 7.85331 0.360807 7.62612C0.591867 7.39893 0.905252 7.2713 1.23202 7.2713L16.3251 7.2713L11.0353 2.07121C10.8038 1.84363 10.6738 1.53496 10.6738 1.21311C10.6738 0.891263 10.8038 0.582595 11.0353 0.355014C11.2668 0.127431 11.5807 -0.000424556 11.908 -0.000424584C12.2354 -0.000424613 12.5493 0.127431 12.7808 0.355014L20.1733 7.62362C20.2881 7.73617 20.3793 7.8699 20.4414 8.01715C20.5036 8.16441 20.5356 8.32228 20.5356 8.48172C20.5356 8.64116 20.5036 8.79904 20.4414 8.94629C20.3793 9.09354 20.2881 9.22727 20.1733 9.33982L12.7808 16.6084C12.6661 16.7211 12.5301 16.8105 12.3803 16.8715C12.2306 16.9325 12.0701 16.9639 11.908 16.9639C11.746 16.9639 11.5855 16.9325 11.4357 16.8715C11.286 16.8105 11.1499 16.7211 11.0353 16.6084C10.9207 16.4957 10.8298 16.362 10.7678 16.2147C10.7057 16.0675 10.6738 15.9097 10.6738 15.7503C10.6738 15.591 10.7057 15.4332 10.7678 15.2859C10.8298 15.1387 10.9207 15.0049 11.0353 14.8922L16.3251 9.69417L1.23202 9.69417C0.905252 9.69417 0.591867 9.56654 0.360807 9.33935C0.129745 9.11216 -6.36559e-05 8.80402 -6.36839e-05 8.48273Z" fill="#488253"/>
</svg>
