<svg width="21" height="18" viewBox="0 0 21 18" fill="none" xmlns="http://www.w3.org/2000/svg">
<path d="M20.7144 9.44525C20.7144 9.76654 20.5846 10.0747 20.3535 10.3019C20.1225 10.529 19.8091 10.6567 19.4823 10.6567L4.3893 10.6567L9.67905 15.8568C9.91051 16.0843 10.0405 16.393 10.0405 16.7149C10.0405 17.0367 9.91051 17.3454 9.67905 17.573C9.44759 17.8005 9.13366 17.9284 8.80632 17.9284C8.47899 17.9284 8.16506 17.8005 7.9336 17.573L0.541094 10.3044C0.426231 10.1918 0.335093 10.0581 0.272907 9.91082C0.210722 9.76357 0.178711 9.6057 0.178711 9.44626C0.178711 9.28681 0.210722 9.12894 0.272907 8.98169C0.335093 8.83444 0.426231 8.7007 0.541094 8.58816L7.9336 1.31955C8.04821 1.20686 8.18427 1.11747 8.33401 1.05649C8.48375 0.9955 8.64424 0.964111 8.80632 0.964111C8.9684 0.964111 9.1289 0.9955 9.27864 1.05649C9.42838 1.11747 9.56444 1.20686 9.67905 1.31955C9.79366 1.43223 9.88457 1.56601 9.9466 1.71325C10.0086 1.86048 10.0405 2.01828 10.0405 2.17765C10.0405 2.33701 10.0086 2.49481 9.9466 2.64205C9.88457 2.78928 9.79366 2.92306 9.67905 3.03575L4.3893 8.23381L19.4823 8.23381C19.8091 8.23381 20.1225 8.36144 20.3535 8.58863C20.5846 8.81582 20.7144 9.12396 20.7144 9.44525Z" fill="#488253"/>
</svg>
