<svg width="33" height="33" viewBox="0 0 33 33" fill="none" xmlns="http://www.w3.org/2000/svg">
<path d="M27.8438 5.15625H5.15625C4.60924 5.15625 4.08464 5.37355 3.69784 5.76034C3.31105 6.14714 3.09375 6.67174 3.09375 7.21875V25.7812C3.09375 26.3283 3.31105 26.8529 3.69784 27.2397C4.08464 27.6265 4.60924 27.8438 5.15625 27.8438H27.8438C28.3908 27.8438 28.9154 27.6265 29.3022 27.2397C29.689 26.8529 29.9062 26.3283 29.9062 25.7812V7.21875C29.9062 6.67174 29.689 6.14714 29.3022 5.76034C28.9154 5.37355 28.3908 5.15625 27.8438 5.15625ZM27.8438 15.4688H21.6562V7.21875H27.8438V15.4688ZM5.15625 7.21875H19.5938V25.7812H5.15625V7.21875ZM27.8438 25.7812H21.6562V17.5312H27.8438V25.7812ZM23.2031 11.3438C23.2031 11.0378 23.2938 10.7387 23.4638 10.4844C23.6338 10.23 23.8754 10.0317 24.158 9.91462C24.4407 9.79754 24.7517 9.76691 25.0518 9.8266C25.3518 9.88628 25.6275 10.0336 25.8438 10.2499C26.0601 10.4663 26.2075 10.7419 26.2672 11.042C26.3268 11.342 26.2962 11.6531 26.1791 11.9357C26.062 12.2184 25.8638 12.46 25.6094 12.6299C25.355 12.7999 25.0559 12.8906 24.75 12.8906C24.3397 12.8906 23.9463 12.7277 23.6562 12.4376C23.3661 12.1475 23.2031 11.754 23.2031 11.3438ZM26.2969 21.6562C26.2969 21.9622 26.2062 22.2613 26.0362 22.5156C25.8662 22.77 25.6246 22.9683 25.342 23.0854C25.0593 23.2025 24.7483 23.2331 24.4482 23.1734C24.1482 23.1137 23.8725 22.9664 23.6562 22.7501C23.4399 22.5337 23.2925 22.2581 23.2328 21.958C23.1732 21.658 23.2038 21.3469 23.3209 21.0643C23.438 20.7816 23.6362 20.54 23.8906 20.3701C24.145 20.2001 24.4441 20.1094 24.75 20.1094C25.1603 20.1094 25.5537 20.2723 25.8438 20.5624C26.1339 20.8525 26.2969 21.246 26.2969 21.6562ZM17.499 21.3984C17.1653 20.1524 16.374 19.0781 15.2831 18.3898C15.8625 17.8139 16.2578 17.0789 16.4189 16.2781C16.5801 15.4772 16.4998 14.6466 16.1883 13.8914C15.8769 13.1362 15.3482 12.4905 14.6693 12.0362C13.9904 11.5818 13.1919 11.3393 12.375 11.3393C11.5581 11.3393 10.7596 11.5818 10.0807 12.0362C9.40184 12.4905 8.87314 13.1362 8.56165 13.8914C8.25016 14.6466 8.16991 15.4772 8.33107 16.2781C8.49222 17.0789 8.88753 17.8139 9.46688 18.3898C8.37666 19.0788 7.58562 20.1529 7.25098 21.3984C7.1826 21.6634 7.22228 21.9447 7.36128 22.1804C7.50029 22.4161 7.72723 22.5869 7.99219 22.6553C8.25714 22.7236 8.53841 22.684 8.77412 22.545C9.00982 22.406 9.18065 22.179 9.24902 21.9141C9.58934 20.5928 10.9325 19.5938 12.375 19.5938C13.8175 19.5938 15.162 20.5902 15.501 21.9141C15.5694 22.179 15.7402 22.406 15.9759 22.545C16.2116 22.684 16.4929 22.7236 16.7578 22.6553C17.0228 22.5869 17.2497 22.4161 17.3887 22.1804C17.5277 21.9447 17.5674 21.6634 17.499 21.3984ZM10.3125 15.4688C10.3125 15.0608 10.4335 14.6621 10.6601 14.3229C10.8867 13.9837 11.2088 13.7194 11.5857 13.5632C11.9626 13.4071 12.3773 13.3663 12.7774 13.4459C13.1775 13.5255 13.545 13.7219 13.8334 14.0103C14.1219 14.2988 14.3183 14.6663 14.3979 15.0664C14.4775 15.4665 14.4366 15.8812 14.2805 16.258C14.1244 16.6349 13.86 16.957 13.5209 17.1837C13.1817 17.4103 12.7829 17.5312 12.375 17.5312C11.828 17.5312 11.3034 17.314 10.9166 16.9272C10.5298 16.5404 10.3125 16.0158 10.3125 15.4688Z" fill="white"/>
</svg>
