<svg width="22" height="21" viewBox="0 0 22 21" fill="none" xmlns="http://www.w3.org/2000/svg">
<g clip-path="url(#clip0_42_1224)">
<path d="M17.4077 2.80859H4.87445C2.59262 2.80859 0.736328 4.67083 0.736328 6.95946V13.9459C0.736328 16.235 2.59262 18.0968 4.87445 18.0968H17.4077C19.6896 18.0968 21.5459 16.2346 21.5459 13.9459V6.95946C21.5459 4.67083 19.6896 2.80859 17.4077 2.80859ZM20.6965 13.9464C20.6965 15.767 19.2211 17.2479 17.4077 17.2479H4.87445C3.06105 17.2479 1.5857 15.7666 1.5857 13.9464V6.95946C1.5857 5.13926 3.06105 3.65796 4.87445 3.65796H17.4077C19.2211 3.65796 20.6965 5.13926 20.6965 6.95946V13.9464Z" fill="#033750"/>
<path d="M14.9038 10.2993L9.01976 6.853C8.88896 6.77656 8.72631 6.77529 8.59423 6.85088C8.46215 6.92647 8.38062 7.06705 8.38062 7.21951V14.1117C8.38062 14.2637 8.46215 14.4047 8.59381 14.4803C8.65921 14.5177 8.73225 14.5364 8.8053 14.5364C8.87962 14.5364 8.95351 14.5169 9.01976 14.4782L14.9038 11.0327C15.0337 10.9567 15.114 10.817 15.114 10.6662C15.114 10.5155 15.0341 10.3753 14.9038 10.2993ZM9.22998 13.3706V7.96016L13.8488 10.6658L9.22998 13.3706Z" fill="#033750"/>
</g>
<defs>
<clipPath id="clip0_42_1224">
<rect width="20.8095" height="20.8095" fill="white" transform="translate(0.736328 0.0478516)"/>
</clipPath>
</defs>
</svg>
